<svg xmlns="http://www.w3.org/2000/svg" width="128" height="128" viewBox="0 0 128 128" version="1.1"><path d="" stroke="none" fill="#080404" fill-rule="evenodd"/><path d="M 80.667 17.667 C 79.144 19.189, 80.229 21.023, 83.975 23.257 L 87.950 25.627 48.725 34.976 C 27.151 40.117, 8.685 44.732, 7.689 45.230 C 5.271 46.439, 6.063 48.442, 9.077 48.738 C 10.410 48.870, 28.938 44.779, 50.250 39.648 C 71.563 34.517, 89 30.532, 89 30.792 C 89 31.051, 88.056 32.791, 86.903 34.657 C 84.710 38.206, 84.921 41, 87.382 41 C 88.679 41, 97 28.021, 97 25.999 C 97 25.165, 83.461 17, 82.079 17 C 81.669 17, 81.033 17.300, 80.667 17.667 M 97.457 44.863 C 85.397 52.217, 90.279 71.345, 104.212 71.328 C 115.617 71.314, 122.288 60.732, 117.394 50.417 C 114.144 43.568, 104.147 40.784, 97.457 44.863 M 102.374 47.763 C 99.241 48.269, 96.003 52.210, 95.334 56.330 C 94.815 59.530, 95.168 60.368, 98.400 63.600 C 101.659 66.859, 102.455 67.189, 105.777 66.660 C 115.832 65.059, 117.172 50.698, 107.500 48.196 C 105.850 47.770, 103.543 47.575, 102.374 47.763 M 53.418 51.915 C 52.274 52.408, 50.136 54.238, 48.668 55.982 C 43.404 62.239, 45.798 72.330, 53.295 75.482 L 56.260 76.729 52.380 77.432 C 50.246 77.818, 46.883 79.189, 44.906 80.478 C 39.601 83.938, 38 88.172, 38 98.746 C 38 111.341, 37.425 111, 58.674 111 C 79.583 111, 79 111.356, 79 98.572 C 79 88.184, 77.373 83.920, 72.094 80.478 C 70.117 79.189, 66.754 77.818, 64.620 77.432 L 60.740 76.729 63.705 75.482 C 68.481 73.474, 71 69.457, 71 63.850 C 71 59.729, 70.490 58.414, 67.716 55.387 C 65.081 52.512, 63.548 51.726, 59.966 51.411 C 57.510 51.196, 54.563 51.423, 53.418 51.915 M 53.736 57.250 C 49.443 60.510, 49.660 67.248, 54.159 70.399 C 60.477 74.824, 68.442 68.434, 65.856 61.016 C 65.269 59.334, 63.967 57.517, 62.961 56.979 C 60.417 55.618, 55.703 55.756, 53.736 57.250 M 13.096 60.265 C 4.669 64.596, 4.669 76.404, 13.096 80.735 L 15.500 81.971 12.500 81.992 C 8.855 82.018, 4.439 84.787, 1.898 88.641 C 0.440 90.852, 0.012 93.353, 0.007 99.679 C -0.003 111.180, -0.289 111, 18.015 111 C 32.249 111, 32.953 110.905, 34.443 108.777 C 36.637 105.646, 36.522 94.544, 34.248 90.020 C 32.192 85.927, 26.784 82.017, 23.102 81.960 L 20.500 81.920 23.237 80.435 C 31.048 76.197, 30.570 63.808, 22.466 60.421 C 18.318 58.688, 16.232 58.653, 13.096 60.265 M 13.039 66.189 C 11.918 67.392, 11 69.339, 11 70.514 C 11 73.231, 14.960 77, 17.814 77 C 23.285 77, 26.180 68.640, 21.777 65.557 C 18.673 63.383, 15.435 63.617, 13.039 66.189 M 92.459 74.833 C 84.193 78.683, 81.015 85.143, 81.006 98.115 C 81.001 104.310, 81.386 106.222, 83.073 108.365 L 85.145 111 104.350 111 C 129.054 111, 128 111.606, 128 97.403 C 128 84.935, 126.303 80.554, 119.807 76.251 C 116.110 73.802, 114.601 73.470, 106.077 73.225 C 98.387 73.004, 95.704 73.321, 92.459 74.833 M 95 78.706 C 92.668 79.559, 88.954 83.223, 87.405 86.200 C 86.518 87.904, 86 92.056, 86 97.450 L 86 106 89.952 106 L 93.905 106 94.202 99.750 C 94.464 94.266, 94.745 93.500, 96.500 93.500 C 98.255 93.500, 98.536 94.266, 98.798 99.750 L 99.095 106 105 106 L 110.905 106 111.202 99.750 C 111.429 94.993, 111.858 93.500, 113 93.500 C 114.143 93.500, 114.571 95, 114.799 99.805 L 115.098 106.110 119.299 105.805 L 123.500 105.500 123.794 98.244 C 124.158 89.263, 121.780 83.056, 116.818 80.030 C 114.140 78.397, 111.862 78.022, 105 78.083 C 100.325 78.124, 95.825 78.405, 95 78.706 M 48.314 83.950 C 43.809 86.697, 42.735 89.333, 42.610 97.946 L 42.500 105.500 45.696 105.809 L 48.891 106.119 49.196 100.809 C 49.456 96.268, 49.789 95.500, 51.500 95.500 C 53.208 95.500, 53.544 96.267, 53.802 100.750 L 54.105 106 58.500 106 L 62.895 106 63.198 100.750 C 63.456 96.267, 63.792 95.500, 65.500 95.500 C 67.211 95.500, 67.544 96.268, 67.804 100.809 L 68.109 106.119 71.304 105.809 L 74.500 105.500 74.390 97.946 C 74.330 93.792, 73.739 89.380, 73.076 88.143 C 70.854 83.990, 66.144 82.007, 58.500 82.007 C 53.329 82.007, 50.668 82.515, 48.314 83.950 M 10.213 87.452 C 6.179 89.272, 4 94.011, 4 100.968 C 4 105.669, 4.165 106, 6.500 106 C 8.728 106, 9 105.587, 9 102.200 C 9 98.064, 10.452 95.853, 12.622 96.685 C 13.503 97.023, 14 98.797, 14 101.607 C 14 105.961, 14.031 106, 17.500 106 C 20.886 106, 21 105.876, 21 102.200 C 21 98.064, 22.452 95.853, 24.622 96.685 C 25.503 97.023, 26 98.797, 26 101.607 C 26 105.626, 26.213 106, 28.500 106 C 30.910 106, 31 105.766, 31 99.516 C 31 93.799, 30.663 92.654, 28.149 89.840 C 25.655 87.049, 24.558 86.606, 19.399 86.309 C 15.650 86.092, 12.302 86.509, 10.213 87.452" stroke="none" fill="#040404" fill-rule="evenodd"/></svg>