<?xml version="1.0" standalone="no"?>
<!DOCTYPE svg PUBLIC "-//W3C//DTD SVG 20010904//EN"
 "http://www.w3.org/TR/2001/REC-SVG-20010904/DTD/svg10.dtd">
<svg version="1.0" xmlns="http://www.w3.org/2000/svg"
 width="128.000000pt" height="128.000000pt" viewBox="0 0 128.000000 128.000000"
 preserveAspectRatio="xMidYMid meet">

<g transform="translate(0.000000,128.000000) scale(0.100000,-0.100000)"
fill="#000000" stroke="none">
<path d="M613 1270 c-12 -5 -29 -20 -38 -34 -11 -17 -33 -28 -68 -37 -63 -15
-121 -39 -173 -72 -31 -19 -44 -22 -66 -15 -57 19 -108 -33 -95 -99 3 -18 -2
-37 -15 -56 -19 -27 -19 -57 1 -57 5 0 18 13 27 29 14 24 25 30 63 33 63 6 71
1 71 -41 0 -23 7 -45 19 -58 18 -19 19 -28 11 -84 -5 -35 -14 -65 -21 -68 -6
-2 -21 -14 -32 -27 -17 -20 -30 -24 -79 -24 -52 0 -62 3 -83 28 -29 32 -30 54
-10 113 11 31 12 46 5 53 -16 16 -36 -15 -51 -77 -8 -35 -22 -61 -45 -83 -41
-38 -44 -75 -9 -109 13 -14 29 -25 35 -25 5 0 10 -10 10 -22 1 -36 45 -154 78
-206 23 -37 29 -55 25 -85 -7 -55 26 -90 82 -86 30 3 60 -7 125 -38 47 -23
104 -45 128 -49 26 -4 48 -14 55 -25 19 -30 36 -22 39 17 4 43 29 65 56 48 23
-15 28 -62 8 -70 -9 -3 -16 -12 -16 -19 0 -29 22 -25 53 8 22 23 45 37 72 41
22 4 78 26 125 49 65 31 95 41 125 38 56 -4 89 31 82 86 -4 30 2 48 25 85 33
52 77 170 78 206 0 12 5 22 10 22 6 0 22 11 35 25 36 35 32 71 -10 111 -19 18
-35 37 -35 42 0 29 -44 145 -73 194 -24 39 -33 64 -30 82 13 65 -39 117 -95
98 -22 -7 -35 -4 -66 15 -50 32 -109 57 -171 72 -32 8 -59 23 -75 41 -29 33
-56 42 -87 30z m57 -44 c6 -8 10 -25 8 -38 -2 -19 -9 -23 -38 -23 -29 0 -36 4
-38 23 -4 28 14 52 38 52 10 0 23 -7 30 -14z m-189 -101 c-17 -20 -42 -58 -56
-84 -18 -36 -31 -50 -52 -54 -36 -7 -47 4 -49 52 -2 38 -1 40 58 71 54 29 98
47 122 49 4 1 -6 -15 -23 -34z m410 -11 c64 -34 65 -35 64 -74 -1 -49 -12 -60
-48 -53 -21 4 -34 18 -52 54 -14 26 -39 64 -57 84 l-31 36 29 -7 c16 -3 58
-22 95 -40z m-296 20 c23 -15 25 -22 25 -94 0 -74 -2 -80 -31 -109 -29 -30
-33 -31 -70 -21 -22 6 -43 19 -46 28 -3 9 -12 24 -20 34 -13 14 -12 21 7 57
23 45 87 121 102 121 5 0 20 -7 33 -16z m168 -24 c20 -21 46 -58 57 -81 19
-36 20 -43 7 -57 -8 -10 -17 -25 -20 -34 -3 -9 -24 -22 -46 -28 -37 -10 -41
-9 -70 21 -29 29 -31 35 -31 109 0 69 2 79 23 93 33 23 41 21 80 -23z m-488
-43 c39 -29 -6 -89 -49 -65 -29 16 -14 78 19 78 6 0 19 -6 30 -13z m783 1 c17
-17 15 -55 -4 -66 -43 -24 -88 36 -49 65 23 16 37 17 53 1z m-15 -108 c27 0
36 -7 60 -44 30 -48 67 -148 67 -180 -1 -26 -39 -71 -69 -81 -25 -8 -27 -23
-4 -32 10 -4 32 -21 49 -38 l31 -31 -17 -60 c-9 -32 -31 -87 -50 -122 -29 -55
-37 -63 -56 -58 -12 3 -34 2 -47 -3 -29 -11 -47 2 -47 34 0 12 -9 31 -20 43
-18 19 -20 30 -14 86 6 57 11 70 45 105 20 23 42 41 48 41 6 0 11 4 11 10 0
10 -66 77 -81 82 -6 2 -14 32 -19 68 -8 58 -7 67 10 85 12 13 20 35 20 57 0
36 13 50 38 42 8 -2 28 -4 45 -4z m-619 -16 c9 -8 16 -22 16 -29 0 -17 -27
-45 -44 -45 -35 0 -49 61 -18 79 23 14 28 14 46 -5z m477 6 c23 -13 25 -52 4
-70 -12 -10 -21 -10 -40 -2 -29 13 -33 43 -9 66 18 19 20 19 45 6z m-233 -42
c34 -34 -6 -90 -48 -68 -35 19 -20 80 20 80 9 0 21 -5 28 -12z m-85 -81 c48
-52 50 -92 6 -136 -27 -28 -37 -31 -89 -31 -52 0 -62 3 -90 31 -30 30 -30 33
-23 88 7 47 12 57 29 59 12 2 30 12 40 23 27 30 80 16 127 -34z m241 34 c10
-11 28 -21 40 -23 17 -2 22 -12 29 -59 7 -55 7 -58 -23 -88 -28 -28 -38 -31
-90 -31 -52 0 -62 3 -89 31 -44 44 -42 84 7 136 32 36 52 46 98 52 6 0 19 -8
28 -18z m-716 -193 c34 -34 -6 -90 -48 -68 -35 19 -20 80 20 80 9 0 21 -5 28
-12z m282 -3 c7 -8 10 -25 6 -39 -11 -44 -76 -38 -76 7 0 43 44 63 70 32z
m278 3 c34 -34 -6 -90 -48 -68 -35 19 -20 80 20 80 9 0 21 -5 28 -12z m280 0
c17 -17 15 -55 -4 -66 -25 -14 -53 -3 -60 24 -11 42 34 72 64 42z m280 0 c34
-34 -6 -90 -48 -68 -35 19 -20 80 20 80 9 0 21 -5 28 -12z m-919 -89 c34 -35
39 -48 45 -104 6 -57 4 -67 -14 -85 -11 -11 -20 -30 -20 -43 0 -34 -18 -47
-47 -36 -13 5 -35 6 -47 3 -20 -5 -27 3 -59 64 -20 38 -43 93 -50 123 l-14 53
31 32 c27 29 38 33 84 33 50 1 56 -2 91 -40z m276 6 c47 -47 48 -89 1 -138
-45 -47 -105 -64 -151 -43 -34 16 -35 20 -50 108 -5 33 -2 42 27 72 29 31 39
35 86 35 47 1 56 -3 87 -34z m281 0 c31 -31 34 -39 29 -73 -15 -88 -16 -92
-50 -108 -46 -21 -106 -4 -151 43 -46 48 -46 91 -1 138 28 30 38 34 85 34 47
1 56 -3 88 -34z m-196 -159 c6 -8 10 -25 8 -38 -2 -19 -9 -23 -38 -23 -29 0
-36 4 -38 23 -4 28 14 52 38 52 10 0 23 -7 30 -14z m-246 -62 c9 -8 16 -22 16
-29 0 -13 -26 -45 -36 -45 -19 0 -44 24 -44 43 0 43 35 60 64 31z m484 4 c31
-31 -3 -87 -42 -72 -26 10 -32 55 -11 71 23 16 37 17 53 1z m-319 -27 c30 -28
31 -32 31 -108 -1 -72 -3 -79 -26 -97 -25 -18 -27 -18 -52 1 -36 26 -94 124
-86 143 4 8 12 29 18 47 10 30 22 38 67 42 9 0 31 -12 48 -28z m180 23 c19 -4
31 -13 31 -23 0 -9 7 -29 15 -44 13 -26 13 -32 -1 -60 -24 -47 -62 -95 -84
-107 -16 -8 -26 -7 -45 7 -22 16 -24 25 -25 97 0 72 2 80 28 106 30 31 37 33
81 24z m-489 -99 c7 -8 10 -25 6 -39 -11 -44 -76 -38 -76 7 0 43 44 63 70 32z
m75 5 c3 -5 17 -10 30 -10 17 0 29 -9 39 -29 8 -15 31 -49 50 -74 l34 -45 -27
8 c-39 11 -112 45 -136 63 -22 17 -30 97 -9 97 7 0 16 -4 19 -10z m600 -28 c0
-20 -4 -42 -7 -48 -9 -13 -104 -61 -145 -73 l-31 -9 34 45 c19 25 42 59 50 74
10 20 22 29 39 29 13 0 27 5 30 10 15 24 31 9 30 -28z m103 26 c17 -17 15 -55
-4 -66 -25 -14 -53 -3 -60 24 -11 42 34 72 64 42z"/>
</g>
</svg>
