<?xml version="1.0" standalone="no"?>
<!DOCTYPE svg PUBLIC "-//W3C//DTD SVG 20010904//EN"
 "http://www.w3.org/TR/2001/REC-SVG-20010904/DTD/svg10.dtd">
<svg version="1.0" xmlns="http://www.w3.org/2000/svg"
 width="128.000000pt" height="128.000000pt" viewBox="0 0 128.000000 128.000000"
 preserveAspectRatio="xMidYMid meet">

<g transform="translate(0.000000,128.000000) scale(0.100000,-0.100000)"
fill="#000000" stroke="none">
<path d="M780 1240 c-14 -14 -33 -20 -66 -20 -37 0 -47 -4 -51 -20 -5 -18 -15
-20 -142 -22 l-136 -3 -3 -216 -2 -216 -48 -7 c-115 -15 -227 -100 -279 -211
-24 -51 -28 -73 -28 -145 0 -72 4 -94 28 -146 36 -77 104 -145 182 -181 l60
-28 480 0 480 0 0 575 0 575 -136 3 c-127 2 -137 4 -142 22 -4 16 -14 20 -51
20 -33 0 -52 6 -66 20 -11 11 -29 20 -40 20 -11 0 -29 -9 -40 -20z m60 -40 c8
-15 21 -20 55 -20 l45 0 0 -40 0 -40 -120 0 -120 0 0 40 0 40 45 0 c34 0 47 5
55 20 6 11 15 20 20 20 5 0 14 -9 20 -20z m-178 -97 l3 -38 155 0 155 0 3 38
3 37 120 0 119 0 0 -540 0 -540 -337 0 c-332 0 -337 0 -308 18 46 29 105 99
133 161 38 81 38 202 0 283 -48 104 -135 178 -246 207 l-42 12 0 199 0 200
119 0 120 0 3 -37z m-282 -429 c0 -40 29 -92 68 -122 28 -22 46 -27 91 -26 36
0 65 6 82 17 l26 18 22 -46 c35 -75 35 -75 -84 -75 -92 0 -108 -3 -125 -20
-24 -24 -25 -49 -6 -76 11 -15 30 -20 88 -24 56 -4 73 -8 73 -20 0 -12 -23
-16 -123 -20 -107 -4 -126 -8 -138 -24 -19 -27 -18 -52 6 -76 18 -18 34 -20
138 -20 l117 0 -25 -21 c-77 -61 -189 -91 -275 -72 l-40 9 0 56 c0 49 -4 61
-29 87 -34 35 -82 48 -126 33 -29 -11 -30 -10 -43 36 l-14 47 134 5 c118 4
136 7 149 24 18 25 18 47 0 72 -12 15 -30 20 -98 24 -65 4 -83 8 -83 20 0 11
15 17 54 20 36 4 58 12 67 25 34 46 -1 95 -67 95 -48 0 -44 12 14 42 52 26 84
36 120 37 23 1 27 -3 27 -25z m140 -9 c19 -9 50 -29 69 -43 l34 -25 -23 -19
c-28 -23 -83 -23 -121 -1 -30 18 -59 67 -59 101 0 17 4 19 33 13 17 -5 48 -16
67 -26z m-265 -105 c0 -11 -15 -17 -54 -20 -73 -8 -102 -48 -67 -96 12 -15 30
-20 98 -24 65 -4 83 -8 83 -20 0 -12 -22 -15 -129 -18 l-129 -3 6 46 c6 42 36
113 60 143 15 19 132 12 132 -8z m442 -213 c-3 -29 -15 -74 -28 -100 l-23 -48
-131 3 c-108 3 -130 6 -130 18 0 12 23 16 123 20 107 4 126 8 138 24 19 27 18
52 -6 76 -16 16 -33 20 -84 20 -63 0 -84 9 -71 30 3 6 52 10 112 10 l106 0 -6
-53z m-482 -152 c25 -24 34 -78 16 -89 -5 -3 -29 10 -54 29 -67 51 -73 85 -16
85 18 0 39 -9 54 -25z"/>
<path d="M464 1027 c-3 -8 -4 -34 -2 -58 l3 -44 55 0 55 0 0 55 0 55 -53 3
c-38 2 -54 -1 -58 -11z m76 -47 c0 -13 -7 -20 -20 -20 -13 0 -20 7 -20 20 0
13 7 20 20 20 13 0 20 -7 20 -20z"/>
<path d="M620 980 c0 -19 7 -20 240 -20 233 0 240 1 240 20 0 19 -7 20 -240
20 -233 0 -240 -1 -240 -20z"/>
<path d="M464 867 c-3 -8 -4 -34 -2 -58 l3 -44 55 0 55 0 0 55 0 55 -53 3
c-38 2 -54 -1 -58 -11z m76 -47 c0 -13 -7 -20 -20 -20 -13 0 -20 7 -20 20 0
13 7 20 20 20 13 0 20 -7 20 -20z"/>
<path d="M620 820 c0 -19 7 -20 240 -20 233 0 240 1 240 20 0 19 -7 20 -240
20 -233 0 -240 -1 -240 -20z"/>
<path d="M1072 397 l-72 -72 -31 38 c-17 20 -35 37 -41 37 -21 0 -157 -122
-151 -136 9 -23 22 -17 85 37 l59 52 40 -39 39 -38 86 85 c69 69 83 88 72 97
-11 9 -29 -4 -86 -61z"/>
<path d="M1080 230 c0 -83 -1 -90 -20 -90 -17 0 -20 7 -20 50 0 43 -3 50 -20
50 -17 0 -20 -7 -20 -50 0 -43 -3 -50 -20 -50 -18 0 -20 7 -20 60 0 53 -2 60
-20 60 -18 0 -20 -7 -20 -60 0 -53 -2 -60 -20 -60 -16 0 -20 7 -20 30 0 23 -4
30 -20 30 -16 0 -20 -7 -20 -30 0 -27 -3 -30 -30 -30 -23 0 -30 -4 -30 -20 0
-19 7 -20 200 -20 193 0 200 1 200 20 0 16 -7 20 -30 20 l-30 0 0 90 c0 83 -1
90 -20 90 -19 0 -20 -7 -20 -90z"/>
</g>
</svg>
