<?xml version="1.0" standalone="no"?>
<!DOCTYPE svg PUBLIC "-//W3C//DTD SVG 20010904//EN"
 "http://www.w3.org/TR/2001/REC-SVG-20010904/DTD/svg10.dtd">
<svg version="1.0" xmlns="http://www.w3.org/2000/svg"
 width="128.000000pt" height="128.000000pt" viewBox="0 0 128.000000 128.000000"
 preserveAspectRatio="xMidYMid meet">

<g transform="translate(0.000000,128.000000) scale(0.100000,-0.100000)"
fill="#000000" stroke="none">
<path d="M683 1266 c-138 -35 -259 -133 -318 -257 -39 -84 -58 -184 -49 -261
l5 -53 -58 -37 c-47 -31 -59 -35 -66 -23 -12 22 -182 21 -191 -1 -3 -9 -6 -63
-6 -121 0 -94 2 -104 17 -101 16 3 18 17 21 106 l3 102 59 0 60 0 0 -185 0
-185 -60 0 -59 0 -3 58 c-2 43 -7 57 -18 57 -19 0 -27 -119 -9 -141 16 -20
162 -20 178 0 10 12 19 10 55 -10 36 -20 46 -32 56 -69 16 -56 82 -120 137
-132 21 -4 85 -8 143 -8 89 1 112 4 153 24 56 27 95 79 103 137 3 21 13 53 22
71 12 25 13 37 5 55 -10 23 -9 25 43 36 l55 11 38 -38 c43 -43 75 -55 91 -36
9 11 3 18 -29 35 -48 24 -71 63 -71 120 0 32 7 48 34 78 32 34 38 37 91 37 53
0 59 -3 91 -37 27 -30 34 -46 34 -79 0 -54 -26 -96 -73 -121 -31 -15 -36 -22
-27 -33 36 -43 139 67 140 149 0 34 -37 115 -55 123 -10 3 -8 17 10 56 64 147
57 314 -21 444 -40 65 -91 123 -111 123 -22 0 -15 -19 26 -68 50 -59 87 -134
102 -203 17 -79 6 -197 -24 -263 l-26 -56 -43 6 c-29 4 -56 1 -80 -9 l-37 -15
34 43 c70 92 88 205 50 315 -13 41 -34 71 -79 116 -73 72 -136 99 -236 98
-129 -1 -257 -89 -297 -206 -12 -33 -26 -53 -40 -59 -27 -10 -39 -49 -24 -77
15 -29 15 -29 -24 -42 -46 -15 -55 -7 -55 44 0 179 104 342 265 418 118 55
287 49 394 -13 25 -15 37 -17 45 -9 15 16 -21 43 -92 71 -71 26 -205 34 -279
15z m239 -207 c59 -29 105 -75 136 -134 21 -40 26 -64 26 -126 1 -65 -3 -84
-29 -134 -46 -89 -133 -148 -235 -158 -21 -2 -24 2 -25 29 0 38 -28 71 -64 77
-14 2 22 5 82 6 88 1 107 4 107 16 0 12 -15 15 -78 15 -43 0 -81 3 -85 6 -3 4
0 19 8 35 8 15 15 39 15 53 0 21 5 25 33 28 49 5 43 32 -9 36 -44 3 -64 27
-64 77 0 26 33 55 62 55 29 0 67 -22 74 -42 6 -21 35 -21 41 -1 7 21 -51 71
-90 78 -72 14 -139 -47 -123 -112 6 -23 5 -25 -8 -14 -9 8 -27 11 -41 8 -18
-3 -29 1 -36 14 -17 33 -47 42 -75 24 -34 -22 -32 -1 5 57 78 123 246 171 373
107z m-279 -239 c31 0 34 -15 11 -48 -13 -19 -24 -22 -89 -22 -65 0 -76 3 -89
22 -24 33 -20 48 12 48 17 0 38 10 52 25 l24 25 26 -25 c15 -14 38 -25 53 -25z
m97 -75 c0 -25 -1 -25 -25 -9 -14 9 -25 20 -25 25 0 5 11 9 25 9 20 0 25 -5
25 -25z m-32 -59 c2 -10 -1 -23 -6 -28 -6 -6 -84 -27 -173 -47 -155 -34 -200
-55 -151 -67 19 -6 19 -7 -4 -55 -24 -49 -74 -209 -74 -235 0 -19 -14 -18 -60
6 l-40 20 0 148 c0 129 2 149 18 158 9 7 57 37 106 68 l90 57 145 -3 c133 -3
146 -5 149 -22z m-124 -134 c-1 -21 -6 -48 -13 -60 -24 -45 -1 -102 41 -102
13 0 18 -7 18 -29 0 -16 7 -34 15 -41 11 -9 14 -22 10 -41 -5 -22 -1 -34 19
-54 20 -20 35 -25 77 -25 l52 0 -6 -37 c-9 -52 -58 -99 -120 -114 -29 -7 -87
-10 -142 -7 -106 6 -145 23 -183 79 -21 29 -23 42 -19 95 7 68 55 226 91 294
23 43 27 46 92 61 38 9 69 17 70 18 0 0 -1 -16 -2 -37z m171 -7 c0 -17 -8 -20
-59 -23 -62 -3 -83 6 -72 33 5 13 18 15 68 13 55 -3 63 -5 63 -23z m215 -57
c-11 -24 -20 -57 -20 -75 0 -37 -3 -39 -59 -52 -40 -9 -43 -8 -52 17 -6 15
-14 29 -19 32 -4 3 -6 17 -3 31 4 22 12 28 41 33 28 4 98 34 129 55 1 0 -7
-18 -17 -41z m-192 -34 c4 -26 -19 -34 -95 -34 -63 0 -83 7 -83 29 0 29 10 32
95 29 73 -3 80 -5 83 -24z m22 -79 c22 -27 -5 -45 -67 -45 -55 0 -72 12 -59
45 4 11 21 15 59 15 36 0 59 -5 67 -15z m25 -110 c0 -17 -8 -20 -59 -23 -62
-3 -83 6 -72 33 5 13 18 15 68 13 55 -3 63 -5 63 -23z"/>
</g>
</svg>
