<svg xmlns="http://www.w3.org/2000/svg" width="128" height="128" viewBox="0 0 128 128" version="1.1"><path d="" stroke="none" fill="#080404" fill-rule="evenodd"/><path d="M 28.459 7.367 C 19.723 11.435, 15 19, 15 28.926 C 15 39.634, 22.222 49.367, 32.152 52.041 C 35.831 53.032, 35.934 53.171, 34.549 55.288 C 32.521 58.388, 30 68.597, 30 73.710 C 30 77.634, 29.784 78, 27.469 78 C 26.070 78, 24.662 78.716, 24.323 79.601 C 23.625 81.418, 25.825 83.227, 27.835 82.488 C 30.622 81.464, 39.949 80.770, 42.461 81.401 C 43.902 81.763, 47.650 84.419, 50.790 87.305 C 53.931 90.191, 59.538 94.250, 63.250 96.325 C 68.757 99.403, 70 100.555, 70 102.580 C 70 106.918, 67.242 106.602, 56.462 101.028 C 48.496 96.908, 45.620 95.879, 43.541 96.400 C 39.661 97.374, 40.589 100.313, 45.011 101.054 C 46.930 101.375, 51.875 103.588, 56 105.972 C 64.463 110.863, 68.750 111.486, 72.223 108.331 C 73.475 107.193, 75.844 105.943, 77.487 105.553 C 79.129 105.162, 84.451 101.934, 89.314 98.379 C 95.607 93.777, 98.709 92.090, 100.077 92.525 C 102.735 93.368, 102.482 96.198, 99.500 99 C 96.990 101.358, 96.101 105, 98.035 105 C 100.050 105, 104.122 101.664, 105.603 98.802 C 107.995 94.175, 105.014 88, 100.389 88 C 98.125 88, 98.112 87.935, 99.544 83.874 C 100.345 81.605, 101 78.061, 101 75.998 L 101 72.248 106.456 71.795 C 122.750 70.444, 132.678 52.897, 125.732 37.726 C 120.717 26.773, 108.973 21.701, 96.500 25.102 C 92.202 26.274, 82 35.686, 82 38.479 C 82 39.315, 81.888 39.995, 81.750 39.989 C 81.612 39.983, 79.291 39.308, 76.591 38.489 C 73.891 37.670, 69.488 37, 66.807 37 L 61.931 37 62.565 32.225 C 63.406 25.881, 61.572 19, 59.039 19 C 57.314 19, 57.201 19.621, 57.706 26.300 C 58.276 33.838, 57.156 37.769, 53.129 42.356 C 48.710 47.392, 38.329 49.629, 31.500 47.019 C 24.871 44.486, 19.066 36.078, 19.022 28.946 C 18.987 23.283, 23.495 15.372, 28.347 12.584 C 30.631 11.270, 33.925 9.899, 35.666 9.537 C 39.793 8.678, 46.660 10.549, 50.756 13.648 C 55.717 17.400, 58.263 14.474, 53.736 10.222 C 47.771 4.618, 36.979 3.399, 28.459 7.367 M 32.001 13.123 C 25.759 15.612, 22 21.580, 22 29 C 22 35.135, 23.841 39.014, 28.406 42.496 C 39.414 50.893, 56 42.594, 56 28.689 C 56 23.610, 51.989 16.863, 47.425 14.266 C 43.212 11.869, 36.411 11.365, 32.001 13.123 M 33.062 17.827 C 25.746 21.751, 24.039 31.300, 29.613 37.118 C 37.746 45.607, 51 40.612, 51 29.058 C 51 23.428, 48.429 19.495, 43.364 17.379 C 39.005 15.557, 37.143 15.638, 33.062 17.827 M 35.750 21.087 C 33.245 25.489, 33.569 27.767, 36.996 29.852 C 40.289 31.854, 39.988 33.286, 36.461 32.401 C 32.966 31.524, 32.484 33.851, 35.506 37.006 C 38.027 39.638, 41 40.079, 41 37.822 C 41 37.291, 41.675 36.182, 42.500 35.357 C 45.084 32.773, 44.339 29.183, 40.750 26.929 C 37.757 25.049, 37.696 24.912, 39.975 25.194 C 43.111 25.582, 43.807 22.966, 41.336 20.079 C 38.925 17.264, 37.812 17.465, 35.750 21.087 M 99.564 29.123 C 92.437 30.794, 84.887 38.658, 86.465 42.769 C 86.910 43.930, 87.632 43.230, 89.146 40.171 C 92.298 33.798, 102 28.825, 102 33.581 C 102 34.333, 100.690 35.626, 99.088 36.454 C 95.324 38.401, 92 42.659, 92 45.534 C 92 46.780, 93.575 50.139, 95.500 53 C 97.425 55.861, 99 58.550, 99 58.975 C 99 59.401, 100.425 60.035, 102.167 60.383 C 108.979 61.746, 117 54.960, 117 47.833 C 117 44.258, 113.809 39.045, 110.473 37.170 C 106.669 35.033, 105.865 33.868, 107.135 32.338 C 109.208 29.840, 116.647 34.534, 119.595 40.200 C 121.441 43.748, 121.390 52.346, 119.501 55.998 C 117.087 60.666, 111.577 64.238, 105.958 64.778 C 103.231 65.040, 101 65.647, 101 66.127 C 101 67.833, 109.363 67.387, 112.995 65.488 C 118.992 62.353, 124.021 54.245, 123.978 47.782 C 123.927 40.167, 116.859 31.165, 109.277 29.060 C 104.989 27.869, 104.913 27.870, 99.564 29.123 M 100.955 40.574 C 99.167 43.466, 98.949 44.593, 99.812 46.487 C 100.398 47.774, 101.806 49.121, 102.939 49.481 C 106.135 50.495, 105.368 52.024, 102 51.350 C 99.623 50.875, 99 51.097, 99 52.423 C 99 53.719, 103.424 59, 104.510 59 C 104.630 59, 105.954 57.231, 107.453 55.068 C 110.619 50.499, 110.258 47.778, 106.181 45.482 C 104.707 44.651, 104.175 44.031, 105 44.104 C 107.902 44.361, 109 43.988, 108.983 42.750 C 108.966 41.550, 104.779 37, 103.691 37 C 103.400 37, 102.169 38.608, 100.955 40.574 M 60.923 41.759 C 60.055 42.167, 57.325 44.271, 54.855 46.436 C 52.385 48.601, 48.153 51.113, 45.450 52.017 C 41.260 53.418, 40.186 54.342, 38.157 58.284 C 36.682 61.149, 35.577 65.398, 35.252 69.454 L 34.726 76 37.613 76.014 C 39.201 76.021, 41.513 76.299, 42.750 76.630 C 44.888 77.203, 45 76.953, 45 71.617 C 45 66.667, 44.763 66, 43 66 C 41.667 66, 41 65.333, 41 64 C 41 62.205, 41.667 62, 47.500 62 C 53.333 62, 54 62.205, 54 64 C 54 65.333, 53.333 66, 52 66 C 50.183 66, 50 66.667, 50 73.304 C 50 80.238, 50.164 80.765, 53.250 83.722 C 55.038 85.435, 60.100 89.047, 64.500 91.749 C 68.900 94.451, 72.944 97.638, 73.487 98.831 C 74.030 100.024, 75.319 101, 76.352 101 C 78.947 101, 89.291 93.212, 91.821 89.353 C 101.880 74.007, 96.058 52.550, 79.661 44.538 C 74.373 41.954, 63.836 40.392, 60.923 41.759 M 57.626 71.505 C 55.604 76.788, 54.213 81.535, 54.534 82.055 C 55.565 83.723, 58.170 83.065, 58.710 81 C 59.119 79.437, 60.074 79, 63.081 79 C 65.906 79, 67.214 79.532, 68 81 C 69.461 83.730, 72.012 83.569, 71.952 80.750 C 71.926 79.513, 70.464 74.900, 68.702 70.500 C 66.267 64.415, 64.997 62.428, 63.401 62.200 C 61.595 61.942, 60.789 63.241, 57.626 71.505 M 75.005 63.750 C 75.008 64.713, 76.083 66.841, 77.395 68.480 L 79.779 71.461 76.804 75.785 C 73.896 80.012, 73.653 83.007, 76.219 82.993 C 76.923 82.989, 78.605 81.364, 79.955 79.382 L 82.411 75.777 84.700 78.639 C 85.960 80.212, 86.992 81.838, 86.995 82.250 C 86.998 82.662, 87.689 83, 88.531 83 C 91.336 83, 91.204 80.157, 88.196 75.785 L 85.221 71.461 87.605 68.480 C 88.917 66.841, 89.992 64.713, 89.995 63.750 C 90.003 61.001, 86.724 61.713, 84.464 64.952 L 82.428 67.869 80.464 64.937 C 78.294 61.698, 74.997 60.981, 75.005 63.750 M 62.682 70.652 C 61.451 71.882, 61.969 74, 63.500 74 C 65.166 74, 65.374 73.138, 64.166 71.235 C 63.725 70.539, 63.057 70.277, 62.682 70.652 M 11 80.987 C 9.075 81.420, 5.813 82.070, 3.750 82.432 C 0.920 82.929, -0 83.570, -0 85.045 C 0 87.424, 2.649 87.541, 11.846 85.569 C 18.523 84.137, 20.668 82.890, 19.554 81.087 C 18.797 79.862, 16.145 79.831, 11 80.987 M 9.506 105.838 C 3.492 107.669, 0.409 109.112, 0.201 110.195 C -0.335 112.979, 1.483 113.036, 10.122 110.501 C 22.147 106.972, 23.330 107.131, 33.597 113.666 C 50.738 124.575, 49.448 124.350, 70.771 120.136 C 82.722 117.774, 85.636 116.835, 88.691 114.363 C 93.548 110.431, 94.794 108.394, 93.271 106.871 C 92.359 105.959, 91.047 106.540, 87.562 109.396 C 83.370 112.831, 81.911 113.321, 67.777 116.043 C 59.384 117.659, 51.614 118.699, 50.509 118.354 C 49.404 118.009, 43.678 114.631, 37.784 110.849 C 24.638 102.411, 22.186 101.977, 9.506 105.838" stroke="none" fill="#040404" fill-rule="evenodd"/></svg>