<svg xmlns="http://www.w3.org/2000/svg" width="128" height="128" viewBox="0 0 128 128" version="1.1"><path d="" stroke="none" fill="#080404" fill-rule="evenodd"/><path d="M 68.500 36 C 45.485 59.029, 43.238 61.003, 40.008 61.044 C 36.913 61.083, 33.441 62.051, 27.830 64.441 C 26.579 64.974, 26.076 64.568, 25.830 62.826 C 25.513 60.593, 25.105 60.489, 15.583 60.212 C 8.322 60.001, 5.446 60.269, 4.848 61.212 C 3.473 63.379, 3.802 114.402, 5.200 115.800 C 5.939 116.539, 9.560 117, 14.618 117 C 23.522 117, 26 116.466, 26 114.548 C 26 113.644, 27.522 113.824, 31.654 115.219 C 36.519 116.862, 39.670 117.084, 54.236 116.814 C 73.796 116.451, 74 116.354, 74 107.368 C 74 104.480, 74.450 101.840, 75 101.500 C 75.550 101.160, 76 98.317, 76 95.183 L 76 89.484 99.500 66 C 112.425 53.084, 123 41.832, 123 40.995 C 123 39.664, 95.268 11, 93.980 11 C 93.708 11, 82.242 22.250, 68.500 36 M 92.200 19.200 C 90.255 21.145, 90.804 22, 94 22 C 97.196 22, 97.745 21.145, 95.800 19.200 C 94.296 17.696, 93.704 17.696, 92.200 19.200 M 80.129 31.369 L 73.785 37.771 77.642 37.080 C 88.443 35.145, 98 42.719, 98 53.214 C 98 55.918, 97.502 59.114, 96.894 60.316 C 96.285 61.517, 99.030 59.301, 102.993 55.392 L 110.198 48.284 108.599 45.192 C 106.614 41.353, 106.563 38.069, 108.447 35.379 C 109.789 33.463, 109.579 33.003, 105.561 29.060 C 101.684 25.255, 100.994 24.933, 99.003 25.998 C 96.818 27.168, 90.966 26.981, 87.987 25.646 C 86.949 25.181, 84.482 26.978, 80.129 31.369 M 112.694 37.639 C 111.605 38.728, 111.882 42.809, 113.096 43.559 C 113.699 43.932, 114.922 43.507, 115.814 42.614 C 117.311 41.118, 117.279 40.835, 115.413 38.968 C 114.300 37.855, 113.076 37.257, 112.694 37.639 M 76.270 42.483 C 68.253 45.968, 66.070 61, 73.581 61 C 74.961 61, 77.266 62.175, 78.702 63.611 C 81.136 66.045, 81.578 66.143, 85.205 65.057 C 95.567 61.952, 95.674 46.687, 85.364 42.379 C 81.324 40.691, 80.366 40.702, 76.270 42.483 M 58 53.500 L 50.550 61 58.136 61 L 65.722 61 64.673 57.068 C 63.929 54.282, 63.942 52.095, 64.718 49.568 C 65.320 47.605, 65.731 46, 65.631 46 C 65.532 46, 62.097 49.375, 58 53.500 M 9 88.500 L 9 112 15 112 L 21 112 21 88.500 L 21 65 15 65 L 9 65 9 88.500 M 30.750 68.149 L 26 70.255 26 89.004 L 26 107.754 30.935 109.877 C 35.306 111.757, 37.767 112, 52.435 112 L 69 112 69 108 L 69 104 63.559 104 C 53.679 104, 55.291 99.277, 65.335 98.796 L 71.500 98.500 71.500 95 L 71.500 91.500 65.500 91 C 61.056 90.630, 59.500 90.111, 59.500 89 C 59.500 87.872, 61.111 87.376, 66 87 L 72.500 86.500 72.807 82.802 L 73.115 79.103 67.307 78.802 C 62.267 78.540, 61.500 78.236, 61.500 76.500 C 61.500 74.709, 62.265 74.469, 68.808 74.205 L 76.115 73.910 75.808 70.205 L 75.500 66.500 55.500 66.272 C 37.052 66.061, 35.131 66.207, 30.750 68.149 M 85 70.164 C 82.305 70.901, 81.072 72.040, 79.640 75.118 C 78.618 77.316, 77.969 79.302, 78.199 79.532 C 78.429 79.762, 81.050 77.487, 84.024 74.475 C 86.998 71.464, 89.222 69.047, 88.966 69.103 C 88.710 69.160, 86.925 69.637, 85 70.164" stroke="none" fill="#040404" fill-rule="evenodd"/></svg>