<?xml version="1.0" standalone="no"?>
<!DOCTYPE svg PUBLIC "-//W3C//DTD SVG 20010904//EN"
 "http://www.w3.org/TR/2001/REC-SVG-20010904/DTD/svg10.dtd">
<svg version="1.0" xmlns="http://www.w3.org/2000/svg"
 width="128.000000pt" height="128.000000pt" viewBox="0 0 128.000000 128.000000"
 preserveAspectRatio="xMidYMid meet">

<g transform="translate(0.000000,128.000000) scale(0.100000,-0.100000)"
fill="#000000" stroke="none">
<path d="M427 1254 c-4 -4 -7 -45 -7 -90 l0 -83 -27 -3 c-15 -2 -29 -10 -30
-18 -2 -8 24 -44 57 -80 l60 -65 60 65 c64 70 71 93 28 98 -27 3 -27 4 -30 90
l-3 87 -50 3 c-28 2 -54 0 -58 -4z m73 -119 c0 -70 3 -86 18 -94 16 -9 15 -12
-10 -38 l-28 -28 -27 28 c-26 26 -27 29 -10 38 14 8 17 24 17 94 0 78 2 85 20
85 18 0 20 -7 20 -85z"/>
<path d="M715 1195 c-60 -68 -66 -95 -21 -95 25 0 25 -2 28 -87 l3 -88 55 0
55 0 3 88 c3 85 3 87 28 87 45 0 39 27 -21 95 -32 36 -61 65 -65 65 -4 0 -33
-29 -65 -65z m96 -21 c22 -23 23 -26 6 -35 -14 -8 -17 -25 -17 -94 0 -78 -2
-85 -20 -85 -18 0 -20 7 -20 85 0 69 -3 86 -17 94 -17 9 -16 12 6 35 14 14 27
26 31 26 4 0 17 -12 31 -26z"/>
<path d="M32 828 c-17 -17 -17 -739 0 -756 9 -9 78 -12 250 -12 213 0 245 -2
298 -20 l60 -20 60 20 c53 18 85 20 298 20 172 0 241 3 250 12 17 17 17 739 0
756 -16 16 -510 17 -541 1 -12 -6 -32 -21 -44 -32 l-23 -20 -22 20 c-13 11
-33 26 -45 32 -31 16 -525 15 -541 -1z m537 -42 c49 -26 51 -42 51 -390 l0
-323 -52 13 c-37 10 -121 14 -280 14 l-228 0 0 350 0 350 240 0 c189 0 247 -3
269 -14z m651 -336 l0 -350 -228 0 c-159 0 -243 -4 -280 -14 l-52 -13 0 326
c1 251 4 331 14 350 26 47 45 50 304 51 l242 0 0 -350z"/>
<path d="M260 738 c-132 -67 -132 -249 0 -315 56 -29 104 -29 160 -1 132 67
132 249 0 316 -24 12 -60 22 -80 22 -20 0 -56 -10 -80 -22z m148 -38 c42 -26
72 -76 72 -120 0 -44 -30 -94 -72 -120 -117 -71 -259 71 -188 188 26 42 76 72
120 72 19 0 50 -9 68 -20z"/>
<path d="M320 697 c0 -7 -9 -20 -21 -30 -14 -13 -19 -27 -17 -50 2 -26 10 -36
41 -50 40 -20 50 -47 17 -47 -11 0 -20 5 -20 10 0 6 -9 10 -20 10 -11 0 -20
-7 -20 -15 0 -8 9 -23 20 -32 11 -10 20 -23 20 -30 0 -7 9 -13 20 -13 11 0 20
6 20 13 0 7 9 20 21 30 14 13 19 27 17 50 -2 26 -10 36 -40 50 -41 20 -51 47
-18 47 11 0 20 -4 20 -10 0 -5 9 -10 20 -10 11 0 20 7 20 15 0 8 -9 23 -20 32
-11 10 -20 23 -20 30 0 7 -9 13 -20 13 -11 0 -20 -6 -20 -13z"/>
<path d="M120 320 c0 -13 7 -20 20 -20 13 0 20 7 20 20 0 13 -7 20 -20 20 -13
0 -20 -7 -20 -20z"/>
<path d="M200 320 c0 -19 7 -20 180 -20 173 0 180 1 180 20 0 19 -7 20 -180
20 -173 0 -180 -1 -180 -20z"/>
<path d="M120 200 c0 -13 7 -20 20 -20 13 0 20 7 20 20 0 13 -7 20 -20 20 -13
0 -20 -7 -20 -20z"/>
<path d="M200 200 c0 -19 7 -20 180 -20 173 0 180 1 180 20 0 19 -7 20 -180
20 -173 0 -180 -1 -180 -20z"/>
<path d="M740 700 c0 -13 7 -20 20 -20 13 0 20 7 20 20 0 13 -7 20 -20 20 -13
0 -20 -7 -20 -20z"/>
<path d="M820 700 c0 -19 7 -20 170 -20 163 0 170 1 170 20 0 19 -7 20 -170
20 -163 0 -170 -1 -170 -20z"/>
<path d="M740 580 c0 -13 7 -20 20 -20 13 0 20 7 20 20 0 13 -7 20 -20 20 -13
0 -20 -7 -20 -20z"/>
<path d="M820 580 c0 -19 7 -20 170 -20 163 0 170 1 170 20 0 19 -7 20 -170
20 -163 0 -170 -1 -170 -20z"/>
<path d="M740 460 c0 -13 7 -20 20 -20 13 0 20 7 20 20 0 13 -7 20 -20 20 -13
0 -20 -7 -20 -20z"/>
<path d="M820 460 c0 -19 7 -20 170 -20 163 0 170 1 170 20 0 19 -7 20 -170
20 -163 0 -170 -1 -170 -20z"/>
<path d="M740 340 c0 -13 7 -20 20 -20 13 0 20 7 20 20 0 13 -7 20 -20 20 -13
0 -20 -7 -20 -20z"/>
<path d="M820 340 c0 -19 7 -20 170 -20 163 0 170 1 170 20 0 19 -7 20 -170
20 -163 0 -170 -1 -170 -20z"/>
<path d="M740 220 c0 -13 7 -20 20 -20 13 0 20 7 20 20 0 13 -7 20 -20 20 -13
0 -20 -7 -20 -20z"/>
<path d="M820 220 c0 -19 7 -20 170 -20 163 0 170 1 170 20 0 19 -7 20 -170
20 -163 0 -170 -1 -170 -20z"/>
</g>
</svg>
