<?xml version="1.0" standalone="no"?>
<!DOCTYPE svg PUBLIC "-//W3C//DTD SVG 20010904//EN"
 "http://www.w3.org/TR/2001/REC-SVG-20010904/DTD/svg10.dtd">
<svg version="1.0" xmlns="http://www.w3.org/2000/svg"
 width="128.000000pt" height="128.000000pt" viewBox="0 0 128.000000 128.000000"
 preserveAspectRatio="xMidYMid meet">

<g transform="translate(0.000000,128.000000) scale(0.100000,-0.100000)"
fill="#000000" stroke="none">
<path d="M15 1258 c-3 -7 -4 -290 -3 -628 l3 -615 625 0 625 0 0 40 0 40 -582
3 -583 2 0 70 0 70 547 0 c544 0 546 0 528 -20 -16 -18 -16 -20 -2 -26 16 -6
97 49 97 65 0 4 -19 22 -43 39 -29 21 -48 28 -57 22 -12 -7 -11 -12 4 -29 l19
-21 -546 0 -547 0 0 123 0 122 54 60 53 60 47 -93 c25 -50 52 -92 60 -92 7 0
31 46 56 110 24 61 46 110 51 110 4 0 30 -31 59 -70 29 -38 55 -70 60 -70 4 0
24 7 43 15 51 21 52 20 71 -30 10 -25 24 -45 31 -45 9 0 26 37 47 102 17 56
34 95 37 87 2 -8 16 -61 31 -118 14 -58 31 -106 38 -109 8 -2 23 21 39 57 l26
61 32 -20 c18 -11 36 -20 41 -20 5 0 36 36 69 80 33 44 61 80 62 80 2 0 3 -48
3 -106 0 -95 -2 -105 -15 -94 -11 10 -19 10 -27 2 -13 -13 39 -92 62 -92 20 0
72 82 60 94 -6 6 -15 4 -24 -3 -14 -12 -16 4 -18 130 -2 93 -7 144 -14 146 -6
2 -46 -41 -88 -97 l-77 -100 -29 20 c-41 29 -54 25 -77 -22 l-20 -42 -29 117
c-15 65 -32 123 -36 130 -13 21 -28 -7 -62 -114 l-32 -103 -13 32 c-15 36 -22
38 -81 17 -24 -8 -44 -14 -45 -13 -1 2 -30 41 -64 86 -52 69 -66 82 -76 70 -7
-7 -31 -60 -53 -117 l-40 -105 -43 87 c-27 54 -49 87 -59 87 -8 -1 -35 -26
-60 -56 l-45 -55 -5 348 -5 348 -38 3 c-24 2 -39 -1 -42 -10z m633 -1196 c376
-1 582 -6 582 -12 0 -7 -207 -10 -590 -10 l-590 0 2 598 3 597 5 -585 5 -585
583 -3z"/>
<path d="M555 1251 c-141 -63 -141 -268 -1 -332 79 -36 169 -13 222 57 26 33
29 46 29 109 0 63 -3 76 -29 109 -53 70 -143 93 -221 57z m156 -44 c64 -43 86
-121 50 -187 -56 -107 -210 -107 -263 0 -50 98 21 210 132 210 32 0 58 -7 81
-23z"/>
<path d="M610 1185 c0 -8 -4 -15 -10 -15 -16 0 -41 -46 -34 -63 3 -9 26 -24
50 -33 24 -9 44 -21 44 -26 0 -15 -32 -22 -51 -10 -21 14 -49 16 -49 4 0 -4
16 -23 35 -41 l35 -33 37 36 c33 32 35 38 25 60 -7 16 -25 29 -52 37 -22 7
-40 16 -40 21 0 15 32 21 51 10 46 -29 53 0 10 41 -32 30 -51 35 -51 12z"/>
<path d="M601 839 c-21 -29 -22 -67 -2 -54 6 3 11 -19 13 -52 2 -44 7 -58 18
-58 11 0 16 14 18 58 2 33 7 55 13 52 5 -4 12 0 15 9 5 14 -32 76 -46 76 -3 0
-16 -14 -29 -31z"/>
</g>
</svg>
