<svg xmlns="http://www.w3.org/2000/svg" width="128" height="128" viewBox="0 0 128 128" version="1.1"><path d="" stroke="none" fill="#080404" fill-rule="evenodd"/><path d="M 93 2.500 C 93 4.500, 93.500 5, 95.500 5 C 97.500 5, 98 4.500, 98 2.500 C 98 0.500, 97.500 0, 95.500 0 C 93.500 0, 93 0.500, 93 2.500 M 77.941 4.821 C 64.882 13.107, 59.554 29.716, 65.154 44.681 C 67.695 51.473, 75.625 60.012, 81.296 62.063 L 85 63.402 85 75.138 L 85 86.873 81.750 87.187 C 79.386 87.415, 78.427 88.045, 78.231 89.500 C 77.816 92.587, 93.181 117.500, 95.500 117.500 C 97.819 117.500, 113.184 92.587, 112.769 89.500 C 112.573 88.045, 111.614 87.415, 109.250 87.187 L 106 86.873 106 75.138 L 106 63.402 109.704 62.063 C 115.375 60.012, 123.305 51.473, 125.846 44.681 C 131.606 29.288, 125.336 11.231, 111.725 4.010 C 103.114 -0.558, 100.809 4.626, 109.283 9.500 C 122.631 17.176, 126.461 34.654, 117.664 47.737 C 107.307 63.138, 83.683 63.124, 73.319 47.711 C 64.528 34.638, 68.387 17.140, 81.745 9.500 C 85.624 7.282, 86.927 5.979, 86.745 4.500 C 86.374 1.470, 83.030 1.592, 77.941 4.821 M 28.723 13.687 C 20.087 27.512, 14.877 37.125, 15.173 38.687 C 15.404 39.908, 16.575 40.602, 18.758 40.813 L 22 41.127 22 52.862 L 22 64.598 18.296 65.937 C 12.625 67.988, 4.695 76.527, 2.154 83.319 C -3.606 98.712, 2.664 116.769, 16.275 123.990 C 24.886 128.558, 27.191 123.374, 18.717 118.500 C 5.369 110.824, 1.539 93.346, 10.336 80.263 C 20.684 64.875, 44.316 64.875, 54.664 80.263 C 63.461 93.346, 59.631 110.824, 46.283 118.500 C 37.809 123.374, 40.114 128.558, 48.725 123.990 C 62.336 116.769, 68.606 98.712, 62.846 83.319 C 60.305 76.527, 52.375 67.988, 46.704 65.937 L 43 64.598 43 52.862 L 43 41.127 46.250 40.813 C 48.614 40.585, 49.573 39.955, 49.769 38.500 C 50.118 35.907, 34.907 10.606, 32.750 10.190 C 31.731 9.994, 30.199 11.324, 28.723 13.687 M 93.667 15.667 C 93.300 16.033, 93 17.138, 93 18.121 C 93 19.105, 91.875 21.034, 90.500 22.409 C 87.776 25.134, 87.253 29.434, 89.316 32.147 C 90.005 33.052, 92.241 34.492, 94.285 35.346 C 96.328 36.199, 98 37.344, 98 37.890 C 98 39.756, 96.005 40.117, 93.887 38.633 C 89.629 35.651, 87.029 40.058, 90.892 43.711 C 91.933 44.695, 92.950 46.400, 93.152 47.500 C 93.699 50.471, 97.652 50.698, 98.529 47.808 C 98.914 46.539, 100.026 44.600, 101 43.500 C 103.794 40.343, 104.261 37.406, 102.508 34.016 C 101.435 31.940, 99.920 30.734, 97.871 30.324 C 94.942 29.738, 93.080 27.587, 94.378 26.289 C 94.722 25.945, 96.097 26.249, 97.434 26.965 C 102.269 29.552, 104.895 25.895, 101 22 C 99.900 20.900, 99 19.415, 99 18.700 C 99 16.071, 95.342 13.991, 93.667 15.667 M 27.696 26.652 C 23.180 34.316, 23.159 34.395, 25.320 35.470 C 27.372 36.492, 27.516 37.330, 27.779 49.778 L 28.058 63 32.500 63 L 36.942 63 37.221 49.778 C 37.484 37.316, 37.626 36.493, 39.687 35.467 C 41.863 34.384, 41.851 34.339, 37.624 27.209 C 35.286 23.266, 33.121 19.788, 32.813 19.480 C 32.505 19.172, 30.203 22.400, 27.696 26.652 M 90.779 78.222 C 90.516 90.684, 90.374 91.507, 88.313 92.533 C 86.138 93.615, 86.151 93.665, 90.433 100.888 C 92.803 104.884, 95.083 108.153, 95.500 108.153 C 95.917 108.153, 98.197 104.884, 100.567 100.888 C 104.849 93.665, 104.862 93.615, 102.687 92.533 C 100.626 91.507, 100.484 90.684, 100.221 78.222 L 99.942 65 95.500 65 L 91.058 65 90.779 78.222 M 30.667 78.667 C 30.300 79.033, 30 79.981, 30 80.772 C 30 81.564, 28.875 83.548, 27.500 85.182 C 23.080 90.435, 24.545 95.530, 31.285 98.346 C 33.328 99.199, 35 100.344, 35 100.890 C 35 102.813, 33.028 103.065, 30.572 101.455 C 29.206 100.560, 27.618 100.118, 27.044 100.473 C 25.386 101.498, 25.829 104.761, 27.892 106.711 C 28.933 107.695, 29.950 109.400, 30.152 110.500 C 30.699 113.471, 34.652 113.698, 35.529 110.808 C 35.914 109.539, 37.026 107.600, 38 106.500 C 40.794 103.343, 41.261 100.406, 39.508 97.016 C 38.435 94.940, 36.920 93.734, 34.871 93.324 C 31.942 92.738, 30.080 90.587, 31.378 89.289 C 31.722 88.945, 33.097 89.249, 34.434 89.965 C 39.160 92.494, 41.915 88.915, 38.145 85.145 C 37.124 84.124, 35.991 82.099, 35.626 80.645 C 34.995 78.134, 32.282 77.051, 30.667 78.667 M 30 125.500 C 30 127.500, 30.500 128, 32.500 128 C 34.500 128, 35 127.500, 35 125.500 C 35 123.500, 34.500 123, 32.500 123 C 30.500 123, 30 123.500, 30 125.500" stroke="none" fill="#040404" fill-rule="evenodd"/></svg>