<svg viewBox="16.4 11.02 55.35 50.77" fill="none" xmlns="http://www.w3.org/2000/svg">
<path d="M65.2082 28.1777C63.7379 26.459 62.1911 24.7777 60.7817 23.008C56.6544 17.8162 51.2256 12.8165 44.37 11.4191C37.4291 10.0047 29.1676 12.4102 24.9794 18.1902C22.1954 22.0305 21.1079 26.8024 21.0105 31.4502C20.967 33.5718 21.3393 35.7155 20.9896 37.8252C20.6033 40.1457 19.2705 42.1806 18.1047 44.1917C16.563 46.8522 15.8984 49.7813 16.8345 52.7801C18.9521 59.5546 28.5134 62.703 35.0819 61.5691C38.6628 60.9503 41.9444 59.2554 45.414 58.1861C48.2745 57.3038 51.2186 57.0471 54.1262 57.8903C60.7521 59.8113 67.5381 56.4997 70.3447 50.4103C73.7325 43.0595 70.5622 34.7125 65.7094 28.7812C65.544 28.5738 65.3787 28.3749 65.2082 28.1777Z" fill="#F3BA89"></path>
<path opacity="0.7" d="M65.2082 28.1777C63.7379 26.459 62.1911 24.7777 60.7817 23.008C56.6544 17.8162 51.2256 12.8165 44.37 11.4191C37.4291 10.0047 29.1676 12.4102 24.9794 18.1902C22.1954 22.0305 21.1079 26.8024 21.0105 31.4502C20.967 33.5718 21.3393 35.7155 20.9896 37.8252C20.6033 40.1457 19.2705 42.1806 18.1047 44.1917C16.563 46.8522 15.8984 49.7813 16.8345 52.7801C18.9521 59.5546 28.5134 62.703 35.0819 61.5691C38.6628 60.9503 41.9444 59.2554 45.414 58.1861C48.2745 57.3038 51.2186 57.0471 54.1262 57.8903C60.7521 59.8113 67.5381 56.4997 70.3447 50.4103C73.7325 43.0595 70.5622 34.7125 65.7094 28.7812C65.544 28.5738 65.3787 28.3749 65.2082 28.1777Z" fill="white"></path>
<path d="M47.4515 27.3698L49.1237 26.6252L48.7757 24.6634L46.9313 24.524C46.696 23.9224 46.3857 23.3514 46.0074 22.824L46.9591 21.2549L45.5167 19.8456L43.8985 20.7857C42.9664 20.1657 41.9111 19.7446 40.8013 19.5498L40.3349 17.7427H38.2957L37.8259 19.56C37.1941 19.6778 36.579 19.869 35.9937 20.1295L34.5355 18.897L32.8669 20.0394L33.5629 21.8023C33.1138 22.2499 32.7207 22.7481 32.3919 23.2864L30.4779 23.0926L29.7819 24.9626L31.3705 26.0149C31.2942 26.4518 31.2558 26.8942 31.2556 27.3375C31.2556 27.5262 31.2556 27.7115 31.2782 27.8968L29.6061 28.808L30.1281 30.7324L32.0212 30.7086C32.3017 31.2858 32.6522 31.8281 33.0652 32.3236L32.2474 33.9811L33.8134 35.2612L35.3272 34.2021C35.9004 34.5254 36.5123 34.7784 37.149 34.9552L37.4535 36.7385L39.4841 36.9085L40.0966 35.2204C40.7631 35.1623 41.4195 35.023 42.0506 34.8056L43.3312 36.0789L45.0973 35.0827L44.6119 33.3674C45.1238 32.9425 45.5796 32.4571 45.9691 31.9224L47.763 32.2454L48.633 30.4417L47.2254 29.3061C47.3829 28.6723 47.4588 28.0219 47.4515 27.3698ZM44.4361 27.3358C44.4361 28.3192 44.1376 29.2806 43.5784 30.0983C43.0192 30.9161 42.2243 31.5534 41.2943 31.9298C40.3643 32.3061 39.341 32.4046 38.3537 32.2127C37.3665 32.0209 36.4596 31.5473 35.7478 30.8519C35.036 30.1564 34.5513 29.2704 34.3549 28.3059C34.1585 27.3413 34.2593 26.3415 34.6445 25.4329C35.0298 24.5243 35.6821 23.7477 36.5191 23.2013C37.356 22.6549 38.34 22.3633 39.3466 22.3633C40.0151 22.3633 40.6771 22.4919 41.2947 22.7419C41.9123 22.9919 42.4734 23.3584 42.9461 23.8203C43.4187 24.2822 43.7935 24.8306 44.0492 25.4341C44.3049 26.0375 44.4364 26.6843 44.4361 27.3375V27.3358Z" fill="#F3BA89"></path>
<path d="M39.4667 37.0036L37.4361 36.8336C37.4152 36.832 37.3954 36.8236 37.38 36.8097C37.3645 36.7958 37.3543 36.7773 37.3508 36.7571L37.0481 35.0197C36.4419 34.848 35.858 34.6084 35.3081 34.3057L33.843 35.3257C33.8267 35.3384 33.8064 35.3453 33.7856 35.3453C33.7647 35.3453 33.7445 35.3384 33.7282 35.3257L32.1622 34.0456C32.1461 34.0325 32.1349 34.0145 32.1305 33.9944C32.1261 33.9744 32.1287 33.9535 32.1378 33.9351L32.9278 32.3286C32.5413 31.8563 32.2104 31.3431 31.9412 30.7986L30.109 30.8207C30.0879 30.8216 30.0671 30.8154 30.0503 30.8029C30.0335 30.7905 30.0216 30.7727 30.0167 30.7527L29.4947 28.8283C29.4889 28.8087 29.4901 28.7879 29.498 28.769C29.5059 28.7502 29.5201 28.7345 29.5382 28.7246L31.1582 27.8406C31.146 27.6502 31.1408 27.4887 31.1408 27.3306C31.1409 26.9018 31.1764 26.4737 31.2469 26.0505L29.707 25.0305C29.6898 25.0186 29.677 25.0015 29.6707 24.9819C29.6644 24.9622 29.6649 24.941 29.6722 24.9217L30.3682 23.0517C30.376 23.0327 30.3898 23.0166 30.4077 23.0059C30.4256 22.9952 30.4465 22.9904 30.4674 22.9922L32.3275 23.1792C32.6426 22.671 33.015 22.1989 33.4376 21.7716L32.7712 20.0631C32.7634 20.0441 32.7626 20.023 32.7689 20.0034C32.7752 19.9839 32.7883 19.9671 32.806 19.956L34.4746 18.8136C34.4912 18.8008 34.5118 18.7938 34.5329 18.7938C34.5541 18.7938 34.5746 18.8008 34.5912 18.8136L36.0023 20.0036C36.56 19.7612 37.1436 19.5804 37.7423 19.4647L38.1965 17.7035C38.2021 17.6837 38.2141 17.6662 38.2307 17.6537C38.2474 17.6411 38.2677 17.6341 38.2887 17.6338H40.328C40.3488 17.6339 40.3691 17.6409 40.3854 17.6535C40.4018 17.6661 40.4134 17.6837 40.4185 17.7035L40.8709 19.4528C41.9502 19.6502 42.9772 20.0597 43.8898 20.6564L45.4558 19.7469C45.4736 19.736 45.4947 19.7314 45.5156 19.7339C45.5365 19.7364 45.5559 19.7458 45.5706 19.7605L47.0113 21.1681C47.0259 21.1827 47.0351 21.2016 47.0376 21.2219C47.0401 21.2422 47.0358 21.2627 47.0252 21.2803L46.11 22.8137C46.4656 23.3208 46.7604 23.8661 46.9887 24.4389L48.7739 24.5732C48.7949 24.5748 48.8146 24.5832 48.8301 24.5971C48.8455 24.611 48.8558 24.6295 48.8592 24.6497L49.2072 26.6115C49.2104 26.6316 49.2069 26.6523 49.1972 26.6703C49.1875 26.6884 49.1721 26.7029 49.1533 26.7118L47.5351 27.4309C47.5288 28.0528 47.4482 28.6718 47.2949 29.2754L48.6556 30.3736C48.6716 30.3864 48.6828 30.404 48.6876 30.4237C48.6923 30.4433 48.6902 30.464 48.6817 30.4824L47.8204 32.2878C47.8116 32.3063 47.7967 32.3215 47.7782 32.3311C47.7596 32.3406 47.7384 32.3439 47.7178 32.3405L45.9778 32.0277C45.6023 32.5326 45.1692 32.994 44.6867 33.403L45.1547 35.0605C45.1603 35.0803 45.1591 35.1013 45.1513 35.1204C45.1434 35.1394 45.1293 35.1554 45.1112 35.1659L43.3451 36.1621C43.3271 36.1718 43.3064 36.1755 43.286 36.1727C43.2656 36.17 43.2467 36.1609 43.232 36.1468L41.9914 34.916C41.3892 35.1174 40.7649 35.2492 40.1314 35.3087L39.5398 36.9424C39.5342 36.958 39.5245 36.9719 39.5117 36.9826C39.4988 36.9934 39.4833 37.0006 39.4667 37.0036ZM37.5161 36.6534L39.4023 36.8132L39.9904 35.1914C39.9962 35.1748 40.007 35.1604 40.0212 35.1498C40.0354 35.1392 40.0526 35.133 40.0705 35.1319C40.7292 35.0744 41.378 34.9368 42.0019 34.7222C42.0188 34.7164 42.0372 34.7154 42.0547 34.7193C42.0722 34.7232 42.0883 34.7319 42.101 34.7443L43.3312 35.9666L44.9703 35.0418L44.504 33.3945C44.4989 33.3778 44.4991 33.36 44.5043 33.3434C44.5096 33.3267 44.5198 33.312 44.5336 33.301C45.0389 32.8804 45.4894 32.4009 45.8751 31.873C45.8855 31.8586 45.8998 31.8475 45.9165 31.8408C45.9331 31.8342 45.9514 31.8324 45.9691 31.8356L47.6899 32.145L48.4903 30.4705L47.1401 29.3808C47.1256 29.3699 47.1149 29.3549 47.1093 29.3379C47.1037 29.3209 47.1035 29.3027 47.1088 29.2856C47.2721 28.6594 47.3557 28.0159 47.3576 27.3697C47.3577 27.352 47.363 27.3348 47.3729 27.32C47.3827 27.3053 47.3968 27.2936 47.4133 27.2864L49.0193 26.5707L48.6904 24.75L46.9174 24.6157C46.8996 24.6144 46.8825 24.6081 46.8683 24.5975C46.8541 24.587 46.8433 24.5726 46.8373 24.5562C46.6054 23.9596 46.2992 23.3932 45.9256 22.8698C45.9158 22.8548 45.9106 22.8374 45.9106 22.8196C45.9106 22.8019 45.9158 22.7845 45.9256 22.7695L46.8391 21.2616L45.501 19.9543L43.9454 20.857C43.9304 20.8666 43.9129 20.8717 43.895 20.8717C43.8771 20.8717 43.8595 20.8666 43.8445 20.857C42.9243 20.2471 41.8834 19.8325 40.7891 19.6398C40.7712 19.6367 40.7547 19.6287 40.7414 19.6166C40.7281 19.6045 40.7187 19.589 40.7143 19.5718L40.2636 17.8344H38.3687L37.9181 19.5837C37.9135 19.6008 37.904 19.6162 37.8907 19.6283C37.8775 19.6403 37.861 19.6484 37.8433 19.6517C37.2188 19.7678 36.6108 19.9561 36.0319 20.2127C36.0155 20.2201 35.9973 20.2228 35.9794 20.2204C35.9615 20.218 35.9447 20.2106 35.931 20.1991L34.5303 19.0091L32.98 20.0682L33.6429 21.7682C33.6493 21.7846 33.6507 21.8025 33.647 21.8196C33.6433 21.8368 33.6346 21.8526 33.622 21.8651C33.1789 22.3082 32.7906 22.8006 32.4649 23.3322C32.4556 23.3471 32.4421 23.3591 32.4261 23.3669C32.4102 23.3747 32.3922 23.378 32.3744 23.3764L30.5283 23.1911L29.881 24.9285L31.4087 25.9485C31.4239 25.9582 31.4358 25.9722 31.4429 25.9885C31.4501 26.0048 31.4521 26.0228 31.4488 26.0403C31.3743 26.4723 31.3364 26.9095 31.3357 27.3476C31.3357 27.5176 31.3357 27.6876 31.3583 27.9001C31.3591 27.9175 31.3549 27.9348 31.3463 27.9501C31.3378 27.9654 31.325 27.9781 31.3096 27.9868L29.7018 28.864L30.1925 30.649L32.016 30.6167C32.0339 30.6166 32.0514 30.6216 32.0665 30.6309C32.0816 30.6402 32.0936 30.6536 32.1013 30.6694C32.3763 31.24 32.721 31.776 33.1279 32.2657C33.139 32.2791 33.1461 32.2953 33.1482 32.3124C33.1504 32.3296 33.1475 32.347 33.14 32.3626L32.3536 33.9572L33.803 35.1472L35.2576 34.1272C35.273 34.1177 35.2908 34.1126 35.3089 34.1126C35.3271 34.1126 35.3449 34.1177 35.3603 34.1272C35.9274 34.4455 36.5322 34.6949 37.1612 34.8701C37.1784 34.8747 37.194 34.884 37.206 34.897C37.218 34.9099 37.226 34.926 37.229 34.9432L37.5161 36.6534ZM39.3466 32.4034C38.3215 32.4031 37.3195 32.1058 36.4673 31.5491C35.6151 30.9924 34.951 30.2013 34.559 29.2759C34.1669 28.3505 34.0645 27.3323 34.2647 26.3501C34.4649 25.3678 34.9587 24.4656 35.6837 23.7575C36.4087 23.0494 37.3323 22.5672 38.3378 22.372C39.3432 22.1767 40.3853 22.2771 41.3324 22.6604C42.2794 23.0438 43.0889 23.6929 43.6584 24.5257C44.2279 25.3585 44.5318 26.3375 44.5318 27.3391C44.5295 28.6817 43.9824 29.9686 43.0104 30.9176C42.0383 31.8666 40.7208 32.4003 39.3466 32.4017V32.4034ZM39.3466 22.4584C38.3586 22.4584 37.3928 22.7446 36.5712 23.2809C35.7497 23.8172 35.1094 24.5795 34.7313 25.4713C34.3532 26.3632 34.2543 27.3445 34.4471 28.2913C34.6398 29.238 35.1156 30.1077 35.8142 30.7903C36.5129 31.4728 37.403 31.9377 38.372 32.126C39.3411 32.3143 40.3455 32.2177 41.2583 31.8483C42.1711 31.4789 42.9513 30.8533 43.5003 30.0507C44.0492 29.248 44.3422 28.3044 44.3422 27.3391C44.3412 26.0448 43.8147 24.8037 42.8781 23.8883C41.9415 22.9729 40.6714 22.458 39.3466 22.4567V22.4584Z" fill="#263238"></path>
<path d="M33.9756 58.3698L31.945 58.1998C31.9241 58.1982 31.9043 58.1898 31.8889 58.1759C31.8734 58.162 31.8632 58.1435 31.8598 58.1233L31.557 56.3859C30.9508 56.2142 30.3669 55.9746 29.817 55.6719L28.3519 56.6919C28.3356 56.7046 28.3153 56.7115 28.2945 56.7115C28.2736 56.7115 28.2534 56.7046 28.2371 56.6919L26.6711 55.4118C26.655 55.3987 26.6438 55.3807 26.6394 55.3606C26.635 55.3406 26.6376 55.3197 26.6467 55.3013L27.4367 53.6948C27.0502 53.2225 26.7193 52.7093 26.4501 52.1648L24.6179 52.1869C24.5968 52.1878 24.576 52.1816 24.5592 52.1692C24.5424 52.1567 24.5305 52.139 24.5256 52.1189L24.0036 50.1945C23.9978 50.175 23.999 50.1541 24.0069 50.1352C24.0148 50.1164 24.029 50.1007 24.0471 50.0908L25.6671 49.2068C25.6549 49.0164 25.6497 48.8549 25.6497 48.6968C25.6499 48.268 25.6854 47.8399 25.7558 47.4167L24.2159 46.3967C24.1987 46.3849 24.1859 46.3678 24.1796 46.3481C24.1733 46.3284 24.1738 46.3072 24.1811 46.2879L24.8771 44.4179C24.8849 44.3989 24.8988 44.3828 24.9166 44.3721C24.9345 44.3614 24.9554 44.3566 24.9763 44.3584L26.8364 44.5454C27.1515 44.0372 27.5239 43.5651 27.9465 43.1378L27.2801 41.4293C27.2723 41.4103 27.2715 41.3892 27.2778 41.3697C27.2842 41.3501 27.2973 41.3333 27.3149 41.3222L28.9835 40.1798C29.0001 40.167 29.0207 40.16 29.0418 40.16C29.063 40.16 29.0835 40.167 29.1001 40.1798L30.5113 41.3698C31.0689 41.1274 31.6525 40.9467 32.2513 40.8309L32.7054 39.0697C32.711 39.0499 32.723 39.0324 32.7397 39.0199C32.7563 39.0073 32.7766 39.0004 32.7976 39H34.8369C34.8578 39.0002 34.878 39.0071 34.8943 39.0197C34.9107 39.0323 34.9223 39.0499 34.9274 39.0697L35.3798 40.819C36.4591 41.0164 37.4861 41.4259 38.3987 42.0226L39.9647 41.1131C39.9825 41.1022 40.0037 41.0976 40.0245 41.1001C40.0454 41.1026 40.0648 41.112 40.0795 41.1267L41.5202 42.5343C41.5348 42.549 41.544 42.5679 41.5465 42.5881C41.549 42.6084 41.5447 42.6289 41.5342 42.6465L40.6189 44.1799C40.9745 44.687 41.2693 45.2323 41.4976 45.8051L43.2829 45.9394C43.3038 45.941 43.3235 45.9494 43.339 45.9633C43.3544 45.9772 43.3647 45.9957 43.3681 46.0159L43.7161 47.9777C43.7193 47.9979 43.7158 48.0185 43.7061 48.0365C43.6964 48.0546 43.681 48.0691 43.6622 48.078L42.044 48.7971C42.0377 49.419 41.9571 50.038 41.8039 50.6416L43.1645 51.7398C43.1805 51.7526 43.1918 51.7702 43.1965 51.7899C43.2012 51.8095 43.1991 51.8302 43.1906 51.8486L42.3293 53.654C42.3205 53.6725 42.3056 53.6878 42.2871 53.6973C42.2686 53.7068 42.2473 53.7101 42.2267 53.7067L40.4867 53.3939C40.1112 53.8988 39.6781 54.3602 39.1956 54.7692L39.6637 56.4267C39.6693 56.4465 39.668 56.4675 39.6602 56.4866C39.6523 56.5056 39.6382 56.5216 39.6202 56.5321L37.854 57.5283C37.836 57.538 37.8153 57.5417 37.7949 57.5389C37.7745 57.5362 37.7556 57.5271 37.741 57.513L36.5003 56.2822C35.8981 56.4836 35.2739 56.6154 34.6403 56.6749L34.0487 58.3086C34.0431 58.3242 34.0334 58.3381 34.0206 58.3488C34.0077 58.3596 33.9922 58.3668 33.9756 58.3698ZM32.0251 58.0196L33.9112 58.1794L34.4993 56.5576C34.5051 56.5411 34.5159 56.5266 34.5301 56.516C34.5444 56.5054 34.5615 56.4992 34.5794 56.4981C35.2381 56.4406 35.8869 56.303 36.5108 56.0884C36.5278 56.0826 36.5461 56.0816 36.5636 56.0855C36.5812 56.0894 36.5972 56.0981 36.61 56.1105L37.8401 57.3328L39.4792 56.408L39.0129 54.7607C39.0078 54.744 39.008 54.7262 39.0132 54.7096C39.0185 54.693 39.0287 54.6782 39.0425 54.6672C39.5478 54.2467 39.9984 53.7671 40.384 53.2392C40.3944 53.2248 40.4087 53.2137 40.4254 53.207C40.442 53.2004 40.4603 53.1986 40.478 53.2018L42.1988 53.5112L42.9992 51.8367L41.649 50.747C41.6345 50.7361 41.6238 50.7211 41.6182 50.7041C41.6126 50.6872 41.6124 50.6689 41.6177 50.6518C41.7811 50.0256 41.8646 49.3821 41.8665 48.7359C41.8666 48.7183 41.8719 48.701 41.8818 48.6862C41.8917 48.6715 41.9057 48.6598 41.9222 48.6526L43.5282 47.9369L43.1993 46.1162L41.4263 45.9819C41.4085 45.9806 41.3914 45.9743 41.3772 45.9637C41.363 45.9532 41.3522 45.9388 41.3462 45.9224C41.1143 45.3258 40.8081 44.7594 40.4345 44.236C40.4247 44.221 40.4195 44.2036 40.4195 44.1858C40.4195 44.1681 40.4247 44.1507 40.4345 44.1357L41.348 42.6278L40.0099 41.3205L38.4543 42.2232C38.4393 42.2328 38.4218 42.2379 38.4039 42.2379C38.386 42.2379 38.3684 42.2328 38.3534 42.2232C37.4332 41.6133 36.3923 41.1987 35.298 41.006C35.2801 41.0029 35.2636 40.9949 35.2503 40.9828C35.237 40.9707 35.2276 40.9552 35.2232 40.938L34.7725 39.2006H32.8776L32.427 40.9499C32.4224 40.967 32.4129 40.9824 32.3996 40.9945C32.3864 41.0065 32.3699 41.0146 32.3522 41.0179C31.7277 41.134 31.1197 41.3223 30.5408 41.5789C30.5245 41.5864 30.5062 41.589 30.4883 41.5866C30.4704 41.5842 30.4536 41.5768 30.4399 41.5653L29.0392 40.3753L27.4889 41.4344L28.1518 43.1344C28.1582 43.1508 28.1596 43.1687 28.1559 43.1858C28.1522 43.203 28.1435 43.2188 28.1309 43.2313C27.6879 43.6745 27.2995 44.1669 26.9738 44.6984C26.9645 44.7133 26.951 44.7253 26.9351 44.7331C26.9191 44.7409 26.9012 44.7442 26.8833 44.7426L25.0372 44.5573L24.3899 46.2947L25.9176 47.3147C25.9328 47.3244 25.9447 47.3384 25.9519 47.3547C25.959 47.371 25.961 47.389 25.9577 47.4065C25.8832 47.8385 25.8454 48.2757 25.8446 48.7138C25.8446 48.8838 25.8446 49.0538 25.8672 49.2663C25.868 49.2837 25.8639 49.301 25.8553 49.3163C25.8467 49.3316 25.8339 49.3443 25.8185 49.353L24.2107 50.2302L24.7014 52.0152L26.5249 51.9829C26.5428 51.9829 26.5603 51.9878 26.5754 51.9971C26.5905 52.0065 26.6026 52.0198 26.6102 52.0356C26.8852 52.6062 27.2299 53.1422 27.6368 53.6319C27.6479 53.6453 27.655 53.6615 27.6571 53.6786C27.6593 53.6958 27.6565 53.7132 27.649 53.7288L26.8625 55.3234L28.3119 56.5134L29.7665 55.4934C29.7819 55.4839 29.7997 55.4788 29.8179 55.4788C29.836 55.4788 29.8538 55.4839 29.8692 55.4934C30.4363 55.8117 31.0411 56.0611 31.6701 56.2363C31.6874 56.2409 31.7029 56.2502 31.7149 56.2632C31.727 56.2761 31.7349 56.2922 31.738 56.3094L32.0251 58.0196ZM33.8555 53.7696C32.8304 53.7693 31.8284 53.472 30.9762 52.9153C30.124 52.3586 29.4599 51.5676 29.0679 50.6421C28.6758 49.7167 28.5734 48.6985 28.7736 47.7163C28.9738 46.734 29.4676 45.8318 30.1926 45.1237C30.9176 44.4156 31.8412 43.9335 32.8467 43.7382C33.8521 43.5429 34.8942 43.6433 35.8413 44.0267C36.7883 44.41 37.5978 45.0591 38.1673 45.8919C38.7368 46.7247 39.0407 47.7037 39.0407 48.7053C39.0384 50.0479 38.4913 51.3348 37.5193 52.2838C36.5473 53.2328 35.2297 53.7666 33.8555 53.7679V53.7696ZM33.8555 43.8246C32.8675 43.8246 31.9017 44.1108 31.0802 44.6471C30.2586 45.1834 29.6184 45.9457 29.2403 46.8375C28.8622 47.7294 28.7632 48.7107 28.956 49.6575C29.1487 50.6042 29.6245 51.4739 30.3231 52.1565C31.0218 52.8391 31.9119 53.3039 32.8809 53.4922C33.85 53.6805 34.8544 53.5839 35.7672 53.2145C36.6801 52.8451 37.4603 52.2195 38.0092 51.4169C38.5581 50.6142 38.8511 49.6706 38.8511 48.7053C38.8501 47.411 38.3236 46.1699 37.387 45.2545C36.4504 44.3391 35.1803 43.8243 33.8555 43.8229V43.8246Z" fill="#263238"></path>
<path d="M28.1985 31.2529C28.1387 31.2528 28.0806 31.2341 28.0324 31.1996C27.9843 31.165 27.9486 31.1165 27.9305 31.0608C27.7418 30.4877 27.5987 29.9011 27.5025 29.3064C27.4909 29.2341 27.5093 29.1602 27.5535 29.1011C27.5977 29.0419 27.6642 29.0024 27.7382 28.9911C27.8123 28.9798 27.8879 28.9977 27.9484 29.0409C28.009 29.0841 28.0495 29.1491 28.061 29.2214C28.153 29.7878 28.2891 30.3464 28.4682 30.8925C28.4885 30.9613 28.4809 31.0351 28.4469 31.0985C28.4128 31.1618 28.355 31.2099 28.2855 31.2325C28.2579 31.2443 28.2285 31.2513 28.1985 31.2529Z" fill="#263238"></path>
<path d="M27.6434 28.0499C27.5697 28.05 27.4988 28.0219 27.4459 27.9718C27.3929 27.9216 27.362 27.8533 27.3598 27.7813C27.3598 27.6742 27.3598 27.5671 27.3598 27.46C27.3604 25.0564 28.114 22.7105 29.5195 20.7377C30.9249 18.7649 32.9147 17.2596 35.2216 16.4243C37.5284 15.5889 40.0417 15.4635 42.4236 16.0648C44.8056 16.6661 46.9421 17.9653 48.546 19.7879C48.5702 19.8154 48.5887 19.8472 48.6003 19.8817C48.6119 19.9161 48.6165 19.9524 48.6137 19.9886C48.611 20.0247 48.601 20.06 48.5843 20.0923C48.5676 20.1247 48.5445 20.1536 48.5164 20.1772C48.4883 20.2009 48.4557 20.2189 48.4205 20.2303C48.3853 20.2416 48.3481 20.2461 48.3111 20.2434C48.2741 20.2407 48.238 20.2309 48.2048 20.2146C48.1717 20.1983 48.1422 20.1758 48.118 20.1483C46.5898 18.4098 44.5535 17.1702 42.2827 16.5961C40.012 16.022 37.6158 16.141 35.4163 16.9371C33.2169 17.7332 31.3197 19.1682 29.9798 21.0491C28.64 22.9301 27.9218 25.1667 27.9218 27.4583C27.9218 27.5603 27.9218 27.6623 27.9218 27.7643C27.9229 27.8006 27.9167 27.8368 27.9035 27.8708C27.8903 27.9047 27.8704 27.9358 27.8448 27.9622C27.8193 27.9886 27.7886 28.0098 27.7546 28.0245C27.7207 28.0393 27.684 28.0473 27.6469 28.0482L27.6434 28.0499Z" fill="#263238"></path>
<path d="M49.122 18.9243L49.4334 21.4403L47.0479 20.4475L49.122 18.9243Z" fill="#263238"></path>
<path d="M61.2863 36.3276L62.7148 35.9111L62.3459 33.8711L60.8478 33.9595C60.6523 33.457 60.3946 32.9797 60.0805 32.5383L61.0218 31.3789L59.5219 29.9203L58.3248 30.8485C57.5499 30.3368 56.6738 29.9893 55.7531 29.8285L55.5791 28.3257H53.4563L53.2823 29.8387C52.7562 29.9363 52.2439 30.095 51.7563 30.3113L50.7123 29.1672L48.9723 30.3572L49.7188 31.7053C49.3452 32.0776 49.0181 32.4919 48.7444 32.9395L47.2201 32.5842L46.4998 34.5103L47.8918 35.1903C47.828 35.5536 47.796 35.9216 47.7961 36.2902C47.7961 36.4466 47.7961 36.6013 47.8152 36.756L46.3693 37.3136L46.9174 39.3145L48.4364 39.0952C48.6697 39.5756 48.9618 40.0266 49.3064 40.4382L48.4642 41.6843L50.0894 43.0154L51.1856 41.9954C51.6632 42.2639 52.1728 42.474 52.7029 42.621L52.7429 44.0864L54.8552 44.2666L55.1545 42.8437C55.7085 42.7964 56.2544 42.6822 56.7797 42.5037L57.6619 43.6648L59.4976 42.6295L58.9112 41.3069C59.3361 40.9525 59.7153 40.5489 60.0404 40.105L61.4429 40.5606L62.339 38.6906L61.074 37.9392C61.213 37.4127 61.2844 36.8713 61.2863 36.3276ZM58.7772 36.2987C58.7772 37.1171 58.5288 37.9172 58.0633 38.5977C57.5979 39.2782 56.9363 39.8085 56.1624 40.1217C55.3884 40.4348 54.5368 40.5167 53.7152 40.3569C52.8936 40.1971 52.1389 39.8028 51.5467 39.224C50.9545 38.6451 50.5513 37.9077 50.388 37.1049C50.2248 36.3021 50.309 35.4701 50.6298 34.714C50.9506 33.958 51.4937 33.3119 52.1904 32.8574C52.8871 32.4029 53.7061 32.1605 54.5438 32.1609C55.0999 32.1609 55.6505 32.2679 56.1642 32.4759C56.678 32.6839 57.1448 32.9887 57.5379 33.3729C57.931 33.7572 58.2428 34.2133 58.4555 34.7153C58.6681 35.2174 58.7774 35.7554 58.7772 36.2987Z" fill="#F3BA89"></path>
<path d="M54.8535 44.3702H54.8448L52.7342 44.2002C52.7111 44.1986 52.6894 44.1886 52.6734 44.1723C52.6573 44.156 52.648 44.1345 52.6472 44.1118L52.6089 42.7127C52.1176 42.5715 51.6442 42.3764 51.1978 42.1313L50.1538 43.0986C50.1365 43.1137 50.1142 43.122 50.0911 43.122C50.068 43.122 50.0457 43.1137 50.0285 43.0986L48.4033 41.7675C48.3857 41.7527 48.3742 41.7321 48.371 41.7095C48.3678 41.687 48.3731 41.6641 48.3859 41.6451L49.1898 40.4551C48.8762 40.0693 48.6072 39.6508 48.3877 39.2073L46.9365 39.4181C46.9135 39.4218 46.89 39.4168 46.8707 39.4042C46.8513 39.3915 46.8375 39.3722 46.8321 39.3501L46.284 37.3458C46.2782 37.324 46.2809 37.3008 46.2915 37.2807C46.302 37.2606 46.3198 37.2451 46.3414 37.237L47.723 36.7032C47.7126 36.5519 47.7091 36.4227 47.7091 36.2986C47.7092 35.9474 47.7377 35.5966 47.7943 35.2497L46.458 34.5986C46.4372 34.5887 46.4208 34.5715 46.4122 34.5505C46.4035 34.5295 46.4031 34.506 46.411 34.4847L47.1366 32.5382C47.1452 32.5173 47.161 32.4999 47.1814 32.4894C47.2018 32.4788 47.2254 32.4756 47.248 32.4804L48.7044 32.8204C48.9622 32.4083 49.265 32.0247 49.6074 31.6763L48.894 30.3877C48.8831 30.3678 48.8801 30.3447 48.8855 30.3227C48.891 30.3008 48.9045 30.2815 48.9236 30.2687L50.6636 29.0787C50.6827 29.0656 50.7061 29.0599 50.7293 29.0628C50.7524 29.0656 50.7737 29.0767 50.7889 29.094L51.7807 30.1871C52.2333 29.9915 52.7065 29.845 53.1918 29.7502L53.3658 28.3052C53.3688 28.2828 53.3799 28.2622 53.3972 28.2472C53.4144 28.2322 53.4367 28.2239 53.4598 28.2236H55.5808C55.6037 28.2239 55.6258 28.2324 55.6427 28.2474C55.6597 28.2624 55.6705 28.283 55.6731 28.3052L55.8471 29.7417C56.7333 29.906 57.5769 30.2418 58.3283 30.7294L59.4715 29.8437C59.4889 29.829 59.5111 29.8209 59.5341 29.8209C59.5571 29.8209 59.5794 29.829 59.5968 29.8437L61.0949 31.3091C61.1103 31.326 61.1188 31.3478 61.1188 31.3703C61.1188 31.3929 61.1103 31.4147 61.0949 31.4315L60.1971 32.5365C60.4852 32.9493 60.7251 33.3924 60.9122 33.8574L62.3407 33.7741C62.364 33.7729 62.3868 33.78 62.4051 33.7941C62.4233 33.8082 62.4357 33.8283 62.4399 33.8506L62.8071 35.8906C62.8114 35.9129 62.807 35.9359 62.7947 35.9551C62.7825 35.9743 62.7633 35.9883 62.7409 35.9943L61.3803 36.3904C61.3733 36.8964 61.3079 37.3999 61.1854 37.8915L62.386 38.6123C62.4055 38.6243 62.42 38.6428 62.4267 38.6643C62.4334 38.6859 62.4319 38.7091 62.4225 38.7296L61.5264 40.5996C61.5166 40.62 61.4995 40.6362 61.4784 40.6452C61.4573 40.6543 61.4336 40.6556 61.4116 40.6489L60.0735 40.2137C59.7697 40.6238 59.4195 40.999 59.0295 41.3323L59.5881 42.5937C59.5972 42.6142 59.5983 42.6373 59.5913 42.6586C59.5842 42.6799 59.5695 42.6979 59.5498 42.7093L57.7123 43.7446C57.6926 43.7562 57.6692 43.7602 57.6467 43.7558C57.6242 43.7514 57.6042 43.7389 57.5905 43.7208L56.7484 42.6124C56.2584 42.7748 55.7511 42.8821 55.2363 42.932L54.951 44.292C54.9475 44.3146 54.9357 44.335 54.9177 44.3495C54.8996 44.3639 54.8768 44.3713 54.8535 44.3702ZM52.8334 44.0115L54.7787 44.1815L55.0588 42.8385C55.0632 42.8191 55.0738 42.8015 55.0892 42.7883C55.1045 42.7752 55.1238 42.7671 55.1441 42.7654C55.6906 42.7172 56.2289 42.603 56.7466 42.4254C56.7658 42.419 56.7866 42.4186 56.806 42.4244C56.8254 42.4302 56.8424 42.4419 56.8545 42.4577L57.6862 43.5525L59.3775 42.5988L58.8225 41.351C58.8149 41.3327 58.8134 41.3126 58.8181 41.2934C58.8227 41.2742 58.8334 41.2569 58.8486 41.2439C59.2689 40.8945 59.6424 40.4946 59.9604 40.0539C59.9727 40.0382 59.9896 40.0265 60.0089 40.0204C60.0282 40.0143 60.0489 40.0142 60.0683 40.0199L61.3907 40.4517L62.2155 38.7228L61.027 38.0088C61.0099 37.9983 60.9967 37.9828 60.9892 37.9645C60.9817 37.9461 60.9803 37.926 60.9853 37.9068C61.1215 37.3874 61.1911 36.8535 61.1923 36.3173C61.1924 36.2976 61.199 36.2785 61.2113 36.2628C61.2236 36.2471 61.2407 36.2358 61.2602 36.2306L62.607 35.8379L62.2676 33.9594L60.8548 34.0427C60.8346 34.0443 60.8145 34.0393 60.7975 34.0285C60.7805 34.0178 60.7676 34.0018 60.7608 33.9832C60.5676 33.488 60.3134 33.0176 60.0039 32.5824C59.9918 32.5668 59.9852 32.5477 59.9852 32.528C59.9852 32.5084 59.9918 32.4893 60.0039 32.4736L60.8913 31.3788L59.508 30.0375L58.377 30.9147C58.361 30.9266 58.3414 30.933 58.3213 30.933C58.3012 30.933 58.2817 30.9266 58.2656 30.9147C57.5025 30.4079 56.6387 30.0639 55.7305 29.9049C55.7106 29.9014 55.6925 29.8917 55.6787 29.8773C55.6649 29.863 55.6562 29.8446 55.6539 29.825L55.4799 28.4021H53.5398L53.3658 29.8335C53.3642 29.8531 53.3559 29.8715 53.3424 29.886C53.3288 29.9004 53.3108 29.9101 53.291 29.9134C52.7726 30.0101 52.2679 30.167 51.7876 30.3809C51.7691 30.3888 51.7486 30.3907 51.7289 30.3864C51.7092 30.3821 51.6914 30.3719 51.678 30.3571L50.6949 29.2759L49.0959 30.369L49.8023 31.644C49.8115 31.6615 49.815 31.6814 49.8122 31.7009C49.8093 31.7203 49.8004 31.7385 49.7866 31.7528C49.4179 32.1196 49.0954 32.5283 48.8262 32.97C48.8153 32.9867 48.7994 32.9997 48.7808 33.0072C48.7621 33.0148 48.7415 33.0167 48.7218 33.0125L47.2793 32.6725L46.6129 34.4643L47.9318 35.1086C47.9498 35.1177 47.9644 35.1322 47.9735 35.1499C47.9825 35.1676 47.9856 35.1877 47.9823 35.2072C47.9201 35.5656 47.8887 35.9284 47.8883 36.2918C47.8883 36.4295 47.8883 36.5757 47.9074 36.7508C47.9086 36.7702 47.9035 36.7895 47.8929 36.806C47.8823 36.8224 47.8667 36.8352 47.8483 36.8426L46.4806 37.3713L46.9852 39.2124L48.4207 39.005C48.4409 39.0021 48.4614 39.0057 48.4793 39.0152C48.4972 39.0247 48.5115 39.0396 48.5199 39.0577C48.7489 39.5309 49.0352 39.9755 49.3725 40.382C49.3844 40.3978 49.3908 40.4169 49.3908 40.4364C49.3908 40.456 49.3844 40.4751 49.3725 40.4908L48.5773 41.6689L50.072 42.8946L51.116 41.9375C51.1304 41.9236 51.1492 41.9147 51.1693 41.9123C51.1894 41.9098 51.2098 41.9139 51.2274 41.9239C51.6976 42.1892 52.1996 42.3965 52.722 42.541C52.7414 42.5461 52.7586 42.5571 52.7711 42.5724C52.7836 42.5877 52.7908 42.6065 52.7916 42.626L52.8334 44.0115ZM54.5438 40.5231C53.6876 40.5231 52.8506 40.2751 52.1387 39.8103C51.4267 39.3456 50.8719 38.685 50.5442 37.9121C50.2165 37.1393 50.1308 36.2888 50.2979 35.4684C50.4649 34.6479 50.8772 33.8943 51.4826 33.3028C52.0881 32.7112 52.8595 32.3084 53.6992 32.1452C54.539 31.982 55.4094 32.0658 56.2005 32.3859C56.9915 32.706 57.6676 33.2481 58.1433 33.9437C58.619 34.6392 58.8729 35.457 58.8729 36.2935C58.8729 37.4158 58.417 38.4921 57.6053 39.2861C56.7935 40.0801 55.6924 40.5269 54.5438 40.5282V40.5231ZM54.5438 32.2475C53.7247 32.2472 52.9238 32.4842 52.2426 32.9286C51.5613 33.373 51.0303 34.0047 50.7166 34.744C50.4029 35.4833 50.3206 36.2969 50.4802 37.0818C50.6398 37.8668 51.0341 38.5879 51.6132 39.1539C52.1923 39.7199 52.9301 40.1054 53.7335 40.2617C54.5369 40.4179 55.3696 40.3379 56.1264 40.0317C56.8832 39.7255 57.5301 39.2069 57.9852 38.5415C58.4403 37.8761 58.6833 37.0938 58.6833 36.2935C58.6805 35.2221 58.2434 34.1953 57.4676 33.438C56.6918 32.6806 55.6405 32.2544 54.5438 32.2526V32.2475Z" fill="#263238"></path>
<path d="M54.4759 46.3505C52.1366 46.3449 49.8715 45.5477 48.0658 44.0946C48.0081 44.048 47.9718 43.9808 47.9647 43.908C47.9577 43.8351 47.9806 43.7625 48.0284 43.7062C48.0761 43.6498 48.1449 43.6143 48.2194 43.6074C48.294 43.6006 48.3683 43.623 48.426 43.6696C50.0984 45.0205 52.1933 45.7723 54.3631 45.8002C56.5329 45.8281 58.6473 45.1305 60.3555 43.8231C62.0638 42.5156 63.2633 40.677 63.7551 38.612C64.2469 36.5471 64.0014 34.3799 63.0594 32.47C63.04 32.437 63.0278 32.4004 63.0235 32.3626C63.0193 32.3248 63.023 32.2865 63.0346 32.2501C63.0461 32.2138 63.0652 32.1801 63.0907 32.1513C63.1161 32.1225 63.1474 32.0991 63.1825 32.0826C63.2176 32.0661 63.2558 32.0568 63.2947 32.0554C63.3337 32.0539 63.3725 32.0603 63.4088 32.0742C63.445 32.0881 63.478 32.1091 63.5056 32.1359C63.5332 32.1628 63.5549 32.1949 63.5692 32.2303C64.3094 33.7324 64.6472 35.3936 64.5509 37.058C64.4547 38.7225 63.9275 40.3359 63.0188 41.747C62.1101 43.158 60.8496 44.3206 59.3554 45.1258C57.8612 45.931 56.1823 46.3524 54.4759 46.3505Z" fill="#263238"></path>
<path d="M62.3581 33.3238L62.3494 30.7891L64.5993 32.0488L62.3581 33.3238Z" fill="#263238"></path>
</svg>