<svg viewBox="19.23 12.84 64.9 59.13" fill="none" xmlns="http://www.w3.org/2000/svg">
<path d="M76.451 32.8185C74.7272 30.8168 72.9137 28.8585 71.2613 26.7974C66.4224 20.7504 60.0576 14.9273 52.02 13.2997C43.8824 11.6523 34.1965 14.454 29.2862 21.186C26.0222 25.6589 24.7472 31.2167 24.633 36.63C24.582 39.1011 25.0186 41.5979 24.6085 44.055C24.1556 46.7577 22.593 49.1278 21.2262 51.4701C19.4188 54.5688 18.6395 57.9804 19.737 61.4731C22.2197 69.3634 33.4295 73.0304 41.1305 71.7097C45.3288 70.989 49.1762 69.0149 53.244 67.7695C56.5978 66.7419 60.0494 66.4429 63.4583 67.425C71.2266 69.6624 79.1826 65.8053 82.4731 58.713C86.445 50.1515 82.7281 40.4297 77.0386 33.5214C76.8448 33.2799 76.651 33.0482 76.451 32.8185Z" fill="#F3898B"></path>
<path opacity="0.7" d="M76.451 32.8185C74.7272 30.8168 72.9137 28.8585 71.2613 26.7974C66.4224 20.7504 60.0576 14.9273 52.02 13.2997C43.8824 11.6523 34.1965 14.454 29.2862 21.186C26.0222 25.6589 24.7472 31.2167 24.633 36.63C24.582 39.1011 25.0186 41.5979 24.6085 44.055C24.1556 46.7577 22.593 49.1278 21.2262 51.4701C19.4188 54.5688 18.6395 57.9804 19.737 61.4731C22.2197 69.3634 33.4295 73.0304 41.1305 71.7097C45.3288 70.989 49.1762 69.0149 53.244 67.7695C56.5978 66.7419 60.0494 66.4429 63.4583 67.425C71.2266 69.6624 79.1826 65.8053 82.4731 58.713C86.445 50.1515 82.7281 40.4297 77.0386 33.5214C76.8448 33.2799 76.651 33.0482 76.451 32.8185Z" fill="white"></path>
<path d="M76.451 32.8185C74.7272 30.8168 72.9137 28.8585 71.2613 26.7974C66.4224 20.7504 60.0576 14.9273 52.02 13.2997C43.8824 11.6523 34.1965 14.454 29.2862 21.186C26.0222 25.6589 24.7472 31.2167 24.633 36.63C24.582 39.1011 25.0186 41.5979 24.6085 44.055C24.1556 46.7577 22.593 49.1278 21.2262 51.4701C19.4188 54.5688 18.6395 57.9804 19.737 61.4731C22.2197 69.3634 33.4295 73.0304 41.1305 71.7097C45.3288 70.989 49.1762 69.0149 53.244 67.7695C56.5978 66.7419 60.0494 66.4429 63.4583 67.425C71.2266 69.6624 79.1826 65.8053 82.4731 58.713C86.445 50.1515 82.7281 40.4297 77.0386 33.5214C76.8448 33.2799 76.651 33.0482 76.451 32.8185Z" fill="#F3898B"></path>
<path opacity="0.7" d="M76.451 32.8185C74.7272 30.8168 72.9137 28.8585 71.2613 26.7974C66.4224 20.7504 60.0576 14.9273 52.02 13.2997C43.8824 11.6523 34.1965 14.454 29.2862 21.186C26.0222 25.6589 24.7472 31.2167 24.633 36.63C24.582 39.1011 25.0186 41.5979 24.6085 44.055C24.1556 46.7577 22.593 49.1278 21.2262 51.4701C19.4188 54.5688 18.6395 57.9804 19.737 61.4731C22.2197 69.3634 33.4295 73.0304 41.1305 71.7097C45.3288 70.989 49.1762 69.0149 53.244 67.7695C56.5978 66.7419 60.0494 66.4429 63.4583 67.425C71.2266 69.6624 79.1826 65.8053 82.4731 58.713C86.445 50.1515 82.7281 40.4297 77.0386 33.5214C76.8448 33.2799 76.651 33.0482 76.451 32.8185Z" fill="white"></path>
<path d="M55.6328 31.8783L57.5933 31.011L57.1853 28.7261L55.0229 28.5637C54.747 27.8631 54.3832 27.198 53.9396 26.5837L55.0555 24.7562L53.3643 23.1148L51.4671 24.2097C50.3744 23.4877 49.1371 22.9972 47.8359 22.7703L47.2892 20.6655H44.8983L44.3475 22.7821C43.6068 22.9193 42.8857 23.142 42.1994 23.4454L40.4899 22.0099L38.5335 23.3405L39.3495 25.3938C38.823 25.9152 38.3622 26.4954 37.9766 27.1223L35.7326 26.8966L34.9166 29.0746L36.7791 30.3002C36.6898 30.8091 36.6447 31.3244 36.6445 31.8406C36.6445 32.0604 36.6445 32.2762 36.671 32.4921L34.7106 33.5533L35.3226 35.7947L37.5421 35.767C37.871 36.4393 38.2819 37.0709 38.7661 37.648L37.8073 39.5785L39.6433 41.0694L41.4181 39.8359C42.0902 40.2125 42.8075 40.5071 43.554 40.713L43.911 42.79L46.2917 42.988L47.0097 41.0219C47.7912 40.9543 48.5608 40.792 49.3007 40.5388L50.8021 42.0218L52.8727 40.8615L52.3036 38.8637C52.9037 38.3688 53.4382 37.8035 53.8947 37.1807L55.998 37.5569L57.018 35.4561L55.3676 34.1335C55.5523 33.3954 55.6414 32.6378 55.6328 31.8783ZM52.0975 31.8387C52.0975 32.9841 51.7476 34.1038 51.0919 35.0563C50.4362 36.0087 49.5043 36.751 48.414 37.1893C47.3237 37.6277 46.1239 37.7424 44.9664 37.5189C43.8089 37.2954 42.7457 36.7438 41.9112 35.9339C41.0767 35.1239 40.5084 34.092 40.2782 32.9685C40.0479 31.8451 40.1661 30.6806 40.6177 29.6224C41.0693 28.5641 41.8342 27.6596 42.8154 27.0232C43.7967 26.3868 44.9503 26.0472 46.1305 26.0472C46.9143 26.0472 47.6904 26.197 48.4145 26.4882C49.1385 26.7794 49.7964 27.2062 50.3505 27.7442C50.9046 28.2822 51.3441 28.9208 51.6439 29.6237C51.9436 30.3266 52.0978 31.0799 52.0975 31.8406V31.8387Z" fill="#F3898B"></path>
<path d="M46.2713 43.0987L43.8906 42.9007C43.8661 42.8988 43.8429 42.889 43.8248 42.8729C43.8067 42.8567 43.7947 42.8351 43.7906 42.8116L43.4357 40.788C42.7249 40.588 42.0404 40.309 41.3957 39.9564L39.678 41.1444C39.6589 41.1592 39.6351 41.1673 39.6107 41.1673C39.5862 41.1673 39.5625 41.1592 39.5434 41.1444L37.7074 39.6535C37.6885 39.6382 37.6754 39.6172 37.6703 39.5939C37.6651 39.5706 37.6681 39.5463 37.6788 39.5248L38.605 37.6537C38.1519 37.1036 37.7639 36.5059 37.4483 35.8717L35.3002 35.8974C35.2754 35.8985 35.2511 35.8912 35.2314 35.8768C35.2116 35.8623 35.1977 35.8416 35.192 35.8182L34.58 33.5769C34.5732 33.5541 34.5746 33.5298 34.5838 33.5078C34.5931 33.4859 34.6097 33.4677 34.631 33.4561L36.5303 32.4265C36.516 32.2047 36.5099 32.0166 36.5099 31.8325C36.5101 31.3331 36.5517 30.8345 36.6343 30.3416L34.8289 29.1536C34.8087 29.1398 34.7937 29.1198 34.7863 29.0969C34.7789 29.074 34.7796 29.0494 34.7881 29.0268L35.6041 26.8488C35.6132 26.8267 35.6295 26.808 35.6504 26.7955C35.6714 26.783 35.6959 26.7774 35.7204 26.7795L37.9012 26.9973C38.2706 26.4054 38.7072 25.8555 39.2027 25.3579L38.4214 23.368C38.4122 23.3458 38.4113 23.3213 38.4187 23.2985C38.4262 23.2758 38.4415 23.2562 38.4622 23.2433L40.4185 21.9127C40.438 21.8978 40.4621 21.8896 40.4869 21.8896C40.5117 21.8896 40.5357 21.8978 40.5552 21.9127L42.2096 23.2987C42.8634 23.0164 43.5477 22.8059 44.2496 22.671L44.7821 20.6198C44.7887 20.5967 44.8028 20.5764 44.8222 20.5617C44.8417 20.5471 44.8656 20.539 44.8902 20.5386H47.2811C47.3055 20.5388 47.3292 20.5468 47.3484 20.5615C47.3677 20.5762 47.3813 20.5967 47.3872 20.6198L47.9176 22.6572C49.183 22.8871 50.3871 23.364 51.457 24.059L53.293 22.9997C53.3139 22.987 53.3387 22.9817 53.3632 22.9846C53.3876 22.9875 53.4104 22.9984 53.4276 23.0156L55.1167 24.655C55.1338 24.6721 55.1446 24.6941 55.1475 24.7177C55.1505 24.7413 55.1454 24.7651 55.133 24.7857L54.06 26.5716C54.4769 27.1623 54.8225 27.7974 55.0902 28.4645L57.1832 28.6209C57.2078 28.6228 57.2309 28.6326 57.249 28.6488C57.2672 28.6649 57.2792 28.6865 57.2832 28.71L57.6912 30.995C57.6949 31.0184 57.6908 31.0425 57.6794 31.0635C57.6681 31.0845 57.65 31.1014 57.628 31.1118L55.7308 31.9493C55.7234 32.6736 55.6289 33.3946 55.4492 34.0976L57.0445 35.3767C57.0633 35.3916 57.0764 35.4121 57.082 35.435C57.0875 35.4579 57.0851 35.482 57.0751 35.5034L56.0653 37.6062C56.0549 37.6278 56.0376 37.6455 56.0158 37.6566C55.9941 37.6677 55.9692 37.6715 55.945 37.6676L53.905 37.3032C53.4648 37.8913 52.957 38.4287 52.3913 38.9051L52.94 40.8356C52.9466 40.8586 52.9452 40.8831 52.936 40.9053C52.9267 40.9275 52.9103 40.9461 52.889 40.9583L50.8184 42.1186C50.7973 42.1298 50.773 42.1342 50.7491 42.131C50.7252 42.1278 50.703 42.1172 50.6858 42.1008L49.2313 40.6673C48.5253 40.9018 47.7934 41.0553 47.0506 41.1246L46.357 43.0274C46.3504 43.0456 46.3391 43.0617 46.324 43.0743C46.309 43.0868 46.2908 43.0952 46.2713 43.0987ZM43.9844 42.6908L46.1958 42.8769L46.8853 40.988C46.8921 40.9687 46.9047 40.9519 46.9214 40.9395C46.9381 40.9272 46.9582 40.92 46.9792 40.9187C47.7515 40.8518 48.5122 40.6915 49.2436 40.4415C49.2635 40.4348 49.2849 40.4336 49.3055 40.4382C49.3261 40.4427 49.3449 40.4528 49.3598 40.4673L50.8021 41.8909L52.7238 40.8138L52.1771 38.8952C52.1712 38.8757 52.1713 38.855 52.1775 38.8356C52.1836 38.8162 52.1956 38.7991 52.2118 38.7863C52.8042 38.2964 53.3325 37.7379 53.7846 37.1231C53.7967 37.1063 53.8136 37.0933 53.8331 37.0856C53.8526 37.0779 53.874 37.0758 53.8948 37.0795L55.9123 37.4399L56.8507 35.4896L55.2677 34.2204C55.2507 34.2076 55.2382 34.1902 55.2316 34.1705C55.2251 34.1507 55.2248 34.1294 55.231 34.1095C55.4225 33.3802 55.5205 32.6307 55.5227 31.878C55.5228 31.8575 55.529 31.8374 55.5406 31.8202C55.5522 31.803 55.5686 31.7894 55.588 31.781L57.4709 30.9474L57.0853 28.8269L55.0066 28.6704C54.9857 28.6689 54.9657 28.6616 54.9491 28.6493C54.9324 28.637 54.9198 28.6203 54.9127 28.6011C54.6408 27.9063 54.2818 27.2466 53.8438 26.637C53.8323 26.6195 53.8263 26.5993 53.8263 26.5786C53.8263 26.5579 53.8323 26.5376 53.8438 26.5202L54.9148 24.7639L53.346 23.2413L51.5222 24.2927C51.5047 24.3038 51.4841 24.3098 51.4631 24.3098C51.4421 24.3098 51.4215 24.3038 51.4039 24.2927C50.325 23.5823 49.1047 23.0994 47.8217 22.875C47.8007 22.8714 47.7813 22.862 47.7658 22.848C47.7502 22.8339 47.7391 22.8158 47.734 22.7958L47.2056 20.7722H44.984L44.4557 22.8096C44.4503 22.8295 44.4391 22.8475 44.4236 22.8615C44.4081 22.8756 44.3888 22.885 44.368 22.8888C43.6359 23.024 42.923 23.2434 42.2443 23.5422C42.2251 23.5509 42.2037 23.554 42.1828 23.5512C42.1618 23.5484 42.1421 23.5398 42.126 23.5264L40.4838 22.1404L38.6662 23.3739L39.4434 25.3539C39.4509 25.373 39.4525 25.3938 39.4482 25.4138C39.4438 25.4338 39.4337 25.4522 39.4189 25.4668C38.8995 25.9829 38.4441 26.5564 38.0623 27.1755C38.0514 27.1929 38.0356 27.2069 38.0169 27.216C37.9981 27.2251 37.9771 27.2289 37.9562 27.227L35.7918 27.0112L35.0329 29.0348L36.824 30.2228C36.8418 30.2341 36.8558 30.2503 36.8641 30.2693C36.8725 30.2884 36.8749 30.3093 36.871 30.3297C36.7836 30.8328 36.7393 31.3421 36.7384 31.8523C36.7384 32.0503 36.7384 32.2483 36.7649 32.4958C36.7658 32.5161 36.761 32.5362 36.7509 32.554C36.7408 32.5719 36.7259 32.5866 36.7078 32.5968L34.8228 33.6185L35.3981 35.6975L37.536 35.6598C37.5569 35.6598 37.5775 35.6655 37.5952 35.6764C37.6129 35.6873 37.627 35.7028 37.636 35.7212C37.9584 36.3858 38.3626 37.0101 38.8396 37.5804C38.8526 37.596 38.8609 37.6149 38.8634 37.6349C38.866 37.6548 38.8626 37.6751 38.8538 37.6933L37.9318 39.5505L39.6311 40.9365L41.3365 39.7485C41.3545 39.7374 41.3754 39.7315 41.3967 39.7315C41.418 39.7315 41.4389 39.7374 41.4569 39.7485C42.1218 40.1192 42.8308 40.4098 43.5683 40.6138C43.5885 40.6192 43.6068 40.63 43.6208 40.6451C43.6349 40.6602 43.6443 40.6789 43.6478 40.6989L43.9844 42.6908ZM46.1305 37.7408C44.9287 37.7404 43.7539 37.3942 42.7548 36.7458C41.7557 36.0974 40.9771 35.1761 40.5174 34.0982C40.0578 33.0204 39.9377 31.8345 40.1724 30.6905C40.4071 29.5464 40.9861 28.4956 41.8361 27.6709C42.6861 26.8462 43.7689 26.2846 44.9477 26.0572C46.1265 25.8297 47.3483 25.9467 48.4587 26.3932C49.569 26.8396 50.518 27.5957 51.1857 28.5656C51.8534 29.5356 52.2097 30.6759 52.2097 31.8424C52.207 33.4061 51.5655 34.905 50.4259 36.0103C49.2863 37.1157 47.7416 37.7373 46.1305 37.7388V37.7408ZM46.1305 26.1578C44.9721 26.1578 43.8398 26.4912 42.8766 27.1158C41.9135 27.7405 41.1628 28.6283 40.7195 29.667C40.2762 30.7057 40.1602 31.8487 40.3862 32.9514C40.6122 34.0541 41.17 35.067 41.9891 35.862C42.8082 36.657 43.8518 37.1984 44.9879 37.4177C46.124 37.6371 47.3016 37.5245 48.3718 37.0943C49.442 36.664 50.3567 35.9354 51.0003 35.0006C51.6439 34.0658 51.9874 32.9667 51.9874 31.8424C51.9863 30.3349 51.3689 28.8894 50.2709 27.8232C49.1728 26.7571 47.6837 26.1574 46.1305 26.1558V26.1578Z" fill="#263238"></path>
<path d="M36.5736 66.2745L34.1929 66.0765C34.1684 66.0746 34.1452 66.0648 34.1271 66.0486C34.109 66.0325 34.097 66.0109 34.0929 65.9874L33.738 63.9638C33.0272 63.7638 32.3427 63.4848 31.698 63.1322L29.9803 64.3202C29.9612 64.335 29.9374 64.343 29.913 64.343C29.8885 64.343 29.8648 64.335 29.8457 64.3202L28.0097 62.8293C27.9908 62.814 27.9777 62.793 27.9725 62.7697C27.9674 62.7464 27.9704 62.722 27.9811 62.7006L28.9073 60.8295C28.4542 60.2794 28.0662 59.6816 27.7506 59.0475L25.6024 59.0732C25.5777 59.0743 25.5534 59.067 25.5337 59.0525C25.5139 59.0381 25.5 59.0174 25.4943 58.994L24.8823 56.7527C24.8755 56.7299 24.8769 56.7056 24.8861 56.6836C24.8954 56.6617 24.912 56.6435 24.9333 56.6319L26.8326 55.6023C26.8183 55.3805 26.8122 55.1924 26.8122 55.0083C26.8124 54.5089 26.854 54.0103 26.9366 53.5173L25.1312 52.3293C25.111 52.3155 25.096 52.2956 25.0886 52.2727C25.0812 52.2498 25.0819 52.2251 25.0904 52.2026L25.9064 50.0246C25.9155 50.0025 25.9318 49.9837 25.9527 49.9713C25.9737 49.9588 25.9982 49.9532 26.0227 49.9553L28.2034 50.1731C28.5729 49.5812 29.0095 49.0313 29.505 48.5337L28.7237 46.5438C28.7145 46.5216 28.7136 46.4971 28.721 46.4743C28.7284 46.4515 28.7438 46.432 28.7644 46.419L30.7208 45.0885C30.7403 45.0735 30.7643 45.0654 30.7892 45.0654C30.814 45.0654 30.838 45.0735 30.8575 45.0885L32.5119 46.4745C33.1657 46.1922 33.85 45.9816 34.5519 45.8468L35.0844 43.7955C35.091 43.7725 35.1051 43.7521 35.1245 43.7375C35.144 43.7229 35.1679 43.7148 35.1925 43.7144H37.5834C37.6078 43.7145 37.6315 43.7226 37.6507 43.7373C37.6699 43.752 37.6836 43.7725 37.6895 43.7955L38.2199 45.833C39.4852 46.0629 40.6894 46.5398 41.7593 47.2348L43.5952 46.1755C43.6162 46.1628 43.641 46.1575 43.6654 46.1604C43.6899 46.1633 43.7127 46.1742 43.7299 46.1913L45.419 47.8308C45.4361 47.8478 45.4469 47.8699 45.4498 47.8935C45.4528 47.917 45.4477 47.9409 45.4353 47.9615L44.3623 49.7474C44.7792 50.338 45.1248 50.9732 45.3925 51.6403L47.4855 51.7967C47.51 51.7986 47.5332 51.8084 47.5513 51.8245C47.5694 51.8407 47.5815 51.8623 47.5855 51.8858L47.9935 54.1707C47.9972 54.1942 47.9931 54.2182 47.9817 54.2393C47.9703 54.2603 47.9523 54.2772 47.9302 54.2876L46.0331 55.1251C46.0257 55.8494 45.9312 56.5704 45.7515 57.2734L47.3468 58.5525C47.3656 58.5674 47.3787 58.5879 47.3843 58.6108C47.3898 58.6337 47.3874 58.6577 47.3774 58.6792L46.3676 60.782C46.3572 60.8036 46.3398 60.8213 46.3181 60.8324C46.2964 60.8434 46.2715 60.8473 46.2472 60.8433L44.2072 60.479C43.7671 61.0671 43.2592 61.6045 42.6936 62.0808L43.2423 64.0113C43.2489 64.0344 43.2475 64.0589 43.2383 64.0811C43.229 64.1033 43.2125 64.1219 43.1913 64.1341L41.1207 65.2944C41.0996 65.3056 41.0753 65.31 41.0514 65.3068C41.0275 65.3036 41.0053 65.293 40.9881 65.2766L39.5336 63.843C38.8276 64.0776 38.0957 64.2311 37.3529 64.3004L36.6593 66.2032C36.6527 66.2214 36.6414 66.2375 36.6263 66.25C36.6113 66.2626 36.5931 66.271 36.5736 66.2745ZM34.2867 65.8666L36.4981 66.0527L37.1876 64.1638C37.1944 64.1445 37.207 64.1277 37.2237 64.1153C37.2404 64.103 37.2605 64.0957 37.2815 64.0945C38.0538 64.0276 38.8145 63.8673 39.5459 63.6173C39.5658 63.6106 39.5872 63.6094 39.6078 63.6139C39.6284 63.6185 39.6472 63.6286 39.6621 63.6431L41.1044 65.0667L43.0261 63.9896L42.4794 62.0709C42.4735 62.0515 42.4736 62.0308 42.4798 62.0114C42.4859 61.992 42.4979 61.9749 42.5141 61.962C43.1065 61.4722 43.6347 60.9136 44.0869 60.2988C44.099 60.2821 44.1159 60.2691 44.1354 60.2614C44.1549 60.2537 44.1763 60.2515 44.1971 60.2553L46.2146 60.6156L47.153 58.6653L45.57 57.3962C45.553 57.3834 45.5405 57.366 45.5339 57.3462C45.5273 57.3264 45.5271 57.3052 45.5332 57.2853C45.7248 56.556 45.8228 55.8065 45.825 55.0538C45.8251 55.0333 45.8313 55.0132 45.8429 54.996C45.8545 54.9788 45.8709 54.9652 45.8902 54.9568L47.7732 54.1232L47.3876 52.0026L45.3089 51.8462C45.288 51.8447 45.268 51.8374 45.2513 51.8251C45.2347 51.8128 45.2221 51.796 45.215 51.7769C44.9431 51.0821 44.5841 50.4224 44.1461 49.8128C44.1346 49.7953 44.1285 49.775 44.1285 49.7543C44.1285 49.7337 44.1346 49.7134 44.1461 49.6959L45.2171 47.9397L43.6483 46.4171L41.8245 47.4684C41.8069 47.4796 41.7864 47.4855 41.7654 47.4855C41.7444 47.4855 41.7238 47.4796 41.7062 47.4684C40.6273 46.7581 39.407 46.2752 38.124 46.0508C38.103 46.0472 38.0836 46.0378 38.068 46.0237C38.0525 46.0097 38.0414 45.9916 38.0363 45.9716L37.5079 43.948H35.2863L34.758 45.9854C34.7526 46.0053 34.7414 46.0233 34.7259 46.0373C34.7104 46.0513 34.6911 46.0608 34.6703 46.0646C33.9382 46.1998 33.2252 46.4191 32.5466 46.718C32.5274 46.7267 32.506 46.7298 32.485 46.727C32.4641 46.7242 32.4444 46.7156 32.4283 46.7022L30.7861 45.3162L28.9684 46.5497L29.7457 48.5297C29.7532 48.5488 29.7548 48.5696 29.7505 48.5896C29.7461 48.6096 29.736 48.628 29.7212 48.6426C29.2017 49.1587 28.7464 49.7322 28.3646 50.3513C28.3536 50.3687 28.3379 50.3827 28.3192 50.3918C28.3004 50.4009 28.2794 50.4047 28.2585 50.4028L26.0941 50.187L25.3352 52.2105L27.1263 53.3985C27.1441 53.4099 27.1581 53.4261 27.1664 53.4451C27.1748 53.4641 27.1772 53.4851 27.1733 53.5055C27.0859 54.0086 27.0416 54.5179 27.0407 55.0281C27.0407 55.2261 27.0407 55.4241 27.0672 55.6716C27.0681 55.6919 27.0633 55.712 27.0532 55.7298C27.0431 55.7476 27.0282 55.7624 27.0101 55.7726L25.1251 56.7942L25.7004 58.8732L27.8383 58.8356C27.8592 58.8356 27.8798 58.8413 27.8975 58.8522C27.9152 58.863 27.9293 58.8786 27.9383 58.897C28.2607 59.5616 28.6649 60.1859 29.1419 60.7562C29.1549 60.7718 29.1632 60.7907 29.1657 60.8106C29.1683 60.8306 29.1649 60.8509 29.1561 60.8691L28.2341 62.7263L29.9334 64.1123L31.6388 62.9243C31.6568 62.9132 31.6777 62.9073 31.699 62.9073C31.7203 62.9073 31.7412 62.9132 31.7592 62.9243C32.4241 63.295 33.1331 63.5856 33.8706 63.7896C33.8908 63.7949 33.909 63.8058 33.9231 63.8209C33.9372 63.836 33.9466 63.8546 33.9501 63.8747L34.2867 65.8666ZM36.4328 60.9166C35.231 60.9162 34.0562 60.5699 33.0571 59.9216C32.058 59.2732 31.2794 58.3519 30.8197 57.274C30.36 56.1962 30.24 55.0103 30.4747 53.8662C30.7094 52.7222 31.2884 51.6714 32.1384 50.8467C32.9884 50.022 34.0712 49.4604 35.25 49.2329C36.4288 49.0055 37.6506 49.1224 38.761 49.5689C39.8713 50.0154 40.8203 50.7714 41.488 51.7414C42.1556 52.7113 42.512 53.8517 42.512 55.0182C42.5093 56.5819 41.8678 58.0807 40.7282 59.1861C39.5886 60.2914 38.0439 60.913 36.4328 60.9146V60.9166ZM36.4328 49.3336C35.2744 49.3336 34.1421 49.667 33.1789 50.2916C32.2158 50.9162 31.4651 51.8041 31.0218 52.8428C30.5785 53.8815 30.4625 55.0245 30.6885 56.1272C30.9145 57.2299 31.4723 58.2428 32.2914 59.0378C33.1105 59.8328 34.1541 60.3742 35.2902 60.5935C36.4263 60.8129 37.6039 60.7003 38.6741 60.27C39.7443 59.8398 40.659 59.1112 41.3026 58.1764C41.9462 57.2415 42.2896 56.1425 42.2896 55.0182C42.2886 53.5107 41.6712 52.0652 40.5732 50.999C39.4751 49.9329 37.986 49.3332 36.4328 49.3316V49.3336Z" fill="#263238"></path>
<path d="M33.0602 36.4004C32.9902 36.4003 32.922 36.3785 32.8656 36.3383C32.8091 36.2981 32.7673 36.2415 32.7461 36.1767C32.5249 35.5091 32.3571 34.826 32.2442 34.1333C32.2307 34.049 32.2522 33.963 32.3041 33.8941C32.3559 33.8252 32.4338 33.7792 32.5206 33.766C32.6075 33.7529 32.6961 33.7738 32.7671 33.8241C32.8381 33.8744 32.8855 33.95 32.8991 34.0343C33.0069 34.694 33.1665 35.3446 33.3764 35.9807C33.4003 36.0607 33.3914 36.1467 33.3515 36.2205C33.3115 36.2943 33.2437 36.3503 33.1622 36.3767C33.13 36.3904 33.0954 36.3985 33.0602 36.4004Z" fill="#263238"></path>
<path d="M32.4095 32.6701C32.323 32.6701 32.24 32.6375 32.1779 32.5791C32.1158 32.5207 32.0796 32.4411 32.077 32.3572C32.077 32.2325 32.077 32.1078 32.077 31.983C32.0777 29.1835 32.9613 26.4513 34.609 24.1535C36.2567 21.8557 38.5896 20.1026 41.2942 19.1296C43.9988 18.1567 46.9454 18.0105 49.738 18.7109C52.5307 19.4112 55.0355 20.9245 56.916 23.0473C56.9444 23.0793 56.966 23.1164 56.9796 23.1565C56.9933 23.1965 56.9986 23.2389 56.9954 23.281C56.9922 23.3231 56.9804 23.3641 56.9609 23.4018C56.9413 23.4395 56.9143 23.4731 56.8813 23.5007C56.8484 23.5283 56.8101 23.5493 56.7688 23.5625C56.7275 23.5757 56.6839 23.5809 56.6405 23.5778C56.5972 23.5746 56.5548 23.5633 56.516 23.5443C56.4772 23.5253 56.4425 23.499 56.4141 23.467C54.6225 21.4422 52.2351 19.9984 49.5728 19.3297C46.9106 18.6611 44.1012 18.7997 41.5226 19.7269C38.9439 20.6541 36.7196 22.3255 35.1487 24.5162C33.5779 26.7069 32.7359 29.312 32.7359 31.981C32.7359 32.0998 32.7359 32.2186 32.7359 32.3374C32.7372 32.3797 32.73 32.4219 32.7145 32.4614C32.699 32.501 32.6756 32.5371 32.6456 32.5679C32.6157 32.5986 32.5797 32.6233 32.5399 32.6405C32.5001 32.6577 32.4571 32.6671 32.4135 32.6681L32.4095 32.6701Z" fill="#263238"></path>
<path d="M57.5912 22.0415L57.9564 24.9719L55.1596 23.8156L57.5912 22.0415Z" fill="#263238"></path>
<path d="M71.8529 42.3106L73.5277 41.8255L73.0952 39.4495L71.3388 39.5524C71.1095 38.9672 70.8074 38.4113 70.4392 37.8972L71.5428 36.5468L69.7843 34.848L68.3808 35.929C67.4723 35.333 66.4452 34.9283 65.3657 34.741L65.1617 32.9907H62.6729L62.4689 34.7529C61.8521 34.8666 61.2515 35.0514 60.6798 35.3034L59.4558 33.9708L57.4158 35.3568L58.291 36.927C57.853 37.3606 57.4695 37.8432 57.1486 38.3644L55.3615 37.9506L54.517 40.194L56.149 40.986C56.0742 41.4091 56.0367 41.8377 56.0368 42.267C56.0368 42.4492 56.0368 42.6294 56.0592 42.8095L54.364 43.459L55.0066 45.7894L56.7875 45.534C57.061 46.0936 57.4035 46.6188 57.8075 47.0982L56.8201 48.5496L58.7255 50.0999L60.0107 48.9119C60.5706 49.2246 61.1681 49.4693 61.7896 49.6405L61.8365 51.3473L64.313 51.5572L64.6639 49.8999C65.3135 49.8449 65.9535 49.7118 66.5693 49.5039L67.6036 50.8563L69.7558 49.6504L69.0683 48.11C69.5665 47.6972 70.011 47.2271 70.3922 46.7101L72.0365 47.2408L73.0871 45.0628L71.604 44.1876C71.767 43.5744 71.8506 42.9439 71.8529 42.3106ZM68.9112 42.2769C68.9112 43.2302 68.6199 44.162 68.0742 44.9546C67.5285 45.7472 66.7529 46.3649 65.8455 46.7296C64.9381 47.0943 63.9396 47.1896 62.9764 47.0035C62.0132 46.8174 61.1284 46.3582 60.4341 45.684C59.7397 45.0098 59.267 44.1509 59.0756 43.2159C58.8843 42.2809 58.9829 41.3119 59.359 40.4313C59.7352 39.5507 60.3719 38.7982 61.1887 38.2688C62.0055 37.7395 62.9657 37.4572 63.9479 37.4576C64.5998 37.4576 65.2454 37.5823 65.8477 37.8245C66.45 38.0667 66.9973 38.4217 67.4582 38.8693C67.9191 39.3168 68.2847 39.8481 68.534 40.4328C68.7833 41.0175 68.9115 41.6441 68.9112 42.2769Z" fill="#F3898B"></path>
<path d="M64.311 51.6781H64.3008L61.8263 51.4801C61.7992 51.4782 61.7738 51.4666 61.755 51.4476C61.7361 51.4286 61.7252 51.4035 61.7243 51.3772L61.6794 49.7476C61.1034 49.5831 60.5484 49.3559 60.025 49.0704L58.801 50.1971C58.7808 50.2146 58.7546 50.2243 58.7275 50.2243C58.7004 50.2243 58.6743 50.2146 58.6541 50.1971L56.7487 48.6467C56.728 48.6294 56.7145 48.6054 56.7108 48.5792C56.707 48.5529 56.7133 48.5263 56.7283 48.5042L57.6708 47.1182C57.3031 46.6688 56.9878 46.1814 56.7304 45.6649L55.029 45.9104C55.0021 45.9146 54.9745 45.9088 54.9518 45.8941C54.9291 45.8794 54.9129 45.8569 54.9066 45.8312L54.264 43.4967C54.2572 43.4713 54.2603 43.4443 54.2727 43.4209C54.2851 43.3975 54.306 43.3794 54.3313 43.37L55.9511 42.7483C55.9388 42.5721 55.9348 42.4216 55.9348 42.2771C55.9349 41.8679 55.9683 41.4594 56.0347 41.0554L54.468 40.2971C54.4436 40.2855 54.4244 40.2655 54.4142 40.241C54.4041 40.2165 54.4036 40.1892 54.4129 40.1644L55.2636 37.8973C55.2736 37.8729 55.2922 37.8527 55.3161 37.8404C55.3401 37.8281 55.3677 37.8244 55.3942 37.83L57.1016 38.226C57.4039 37.746 57.7589 37.2992 58.1604 36.8934L57.324 35.3926C57.3112 35.3694 57.3076 35.3424 57.314 35.3169C57.3204 35.2913 57.3363 35.2689 57.3587 35.254L59.3987 33.868C59.4211 33.8527 59.4485 33.8461 59.4757 33.8494C59.5028 33.8527 59.5277 33.8657 59.5456 33.8858L60.7084 35.159C61.239 34.9311 61.7938 34.7605 62.3628 34.6501L62.5668 32.9671C62.5702 32.941 62.5833 32.917 62.6035 32.8996C62.6238 32.8821 62.6499 32.8723 62.677 32.8721H65.1637C65.1906 32.8724 65.2164 32.8822 65.2363 32.8997C65.2562 32.9172 65.2689 32.9412 65.2718 32.9671L65.4758 34.6402C66.5148 34.8315 67.5039 35.2227 68.3849 35.7906L69.7252 34.759C69.7455 34.7419 69.7716 34.7324 69.7986 34.7324C69.8256 34.7324 69.8516 34.7419 69.872 34.759L71.6285 36.4658C71.6465 36.4854 71.6565 36.5107 71.6565 36.537C71.6565 36.5633 71.6465 36.5887 71.6285 36.6083L70.5758 37.8953C70.9137 38.3761 71.1949 38.8922 71.4143 39.4338L73.0891 39.3368C73.1163 39.3354 73.1432 39.3436 73.1646 39.36C73.186 39.3764 73.2005 39.3998 73.2054 39.4259L73.6358 41.8019C73.6409 41.8278 73.6358 41.8546 73.6214 41.877C73.607 41.8993 73.5845 41.9157 73.5583 41.9226L71.963 42.384C71.9549 42.9733 71.8783 43.5598 71.7346 44.1323L73.1422 44.9719C73.1651 44.9858 73.182 45.0073 73.1899 45.0324C73.1977 45.0575 73.196 45.0845 73.185 45.1085L72.1344 47.2865C72.1228 47.3102 72.1028 47.329 72.0781 47.3396C72.0534 47.3501 72.0256 47.3517 71.9998 47.3439L70.431 46.837C70.0748 47.3146 69.6642 47.7516 69.207 48.1399L69.8618 49.609C69.8725 49.6329 69.8739 49.6598 69.8656 49.6846C69.8574 49.7094 69.8401 49.7304 69.817 49.7436L67.6627 50.9495C67.6396 50.9629 67.6122 50.9676 67.5858 50.9624C67.5594 50.9573 67.5359 50.9428 67.5199 50.9217L66.5326 49.6308C65.9582 49.82 65.3634 49.9448 64.7598 50.003L64.4252 51.587C64.4212 51.6133 64.4073 51.6371 64.3862 51.6539C64.3651 51.6708 64.3383 51.6794 64.311 51.6781ZM61.9426 51.2603L64.2233 51.4583L64.5517 49.8941C64.5568 49.8714 64.5693 49.851 64.5873 49.8356C64.6053 49.8203 64.6278 49.811 64.6517 49.809C65.2924 49.7529 65.9235 49.6199 66.5305 49.413C66.553 49.4054 66.5773 49.405 66.6001 49.4118C66.6228 49.4185 66.6427 49.4321 66.657 49.4506L67.6321 50.7257L69.615 49.615L68.9642 48.1616C68.9554 48.1403 68.9536 48.1169 68.9591 48.0945C68.9646 48.0722 68.977 48.052 68.9948 48.0369C69.4876 47.6299 69.9256 47.1642 70.2984 46.6509C70.3128 46.6325 70.3326 46.6189 70.3552 46.6118C70.3778 46.6047 70.4021 46.6046 70.4249 46.6113L71.9753 47.1142L72.9422 45.1005L71.5489 44.2689C71.5289 44.2567 71.5134 44.2386 71.5046 44.2173C71.4958 44.1959 71.4942 44.1724 71.5 44.1501C71.6597 43.5452 71.7413 42.9233 71.7427 42.2989C71.7428 42.2759 71.7506 42.2536 71.7649 42.2353C71.7793 42.2171 71.7995 42.2039 71.8223 42.1979L73.4012 41.7405L73.0034 39.5526L71.347 39.6496C71.3233 39.6514 71.2997 39.6456 71.2798 39.633C71.2599 39.6205 71.2448 39.602 71.2368 39.5803C71.0103 39.0035 70.7123 38.4557 70.3494 37.9488C70.3352 37.9306 70.3275 37.9083 70.3275 37.8854C70.3275 37.8626 70.3352 37.8403 70.3494 37.8221L71.3898 36.5469L69.768 34.9847L68.442 36.0064C68.4232 36.0202 68.4003 36.0277 68.3767 36.0277C68.3531 36.0277 68.3302 36.0202 68.3114 36.0064C67.4168 35.4161 66.404 35.0154 65.3392 34.8303C65.3159 34.8262 65.2946 34.8149 65.2784 34.7982C65.2623 34.7814 65.2521 34.76 65.2494 34.7372L65.0454 33.08H62.7708L62.5668 34.7471C62.5649 34.7699 62.5552 34.7914 62.5393 34.8082C62.5235 34.8251 62.5023 34.8363 62.4791 34.8402C61.8713 34.9528 61.2795 35.1356 60.7165 35.3847C60.6948 35.3938 60.6707 35.396 60.6476 35.391C60.6245 35.3861 60.6037 35.3741 60.588 35.357L59.4354 34.0977L57.5606 35.3708L58.3889 36.8558C58.3997 36.8762 58.4037 36.8993 58.4004 36.922C58.3971 36.9447 58.3867 36.9659 58.3705 36.9825C57.9382 37.4098 57.5601 37.8857 57.2444 38.4002C57.2317 38.4196 57.2131 38.4347 57.1912 38.4436C57.1693 38.4524 57.1452 38.4546 57.122 38.4497L55.4309 38.0537L54.6496 40.1406L56.1959 40.8911C56.217 40.9017 56.2341 40.9185 56.2447 40.9391C56.2554 40.9598 56.259 40.9832 56.255 41.0059C56.1822 41.4233 56.1453 41.8458 56.1449 42.2691C56.1449 42.4295 56.1449 42.5998 56.1673 42.8037C56.1686 42.8264 56.1627 42.8488 56.1502 42.868C56.1378 42.8871 56.1195 42.9021 56.098 42.9107L54.4945 43.5265L55.0861 45.6708L56.7691 45.4292C56.7927 45.4259 56.8168 45.43 56.8378 45.4411C56.8588 45.4521 56.8755 45.4695 56.8854 45.4906C57.1539 46.0417 57.4895 46.5595 57.885 47.033C57.8989 47.0514 57.9064 47.0736 57.9064 47.0964C57.9064 47.1192 57.8989 47.1414 57.885 47.1597L56.9527 48.5319L58.7051 49.9595L59.9291 48.8447C59.946 48.8285 59.968 48.8182 59.9916 48.8153C60.0152 48.8125 60.0391 48.8172 60.0596 48.8289C60.6109 49.1378 61.1995 49.3793 61.812 49.5476C61.8347 49.5535 61.8549 49.5663 61.8695 49.5841C61.8842 49.6019 61.8927 49.6238 61.8936 49.6466L61.9426 51.2603ZM63.9479 47.1974C62.944 47.1974 61.9627 46.9085 61.1281 46.3671C60.2934 45.8258 59.6429 45.0565 59.2587 44.1563C58.8746 43.2562 58.774 42.2657 58.9699 41.3101C59.1657 40.3545 59.6491 39.4767 60.3589 38.7878C61.0688 38.0988 61.9731 37.6296 62.9577 37.4395C63.9422 37.2495 64.9628 37.347 65.8902 37.7199C66.8176 38.0927 67.6103 38.7241 68.168 39.5343C68.7257 40.3444 69.0234 41.2968 69.0234 42.2711C69.0234 43.5782 68.4888 44.8318 67.5372 45.7566C66.5855 46.6814 65.2945 47.2017 63.9479 47.2033V47.1974ZM63.9479 37.5587C62.9875 37.5583 62.0486 37.8344 61.2499 38.352C60.4512 38.8695 59.8286 39.6054 59.4608 40.4664C59.093 41.3274 58.9966 42.275 59.1837 43.1893C59.3708 44.1035 59.833 44.9434 60.512 45.6026C61.1909 46.2618 62.056 46.7108 62.9979 46.8928C63.9398 47.0748 64.9161 46.9816 65.8034 46.625C66.6907 46.2684 67.4491 45.6644 67.9826 44.8894C68.5162 44.1144 68.801 43.2032 68.801 42.2711C68.7978 41.0232 68.2853 39.8273 67.3758 38.9452C66.4662 38.0632 65.2336 37.5668 63.9479 37.5647V37.5587Z" fill="#263238"></path>
<path d="M63.8683 53.9848C61.1256 53.9783 58.47 53.0498 56.353 51.3574C56.2853 51.303 56.2427 51.2248 56.2345 51.14C56.2263 51.0551 56.2531 50.9706 56.3091 50.9049C56.3651 50.8393 56.4457 50.7979 56.5331 50.79C56.6205 50.782 56.7076 50.808 56.7752 50.8624C58.736 52.4358 61.1921 53.3113 63.736 53.3438C66.2799 53.3763 68.7588 52.5638 70.7616 51.0411C72.7644 49.5183 74.1707 47.3768 74.7473 44.9718C75.3239 42.5667 75.0361 40.0426 73.9316 37.8181C73.9089 37.7797 73.8946 37.7371 73.8896 37.693C73.8846 37.6489 73.8891 37.6044 73.9026 37.562C73.9161 37.5197 73.9385 37.4805 73.9683 37.4469C73.9982 37.4134 74.0348 37.3861 74.076 37.3669C74.1171 37.3477 74.1619 37.3369 74.2076 37.3352C74.2532 37.3335 74.2987 37.341 74.3413 37.3571C74.3838 37.3733 74.4225 37.3977 74.4548 37.429C74.4872 37.4603 74.5126 37.4977 74.5294 37.539C75.3972 39.2885 75.7932 41.2232 75.6804 43.1618C75.5675 45.1005 74.9494 46.9796 73.884 48.623C72.8186 50.2665 71.3408 51.6206 69.5891 52.5584C67.8373 53.4962 65.8689 53.987 63.8683 53.9848Z" fill="#263238"></path>
<path d="M73.1095 38.812L73.0993 35.8599L75.737 37.327L73.1095 38.812Z" fill="#263238"></path>
</svg>