<svg viewBox="12.73 17.67 63.23 55.73" fill="none" xmlns="http://www.w3.org/2000/svg">
<path d="M28.9197 33.7639C34.0051 33.3397 38.642 30.4076 42.3889 26.5233C58.861 6.40823 89.0623 23.5207 69.6817 48.4529C60.2388 61.3783 48.4997 63.1242 36.5327 63.1365C12.4458 64.4037 11.0146 43.8329 13.7167 38.0372C16.4953 32.3629 24.03 34.3201 28.9197 33.7639Z" fill="#89CFF3"></path>
<path opacity="0.9" d="M28.9197 33.7639C34.0051 33.3397 38.642 30.4076 42.3889 26.5233C58.861 6.40823 89.0623 23.5207 69.6817 48.4529C60.2388 61.3783 48.4997 63.1242 36.5327 63.1365C12.4458 64.4037 11.0146 43.8329 13.7167 38.0372C16.4953 32.3629 24.03 34.3201 28.9197 33.7639Z" fill="white"></path>
<path d="M60.2584 35.4302C60.0105 35.3368 59.7353 35.3444 59.493 35.4513C59.2508 35.5581 59.0613 35.7556 58.9661 36.0005V36.011C58.7881 36.4616 58.6101 36.935 58.4321 37.3944C58.2541 37.8537 58.0618 38.3149 57.8696 38.7672C57.6774 39.2195 57.4727 39.663 57.2608 40.0872C57.1558 40.2984 57.0419 40.5043 56.9315 40.6979C56.8799 40.7841 56.8265 40.8739 56.7749 40.9443C56.7304 40.8845 56.6859 40.8193 56.6414 40.7525C56.4901 40.5219 56.3441 40.2685 56.2 40.008C56.0558 39.7475 55.9134 39.48 55.7745 39.2195L55.7639 39.2001C55.7083 39.0993 55.619 39.0206 55.5114 38.9776C55.4037 38.9345 55.2843 38.9297 55.1734 38.9639C55.0625 38.9982 54.9671 39.0694 54.9034 39.1654C54.8397 39.2614 54.8117 39.3763 54.824 39.4905C54.8641 39.8164 54.9235 40.1396 55.002 40.4585C55.0802 40.7835 55.1789 41.1032 55.2975 41.416C55.3638 41.5842 55.4393 41.7487 55.5236 41.9088C55.622 42.0998 55.7453 42.2773 55.8902 42.4368C55.993 42.5522 56.1131 42.6513 56.2462 42.7307C56.4527 42.8592 56.6931 42.9242 56.9369 42.9173C57.0772 42.9121 57.2156 42.8835 57.3463 42.8328C57.4551 42.7864 57.5578 42.7273 57.6524 42.6568C57.7545 42.5797 57.8476 42.4918 57.9301 42.3945C58.1398 42.1705 58.332 41.931 58.5051 41.6782L58.5442 41.6201C58.692 41.4037 58.8219 41.1889 58.9465 40.9725C59.2206 40.5025 59.4591 40.0309 59.6834 39.5645C59.7653 39.3885 59.8454 39.2125 59.9219 39.0365C60.059 38.7337 60.1872 38.4293 60.3118 38.123C60.504 37.6373 60.6927 37.1638 60.8618 36.6587C60.9402 36.4165 60.9213 36.1537 60.8089 35.925C60.6965 35.6962 60.4994 35.519 60.2584 35.4302Z" fill="#263238"></path>
<path opacity="0.2" d="M59.9095 39.0439C59.8329 39.2199 59.7528 39.3959 59.6709 39.5719C59.4467 40.0471 59.2081 40.5188 58.934 40.9799C58.8094 41.1964 58.6795 41.4111 58.5317 41.6276C58.2701 40.1896 59.1814 38.4736 59.1814 38.4736C59.4306 38.5194 59.6798 38.7306 59.9095 39.0439Z" fill="black"></path>
<path d="M66.8444 40.9235C66.8444 41.1804 66.823 41.4515 66.8088 41.7172C66.7643 42.5233 66.6877 43.4051 66.572 44.3572C66.5352 44.674 66.4931 44.9996 66.4456 45.334L58.8806 45.4625C58.5122 44.4663 58.1811 42.3174 59.2171 40.4483C59.2171 39.2532 58.9198 37.9297 58.8824 36.6502C58.8593 35.8494 59.5624 35.1137 60.5218 34.9465C61.992 34.7061 63.4861 34.6417 64.9718 34.7547C65.787 34.8092 66.4296 35.2932 66.556 35.9638C66.6797 36.6567 66.7641 37.3559 66.8088 38.0582C66.8586 38.859 66.8817 39.8129 66.8444 40.9235Z" fill="#263238"></path>
<path d="M61.2961 34.6947C61.1187 34.7757 60.9785 34.9195 60.9031 35.0977C60.8276 35.2759 60.8224 35.4756 60.8885 35.6574C60.96 35.9208 61.0979 36.162 61.2894 36.3584C61.4808 36.5548 61.7195 36.6999 61.9832 36.7803C62.2876 36.8436 64.0925 35.9003 64.3185 35.0643C64.5446 34.2283 61.2961 34.6947 61.2961 34.6947Z" fill="#89CFF3"></path>
<path opacity="0.5" d="M61.2961 34.6947C61.1187 34.7757 60.9785 34.9195 60.9031 35.0977C60.8276 35.2759 60.8224 35.4756 60.8885 35.6574C60.96 35.9208 61.0979 36.162 61.2894 36.3584C61.4808 36.5548 61.7195 36.6999 61.9832 36.7803C62.2876 36.8436 64.0925 35.9003 64.3185 35.0643C64.5446 34.2283 61.2961 34.6947 61.2961 34.6947Z" fill="white"></path>
<path opacity="0.2" d="M66.8087 41.7119C66.7642 42.518 66.6877 43.3998 66.572 44.3519C65.682 44.3343 64.3577 44.227 64.0391 43.7553C63.5513 43.0319 63.9394 42.6025 63.9394 42.6025C63.9394 42.6025 66.0238 42.1484 66.8087 41.7119Z" fill="black"></path>
<path opacity="0.2" d="M66.8444 40.9233C65.8867 39.9693 65.6411 37.0513 65.6411 37.0513C65.6411 37.0513 66.1947 37.4772 66.8052 38.0597C66.8586 38.8588 66.8817 39.8127 66.8444 40.9233Z" fill="black"></path>
<path d="M55.2316 40.0908L53.8076 39.686L54.8383 38.4751C54.8383 38.4751 56.0398 38.8271 55.8475 39.5645L55.2316 40.0908Z" fill="#FF8B7B"></path>
<path d="M53.3484 38.7955L53.7044 38.2376C53.7338 38.19 53.7725 38.1489 53.8184 38.1165C53.8643 38.0841 53.9163 38.0613 53.9713 38.0493C54.0263 38.0373 54.0832 38.0364 54.1386 38.0467C54.194 38.0569 54.2467 38.0782 54.2936 38.1091L54.8472 38.4752L53.8165 39.6861L53.4232 39.3094C53.3529 39.2453 53.3072 39.1592 53.2936 39.0656C53.2799 38.972 53.2993 38.8766 53.3484 38.7955Z" fill="#FF8B7B"></path>
<path d="M58.8361 71.8975L60.2744 71.9203C60.3004 71.9201 60.3256 71.9293 60.3453 71.9461C60.3649 71.963 60.3777 71.9864 60.3812 72.0119L60.5592 73.1752C60.5633 73.204 60.5611 73.2333 60.5526 73.2611C60.5442 73.2889 60.5297 73.3146 60.5102 73.3364C60.4908 73.3581 60.4668 73.3754 60.4399 73.3871C60.413 73.3988 60.3838 73.4046 60.3545 73.404C59.8347 73.3864 59.0871 73.3459 58.4339 73.3354C57.6702 73.3231 57.7468 73.3547 56.8514 73.3354C56.3174 73.3354 56.1964 72.7827 56.426 72.737C57.4709 72.5311 57.5777 72.5187 58.5033 71.989C58.6039 71.9296 58.7189 71.898 58.8361 71.8975Z" fill="#263238"></path>
<path d="M61.0006 58.2557C62.6026 51.5959 64.137 48.706 63.53 45.4077L58.8789 45.4623C58.8789 45.4623 57.0455 54.521 57.4353 58.4264C57.8411 62.4885 58.4339 71.9415 58.4339 71.9415L60.5574 71.9714C60.5574 71.9714 61.7945 62.7983 61.0006 58.2557Z" fill="#89CFF3"></path>
<path opacity="0.3" d="M61.0006 58.2557C62.6026 51.5959 64.137 48.706 63.53 45.4077L58.8789 45.4623C58.8789 45.4623 57.0455 54.521 57.4353 58.4264C57.8411 62.4885 58.4339 71.9415 58.4339 71.9415L60.5574 71.9714C60.5574 71.9714 61.7945 62.7983 61.0006 58.2557Z" fill="black"></path>
<path opacity="0.2" d="M61.232 57.3125C62.0918 53.9175 62.8981 51.5573 63.3306 49.5791C60.31 50.6527 60.5681 54.3733 61.232 57.3125Z" fill="black"></path>
<path d="M66.0861 71.8976L67.5243 71.9205C67.5496 71.9208 67.574 71.9303 67.5927 71.9472C67.6114 71.9641 67.6232 71.9871 67.6258 72.012L67.7522 73.1754C67.7544 73.2048 67.7504 73.2344 67.7405 73.2622C67.7305 73.29 67.7149 73.3155 67.6944 73.337C67.674 73.3585 67.6493 73.3756 67.6219 73.3872C67.5944 73.3987 67.5648 73.4045 67.535 73.4042C67.017 73.3866 66.855 73.3461 66.2018 73.3356C65.4399 73.3232 65.7906 73.3549 64.897 73.3356C64.363 73.3356 64.2705 72.7864 64.5019 72.7372C65.2335 72.5858 65.4257 72.2972 65.7568 71.9892C65.8512 71.9191 65.9686 71.8865 66.0861 71.8976Z" fill="#263238"></path>
<path d="M65.9187 58.256C66.6414 51.5962 67.4923 48.6323 66.4527 45.3306L61.604 45.459C61.604 45.459 61.4723 54.5178 62.3819 58.4232C63.3288 62.4853 65.5378 71.9382 65.5378 71.9382L67.6738 71.9682C67.6738 71.9682 67.316 62.7986 65.9187 58.256Z" fill="#89CFF3"></path>
<path opacity="0.3" d="M65.9187 58.256C66.6414 51.5962 67.4923 48.6323 66.4527 45.3306L61.604 45.459C61.604 45.459 61.4723 54.5178 62.3819 58.4232C63.3288 62.4853 65.5378 71.9382 65.5378 71.9382L67.6738 71.9682C67.6738 71.9682 67.316 62.7986 65.9187 58.256Z" fill="black"></path>
<path d="M63.3769 32.9224C63.3769 33.688 63.4232 34.5838 64.0569 35.1224C63.7009 35.5923 63.0191 36.3121 62.0312 36.1872C60.9436 36.0499 61.1537 35.0731 61.394 34.7668C61.928 34.4624 61.7802 34.0048 61.7197 33.6862L63.3769 32.9224Z" fill="#FF8B7B"></path>
<path opacity="0.2" d="M63.012 33.2356C63.012 33.1881 63.012 33.1388 63.012 33.0913L61.7215 33.6862C61.7849 33.9005 61.7971 34.1264 61.7571 34.3462C62.3766 34.1596 62.9978 33.6985 63.012 33.2356Z" fill="black"></path>
<path d="M64.0231 30.7999C63.8575 32.0829 63.8273 32.8415 63.1242 33.4557C62.0686 34.378 60.4969 33.6687 60.2762 32.3592C60.0732 31.1818 60.3776 29.281 61.6877 28.8621C61.9776 28.7701 62.2864 28.7522 62.5852 28.8102C62.884 28.8682 63.1631 29.0001 63.3964 29.1936C63.6296 29.3872 63.8094 29.636 63.919 29.9169C64.0286 30.1978 64.0644 30.5016 64.0231 30.7999Z" fill="#FF8B7B"></path>
<path d="M61.944 31.064C61.944 31.1696 61.8746 31.2506 61.8052 31.24C61.7358 31.2295 61.6859 31.145 61.693 31.0412C61.7001 30.9373 61.7607 30.8546 61.8301 30.8652C61.8995 30.8757 61.9529 30.9602 61.944 31.064Z" fill="#263238"></path>
<path d="M60.6179 31.0074C60.6179 31.113 60.5503 31.194 60.4808 31.1834C60.4114 31.1728 60.3598 31.0884 60.3669 30.9845C60.374 30.8807 60.4363 30.798 60.5058 30.8085C60.5752 30.8191 60.625 30.9018 60.6179 31.0074Z" fill="#263238"></path>
<path d="M61.0042 31.1411C60.8371 31.4426 60.6287 31.7198 60.3847 31.9648C60.4499 32.0253 60.5276 32.0712 60.6124 32.0991C60.6972 32.1271 60.7872 32.1365 60.876 32.1267L61.0042 31.1411Z" fill="#FF5652"></path>
<path d="M62.1861 30.3667C62.1967 30.3648 62.2069 30.3612 62.2164 30.3562C62.23 30.3469 62.2395 30.3327 62.2429 30.3166C62.2462 30.3005 62.2431 30.2838 62.2342 30.2699C62.1816 30.1863 62.1096 30.1163 62.0241 30.0658C61.9387 30.0153 61.8422 29.9857 61.7429 29.9795C61.7346 29.9793 61.7264 29.9807 61.7187 29.9837C61.7111 29.9867 61.7041 29.9913 61.6983 29.997C61.6924 30.0028 61.6879 30.0097 61.6848 30.0173C61.6818 30.0248 61.6803 30.033 61.6806 30.0411C61.6806 30.0492 61.6822 30.0572 61.6853 30.0647C61.6884 30.0722 61.693 30.079 61.6988 30.0847C61.7046 30.0904 61.7115 30.0949 61.719 30.098C61.7266 30.1011 61.7347 30.1027 61.7429 30.1027C61.8216 30.1088 61.8977 30.1334 61.9648 30.1744C62.032 30.2155 62.0883 30.2717 62.1291 30.3386C62.1356 30.3475 62.1441 30.3548 62.154 30.3597C62.164 30.3646 62.175 30.367 62.1861 30.3667Z" fill="#263238"></path>
<path d="M60.2156 30.4723C60.2256 30.4743 60.2359 30.4738 60.2456 30.4707C60.2552 30.4676 60.2639 30.4621 60.2708 30.4547C60.3236 30.3975 60.3894 30.3536 60.4628 30.3267C60.5361 30.2997 60.615 30.2905 60.6927 30.2998C60.7007 30.3013 60.709 30.3013 60.7171 30.2996C60.7251 30.298 60.7328 30.2948 60.7395 30.2902C60.7463 30.2856 60.7521 30.2797 60.7566 30.2729C60.7611 30.2661 60.7642 30.2585 60.7657 30.2505C60.7672 30.2425 60.7671 30.2343 60.7655 30.2264C60.7638 30.2184 60.7606 30.2109 60.7559 30.2042C60.7513 30.1975 60.7454 30.1917 60.7385 30.1873C60.7316 30.1829 60.7239 30.1798 60.7158 30.1784C60.6179 30.1652 60.5182 30.1757 60.4253 30.2087C60.3323 30.2418 60.2488 30.2966 60.1818 30.3684C60.1759 30.3742 60.1712 30.381 60.168 30.3886C60.1648 30.3961 60.1631 30.4042 60.1631 30.4124C60.1631 30.4206 60.1648 30.4287 60.168 30.4363C60.1712 30.4439 60.1759 30.4507 60.1818 30.4564C60.1909 30.4655 60.2028 30.4711 60.2156 30.4723Z" fill="#263238"></path>
<path d="M60.9721 32.3836C61.0993 32.5461 61.2147 32.7173 61.3175 32.8958L61.4207 32.8571C61.8853 32.6811 62.0419 32.4488 62.0757 32.2428C62.0942 32.0844 62.0565 31.9245 61.9689 31.7905C61.7785 32.0281 61.3584 32.2252 61.1288 32.3185C61.0344 32.366 60.9721 32.3836 60.9721 32.3836Z" fill="#263238"></path>
<path d="M61.1288 32.3258L61.2356 32.4736C61.6717 32.3064 61.9583 32.1304 62.0437 31.9456C62.0256 31.8916 62.0005 31.8401 61.9689 31.7925C61.7785 32.0318 61.3584 32.229 61.1288 32.3258Z" fill="white"></path>
<path d="M61.4207 32.8608C61.8853 32.6848 62.0419 32.4525 62.0757 32.2466C61.9002 32.3171 61.7387 32.4178 61.5987 32.544C61.5069 32.6283 61.4446 32.7392 61.4207 32.8608Z" fill="#DE5753"></path>
<path d="M60.9187 29.3812C60.9187 29.3812 60.5325 29.1595 60.7674 28.5998C61.0024 28.0401 63.2398 28.4484 64.2188 29.3038C65.1978 30.1592 63.902 31.7942 63.902 31.7942L63.3021 32.1286C63.3021 32.1286 62.7254 30.8086 63.1241 29.8406C62.881 29.6629 62.6278 29.4989 62.3659 29.3496C62.2003 29.2774 61.4367 29.7561 60.9187 29.3812Z" fill="#263238"></path>
<path d="M64.3808 32.1446C64.2033 32.418 63.9237 32.6109 63.603 32.6814C63.1776 32.7694 62.9889 32.3857 63.1277 32.0021C63.2523 31.6501 63.6261 31.1942 64.0444 31.2769C64.1354 31.2967 64.2201 31.3384 64.2907 31.3985C64.3614 31.4586 64.4158 31.5351 64.4492 31.6211C64.4825 31.7071 64.4938 31.8 64.4818 31.8914C64.4699 31.9828 64.4352 32.0698 64.3808 32.1446Z" fill="#FF8B7B"></path>
<path d="M69.1744 41.4743C69.1744 41.4198 69.1744 41.3459 69.1637 41.3212L69.1406 41.1135C69.121 40.978 69.1014 40.8407 69.0747 40.7105C68.8542 39.7092 68.5011 38.7411 68.0245 37.8311C67.7984 37.3876 67.5599 36.9511 67.3 36.5358C67.1719 36.3246 67.0402 36.1169 66.9031 35.911C66.766 35.7051 66.6308 35.5079 66.4706 35.2897C66.3138 35.0849 66.0826 34.9484 65.8259 34.9091C65.5691 34.8698 65.307 34.9308 65.095 35.0792C64.8829 35.2276 64.7376 35.4517 64.6897 35.7042C64.6418 35.9567 64.6951 36.2176 64.8383 36.4319L64.8472 36.4478C64.9629 36.6132 65.0928 36.8121 65.2139 36.9969C65.3349 37.1817 65.4595 37.3771 65.5699 37.5689C65.8048 37.9561 66.0362 38.3415 66.2481 38.7358C66.6759 39.4863 67.0169 40.2822 67.2645 41.1083C67.2947 41.2068 67.3125 41.3019 67.3357 41.3987L67.3623 41.5412C67.3623 41.5747 67.3623 41.5606 67.3623 41.5641C67.3623 41.5641 67.3766 41.5412 67.3819 41.5483C67.3873 41.5553 67.3819 41.5817 67.3481 41.6187C67.2492 41.7269 67.1317 41.8168 67.001 41.8844C66.8304 41.9839 66.6518 42.0693 66.467 42.1396C66.0539 42.296 65.6312 42.4265 65.2014 42.5303C64.9807 42.5831 64.7582 42.6395 64.5322 42.6887C64.3061 42.738 64.0747 42.7803 63.8593 42.8243H63.8308C63.7111 42.8463 63.6036 42.9111 63.529 43.0063C63.4544 43.1015 63.4178 43.2205 63.4261 43.3407C63.4345 43.4609 63.4872 43.5738 63.5743 43.6581C63.6614 43.7423 63.7768 43.7919 63.8985 43.7975C64.9118 43.8753 65.9312 43.8065 66.9245 43.5934C67.1952 43.5306 67.4607 43.447 67.7183 43.3435C68.0251 43.22 68.3085 43.0463 68.5567 42.8295C68.7154 42.6896 68.849 42.5242 68.9519 42.3403C69.0705 42.1272 69.141 41.8912 69.1584 41.6486C69.1726 41.594 69.1779 41.5359 69.1744 41.4743Z" fill="#263238"></path>
<path d="M63.619 34.3833C63.651 34.6807 63.2915 35.735 62.0312 36.1873C62.5172 36.1873 62.729 36.7998 62.729 36.7998C62.729 36.7998 64.4004 35.9198 64.201 34.8638C64.1761 34.7291 64.1042 34.6073 63.9979 34.5195C63.8915 34.4317 63.7575 34.3835 63.619 34.3833Z" fill="#89CFF3"></path>
<path d="M61.6396 34.4644C61.6717 34.7548 61.3299 35.3672 62.0312 36.1874C61.5435 36.1874 61.2534 36.6696 61.2534 36.6696C61.0656 36.3797 60.9544 36.0477 60.9302 35.7042C60.9059 35.3607 60.9693 35.0167 61.1145 34.7037C61.2608 34.5729 61.444 34.4894 61.6396 34.4644Z" fill="#89CFF3"></path>
<path d="M58.7845 45.1753L58.74 46.1837L66.6254 45.9725L66.4955 44.9658L58.7845 45.1753Z" fill="#89CFF3"></path>
<path opacity="0.3" d="M58.7845 45.1753L58.74 46.1837L66.6254 45.9725L66.4955 44.9658L58.7845 45.1753Z" fill="black"></path>
<path d="M65.8529 45.6928L66.6254 45.6788L66.5222 45.1719L65.8529 45.186V45.6928Z" fill="#263238"></path>
<path d="M65.6428 45.1895L62.8518 45.2493V45.7491L65.6428 45.6963V45.1895Z" fill="#263238"></path>
<path d="M59.3488 45.3218L58.74 45.3359V45.8234L59.3488 45.8128V45.3218Z" fill="#263238"></path>
<path d="M59.5286 45.3182V45.8093L62.5777 45.753V45.2549L59.5286 45.3182Z" fill="#263238"></path>
<path d="M61.1857 45.9039H60.5307C60.4899 45.9039 60.4508 45.888 60.4218 45.8597C60.3928 45.8313 60.3763 45.7928 60.3758 45.7525V45.3689C60.3758 45.3289 60.3916 45.2904 60.4199 45.2618C60.4482 45.2332 60.4867 45.2167 60.5271 45.2157L61.1822 45.2017C61.2236 45.203 61.2632 45.2185 61.2943 45.2457C61.309 45.2599 61.3206 45.2769 61.3285 45.2956C61.3365 45.3144 61.3406 45.3345 61.3406 45.3548V45.7596C61.3383 45.7986 61.321 45.8354 61.2922 45.8622C61.2634 45.889 61.2253 45.904 61.1857 45.9039ZM60.5396 45.3759V45.7596L61.1857 45.749L61.1768 45.3618L60.5396 45.3759Z" fill="white"></path>
<path d="M61.1163 45.6351H60.9258C60.9043 45.6346 60.8837 45.626 60.8684 45.6109C60.8532 45.5958 60.8444 45.5755 60.844 45.5541C60.844 45.5327 60.8526 45.5121 60.8679 45.4969C60.8833 45.4817 60.9041 45.4732 60.9258 45.4732H61.1163C61.1271 45.4729 61.1379 45.4749 61.1479 45.4788C61.158 45.4828 61.1671 45.4888 61.1747 45.4963C61.1824 45.5039 61.1884 45.5129 61.1924 45.5229C61.1965 45.5328 61.1984 45.5434 61.1982 45.5541C61.1982 45.5756 61.1896 45.5962 61.1742 45.6114C61.1588 45.6266 61.138 45.6351 61.1163 45.6351Z" fill="white"></path>
<path d="M61.6841 43.7622H63.0138L63.2559 41.4214H61.4403L61.6841 43.7622Z" fill="#89CFF3"></path>
<path d="M61.3424 41.5181H63.3538V41.2822H61.3424V41.5181Z" fill="white"></path>
<path d="M61.7482 42.5233C61.7635 42.6151 61.805 42.7007 61.868 42.7699C61.9309 42.8391 62.0125 42.8891 62.1032 42.9139C62.1939 42.9387 62.2899 42.9374 62.3798 42.91C62.4698 42.8826 62.5499 42.8303 62.6108 42.7593C62.6717 42.6884 62.7107 42.6016 62.7233 42.5094C62.7359 42.4172 62.7216 42.3233 62.682 42.2389C62.6424 42.1545 62.5792 42.083 62.4998 42.033C62.4204 41.983 62.3283 41.9564 62.2341 41.9565C62.094 41.9687 61.9643 42.035 61.8733 42.1411C61.7823 42.2472 61.7374 42.3846 61.7482 42.5233Z" fill="white"></path>
<path d="M64.4734 42.7555L63.2042 42.3472L63.1562 43.9312C63.1562 43.9312 64.3506 44.1635 64.5802 43.5545L64.4734 42.7555Z" fill="#FF8B7B"></path>
<path d="M61.9636 42.9595L62.0401 43.5174C62.0553 43.6248 62.1085 43.7234 62.1904 43.7956C62.2722 43.8678 62.3773 43.9089 62.4869 43.9116L63.1562 43.9292L63.2043 42.3452L62.3677 42.442C62.3064 42.4489 62.2472 42.4679 62.1935 42.4979C62.1398 42.5278 62.0927 42.5681 62.0551 42.6163C62.0174 42.6646 61.9899 42.7198 61.9742 42.7787C61.9585 42.8377 61.9549 42.8991 61.9636 42.9595Z" fill="#FF8B7B"></path>
<path opacity="0.7" d="M63.619 34.3833C63.651 34.6807 63.2915 35.735 62.0312 36.1873C62.5172 36.1873 62.729 36.7998 62.729 36.7998C62.729 36.7998 64.4004 35.9198 64.201 34.8638C64.1761 34.7291 64.1042 34.6073 63.9979 34.5195C63.8915 34.4317 63.7575 34.3835 63.619 34.3833Z" fill="white"></path>
<path opacity="0.7" d="M61.6396 34.4644C61.6717 34.7548 61.3299 35.3672 62.0312 36.1874C61.5435 36.1874 61.2534 36.6696 61.2534 36.6696C61.0656 36.3797 60.9544 36.0477 60.9302 35.7042C60.9059 35.3607 60.9693 35.0167 61.1145 34.7037C61.2608 34.5729 61.444 34.4894 61.6396 34.4644Z" fill="white"></path>
<path d="M51.7482 42.7786L53.1027 42.6026L52.526 41.4375C52.526 41.4375 51.28 41.7983 51.3156 42.1978L51.7482 42.7786Z" fill="#FFB573"></path>
<path d="M53.7916 41.6118L53.1775 40.9043L52.526 41.4446L53.1027 42.6097L53.7916 41.6118Z" fill="#FFB573"></path>
<path d="M45.0607 40.6754C45.0607 40.6754 45.9952 42.9493 47.5118 43.7783C49.0283 44.6072 51.8834 42.7786 51.8834 42.7786L51.442 41.9708C51.442 41.9708 48.2985 42.7328 48.1686 42.6167C48.0386 42.5005 46.6324 38.7447 44.8329 38.2378L45.0607 40.6754Z" fill="#89CFF3"></path>
<path opacity="0.7" d="M51.8852 42.7806C51.8852 42.7806 49.0372 44.6093 47.5117 43.7786C47.0067 43.481 46.5662 43.0874 46.2159 42.6205C45.7503 42.0256 45.3622 41.3751 45.0607 40.6845L44.84 38.2451C46.6378 38.7467 48.044 42.5096 48.1757 42.6258C48.3074 42.7419 51.442 41.971 51.442 41.971L51.8852 42.7806Z" fill="white"></path>
<path opacity="0.1" d="M46.2159 42.6204C45.9185 42.2448 45.6547 41.8443 45.4274 41.4236C45.4471 41.1078 45.5442 40.8016 45.7104 40.5312C45.7104 40.5312 46.3387 41.2722 46.2159 42.6204Z" fill="black"></path>
<path d="M40.4238 31.9951C40.4238 31.9951 41.4562 30.6065 43.3163 31.6431C45.6997 32.9596 44.3131 39.1143 44.3131 39.1143L40.2191 39.7708C40.2191 39.7708 37.7253 32.5249 40.4238 31.9951Z" fill="#263238"></path>
<path d="M45.6392 46.2495C45.6392 46.2495 46.5417 53.1874 46.4616 57.5945C46.7748 61.7269 47.0383 70.4002 47.5118 71.3366C47.4957 71.5478 46.7214 71.59 46.5203 71.4633C46.5203 71.4633 43.4267 64.3036 43.8503 57.5945C40.9792 50.5967 41.15 46.2495 41.15 46.2495H45.6392Z" fill="#FFB573"></path>
<path d="M44.4163 46.2495C44.4163 46.2495 42.364 54.0815 41.5505 57.9271C40.6979 61.9646 39.8221 66.8433 39.8097 71.4369C39.5818 71.5706 39.3273 71.7678 38.8645 71.627C38.8645 71.627 36.8656 62.4292 38.7079 58.1049C37.8997 48.5375 40.4594 46.2495 40.4594 46.2495H44.4163Z" fill="#FFB573"></path>
<path d="M40.4238 46.0698L45.5698 46.7738C45.6321 45.6949 46.1358 40.3674 46.1198 39.8975C46.0895 39.0175 45.3437 38.2536 44.3985 38.1375C44.1369 38.104 43.8645 38.0724 43.5993 38.0512C42.7892 37.9966 41.9762 37.9966 41.1661 38.0512C40.9347 38.0618 40.7104 38.0794 40.4986 38.0988C39.7047 38.1744 39.1564 38.8943 39.4306 39.6088C39.7759 40.5047 40.3134 45.3517 40.4238 46.0698Z" fill="#89CFF3"></path>
<path opacity="0.7" d="M46.1198 39.894C46.134 40.3657 45.6321 45.6914 45.5698 46.7721L40.4238 46.0681C40.4113 45.9889 40.3953 45.8639 40.3739 45.702C40.3099 45.2039 40.2066 44.3538 40.0874 43.4351C40.0357 43.055 39.9841 42.6607 39.9272 42.277C39.8275 41.573 39.7242 40.906 39.6263 40.3956C39.5806 40.1248 39.5146 39.8577 39.4288 39.5966C39.1564 38.8785 39.7029 38.1586 40.4968 38.0847C40.7086 38.0654 40.9329 38.0495 41.1643 38.0372C41.9739 37.9843 42.7861 37.9843 43.5957 38.0372C43.861 38.0601 44.1297 38.0918 44.3967 38.1252C45.3437 38.2502 46.0913 39.0158 46.1198 39.894Z" fill="white"></path>
<path d="M41.337 35.3354C41.5488 36.1098 41.8087 37.5284 41.2996 38.0441C41.2996 38.0441 40.9347 38.7234 43.0013 38.6601C43.1793 39.086 43.5353 39.8657 43.5353 39.8657C43.5353 39.8657 43.5602 38.9487 43.4178 38.6337C44.7457 38.521 43.7382 38.0388 43.7382 38.0388C42.8482 37.8329 42.8233 37.1922 42.9301 36.5903L41.337 35.3354Z" fill="#FFB573"></path>
<path opacity="0.2" d="M41.9848 35.8496L42.9247 36.5958C42.8965 36.7367 42.8822 36.8799 42.882 37.0235C42.5438 36.976 42.0596 36.6135 41.992 36.2685C41.9636 36.1305 41.9612 35.9885 41.9848 35.8496Z" fill="black"></path>
<path d="M40.6071 33.9891C40.8314 35.1683 40.9026 35.6699 41.5861 36.2349C42.6167 37.0832 44.0301 36.6344 44.1653 35.4341C44.2864 34.3535 43.8983 32.6093 42.663 32.2203C42.4017 32.1269 42.1198 32.1042 41.8466 32.1546C41.5734 32.205 41.3188 32.3267 41.1091 32.5071C40.8995 32.6875 40.7424 32.92 40.6541 33.1806C40.5659 33.4411 40.5496 33.7203 40.6071 33.9891Z" fill="#FFB573"></path>
<path d="M41.6378 33.1392C40.9756 33.9787 42.3355 34.9432 40.9756 34.8869C39.6157 34.8306 40.1693 32.9509 40.9756 32.5179C41.7819 32.085 41.6378 33.1392 41.6378 33.1392Z" fill="#263238"></path>
<path d="M40.9809 32.5322C41.1589 33.3347 41.2817 33.5442 42.0098 33.3259C41.9013 33.1647 41.8534 32.971 41.8745 32.7786C41.9471 32.972 42.0925 33.1303 42.2803 33.2203C42.4758 33.1406 42.6793 33.0816 42.8873 33.0443C42.8476 32.9314 42.8354 32.8108 42.8517 32.6923C42.909 32.8255 43.0042 32.9392 43.1258 33.0197C43.3495 33.0233 43.5712 33.0619 43.7826 33.1341C43.788 32.2858 42.3195 31.3741 40.9809 32.5322Z" fill="#263238"></path>
<path d="M42.5064 34.1862C42.5206 34.2865 42.5865 34.3622 42.6506 34.3622C42.7147 34.3622 42.7574 34.2724 42.7414 34.1721C42.7253 34.0718 42.663 33.9961 42.5972 33.9961C42.5313 33.9961 42.4922 34.0859 42.5064 34.1862Z" fill="#263238"></path>
<path d="M43.731 34.1161C43.7471 34.2146 43.8111 34.2921 43.8752 34.2921C43.9393 34.2921 43.982 34.2041 43.9678 34.1037C43.9535 34.0034 43.8877 33.9277 43.8236 33.9277C43.7595 33.9277 43.7168 34.0157 43.731 34.1161Z" fill="#263238"></path>
<path d="M43.788 33.9349L44.0158 33.8486C44.0158 33.8486 43.9286 34.044 43.788 33.9349Z" fill="#263238"></path>
<path d="M43.4142 34.3042C43.5366 34.5254 43.6874 34.7301 43.8627 34.9132C43.8159 34.9532 43.7605 34.9824 43.7008 34.9985C43.641 35.0147 43.5784 35.0174 43.5174 35.0064L43.4142 34.3042Z" fill="#ED893E"></path>
<path d="M40.4897 35.1261C40.5396 35.2301 40.6108 35.3227 40.6987 35.3981C40.7867 35.4735 40.8894 35.5301 41.0005 35.5644C41.28 35.6365 41.401 35.3233 41.3085 35.0082C41.223 34.7266 40.9774 34.3482 40.705 34.4169C40.4327 34.4855 40.349 34.8481 40.4897 35.1261Z" fill="#FFB573"></path>
<path d="M42.1647 33.6513C42.1801 33.651 42.1948 33.6447 42.2056 33.6337C42.2533 33.5794 42.3138 33.5376 42.3819 33.5121C42.4499 33.4866 42.5233 33.4782 42.5954 33.4876C42.6029 33.4889 42.6106 33.4887 42.618 33.4869C42.6254 33.4852 42.6323 33.482 42.6385 33.4776C42.6446 33.4732 42.6498 33.4676 42.6537 33.4611C42.6576 33.4547 42.6602 33.4476 42.6613 33.4401C42.6625 33.4245 42.6579 33.4089 42.6485 33.3963C42.639 33.3836 42.6252 33.3748 42.6097 33.3715C42.5191 33.3578 42.4266 33.3667 42.3405 33.3974C42.2543 33.4282 42.1774 33.4798 42.1166 33.5475C42.111 33.5529 42.1066 33.5593 42.1036 33.5664C42.1006 33.5735 42.0991 33.5811 42.0991 33.5888C42.0991 33.5965 42.1006 33.6042 42.1036 33.6113C42.1066 33.6184 42.111 33.6248 42.1166 33.6302C42.1225 33.6371 42.1299 33.6425 42.1382 33.6462C42.1465 33.6499 42.1556 33.6516 42.1647 33.6513Z" fill="#263238"></path>
<path d="M44.007 33.5441C44.0219 33.545 44.0367 33.5399 44.0479 33.5301C44.0534 33.5247 44.0578 33.5182 44.0608 33.5111C44.0638 33.504 44.0654 33.4964 44.0654 33.4887C44.0654 33.481 44.0638 33.4734 44.0608 33.4663C44.0578 33.4592 44.0534 33.4527 44.0479 33.4473C43.986 33.3746 43.9082 33.3167 43.8202 33.2783C43.7323 33.2399 43.6367 33.2218 43.5406 33.2256C43.533 33.2264 43.5256 33.2288 43.519 33.2326C43.5123 33.2364 43.5066 33.2415 43.502 33.2477C43.4975 33.2538 43.4943 33.2608 43.4927 33.2682C43.4911 33.2756 43.491 33.2833 43.4925 33.2907C43.4959 33.3061 43.5048 33.3197 43.5176 33.3291C43.5303 33.3385 43.5461 33.343 43.562 33.3417C43.6377 33.3399 43.713 33.3547 43.7823 33.3851C43.8515 33.4156 43.9131 33.4609 43.9625 33.5177C43.9676 33.525 43.9742 33.5311 43.9819 33.5356C43.9895 33.5401 43.9981 33.5431 44.007 33.5441Z" fill="#263238"></path>
<path d="M42.5705 34.0052L42.7983 33.9189C42.7983 33.9189 42.704 34.1143 42.5705 34.0052Z" fill="#263238"></path>
<path d="M43.4409 35.4834C43.3399 35.6123 43.2483 35.7482 43.1668 35.89L43.0849 35.86C42.7146 35.7192 42.5918 35.5344 42.5651 35.3725C42.5535 35.2925 42.562 35.2109 42.59 35.1349C42.604 35.0912 42.6244 35.0496 42.6506 35.0117C42.8389 35.1986 43.066 35.3427 43.3163 35.4341C43.391 35.4658 43.4409 35.4834 43.4409 35.4834Z" fill="#263238"></path>
<path d="M43.3163 35.4341L43.2326 35.552C42.8855 35.42 42.6577 35.2792 42.5901 35.1349C42.604 35.0912 42.6244 35.0496 42.6506 35.0117C42.8389 35.1986 43.066 35.3427 43.3163 35.4341Z" fill="white"></path>
<path d="M43.0849 35.8601C42.7147 35.7193 42.5919 35.5345 42.5652 35.3726C42.7047 35.4276 42.8331 35.5068 42.9443 35.6066C43.0166 35.6747 43.0657 35.7633 43.0849 35.8601Z" fill="#DE5753"></path>
<path d="M43.1009 37.731C43.1009 37.731 43.4925 38.1463 43.4124 38.6391L44.3131 38.8274C44.2669 38.5358 44.1217 38.2683 43.9014 38.0691C43.6811 37.8698 43.3988 37.7506 43.1009 37.731Z" fill="#89CFF3"></path>
<path d="M43.0012 38.6605C43.0012 38.6605 41.7944 37.9741 41.5256 37.6045L40.9916 38.004C40.9916 38.004 40.8225 38.6271 41.5523 39.1867L43.0012 38.6605Z" fill="#89CFF3"></path>
<path opacity="0.6" d="M43.1009 37.731C43.1009 37.731 43.4925 38.1463 43.4124 38.6391L44.3131 38.8274C44.2669 38.5358 44.1217 38.2683 43.9014 38.0691C43.6811 37.8698 43.3988 37.7506 43.1009 37.731Z" fill="white"></path>
<path opacity="0.6" d="M43.0012 38.6605C43.0012 38.6605 41.7944 37.9741 41.5256 37.6045L40.9916 38.004C40.9916 38.004 40.8225 38.6271 41.5523 39.1867L43.0012 38.6605Z" fill="white"></path>
<path d="M46.3637 73.3413H46.636L46.709 73.0174L47.5901 73.4064H49.8204C49.8204 73.4064 50.1764 73.0544 49.1084 72.7745C49.0561 72.7611 49.0054 72.7422 48.9571 72.7182C48.3911 72.4577 47.5812 71.5742 47.5812 71.5742H46.3583C46.3213 71.6307 46.288 71.6895 46.2586 71.7502C46.1216 72.0107 45.892 72.5704 46.3637 73.3413Z" fill="#263238"></path>
<path d="M46.2551 71.7449C46.4153 71.5689 47.154 72.345 47.6933 72.609C48.1739 72.8449 48.715 72.947 48.9535 72.7059C48.3875 72.4454 47.4922 71.2979 47.4922 71.2979H46.5078C46.5078 71.2979 46.312 71.6323 46.2551 71.7449Z" fill="#EBB376"></path>
<path d="M38.6509 73.3413H38.9179L38.9909 73.0174L39.872 73.4064H42.1024C42.1024 73.4064 42.4584 73.0544 41.3904 72.7745C41.338 72.7611 41.2873 72.7422 41.2391 72.7182C40.673 72.4577 39.8631 71.5742 39.8631 71.5742H38.6403C38.6032 71.6307 38.5699 71.6895 38.5406 71.7502C38.4089 72.0107 38.181 72.5704 38.6509 73.3413Z" fill="#263238"></path>
<path d="M38.5423 71.7449C38.7025 71.5689 39.4412 72.345 39.9806 72.609C40.4629 72.8449 41.0023 72.947 41.2408 72.7059C40.6748 72.4454 39.7794 71.2979 39.7794 71.2979H38.7951C38.7951 71.2979 38.5993 71.6323 38.5423 71.7449Z" fill="#EBB376"></path>
<path d="M38.3572 56.5665C38.4931 56.7147 38.6539 56.8385 38.8325 56.9325C38.8574 56.0525 39.1155 55.6337 39.1155 55.6337C39.0714 56.1394 39.1184 56.6489 39.2543 57.1385C40.6232 57.7105 43.2629 58.0871 46.563 57.2881C46.563 53.4601 45.7976 47.0185 45.7442 46.3901C45.7442 46.3901 41.8282 46.4922 40.2405 46.4922C38.5014 48.5426 38.0333 55.125 38.3572 56.5665Z" fill="#263238"></path>
<path opacity="0.2" d="M38.3572 56.5665C38.4931 56.7147 38.6539 56.8385 38.8325 56.9325C38.8574 56.0525 39.1155 55.6337 39.1155 55.6337C39.0714 56.1394 39.1184 56.6489 39.2543 57.1385C40.6232 57.7105 43.2629 58.0871 46.563 57.2881C46.563 53.4601 45.7976 47.0185 45.7442 46.3901C45.7442 46.3901 41.8282 46.4922 40.2405 46.4922C38.5014 48.5426 38.0333 55.125 38.3572 56.5665Z" fill="white"></path>
<path d="M45.714 46.6278C43.8798 46.8236 42.0294 46.8201 40.196 46.6172C40.1761 46.6152 40.1571 46.6084 40.1406 46.5974C40.124 46.5864 40.1105 46.5716 40.1012 46.5542C40.0918 46.5367 40.087 46.5173 40.0871 46.4976C40.0872 46.4779 40.0922 46.4585 40.1016 46.4412L40.2351 46.135C40.2443 46.1122 40.2607 46.093 40.2819 46.0803C40.3031 46.0676 40.328 46.0621 40.3526 46.0646C42.1139 46.2511 43.8904 46.2511 45.6517 46.0646C45.6671 46.0631 45.6827 46.0647 45.6975 46.0692C45.7123 46.0737 45.7261 46.0811 45.738 46.091C45.7499 46.1008 45.7597 46.1128 45.7669 46.1264C45.7741 46.14 45.7785 46.1549 45.7798 46.1701L45.8119 46.4887C45.8147 46.5042 45.8144 46.5201 45.811 46.5355C45.8076 46.5508 45.8012 46.5654 45.7921 46.5783C45.783 46.5912 45.7714 46.6022 45.758 46.6107C45.7446 46.6192 45.7296 46.625 45.714 46.6278Z" fill="#263238"></path>
<path opacity="0.1" d="M40.4701 40.3764C40.4701 40.3764 40.4042 41.6172 39.9272 42.2807C39.8275 41.5767 39.7243 40.9097 39.6264 40.3993C39.8959 40.2927 40.195 40.2846 40.4701 40.3764Z" fill="black"></path>
<path opacity="0.1" d="M41.2764 44V45.1053C40.9981 45.338 40.6955 45.541 40.374 45.7107C40.3099 45.2126 40.2066 44.3626 40.0874 43.4438C40.4711 43.6545 40.8683 43.8403 41.2764 44Z" fill="black"></path>
<path d="M43.2219 45.2358H41.8923L41.6502 42.895H43.4658L43.2219 45.2358Z" fill="#89CFF3"></path>
<path d="M43.5637 42.7559H41.5523V42.9917H43.5637V42.7559Z" fill="white"></path>
<path d="M43.1579 44.0003C43.1426 44.0921 43.101 44.1777 43.0381 44.2469C42.9752 44.3162 42.8936 44.3661 42.8029 44.391C42.7122 44.4158 42.6162 44.4144 42.5262 44.387C42.4363 44.3596 42.3562 44.3074 42.2953 44.2364C42.2344 44.1654 42.1954 44.0787 42.1828 43.9865C42.1701 43.8942 42.1845 43.8004 42.2241 43.7159C42.2637 43.6315 42.3269 43.5601 42.4063 43.5101C42.4856 43.46 42.5778 43.4335 42.6719 43.4336C42.8121 43.4457 42.9418 43.512 43.0328 43.6181C43.1238 43.7243 43.1687 43.8616 43.1579 44.0003Z" fill="white"></path>
<path d="M42.5135 43.9719L42.1682 43.7713C42.1041 43.7348 42.0322 43.7136 41.9582 43.7097C41.8843 43.7057 41.8105 43.719 41.7428 43.7484L41.102 44.0335C40.9757 44.0894 40.8648 44.1743 40.7784 44.2812C40.692 44.388 40.6327 44.5137 40.6054 44.6478L40.5715 44.8238C41.1216 45.1934 41.9955 45.1934 41.9955 45.1934L42.243 45.2198C42.2936 45.227 42.3452 45.2241 42.3947 45.2114C42.4443 45.1987 42.4908 45.1764 42.5315 45.1458C42.5723 45.1152 42.6064 45.0768 42.6321 45.033C42.6577 44.9892 42.6743 44.9409 42.6808 44.8907L42.7414 44.4049C42.7511 44.3185 42.7346 44.2313 42.694 44.1542C42.6535 44.0771 42.5906 44.0136 42.5135 43.9719Z" fill="#FFB573"></path>
<path d="M40.0981 38.1919C38.5851 38.4277 37.0489 43.1498 37.2768 43.9999C37.5046 44.85 40.8813 45.0101 40.8813 45.0101L40.9809 43.9999C40.9809 43.9999 39.2846 43.5036 39.0425 43.1815C38.8004 42.8594 40.0981 40.9445 40.0981 40.9445C40.3829 40.5159 40.5481 40.0205 40.5769 39.5084C40.584 38.5263 40.0981 38.1919 40.0981 38.1919Z" fill="#89CFF3"></path>
<path opacity="0.7" d="M40.0981 38.1919C38.5851 38.4277 37.0489 43.1498 37.2768 43.9999C37.5046 44.85 40.8813 45.0101 40.8813 45.0101L40.9809 43.9999C40.9809 43.9999 39.2846 43.5036 39.0425 43.1815C38.8004 42.8594 40.0981 40.9445 40.0981 40.9445C40.3829 40.5159 40.5481 40.0205 40.5769 39.5084C40.584 38.5263 40.0981 38.1919 40.0981 38.1919Z" fill="white"></path>
<path d="M31.919 31.1045C31.741 31.1045 31.5968 30.8792 31.5843 30.5853C31.5753 30.4571 31.5992 30.3287 31.6537 30.2121C31.6716 30.1652 31.7021 30.124 31.7419 30.0929C31.7818 30.0619 31.8295 30.0423 31.8798 30.0361H31.8887C32.0667 30.0361 32.2109 30.2614 32.2251 30.5641C32.2336 30.6925 32.2091 30.8208 32.1539 30.9373C32.1361 30.9842 32.1056 31.0254 32.0657 31.0565C32.0259 31.0875 31.9782 31.1071 31.9279 31.1133L31.919 31.1045ZM31.8887 30.1171C31.83 30.1171 31.7748 30.1664 31.7321 30.2491C31.6839 30.3532 31.6631 30.4676 31.6715 30.5817C31.6822 30.8264 31.7961 31.0305 31.9296 31.0235C31.9653 31.0173 31.9986 31.0018 32.0261 30.9786C32.0537 30.9554 32.0745 30.9253 32.0863 30.8915C32.1351 30.7882 32.1565 30.6743 32.1486 30.5606C32.1326 30.3177 32.0169 30.1171 31.8887 30.1171Z" fill="#263238"></path>
<path d="M31.6662 30.5818C31.6662 30.6768 31.7249 30.7578 31.789 30.7578C31.8531 30.7578 31.8994 30.675 31.8958 30.5818C31.8923 30.4885 31.8371 30.4058 31.773 30.4058C31.7089 30.4058 31.6609 30.485 31.6662 30.5818Z" fill="#263238"></path>
<path d="M31.7161 30.7524C31.8453 31.041 32.0142 31.3105 32.218 31.5532C32.1535 31.6029 32.0789 31.6382 31.9994 31.6567C31.9198 31.6752 31.8371 31.6766 31.757 31.6606L31.7161 30.7524Z" fill="#ED847E"></path>
<path d="M31.2871 30.0646C31.2723 30.0624 31.259 30.0549 31.2497 30.0434C31.2451 30.0375 31.2417 30.0308 31.2398 30.0237C31.2378 30.0165 31.2374 30.009 31.2384 30.0016C31.2393 29.9943 31.2418 29.9872 31.2456 29.9808C31.2494 29.9743 31.2544 29.9687 31.2604 29.9642C31.3301 29.9069 31.4127 29.8669 31.5013 29.8476C31.5898 29.8283 31.6818 29.8303 31.7694 29.8534C31.7834 29.8589 31.7947 29.8693 31.8013 29.8827C31.8079 29.896 31.8092 29.9113 31.805 29.9255C31.8026 29.9326 31.7988 29.9391 31.7938 29.9448C31.7889 29.9504 31.7828 29.955 31.776 29.9582C31.7692 29.9615 31.7618 29.9634 31.7543 29.9638C31.7467 29.9643 31.7392 29.9632 31.7321 29.9607C31.6625 29.9436 31.5897 29.9429 31.5198 29.9589C31.4499 29.9748 31.3848 30.0068 31.3298 30.0522C31.3239 30.0571 31.3171 30.0607 31.3097 30.0628C31.3024 30.065 31.2947 30.0655 31.2871 30.0646Z" fill="#263238"></path>
<path d="M31.8282 31.9615C31.8282 31.9897 31.8193 32.0161 31.8157 32.0442C31.7446 32.4239 31.5396 32.7663 31.2371 33.0106C30.9346 33.2549 30.5544 33.3852 30.1639 33.3783C29.7997 33.3648 29.4532 33.2195 29.1902 32.97C28.5601 32.391 28.5459 31.6975 28.4195 30.5218C28.3867 30.2489 28.4249 29.9722 28.5307 29.718C28.6365 29.4638 28.8062 29.2406 29.0238 29.0695C29.2414 28.8984 29.4997 28.7852 29.774 28.7406C30.0483 28.696 30.3296 28.7215 30.5911 28.8146C31.7517 29.2159 32.008 30.8862 31.8282 31.9615Z" fill="#FFC3BD"></path>
<path d="M28.658 32.4422C29.0994 32.7942 31.0147 32.1483 30.8705 30.7016C30.8705 30.7016 31.6715 30.0064 31.7356 29.1176C31.7997 28.2288 31.2408 27.7888 30.5573 27.8768C29.9556 27.956 29.9218 28.2692 29.9218 28.2692C29.9218 28.2692 27.1521 28.1636 27.5597 29.3481C26.255 30.3619 28.1009 32.0057 28.658 32.4422Z" fill="#263238"></path>
<path d="M32.1806 30.5154L30.8608 30.6602L30.8698 30.7406L32.1896 30.5959L32.1806 30.5154Z" fill="#263238"></path>
<path d="M30.3526 30.8705C30.3855 31.1623 30.5151 31.4352 30.721 31.6467C30.9952 31.923 31.255 31.7347 31.296 31.3844C31.3245 31.0694 31.2177 30.5467 30.8919 30.4006C30.5662 30.2545 30.317 30.5168 30.3526 30.8705Z" fill="#FFC3BD"></path>
<path opacity="0.2" d="M31.8282 31.9618C31.8282 31.9899 31.8193 32.0163 31.8157 32.0445C31.7446 32.4242 31.5396 32.7666 31.2371 33.0109C30.9346 33.2552 30.5544 33.3854 30.1639 33.3786C30.4932 33.1709 30.94 32.8101 31.077 32.305C31.3031 31.4707 30.9595 30.4394 30.9595 30.4394L31.1375 30.1982C31.1375 30.1982 31.4544 31.5358 31.417 31.8878C31.3974 32.129 31.6573 32.041 31.8282 31.9618Z" fill="black"></path>
<path d="M37.5812 38.3979H36.2497L36.0076 36.0571H37.8232L37.5812 38.3979Z" fill="#89CFF3"></path>
<path d="M37.9211 35.918H35.9097V36.1538H37.9211V35.918Z" fill="#89CFF3"></path>
<path d="M37.5153 37.1571C37.5 37.2487 37.4587 37.334 37.396 37.4032C37.3333 37.4723 37.252 37.5223 37.1616 37.5473C37.0712 37.5723 36.9754 37.5713 36.8856 37.5443C36.7957 37.5174 36.7155 37.4656 36.6544 37.3951C36.5933 37.3246 36.5539 37.2383 36.5406 37.1464C36.5274 37.0545 36.541 36.9608 36.5799 36.8763C36.6187 36.7917 36.6811 36.7199 36.7598 36.6693C36.8385 36.6186 36.9301 36.5912 37.024 36.5903C37.1652 36.6011 37.2962 36.6669 37.3883 36.7731C37.4804 36.8794 37.5261 37.0175 37.5153 37.1571Z" fill="white"></path>
<path opacity="0.8" d="M37.9211 35.918H35.9097V36.1538H37.9211V35.918Z" fill="white"></path>
<path d="M28.836 32.5405C29.014 33.4205 29.0478 34.0858 28.4302 34.6684C28.4302 34.6684 28.6723 35.5484 30.3099 35.5484C32.1112 35.5484 31.1696 34.6684 31.1696 34.6684C30.187 34.436 30.212 33.7144 30.3846 33.0386L28.836 32.5405Z" fill="#FFC3BD"></path>
<path d="M28.0813 34.8308C27.9496 34.5879 27.8036 34.3028 28.1044 34.2236C28.4337 34.1285 30.5537 33.9508 31.1767 34.1303C30.9845 34.4682 31.3084 34.88 31.3084 34.88L28.0813 34.8308Z" fill="#89CFF3"></path>
<path opacity="0.2" d="M28.0813 34.8308C27.9496 34.5879 27.8036 34.3028 28.1044 34.2236C28.4337 34.1285 30.5537 33.9508 31.1767 34.1303C30.9845 34.4682 31.3084 34.88 31.3084 34.88L28.0813 34.8308Z" fill="black"></path>
<path d="M23.4533 71.9207C23.5063 71.9396 23.5626 71.9478 23.6189 71.9448C23.6751 71.9418 23.7302 71.9276 23.7808 71.9031C23.8003 71.8854 23.8137 71.8622 23.8191 71.8366C23.8246 71.811 23.8217 71.7844 23.8111 71.7605C23.8055 71.7403 23.7953 71.7216 23.7815 71.7058C23.7676 71.69 23.7504 71.6774 23.731 71.669C23.553 71.5845 23.1436 71.7499 23.1258 71.757C23.1203 71.7595 23.1155 71.7635 23.1121 71.7684C23.1086 71.7734 23.1066 71.7791 23.1062 71.7851C23.1062 71.791 23.1079 71.7967 23.1111 71.8017C23.1142 71.8067 23.1187 71.8107 23.124 71.8133C23.2296 71.8605 23.34 71.8965 23.4533 71.9207ZM23.6669 71.713C23.68 71.715 23.6926 71.7191 23.7043 71.7253C23.7157 71.7298 23.7259 71.7369 23.734 71.7461C23.742 71.7553 23.7477 71.7663 23.7506 71.7781C23.7684 71.8327 23.7506 71.8503 23.7399 71.8555C23.6687 71.9154 23.4052 71.8555 23.2201 71.7869C23.3639 71.7288 23.519 71.7036 23.674 71.713H23.6669Z" fill="#89CFF3"></path>
<path d="M23.14 71.8084C23.2878 71.7661 23.6082 71.5408 23.6117 71.393C23.6119 71.3698 23.6041 71.3472 23.5895 71.3289C23.5749 71.3107 23.5545 71.2979 23.5316 71.2927C23.5089 71.2847 23.4848 71.2817 23.4608 71.2839C23.4369 71.286 23.4137 71.2932 23.3928 71.305C23.2148 71.393 23.1062 71.7538 23.1009 71.7696C23.0983 71.7746 23.097 71.78 23.097 71.7855C23.097 71.791 23.0983 71.7964 23.1009 71.8013C23.1056 71.8067 23.1121 71.8103 23.1192 71.8116C23.1263 71.8129 23.1336 71.8117 23.14 71.8084ZM23.5138 71.3472H23.5263C23.5654 71.3596 23.5654 71.3789 23.5654 71.386C23.5654 71.474 23.3518 71.65 23.197 71.7204C23.2387 71.5775 23.3223 71.4501 23.4373 71.3543C23.4592 71.3472 23.4829 71.3472 23.5049 71.3543L23.5138 71.3472Z" fill="#89CFF3"></path>
<path d="M23.0742 71.6179L21.6252 71.3064C21.5996 71.3013 21.5729 71.305 21.5496 71.3168C21.5264 71.3287 21.5078 71.348 21.4971 71.3715L21.004 72.4487C20.9919 72.475 20.986 72.5037 20.9867 72.5326C20.9874 72.5615 20.9947 72.5899 21.008 72.6156C21.0214 72.6413 21.0404 72.6637 21.0638 72.6812C21.0871 72.6986 21.1142 72.7106 21.1429 72.7162C21.6502 72.8165 21.9011 72.8394 22.5384 72.9749C22.93 73.0594 23.8146 73.2723 24.3558 73.3885C24.8969 73.5047 25.0838 72.9907 24.872 72.8939C23.9268 72.468 23.5316 72.0914 23.27 71.7411C23.2227 71.6772 23.1528 71.6332 23.0742 71.6179Z" fill="#263238"></path>
<path d="M30.8136 45.2954C30.8136 45.2954 29.4466 53.7276 28.6972 56.8885C27.8748 60.3469 23.4675 71.794 23.4675 71.794L21.3102 71.3663C21.3102 71.3663 24.3931 62.0383 25.082 57.2018C25.616 53.4865 26.6555 45.2954 26.6555 45.2954H30.8136Z" fill="#89CFF3"></path>
<path opacity="0.7" d="M30.8136 45.2954C30.8136 45.2954 29.4466 53.7276 28.6972 56.8885C27.8748 60.3469 23.4675 71.794 23.4675 71.794L21.3102 71.3663C21.3102 71.3663 24.3931 62.0383 25.082 57.2018C25.616 53.4865 26.6555 45.2954 26.6555 45.2954H30.8136Z" fill="white"></path>
<path d="M27.2465 36.93C27.0133 37.1852 26.7516 37.4773 26.5131 37.7625C26.2746 38.0476 26.0379 38.3415 25.8136 38.6425C25.3654 39.2137 24.9715 39.8247 24.637 40.4676C24.5943 40.545 24.5605 40.6225 24.5266 40.6999L24.475 40.8161L24.4501 40.8741L24.4394 40.897C24.4394 40.8812 24.4109 40.9428 24.4287 41.0519C24.5002 41.3458 24.6205 41.6259 24.7847 41.8809C25.1872 42.5024 25.6364 43.0931 26.1286 43.6479L25.543 44.329C24.8336 43.8732 24.1929 43.3203 23.6402 42.6869C23.3174 42.3265 23.0672 41.9083 22.9033 41.4549C22.7915 41.1312 22.7748 40.7827 22.8552 40.45L22.8748 40.3778L22.8908 40.3321L22.9175 40.2529L22.9727 40.0945C23.0083 39.9889 23.0457 39.8833 23.0902 39.7847C23.4212 39.0066 23.8392 38.2675 24.3362 37.5812C24.58 37.245 24.8257 36.9141 25.0927 36.6009C25.3597 36.2876 25.6267 35.9831 25.9311 35.6733L27.2465 36.93Z" fill="#FFC3BD"></path>
<path d="M25.7744 43.2959L26.6644 43.361L26.2639 44.6793C26.2639 44.6793 25.5928 44.5596 25.3347 44.0421L25.7744 43.2959Z" fill="#FFC3BD"></path>
<path d="M27.8944 43.5371L27.3177 44.6178L26.2621 44.6864L26.6626 43.3682L27.8944 43.5371Z" fill="#FFC3BD"></path>
<path d="M31.7125 72.1408C31.8905 72.1408 32.0454 72.1162 32.1005 72.0423C32.1149 72.0225 32.1226 71.9988 32.1226 71.9745C32.1226 71.9502 32.1149 71.9265 32.1005 71.9068C32.09 71.8888 32.0759 71.8731 32.0591 71.8607C32.0423 71.8483 32.0231 71.8394 32.0026 71.8346C31.7837 71.7748 31.3227 72.0352 31.3031 72.0458C31.2974 72.0487 31.2927 72.0534 31.2898 72.059C31.287 72.0647 31.286 72.0712 31.2871 72.0775C31.288 72.0839 31.2909 72.0898 31.2954 72.0945C31.2998 72.0993 31.3056 72.1025 31.312 72.1039C31.4442 72.1273 31.5782 72.1397 31.7125 72.1408ZM31.9225 71.8874C31.9426 71.8846 31.963 71.8846 31.9831 71.8874C31.9956 71.8898 32.0075 71.8949 32.0179 71.9021C32.0283 71.9094 32.0371 71.9188 32.0436 71.9296C32.0649 71.9684 32.0578 71.9877 32.0436 71.9983C31.9831 72.0828 31.6502 72.0845 31.4046 72.0511C31.5646 71.9633 31.7407 71.9077 31.9225 71.8874Z" fill="#89CFF3"></path>
<path d="M31.3138 72.104H31.328C31.4864 72.0318 31.8015 71.7519 31.7783 71.6023C31.7783 71.5689 31.7463 71.5249 31.6609 71.5161C31.6291 71.5126 31.597 71.5154 31.5664 71.5245C31.5358 71.5336 31.5074 71.5487 31.4829 71.5689C31.3155 71.7062 31.2799 72.0564 31.2782 72.0723C31.2775 72.0776 31.2783 72.0831 31.2805 72.0881C31.2827 72.093 31.2862 72.0973 31.2906 72.1004C31.2977 72.1043 31.3059 72.1055 31.3138 72.104ZM31.6359 71.576H31.6555C31.7107 71.576 31.7143 71.6041 31.716 71.6112C31.7303 71.6992 31.5167 71.9209 31.36 72.0177C31.3761 71.869 31.4383 71.7288 31.538 71.6164C31.5652 71.5925 31.5996 71.5782 31.6359 71.576Z" fill="#89CFF3"></path>
<path d="M31.1749 71.9224H29.7349C29.7086 71.9221 29.6831 71.9306 29.6623 71.9466C29.6416 71.9626 29.6271 71.9851 29.621 72.0104L29.37 73.1702C29.3635 73.1983 29.3636 73.2275 29.3702 73.2555C29.3768 73.2836 29.3898 73.3098 29.4081 73.3322C29.4265 73.3545 29.4497 73.3725 29.4761 73.3847C29.5025 73.3969 29.5313 73.403 29.5605 73.4025C30.0802 73.3937 30.8296 73.3638 31.4829 73.3638C32.2465 73.3638 32.9069 73.4043 33.7969 73.4043C34.3309 73.4043 34.4875 72.864 34.2615 72.8147C33.2291 72.5912 32.3871 72.5665 31.4953 72.0227C31.4001 71.9604 31.2891 71.9256 31.1749 71.9224Z" fill="#263238"></path>
<path d="M26.563 34.8587C25.4042 34.8851 23.9125 37.4987 23.9125 37.4987L25.7851 39.6231C26.4875 39.1328 27.0483 38.4697 27.412 37.6994C28.0955 36.3143 27.7467 34.8323 26.563 34.8587Z" fill="#89CFF3"></path>
<path opacity="0.2" d="M27.0845 37.1045C26.36 37.5709 25.9417 38.6005 25.7014 39.5227L25.7851 39.616C26.4861 39.1272 27.0467 38.4668 27.412 37.6994C27.4524 37.6172 27.4898 37.5345 27.5242 37.4512L27.0845 37.1045Z" fill="black"></path>
<path d="M33.6118 39.0719C33.5922 39.7565 33.5441 40.5485 33.4516 41.469C33.3715 42.2839 33.2558 43.1973 33.0956 44.2217H26.6876C26.6413 43.3417 27.234 39.0543 26.2799 34.913C26.9938 34.7919 27.7141 34.7114 28.4373 34.6719C29.3492 34.6243 30.263 34.6243 31.1749 34.6719C31.7988 34.7277 32.418 34.8265 33.0279 34.9676C33.0279 34.9676 33.7061 35.6399 33.6118 39.0719Z" fill="#89CFF3"></path>
<path opacity="0.2" d="M33.6118 39.0723C33.5922 39.7569 33.5441 40.5489 33.4516 41.4694C32.9176 40.9273 32.2305 40.0807 32.2981 39.3574L33.6118 39.0723Z" fill="black"></path>
<path opacity="0.2" d="M29.9503 48.3C28.3696 48.5834 28.537 53.9848 28.7274 56.7621C29.1831 54.7979 29.8506 51.021 30.3063 48.3387C30.1947 48.289 30.0701 48.2755 29.9503 48.3Z" fill="black"></path>
<path d="M33.108 45.2954C33.108 45.2954 33.2753 53.6185 33.1436 57.0117C33.0083 60.5423 31.6733 72.1037 31.6733 72.1037H29.6228C29.6228 72.1037 29.548 60.75 29.4572 57.281C29.3576 53.5005 28.8645 45.2954 28.8645 45.2954H33.108Z" fill="#89CFF3"></path>
<path d="M33.5922 36.1982C33.6954 36.5221 33.8164 36.8846 33.9482 37.2243C34.0799 37.564 34.208 37.9107 34.3504 38.2451C34.6173 38.9043 34.9419 39.5391 35.3205 40.1424C35.4131 40.2867 35.511 40.424 35.6107 40.5542L35.6872 40.6493C35.6529 40.6204 35.6153 40.5956 35.5751 40.5754C35.4839 40.5294 35.3816 40.5093 35.2796 40.5173C35.2092 40.5209 35.1408 40.5414 35.0802 40.5771C35.0233 40.6194 35.0571 40.6106 35.0802 40.5771C35.1247 40.5357 35.1652 40.4903 35.2013 40.4416C35.2998 40.3125 35.3907 40.178 35.4736 40.0386C35.8296 39.4349 36.1571 38.7362 36.4793 38.0603L37.3515 38.3014C37.2485 39.1057 37.0532 39.8957 36.7695 40.6563C36.6905 40.8654 36.5959 41.0684 36.4864 41.2635C36.4202 41.3783 36.3458 41.4882 36.2639 41.5926C36.1466 41.7457 36.0003 41.8748 35.8332 41.9728C35.6877 42.0552 35.5252 42.1039 35.3579 42.1154C35.1585 42.1276 34.9595 42.0849 34.783 41.9922C34.658 41.9252 34.5449 41.8384 34.4483 41.7352L34.3344 41.612C34.1849 41.4477 34.0461 41.2805 33.9179 41.1104C33.4271 40.4408 33.0094 39.7216 32.6719 38.965C32.5064 38.5954 32.3479 38.224 32.2127 37.8474C32.0774 37.4707 31.9457 37.1011 31.8335 36.6858L33.5922 36.1982Z" fill="#FFC3BD"></path>
<path d="M31.118 36.2827C30.3277 37.7277 32.7413 39.9787 32.7413 39.9787L35.1497 38.3419C34.7727 37.4315 34.3295 36.5491 33.8236 35.7019C32.8713 34.1443 31.7214 35.1845 31.118 36.2827Z" fill="#89CFF3"></path>
<path d="M37.056 38.706L38.2469 37.7926L37.2839 36.9126C37.2839 36.9126 36.3601 37.4406 36.49 38.2924L37.056 38.706Z" fill="#FFC3BD"></path>
<path d="M38.4551 37.217L37.809 36.3335L37.2839 36.9037L38.2469 37.7925L38.4551 37.217Z" fill="#FFC3BD"></path>
<path opacity="0.7" d="M33.108 45.2954C33.108 45.2954 33.2753 53.6185 33.1436 57.0117C33.0083 60.5423 31.6733 72.1037 31.6733 72.1037H29.6228C29.6228 72.1037 29.548 60.75 29.4572 57.281C29.3576 53.5005 28.8645 45.2954 28.8645 45.2954H33.108Z" fill="white"></path>
<path d="M26.7089 44C26.2882 45.3909 26.1426 46.849 26.2799 48.2944H33.1525L33.1846 44.0704L26.7089 44Z" fill="#89CFF3"></path>
<path opacity="0.7" d="M26.7089 44C26.2882 45.3909 26.1426 46.849 26.2799 48.2944H33.1525L33.1846 44.0704L26.7089 44Z" fill="white"></path>
<path d="M28.2753 44.1585L26.5914 44.1392L26.5469 44.5721L28.2753 44.588V44.1585Z" fill="#263238"></path>
<path d="M31.1304 44.192L28.5352 44.1621V44.5898L31.1304 44.6144V44.192Z" fill="#263238"></path>
<path d="M31.3138 44.1938V44.6162L33.1846 44.6321V44.215L31.3138 44.1938Z" fill="#263238"></path>
<path opacity="0.2" d="M29.783 33.5826C29.8298 33.5545 29.8793 33.5309 29.9307 33.5122C29.8506 33.5544 29.7954 33.5773 29.783 33.5826Z" fill="black"></path>
</svg>