<svg width="24" height="24" viewBox="0 0 24 24" fill="none" xmlns="http://www.w3.org/2000/svg">
<path d="M22 19V22H2V19C2 18.45 2.45 18 3 18H21C21.55 18 22 18.45 22 19Z" fill="#37474F" stroke="#37474F" stroke-width="1.5" stroke-miterlimit="10" stroke-linecap="round" stroke-linejoin="round"/>
<path d="M5.5 17.5V11.5H6.5V17.5H5.5Z" fill="#37474F" stroke="#37474F"/>
<path d="M9.5 17.5V11.5H10.5V17.5H9.5Z" fill="#37474F" stroke="#37474F"/>
<path d="M13.5 17.5V11.5H14.5V17.5H13.5Z" fill="#37474F" stroke="#37474F"/>
<path d="M17.5 17.5V11.5H18.5V17.5H17.5Z" fill="#37474F" stroke="#37474F"/>
<path d="M23 22.25H1C0.866142 22.25 0.75 22.1339 0.75 22C0.75 21.8661 0.866142 21.75 1 21.75H23C23.1339 21.75 23.25 21.8661 23.25 22C23.25 22.1339 23.1339 22.25 23 22.25Z" fill="#37474F" stroke="#37474F"/>
<path d="M12.1843 2.6142L21.1843 6.2142C21.2504 6.24063 21.3341 6.30491 21.4026 6.40587C21.4711 6.50673 21.5 6.60811 21.5 6.67997V9.99997C21.5 10.2738 21.2739 10.5 21 10.5H3C2.72614 10.5 2.5 10.2738 2.5 9.99997V6.67997C2.5 6.60811 2.52889 6.50673 2.59739 6.40587C2.66594 6.30492 2.74964 6.24063 2.8157 6.2142L11.8157 2.6142C11.8375 2.60546 11.9042 2.58997 12 2.58997C12.0958 2.58997 12.1625 2.60546 12.1843 2.6142ZM10 6.99997C10 8.10611 10.8939 8.99997 12 8.99997C13.1061 8.99997 14 8.10611 14 6.99997C14 5.89382 13.1061 4.99997 12 4.99997C10.8939 4.99997 10 5.89382 10 6.99997Z" fill="#37474F" stroke="#37474F"/>
</svg>
