<svg width="76" height="70" viewBox="0 0 76 70" fill="none" xmlns="http://www.w3.org/2000/svg">
<path d="M56.3115 24.9543H48.1812V43.2995H56.3115V24.9543Z" fill="#BDECFF"/>
<rect width="76" height="70" rx="10" fill="#EAF9FF"/>
<path d="M56.3115 23.0833H48.1812V24.9544H56.3115V23.0833Z" fill="#25C0FF"/>
<path d="M27.3342 24.9543H19.2039V43.2995H27.3342V24.9543Z" fill="#BDECFF"/>
<path d="M27.3342 23.0833H19.2039V24.9544H27.3342V23.0833Z" fill="#25C0FF"/>
<path d="M41.9274 24.9543H33.7971V43.2995H41.9274V24.9543Z" fill="#BDECFF"/>
<path d="M41.9274 23.0833H33.7971V24.9544H41.9274V23.0833Z" fill="#25C0FF"/>
<path d="M37.9661 9.36169L13.7837 19.133V23.0831H37.9661H62.1486V19.133L37.9661 9.36169Z" fill="#BDECFF"/>
<path d="M37.9661 10.6923L13.7837 20.4012V22.0436L37.9661 12.3555L62.1486 22.0436V20.4012L37.9661 10.6923Z" fill="#25C0FF"/>
<path d="M63.6496 18.0728L38.3206 8.09356C38.0287 7.96881 37.6952 7.96881 37.4033 8.09356L12.387 18.0728C12.0743 18.1975 11.9075 18.5509 12.0534 18.8836L12.7205 20.5468C12.8456 20.8586 13.2 21.0042 13.5127 20.8794L37.8619 11.1705L62.503 20.9002C62.8157 21.0249 63.1701 20.8794 63.316 20.5676L64.004 18.9044C64.1291 18.5717 63.9623 18.1975 63.6496 18.0728Z" fill="#65D3FF"/>
<path d="M58.9173 43.2993H37.9661H17.015C16.7231 43.2993 16.4938 43.528 16.4938 43.8191V48.2889H37.9661H59.4385V43.8191C59.4385 43.5488 59.2092 43.2993 58.9173 43.2993Z" fill="#25C0FF"/>
<path d="M61.2314 48.2889H37.9662H14.701C14.305 48.2889 13.9922 48.6008 13.9922 48.9958V53.1954C13.9922 53.5904 14.305 53.9023 14.701 53.9023H37.9662H61.2314C61.6275 53.9023 61.9402 53.5904 61.9402 53.1954V48.9958C61.9402 48.6216 61.6275 48.2889 61.2314 48.2889Z" fill="#25C0FF"/>
<path d="M37.9661 46.6257H16.4938V48.2889H37.9661H59.4385V46.6257H37.9661Z" fill="#BDECFF"/>
<path d="M37.7576 21.2121C39.5998 21.2121 41.0931 19.7229 41.0931 17.8857C41.0931 16.0486 39.5998 14.5593 37.7576 14.5593C35.9155 14.5593 34.4221 16.0486 34.4221 17.8857C34.4221 19.7229 35.9155 21.2121 37.7576 21.2121Z" fill="#25C0FF"/>
<path d="M37.7577 62.0104C44.0325 62.0104 49.1193 56.9375 49.1193 50.6798C49.1193 44.4221 44.0325 39.3492 37.7577 39.3492C31.4829 39.3492 26.3961 44.4221 26.3961 50.6798C26.3961 56.9375 31.4829 62.0104 37.7577 62.0104Z" fill="#65D3FF"/>
<path d="M33.6091 50.2927C33.9218 50.2927 34.2553 50.4174 34.4847 50.6669L37.7368 53.9101L40.9889 50.6461C41.4684 50.1679 42.2606 50.1679 42.7609 50.6461C43.2404 51.1243 43.2404 51.9143 42.7609 52.4133L38.6332 56.5297C38.1537 57.0078 37.3615 57.0078 36.8612 56.5297L32.7335 52.4133C32.254 51.9351 32.254 51.1451 32.7335 50.6461C32.9628 50.3966 33.2964 50.2927 33.6091 50.2927Z" fill="white"/>
<path d="M37.7369 44.4714C38.4248 44.4714 38.9877 45.0328 38.9877 45.7188L38.9877 55.4278C38.9877 56.1138 38.4248 56.6752 37.7369 56.6752C37.0489 56.6752 36.4861 56.1138 36.4861 55.4278L36.4861 45.7188C36.4861 45.0328 37.0489 44.4714 37.7369 44.4714Z" fill="white"/>
</svg>
