<svg width="26" height="24" viewBox="0 0 26 24" fill="none" xmlns="http://www.w3.org/2000/svg">
<path d="M18.5769 3.5H8.19231C5.07692 3.5 3 5 3 8.5V15.5C3 19 5.07692 20.5 8.19231 20.5H18.5769C21.6923 20.5 23.7692 19 23.7692 15.5V8.5C23.7692 5 21.6923 3.5 18.5769 3.5ZM9.23077 17.75H6.11538C5.68962 17.75 5.33654 17.41 5.33654 17C5.33654 16.59 5.68962 16.25 6.11538 16.25H9.23077C9.65654 16.25 10.0096 16.59 10.0096 17C10.0096 17.41 9.65654 17.75 9.23077 17.75ZM13.3846 15C11.6608 15 10.2692 13.66 10.2692 12C10.2692 10.34 11.6608 9 13.3846 9C15.1085 9 16.5 10.34 16.5 12C16.5 13.66 15.1085 15 13.3846 15ZM20.6538 7.75H17.5385C17.1127 7.75 16.7596 7.41 16.7596 7C16.7596 6.59 17.1127 6.25 17.5385 6.25H20.6538C21.0796 6.25 21.4327 6.59 21.4327 7C21.4327 7.41 21.0796 7.75 20.6538 7.75Z" fill="#888888"/>
</svg>
