<svg width="24" height="24" viewBox="0 0 24 24" fill="none" xmlns="http://www.w3.org/2000/svg">
<path d="M16 4.25C16 5.49 14.99 6.5 13.75 6.5H10.25C9.63 6.5 9.07 6.25 8.66 5.84C8.25 5.43 8 4.87 8 4.25C8 3.01 9.01 2 10.25 2H13.75C14.37 2 14.93 2.25 15.34 2.66C15.75 3.07 16 3.63 16 4.25Z" fill="#292D32"/>
<path d="M18.83 5.02999C18.6 4.83999 18.34 4.68999 18.06 4.57999C17.77 4.46999 17.48 4.69999 17.42 4.99999C17.08 6.70999 15.57 7.99999 13.75 7.99999H10.25C9.25 7.99999 8.31 7.60999 7.6 6.89999C7.08 6.37999 6.72 5.71999 6.58 5.00999C6.52 4.70999 6.22 4.46999 5.93 4.58999C4.77 5.05999 4 6.11999 4 8.24999V18C4 21 5.79 22 8 22H16C18.21 22 20 21 20 18V8.24999C20 6.61999 19.55 5.61999 18.83 5.02999ZM8 12.25H12C12.41 12.25 12.75 12.59 12.75 13C12.75 13.41 12.41 13.75 12 13.75H8C7.59 13.75 7.25 13.41 7.25 13C7.25 12.59 7.59 12.25 8 12.25ZM16 17.75H8C7.59 17.75 7.25 17.41 7.25 17C7.25 16.59 7.59 16.25 8 16.25H16C16.41 16.25 16.75 16.59 16.75 17C16.75 17.41 16.41 17.75 16 17.75Z" fill="#292D32"/>
</svg>
