<svg width="169" height="100" viewBox="0 0 169 100" fill="none" xmlns="http://www.w3.org/2000/svg">
<path opacity="0.9" d="M59.9147 11.6843C47.8907 18.2523 12.0667 36.4803 17.5707 65.1003C23.3027 94.9243 46.5027 95.3363 75.9907 85.6643C103.539 76.6323 102.243 108.4 139.507 96.1843C171.055 85.8403 184.267 32.2643 138.307 7.26426C110.407 -7.91574 73.5067 4.25226 59.9147 11.6843Z" fill="#2970E8" fill-opacity="0.1"/>
<path d="M133.604 58.588C130.772 58.588 127.428 53.416 124.476 48.848C122.54 45.856 120.66 42.948 118.66 40.848H125.28V37.648H117.16C118.612 35.992 119.988 33.868 121.4 31.688C123.616 28.256 126.376 23.988 128.484 23.988H134.692V20.788H128.484C124.632 20.788 121.756 25.24 118.712 29.952C116.496 33.38 113.736 37.648 111.624 37.648H40.768C38.66 37.648 35.9 33.38 33.684 29.952C30.636 25.24 27.76 20.8 23.912 20.8H17.7V24H23.912C26.02 24 28.78 28.268 30.996 31.7C32.404 33.88 33.796 36.004 35.232 37.66H6.47198V40.86H38.736C36.736 42.96 34.852 45.868 32.92 48.86C29.968 53.424 26.624 58.6 23.792 58.6H12.024V61.8H23.8C28.372 61.8 31.892 56.36 35.612 50.6C38.564 46.032 41.908 40.86 44.74 40.86H112.66C115.492 40.86 118.836 46.032 121.788 50.6C125.512 56.36 129.028 61.8 133.604 61.8H145.372V58.6L133.604 58.588Z" fill="#263238"/>
<g opacity="0.4">
<path d="M115.688 40.084L115.52 40.332C117.876 41.956 120.108 45.236 122.568 49.036L122.82 48.872C120.34 45.044 118.092 41.74 115.688 40.084Z" fill="white"/>
<path d="M125.936 53.6L125.688 53.772C126.735 55.3573 127.942 56.8315 129.288 58.172L129.492 57.952C128.16 56.6274 126.969 55.169 125.936 53.6Z" fill="white"/>
<path d="M123.332 50.22C123.852 51.02 124.368 51.82 124.888 52.588L125.136 52.42C124.62 51.648 124.104 50.852 123.584 50.056L123.332 50.22Z" fill="white"/>
<path d="M130.6 58.8L130.424 59.0401C131.334 59.7739 132.456 60.1948 133.624 60.2401H141.56V59.9401H133.604C132.507 59.89 131.454 59.4906 130.6 58.8Z" fill="white"/>
<path d="M145.372 59.952H142.972V60.252H145.372V59.952Z" fill="white"/>
<path d="M8.87198 39.012H6.47198V39.312H8.87198V39.012Z" fill="white"/>
<path d="M20.504 39.012H11.196V39.312H20.504V39.012Z" fill="white"/>
<path d="M22.832 39.0121V39.3121H41.444V39.0121H40.768C39.9906 38.9881 39.2383 38.7317 38.608 38.2761L38.444 38.5281C38.727 38.7168 39.0269 38.8788 39.34 39.0121H22.832Z" fill="white"/>
<path d="M99.612 39.012H90.304V39.312H99.612V39.012Z" fill="white"/>
<path d="M120.552 39.3121V39.0121H113.056C113.369 38.878 113.668 38.716 113.952 38.5281L113.784 38.2761C113.154 38.7324 112.401 38.9888 111.624 39.0121H101.94V39.3121H112.66C113.228 39.3173 113.79 39.4356 114.312 39.6601L114.428 39.3841L114.228 39.3121H120.552Z" fill="white"/>
<path d="M87.976 39.012H83.324V39.312H87.976V39.012Z" fill="white"/>
<path d="M80.996 39.012H62.384V39.312H80.996V39.012Z" fill="white"/>
<path d="M125.28 39.012H122.88V39.312H125.28V39.012Z" fill="white"/>
<path d="M119.512 31.848L119.26 31.684C118.012 33.6 116.56 35.76 115.1 37.196L115.308 37.408C116.792 35.952 118.256 33.776 119.512 31.848Z" fill="white"/>
<path d="M128.484 22.452H130.556V22.152H128.484C125.428 22.152 122.652 26.44 120.204 30.224L120.456 30.388C122.864 26.668 125.592 22.452 128.484 22.452Z" fill="white"/>
<path d="M134.692 22.152H132.292V22.452H134.692V22.152Z" fill="white"/>
<path d="M37.296 37.2C35.832 35.764 34.38 33.6 33.136 31.688L32.884 31.8521C34.14 33.7801 35.604 35.956 37.084 37.412L37.296 37.2Z" fill="white"/>
<path d="M31.94 30.4001L32.192 30.2361C29.74 26.4521 26.964 22.1641 23.912 22.1641H21.836V22.4641H23.912C26.8 22.4521 29.532 26.6681 31.94 30.4001Z" fill="white"/>
<path d="M20.1 22.152H17.7V22.452H20.1V22.152Z" fill="white"/>
<path d="M50.752 39.012H50.044V39.312H50.752H52.444H60.06V39.012H52.444H50.752Z" fill="white"/>
<path d="M34.576 48.872L34.828 49.036C37.288 45.236 39.516 41.956 41.876 40.332L41.704 40.084C39.3 41.74 37.052 45.044 34.576 48.872Z" fill="white"/>
<path d="M44.732 39.012H43.772V39.128C43.4986 39.1906 43.2309 39.2762 42.972 39.384L43.088 39.66C43.6104 39.4364 44.1718 39.3181 44.74 39.312H48.636V39.012H44.74H44.732Z" fill="white"/>
<path d="M23.8 59.952H15.856V60.252H23.8C24.9682 60.2076 26.0906 59.7866 27 59.052L26.824 58.812C25.9643 59.5065 24.9042 59.9062 23.8 59.952Z" fill="white"/>
<path d="M32.256 52.42L32.508 52.588C33.024 51.812 33.544 51.016 34.06 50.22L33.808 50.056C33.292 50.852 32.776 51.648 32.256 52.42Z" fill="white"/>
<path d="M27.884 57.9201L28.092 58.1401C29.4395 56.8006 30.6458 55.3262 31.692 53.7401L31.448 53.5681C30.4128 55.1374 29.2185 56.5958 27.884 57.9201Z" fill="white"/>
<path d="M14.424 59.952H12.024V60.252H14.424V59.952Z" fill="white"/>
</g>
<path d="M23.928 52.46H21C20.6603 52.4603 20.326 52.5445 20.0267 52.705C19.7273 52.8654 19.4722 53.0973 19.284 53.38L18.856 54.028C18.6841 54.2877 18.4506 54.5006 18.1762 54.6479C17.9019 54.7952 17.5954 54.8722 17.284 54.872H9.71198C9.55038 54.872 9.39037 54.9039 9.24112 54.9659C9.09187 55.0278 8.95632 55.1187 8.84224 55.2331C8.72816 55.3476 8.63779 55.4834 8.57631 55.6329C8.51483 55.7823 8.48346 55.9424 8.48398 56.104V67.916H25.544V54.872L25.392 53.74C25.3445 53.3855 25.1699 53.0603 24.9006 52.8248C24.6313 52.5894 24.2857 52.4598 23.928 52.46Z" fill="#2970E8"/>
<path opacity="0.2" d="M23.928 52.46H21C20.6603 52.4603 20.326 52.5445 20.0267 52.705C19.7273 52.8654 19.4722 53.0973 19.284 53.38L18.856 54.028C18.6841 54.2877 18.4506 54.5006 18.1762 54.6479C17.9019 54.7952 17.5954 54.8722 17.284 54.872H9.71198C9.55038 54.872 9.39037 54.9039 9.24112 54.9659C9.09187 55.0278 8.95632 55.1187 8.84224 55.2331C8.72816 55.3476 8.63779 55.4834 8.57631 55.6329C8.51483 55.7823 8.48346 55.9424 8.48398 56.104V67.916H25.544V54.872L25.392 53.74C25.3445 53.3855 25.1699 53.0603 24.9006 52.8248C24.6313 52.5894 24.2857 52.4598 23.928 52.46Z" fill="white"/>
<path d="M24.264 56.368H9.76398V66.284H24.264V56.368Z" fill="#263238"/>
<path opacity="0.9" d="M24.264 56.368H9.76398V66.284H24.264V56.368Z" fill="white"/>
<path d="M25.544 67.916H8.48398L5.97998 58.8C5.93641 58.6389 5.9305 58.4699 5.96269 58.3062C5.99489 58.1424 6.06433 57.9882 6.16564 57.8556C6.26696 57.723 6.39743 57.6154 6.54696 57.5413C6.69649 57.4671 6.86108 57.4284 7.02798 57.428H21.028C21.5041 57.4292 21.9668 57.5863 22.3453 57.8752C22.7238 58.1641 22.9973 58.569 23.124 59.028L25.544 67.916Z" fill="#2970E8"/>
<path opacity="0.6" d="M25.544 67.916H8.48398L5.97998 58.8C5.93641 58.6389 5.9305 58.4699 5.96269 58.3062C5.99489 58.1424 6.06433 57.9882 6.16564 57.8556C6.26696 57.723 6.39743 57.6154 6.54696 57.5413C6.69649 57.4671 6.86108 57.4284 7.02798 57.428H21.028C21.5041 57.4292 21.9668 57.5863 22.3453 57.8752C22.7238 58.1641 22.9973 58.569 23.124 59.028L25.544 67.916Z" fill="white"/>
<path d="M5.07997 9.02802H8.24397C8.61051 9.02795 8.97138 9.11847 9.29449 9.29154C9.6176 9.46461 9.89292 9.71486 10.096 10.02L10.556 10.72C10.7426 11 10.9954 11.2297 11.2919 11.3887C11.5884 11.5478 11.9195 11.6313 12.256 11.632H20.42C20.7711 11.632 21.1079 11.7715 21.3562 12.0198C21.6045 12.2681 21.744 12.6049 21.744 12.956V24.62C21.744 24.9075 21.6298 25.1832 21.4265 25.3865C21.2232 25.5898 20.9475 25.704 20.66 25.704H4.42397C4.13647 25.704 3.86075 25.5898 3.65746 25.3865C3.45417 25.1832 3.33997 24.9075 3.33997 24.62V11.632L3.50397 10.408C3.55686 10.0269 3.74529 9.67769 4.03473 9.42425C4.32417 9.1708 4.69525 9.03013 5.07997 9.02802Z" fill="#2970E8"/>
<path opacity="0.6" d="M5.07997 9.02802H8.24397C8.61051 9.02795 8.97138 9.11847 9.29449 9.29154C9.6176 9.46461 9.89292 9.71486 10.096 10.02L10.556 10.72C10.7426 11 10.9954 11.2297 11.2919 11.3887C11.5884 11.5478 11.9195 11.6313 12.256 11.632H20.42C20.7711 11.632 21.1079 11.7715 21.3562 12.0198C21.6045 12.2681 21.744 12.6049 21.744 12.956V24.62C21.744 24.9075 21.6298 25.1832 21.4265 25.3865C21.2232 25.5898 20.9475 25.704 20.66 25.704H4.42397C4.13647 25.704 3.86075 25.5898 3.65746 25.3865C3.45417 25.1832 3.33997 24.9075 3.33997 24.62V11.632L3.50397 10.408C3.55686 10.0269 3.74529 9.67769 4.03473 9.42425C4.32417 9.1708 4.69525 9.03013 5.07997 9.02802Z" fill="white"/>
<path d="M18.436 11.632H16.8V22.964H18.436V11.632Z" fill="#263238"/>
<path opacity="0.5" d="M18.436 11.632H16.8V22.964H18.436V11.632Z" fill="white"/>
<path d="M17.668 12.172H16.412V13.104H17.668V12.172Z" fill="#263238"/>
<path d="M17.668 14.204H16.412V15.136H17.668V14.204Z" fill="#263238"/>
<path d="M17.668 16.236H16.412V17.168H17.668V16.236Z" fill="#263238"/>
<path d="M17.668 18.268H16.412V19.2H17.668V18.268Z" fill="#263238"/>
<path d="M17.668 20.3H16.412V21.232H17.668V20.3Z" fill="#263238"/>
<path opacity="0.7" d="M17.668 12.172H16.412V13.104H17.668V12.172Z" fill="white"/>
<path opacity="0.7" d="M17.668 14.204H16.412V15.136H17.668V14.204Z" fill="white"/>
<path opacity="0.7" d="M17.668 16.236H16.412V17.168H17.668V16.236Z" fill="white"/>
<path opacity="0.7" d="M17.668 18.268H16.412V19.2H17.668V18.268Z" fill="white"/>
<path opacity="0.7" d="M17.668 20.3H16.412V21.232H17.668V20.3Z" fill="white"/>
<path d="M18.884 13.104H17.628V14.036H18.884V13.104Z" fill="#263238"/>
<path d="M18.884 15.136H17.628V16.068H18.884V15.136Z" fill="#263238"/>
<path d="M18.884 17.168H17.628V18.1H18.884V17.168Z" fill="#263238"/>
<path d="M18.884 19.2H17.628V20.132H18.884V19.2Z" fill="#263238"/>
<path d="M18.884 21.232H17.628V22.164H18.884V21.232Z" fill="#263238"/>
<g opacity="0.8">
<path d="M18.884 13.104H17.628V14.036H18.884V13.104Z" fill="white"/>
<path d="M18.884 15.136H17.628V16.068H18.884V15.136Z" fill="white"/>
<path d="M18.884 17.168H17.628V18.1H18.884V17.168Z" fill="white"/>
<path d="M18.884 19.2H17.628V20.132H18.884V19.2Z" fill="white"/>
<path d="M18.884 21.232H17.628V22.164H18.884V21.232Z" fill="white"/>
</g>
<path d="M15.868 22.168V25.884H19.468V22.168H15.868ZM18.888 25.208H16.488V22.84H18.888V25.208Z" fill="#263238"/>
<path opacity="0.7" d="M15.868 22.168V25.884H19.468V22.168H15.868ZM18.888 25.208H16.488V22.84H18.888V25.208Z" fill="white"/>
<path d="M16.88 30.46H0.203979V34.176L3.91598 37.888H20.588V34.172L16.88 30.46Z" fill="#2970E8"/>
<path opacity="0.3" d="M16.88 30.46H0.203979V34.176L3.91598 37.888H20.588V34.172L16.88 30.46Z" fill="white"/>
<path d="M20.592 37.884H3.91599V41.6H20.592V37.884Z" fill="#2970E8"/>
<path opacity="0.3" d="M20.592 37.884H3.91599V41.6H20.592V37.884Z" fill="white"/>
<path d="M20.592 41.6H3.91599V45.316H20.592V41.6Z" fill="#2970E8"/>
<path opacity="0.6" d="M20.592 41.6H3.91599V45.316H20.592V41.6Z" fill="white"/>
<path d="M20.592 34.172H3.91599V37.888H20.592V34.172Z" fill="#2970E8"/>
<path d="M10.204 45.316H13.948V34.172L10.236 30.46H6.49197L10.204 34.172V45.316Z" fill="#2970E8"/>
<path opacity="0.2" d="M10.204 45.316H13.948V34.172L10.236 30.46H6.49197L10.204 34.172V45.316Z" fill="black"/>
<path d="M9.20798 36.828V42.66H14.856V36.828H9.20798ZM13.948 41.6H10.2V37.884H13.944L13.948 41.6Z" fill="#263238"/>
<path opacity="0.5" d="M9.20798 36.828V42.66H14.856V36.828H9.20798ZM13.948 41.6H10.2V37.884H13.944L13.948 41.6Z" fill="white"/>
<path d="M0.203979 30.46V34.176L3.91598 37.888V34.172L0.203979 30.46Z" fill="#263238"/>
<path opacity="0.5" d="M0.203979 30.46V34.176L3.91598 37.888V34.172L0.203979 30.46Z" fill="white"/>
<path d="M0.203979 34.172V37.892L3.91598 41.6V37.884L0.203979 34.172Z" fill="#263238"/>
<path opacity="0.6" d="M0.203979 34.172V37.892L3.91598 41.6V37.884L0.203979 34.172Z" fill="white"/>
<path d="M0.203979 37.888V41.604L3.91598 45.316V41.6L0.203979 37.888Z" fill="#263238"/>
<path opacity="0.8" d="M0.203979 37.888V41.604L3.91598 45.316V41.6L0.203979 37.888Z" fill="white"/>
<path d="M148.576 47.556H130.392V72.028H148.576V47.556Z" fill="#2970E8"/>
<path opacity="0.7" d="M148.576 47.556H130.392V72.028H148.576V47.556Z" fill="white"/>
<path opacity="0.7" d="M147.388 48.744H131.58V55.116H147.388V48.744Z" fill="white"/>
<path opacity="0.7" d="M147.388 56.604H131.58V62.976H147.388V56.604Z" fill="white"/>
<path d="M147.388 52.18L145.912 50.384L144.092 52.604L142.272 49.988L140.34 51.92L138.444 50.852L136.716 53.716L134.992 50.852L133.036 51.96L131.58 51.136V51.816L133.036 52.64L134.784 51.652L136.716 54.868L138.652 51.652L140.44 52.66L142.188 50.908L144.052 53.588L145.912 51.32L147.388 53.116V52.18Z" fill="#2970E8"/>
<path opacity="0.5" d="M147.388 52.18L145.912 50.384L144.092 52.604L142.272 49.988L140.34 51.92L138.444 50.852L136.716 53.716L134.992 50.852L133.036 51.96L131.58 51.136V51.816L133.036 52.64L134.784 51.652L136.716 54.868L138.652 51.652L140.44 52.66L142.188 50.908L144.052 53.588L145.912 51.32L147.388 53.116V52.18Z" fill="white"/>
<path d="M147.388 58.54L145.9 59.38L143.944 58.272L142.22 61.136L140.496 58.276L138.6 59.34L136.668 57.408L134.848 60.024L133.024 57.804L131.58 59.568V60.504L133.024 58.74L134.884 61.008L136.748 58.328L138.496 60.08L140.284 59.076L142.22 62.288L144.156 59.076L145.9 60.06L147.388 59.224V58.54Z" fill="#2970E8"/>
<path opacity="0.5" d="M147.388 58.54L145.9 59.38L143.944 58.272L142.22 61.136L140.496 58.276L138.6 59.34L136.668 57.408L134.848 60.024L133.024 57.804L131.58 59.568V60.504L133.024 58.74L134.884 61.008L136.748 58.328L138.496 60.08L140.284 59.076L142.22 62.288L144.156 59.076L145.9 60.06L147.388 59.224V58.54Z" fill="white"/>
<path d="M138.108 64.764H147.164C147.242 64.764 147.318 64.7328 147.373 64.6773C147.429 64.6218 147.46 64.5465 147.46 64.468C147.46 64.3895 147.429 64.3142 147.373 64.2587C147.318 64.2032 147.242 64.172 147.164 64.172H138.108C138.029 64.172 137.954 64.2032 137.899 64.2587C137.843 64.3142 137.812 64.3895 137.812 64.468C137.812 64.5465 137.843 64.6218 137.899 64.6773C137.954 64.7328 138.029 64.764 138.108 64.764Z" fill="#263238"/>
<path d="M138.108 66.4H145.976C146.049 66.3915 146.116 66.3565 146.165 66.3015C146.214 66.2466 146.241 66.1756 146.241 66.102C146.241 66.0284 146.214 65.9574 146.165 65.9025C146.116 65.8475 146.049 65.8125 145.976 65.804H138.108C138.035 65.8125 137.967 65.8475 137.919 65.9025C137.87 65.9574 137.843 66.0284 137.843 66.102C137.843 66.1756 137.87 66.2466 137.919 66.3015C137.967 66.3565 138.035 66.3915 138.108 66.4Z" fill="#263238"/>
<path d="M138.108 68H145.976C146.049 67.9915 146.116 67.9565 146.165 67.9015C146.214 67.8466 146.241 67.7756 146.241 67.702C146.241 67.6284 146.214 67.5574 146.165 67.5025C146.116 67.4475 146.049 67.4125 145.976 67.404H138.108C138.035 67.4125 137.967 67.4475 137.919 67.5025C137.87 67.5574 137.843 67.6284 137.843 67.702C137.843 67.7756 137.87 67.8466 137.919 67.9015C137.967 67.9565 138.035 67.9915 138.108 68Z" fill="#263238"/>
<path d="M138.108 69.6H146.372C146.45 69.6 146.526 69.5688 146.581 69.5133C146.637 69.4578 146.668 69.3825 146.668 69.304C146.668 69.2255 146.637 69.1502 146.581 69.0947C146.526 69.0392 146.45 69.008 146.372 69.008H138.108C138.029 69.008 137.954 69.0392 137.899 69.0947C137.843 69.1502 137.812 69.2255 137.812 69.304C137.812 69.3825 137.843 69.4578 137.899 69.5133C137.954 69.5688 138.029 69.6 138.108 69.6Z" fill="#263238"/>
<g opacity="0.4">
<path d="M138.108 64.764H147.164C147.242 64.764 147.318 64.7328 147.373 64.6773C147.429 64.6218 147.46 64.5465 147.46 64.468C147.46 64.3895 147.429 64.3142 147.373 64.2587C147.318 64.2032 147.242 64.172 147.164 64.172H138.108C138.029 64.172 137.954 64.2032 137.899 64.2587C137.843 64.3142 137.812 64.3895 137.812 64.468C137.812 64.5465 137.843 64.6218 137.899 64.6773C137.954 64.7328 138.029 64.764 138.108 64.764Z" fill="white"/>
<path d="M138.108 66.4H145.976C146.049 66.3915 146.116 66.3565 146.165 66.3015C146.214 66.2466 146.241 66.1756 146.241 66.102C146.241 66.0284 146.214 65.9574 146.165 65.9025C146.116 65.8475 146.049 65.8125 145.976 65.804H138.108C138.035 65.8125 137.967 65.8475 137.919 65.9025C137.87 65.9574 137.843 66.0284 137.843 66.102C137.843 66.1756 137.87 66.2466 137.919 66.3015C137.967 66.3565 138.035 66.3915 138.108 66.4Z" fill="white"/>
<path d="M138.108 68H145.976C146.049 67.9915 146.116 67.9565 146.165 67.9015C146.214 67.8466 146.241 67.7756 146.241 67.702C146.241 67.6284 146.214 67.5574 146.165 67.5025C146.116 67.4475 146.049 67.4125 145.976 67.404H138.108C138.035 67.4125 137.967 67.4475 137.919 67.5025C137.87 67.5574 137.843 67.6284 137.843 67.702C137.843 67.7756 137.87 67.8466 137.919 67.9015C137.967 67.9565 138.035 67.9915 138.108 68Z" fill="white"/>
<path d="M138.108 69.6H146.372C146.45 69.6 146.526 69.5688 146.581 69.5133C146.637 69.4578 146.668 69.3825 146.668 69.304C146.668 69.2255 146.637 69.1502 146.581 69.0947C146.526 69.0392 146.45 69.008 146.372 69.008H138.108C138.029 69.008 137.954 69.0392 137.899 69.0947C137.843 69.1502 137.812 69.2255 137.812 69.304C137.812 69.3825 137.843 69.4578 137.899 69.5133C137.954 69.5688 138.029 69.6 138.108 69.6Z" fill="white"/>
</g>
<path d="M147.644 9.91199H131.112V32.16H147.644V9.91199Z" fill="#2970E8"/>
<path opacity="0.6" d="M147.644 9.91199H131.112V32.16H147.644V9.91199Z" fill="white"/>
<path opacity="0.7" d="M146.564 10.992H132.192V16.784H146.564V10.992Z" fill="white"/>
<path d="M138.172 18.524H146.408C146.474 18.516 146.535 18.4841 146.579 18.4343C146.623 18.3846 146.647 18.3204 146.647 18.254C146.647 18.1876 146.623 18.1234 146.579 18.0737C146.535 18.0239 146.474 17.9921 146.408 17.984H138.172C138.106 17.9921 138.045 18.0239 138.001 18.0737C137.957 18.1234 137.933 18.1876 137.933 18.254C137.933 18.3204 137.957 18.3846 138.001 18.4343C138.045 18.4841 138.106 18.516 138.172 18.524Z" fill="#263238"/>
<path d="M138.172 20H145.328C145.394 19.9919 145.455 19.96 145.499 19.9103C145.543 19.8605 145.567 19.7964 145.567 19.73C145.567 19.6635 145.543 19.5994 145.499 19.5496C145.455 19.4999 145.394 19.468 145.328 19.46H138.172C138.106 19.468 138.045 19.4999 138.001 19.5496C137.957 19.5994 137.933 19.6635 137.933 19.73C137.933 19.7964 137.957 19.8605 138.001 19.9103C138.045 19.96 138.106 19.9919 138.172 20Z" fill="#263238"/>
<path d="M138.172 21.464H145.328C145.394 21.456 145.455 21.4241 145.499 21.3743C145.543 21.3246 145.567 21.2604 145.567 21.194C145.567 21.1276 145.543 21.0634 145.499 21.0137C145.455 20.964 145.394 20.9321 145.328 20.924H138.172C138.106 20.9321 138.045 20.964 138.001 21.0137C137.957 21.0634 137.933 21.1276 137.933 21.194C137.933 21.2604 137.957 21.3246 138.001 21.3743C138.045 21.4241 138.106 21.456 138.172 21.464Z" fill="#263238"/>
<path d="M138.172 22.936H145.688C145.754 22.928 145.815 22.8961 145.859 22.8463C145.903 22.7966 145.927 22.7324 145.927 22.666C145.927 22.5996 145.903 22.5354 145.859 22.4857C145.815 22.4359 145.754 22.404 145.688 22.396H138.172C138.106 22.404 138.045 22.4359 138.001 22.4857C137.957 22.5354 137.933 22.5996 137.933 22.666C137.933 22.7324 137.957 22.7966 138.001 22.8463C138.045 22.8961 138.106 22.928 138.172 22.936Z" fill="#263238"/>
<path d="M138.172 24.4H144.248C144.314 24.3919 144.375 24.36 144.419 24.3103C144.463 24.2606 144.487 24.1964 144.487 24.13C144.487 24.0635 144.463 23.9994 144.419 23.9497C144.375 23.8999 144.314 23.868 144.248 23.86H138.172C138.106 23.868 138.045 23.8999 138.001 23.9497C137.957 23.9994 137.933 24.0635 137.933 24.13C137.933 24.1964 137.957 24.2606 138.001 24.3103C138.045 24.36 138.106 24.3919 138.172 24.4Z" fill="#263238"/>
<path d="M138.172 25.876H146.408C146.474 25.868 146.535 25.8361 146.579 25.7863C146.623 25.7366 146.647 25.6724 146.647 25.606C146.647 25.5396 146.623 25.4754 146.579 25.4257C146.535 25.3759 146.474 25.344 146.408 25.336H138.172C138.106 25.344 138.045 25.3759 138.001 25.4257C137.957 25.4754 137.933 25.5396 137.933 25.606C137.933 25.6724 137.957 25.7366 138.001 25.7863C138.045 25.8361 138.106 25.868 138.172 25.876Z" fill="#263238"/>
<path d="M138.172 27.344H145.328C145.394 27.3359 145.455 27.304 145.499 27.2543C145.543 27.2045 145.567 27.1404 145.567 27.074C145.567 27.0075 145.543 26.9434 145.499 26.8936C145.455 26.8439 145.394 26.812 145.328 26.804H138.172C138.106 26.812 138.045 26.8439 138.001 26.8936C137.957 26.9434 137.933 27.0075 137.933 27.074C137.933 27.1404 137.957 27.2045 138.001 27.2543C138.045 27.304 138.106 27.3359 138.172 27.344Z" fill="#263238"/>
<path d="M138.172 28.8H145.328C145.394 28.792 145.455 28.7601 145.499 28.7103C145.543 28.6606 145.567 28.5964 145.567 28.53C145.567 28.4636 145.543 28.3994 145.499 28.3497C145.455 28.3 145.394 28.2681 145.328 28.26H138.172C138.106 28.2681 138.045 28.3 138.001 28.3497C137.957 28.3994 137.933 28.4636 137.933 28.53C137.933 28.5964 137.957 28.6606 138.001 28.7103C138.045 28.7601 138.106 28.792 138.172 28.8Z" fill="#263238"/>
<path d="M138.172 30.284H145.688C145.754 30.276 145.815 30.2441 145.859 30.1943C145.903 30.1446 145.927 30.0805 145.927 30.014C145.927 29.9476 145.903 29.8834 145.859 29.8337C145.815 29.784 145.754 29.7521 145.688 29.744H138.172C138.106 29.7521 138.045 29.784 138.001 29.8337C137.957 29.8834 137.933 29.9476 137.933 30.014C137.933 30.0805 137.957 30.1446 138.001 30.1943C138.045 30.2441 138.106 30.276 138.172 30.284Z" fill="#263238"/>
<g opacity="0.4">
<path d="M138.172 18.524H146.408C146.474 18.516 146.535 18.4841 146.579 18.4343C146.623 18.3846 146.647 18.3204 146.647 18.254C146.647 18.1876 146.623 18.1234 146.579 18.0737C146.535 18.0239 146.474 17.9921 146.408 17.984H138.172C138.106 17.9921 138.045 18.0239 138.001 18.0737C137.957 18.1234 137.933 18.1876 137.933 18.254C137.933 18.3204 137.957 18.3846 138.001 18.4343C138.045 18.4841 138.106 18.516 138.172 18.524Z" fill="white"/>
</g>
<g opacity="0.4">
<path d="M138.172 20H145.328C145.394 19.9919 145.455 19.96 145.499 19.9103C145.543 19.8605 145.567 19.7964 145.567 19.73C145.567 19.6635 145.543 19.5994 145.499 19.5496C145.455 19.4999 145.394 19.468 145.328 19.46H138.172C138.106 19.468 138.045 19.4999 138.001 19.5496C137.957 19.5994 137.933 19.6635 137.933 19.73C137.933 19.7964 137.957 19.8605 138.001 19.9103C138.045 19.96 138.106 19.9919 138.172 20Z" fill="white"/>
</g>
<g opacity="0.4">
<path d="M138.172 21.464H145.328C145.394 21.456 145.455 21.4241 145.499 21.3743C145.543 21.3246 145.567 21.2604 145.567 21.194C145.567 21.1276 145.543 21.0634 145.499 21.0137C145.455 20.964 145.394 20.9321 145.328 20.924H138.172C138.106 20.9321 138.045 20.964 138.001 21.0137C137.957 21.0634 137.933 21.1276 137.933 21.194C137.933 21.2604 137.957 21.3246 138.001 21.3743C138.045 21.4241 138.106 21.456 138.172 21.464Z" fill="white"/>
</g>
<g opacity="0.4">
<path d="M138.172 22.936H145.688C145.754 22.928 145.815 22.8961 145.859 22.8463C145.903 22.7966 145.927 22.7324 145.927 22.666C145.927 22.5996 145.903 22.5354 145.859 22.4857C145.815 22.4359 145.754 22.404 145.688 22.396H138.172C138.106 22.404 138.045 22.4359 138.001 22.4857C137.957 22.5354 137.933 22.5996 137.933 22.666C137.933 22.7324 137.957 22.7966 138.001 22.8463C138.045 22.8961 138.106 22.928 138.172 22.936Z" fill="white"/>
</g>
<g opacity="0.4">
<path d="M138.172 24.4H144.248C144.314 24.3919 144.375 24.36 144.419 24.3103C144.463 24.2606 144.487 24.1964 144.487 24.13C144.487 24.0635 144.463 23.9994 144.419 23.9497C144.375 23.8999 144.314 23.868 144.248 23.86H138.172C138.106 23.868 138.045 23.8999 138.001 23.9497C137.957 23.9994 137.933 24.0635 137.933 24.13C137.933 24.1964 137.957 24.2606 138.001 24.3103C138.045 24.36 138.106 24.3919 138.172 24.4Z" fill="white"/>
</g>
<g opacity="0.4">
<path d="M138.172 25.876H146.408C146.474 25.868 146.535 25.8361 146.579 25.7863C146.623 25.7366 146.647 25.6724 146.647 25.606C146.647 25.5396 146.623 25.4754 146.579 25.4257C146.535 25.3759 146.474 25.344 146.408 25.336H138.172C138.106 25.344 138.045 25.3759 138.001 25.4257C137.957 25.4754 137.933 25.5396 137.933 25.606C137.933 25.6724 137.957 25.7366 138.001 25.7863C138.045 25.8361 138.106 25.868 138.172 25.876Z" fill="white"/>
</g>
<g opacity="0.4">
<path d="M138.172 27.344H145.328C145.394 27.3359 145.455 27.304 145.499 27.2543C145.543 27.2045 145.567 27.1404 145.567 27.074C145.567 27.0075 145.543 26.9434 145.499 26.8936C145.455 26.8439 145.394 26.812 145.328 26.804H138.172C138.106 26.812 138.045 26.8439 138.001 26.8936C137.957 26.9434 137.933 27.0075 137.933 27.074C137.933 27.1404 137.957 27.2045 138.001 27.2543C138.045 27.304 138.106 27.3359 138.172 27.344Z" fill="white"/>
</g>
<g opacity="0.4">
<path d="M138.172 28.8H145.328C145.394 28.792 145.455 28.7601 145.499 28.7103C145.543 28.6606 145.567 28.5964 145.567 28.53C145.567 28.4636 145.543 28.3994 145.499 28.3497C145.455 28.3 145.394 28.2681 145.328 28.26H138.172C138.106 28.2681 138.045 28.3 138.001 28.3497C137.957 28.3994 137.933 28.4636 137.933 28.53C137.933 28.5964 137.957 28.6606 138.001 28.7103C138.045 28.7601 138.106 28.792 138.172 28.8Z" fill="white"/>
</g>
<g opacity="0.4">
<path d="M138.172 30.284H145.688C145.754 30.276 145.815 30.2441 145.859 30.1943C145.903 30.1446 145.927 30.0805 145.927 30.014C145.927 29.9476 145.903 29.8834 145.859 29.8337C145.815 29.784 145.754 29.7521 145.688 29.744H138.172C138.106 29.7521 138.045 29.784 138.001 29.8337C137.957 29.8834 137.933 29.9476 137.933 30.014C137.933 30.0805 137.957 30.1446 138.001 30.1943C138.045 30.2441 138.106 30.276 138.172 30.284Z" fill="white"/>
</g>
<path d="M136.244 18.256H132.192V22.308H136.244V18.256Z" fill="#2970E8"/>
<path opacity="0.3" d="M136.244 18.256H132.192V22.308H136.244V18.256Z" fill="white"/>
<path d="M136.636 14.068H135.54V16.26H136.636V14.068Z" fill="#2970E8"/>
<path d="M138.832 12.968H137.736V16.256H138.832V12.968Z" fill="#2970E8"/>
<path d="M141.024 13.52H139.928V16.26H141.024V13.52Z" fill="#2970E8"/>
<path d="M143.216 11.872H142.12V16.26H143.216V11.872Z" fill="#2970E8"/>
<path d="M139.548 28.396H123.016V50.644H139.548V28.396Z" fill="#2970E8"/>
<path opacity="0.8" d="M139.548 28.396H123.016V50.644H139.548V28.396Z" fill="white"/>
<path d="M130.076 30.8H138.312C138.378 30.792 138.439 30.7601 138.483 30.7103C138.527 30.6606 138.551 30.5964 138.551 30.53C138.551 30.4636 138.527 30.3994 138.483 30.3497C138.439 30.3 138.378 30.2681 138.312 30.26H130.076C130.01 30.2681 129.949 30.3 129.905 30.3497C129.861 30.3994 129.837 30.4636 129.837 30.53C129.837 30.5964 129.861 30.6606 129.905 30.7103C129.949 30.7601 130.01 30.792 130.076 30.8Z" fill="#263238"/>
<path d="M130.076 32.252H137.232C137.298 32.2439 137.359 32.212 137.403 32.1623C137.447 32.1126 137.471 32.0484 137.471 31.982C137.471 31.9155 137.447 31.8514 137.403 31.8017C137.359 31.7519 137.298 31.72 137.232 31.712H130.076C130.01 31.72 129.949 31.7519 129.905 31.8017C129.861 31.8514 129.837 31.9155 129.837 31.982C129.837 32.0484 129.861 32.1126 129.905 32.1623C129.949 32.212 130.01 32.2439 130.076 32.252Z" fill="#263238"/>
<path d="M130.076 33.72H137.232C137.298 33.712 137.359 33.6801 137.403 33.6303C137.447 33.5806 137.471 33.5164 137.471 33.45C137.471 33.3836 137.447 33.3194 137.403 33.2697C137.359 33.2199 137.298 33.188 137.232 33.18H130.076C130.01 33.188 129.949 33.2199 129.905 33.2697C129.861 33.3194 129.837 33.3836 129.837 33.45C129.837 33.5164 129.861 33.5806 129.905 33.6303C129.949 33.6801 130.01 33.712 130.076 33.72Z" fill="#263238"/>
<path d="M130.076 35.2H137.592C137.658 35.1919 137.719 35.16 137.763 35.1103C137.807 35.0606 137.831 34.9964 137.831 34.93C137.831 34.8635 137.807 34.7994 137.763 34.7497C137.719 34.6999 137.658 34.668 137.592 34.66H130.076C130.01 34.668 129.949 34.6999 129.905 34.7497C129.861 34.7994 129.837 34.8635 129.837 34.93C129.837 34.9964 129.861 35.0606 129.905 35.1103C129.949 35.16 130.01 35.1919 130.076 35.2Z" fill="#263238"/>
<path d="M130.076 36.66H136.152C136.218 36.6519 136.279 36.6201 136.323 36.5703C136.367 36.5206 136.391 36.4564 136.391 36.39C136.391 36.3236 136.367 36.2594 136.323 36.2097C136.279 36.1599 136.218 36.128 136.152 36.12H130.076C130.01 36.128 129.949 36.1599 129.905 36.2097C129.861 36.2594 129.837 36.3236 129.837 36.39C129.837 36.4564 129.861 36.5206 129.905 36.5703C129.949 36.6201 130.01 36.6519 130.076 36.66Z" fill="#263238"/>
<path d="M130.076 38.132H138.312C138.378 38.1239 138.439 38.092 138.483 38.0423C138.527 37.9926 138.551 37.9284 138.551 37.862C138.551 37.7955 138.527 37.7314 138.483 37.6817C138.439 37.6319 138.378 37.6 138.312 37.592H130.076C130.01 37.6 129.949 37.6319 129.905 37.6817C129.861 37.7314 129.837 37.7955 129.837 37.862C129.837 37.9284 129.861 37.9926 129.905 38.0423C129.949 38.092 130.01 38.1239 130.076 38.132Z" fill="#263238"/>
<path d="M130.076 39.6H137.232C137.298 39.592 137.359 39.5601 137.403 39.5103C137.447 39.4606 137.471 39.3964 137.471 39.33C137.471 39.2636 137.447 39.1994 137.403 39.1497C137.359 39.0999 137.298 39.068 137.232 39.06H130.076C130.01 39.068 129.949 39.0999 129.905 39.1497C129.861 39.1994 129.837 39.2636 129.837 39.33C129.837 39.3964 129.861 39.4606 129.905 39.5103C129.949 39.5601 130.01 39.592 130.076 39.6Z" fill="#263238"/>
<path d="M130.076 41.072H137.232C137.298 41.0639 137.359 41.032 137.403 40.9823C137.447 40.9326 137.471 40.8684 137.471 40.802C137.471 40.7355 137.447 40.6714 137.403 40.6217C137.359 40.5719 137.298 40.54 137.232 40.532H130.076C130.01 40.54 129.949 40.5719 129.905 40.6217C129.861 40.6714 129.837 40.7355 129.837 40.802C129.837 40.8684 129.861 40.9326 129.905 40.9823C129.949 41.032 130.01 41.0639 130.076 41.072Z" fill="#263238"/>
<path d="M130.076 44H136.152C136.218 43.9919 136.279 43.96 136.323 43.9103C136.367 43.8605 136.391 43.7964 136.391 43.73C136.391 43.6635 136.367 43.5994 136.323 43.5496C136.279 43.4999 136.218 43.468 136.152 43.46H130.076C130.01 43.468 129.949 43.4999 129.905 43.5496C129.861 43.5994 129.837 43.6635 129.837 43.73C129.837 43.7964 129.861 43.8605 129.905 43.9103C129.949 43.96 130.01 43.9919 130.076 44Z" fill="#263238"/>
<path d="M130.076 45.484H138.312C138.378 45.4759 138.439 45.444 138.483 45.3943C138.527 45.3445 138.551 45.2804 138.551 45.214C138.551 45.1475 138.527 45.0834 138.483 45.0337C138.439 44.9839 138.378 44.952 138.312 44.944H130.076C130.01 44.952 129.949 44.9839 129.905 45.0337C129.861 45.0834 129.837 45.1475 129.837 45.214C129.837 45.2804 129.861 45.3445 129.905 45.3943C129.949 45.444 130.01 45.4759 130.076 45.484Z" fill="#263238"/>
<path d="M130.076 46.952H137.232C137.298 46.9439 137.359 46.912 137.403 46.8623C137.447 46.8126 137.471 46.7484 137.471 46.682C137.471 46.6156 137.447 46.5514 137.403 46.5017C137.359 46.4519 137.298 46.42 137.232 46.412H130.076C130.01 46.42 129.949 46.4519 129.905 46.5017C129.861 46.5514 129.837 46.6156 129.837 46.682C129.837 46.7484 129.861 46.8126 129.905 46.8623C129.949 46.912 130.01 46.9439 130.076 46.952Z" fill="#263238"/>
<path d="M130.076 48.424H137.232C137.298 48.4159 137.359 48.384 137.403 48.3343C137.447 48.2845 137.471 48.2204 137.471 48.154C137.471 48.0875 137.447 48.0234 137.403 47.9737C137.359 47.9239 137.298 47.892 137.232 47.884H130.076C130.01 47.892 129.949 47.9239 129.905 47.9737C129.861 48.0234 129.837 48.0875 129.837 48.154C129.837 48.2204 129.861 48.2845 129.905 48.3343C129.949 48.384 130.01 48.4159 130.076 48.424Z" fill="#263238"/>
<path d="M130.076 42.54H137.592C137.658 42.532 137.719 42.5001 137.763 42.4503C137.807 42.4006 137.831 42.3364 137.831 42.27C137.831 42.2036 137.807 42.1394 137.763 42.0897C137.719 42.0399 137.658 42.008 137.592 42H130.076C130.01 42.008 129.949 42.0399 129.905 42.0897C129.861 42.1394 129.837 42.2036 129.837 42.27C129.837 42.3364 129.861 42.4006 129.905 42.4503C129.949 42.5001 130.01 42.532 130.076 42.54Z" fill="#263238"/>
<g opacity="0.4">
<path d="M130.076 30.8H138.312C138.378 30.792 138.439 30.7601 138.483 30.7103C138.527 30.6606 138.551 30.5964 138.551 30.53C138.551 30.4636 138.527 30.3994 138.483 30.3497C138.439 30.3 138.378 30.2681 138.312 30.26H130.076C130.01 30.2681 129.949 30.3 129.905 30.3497C129.861 30.3994 129.837 30.4636 129.837 30.53C129.837 30.5964 129.861 30.6606 129.905 30.7103C129.949 30.7601 130.01 30.792 130.076 30.8Z" fill="white"/>
<path d="M130.076 32.252H137.232C137.298 32.244 137.359 32.2121 137.403 32.1624C137.447 32.1126 137.471 32.0485 137.471 31.982C137.471 31.9156 137.447 31.8515 137.403 31.8017C137.359 31.752 137.298 31.7201 137.232 31.712H130.076C130.01 31.7201 129.949 31.752 129.905 31.8017C129.861 31.8515 129.837 31.9156 129.837 31.982C129.837 32.0485 129.861 32.1126 129.905 32.1624C129.949 32.2121 130.01 32.244 130.076 32.252Z" fill="white"/>
<path d="M130.076 33.72H137.232C137.298 33.712 137.359 33.6801 137.403 33.6303C137.447 33.5806 137.471 33.5164 137.471 33.45C137.471 33.3836 137.447 33.3194 137.403 33.2697C137.359 33.2199 137.298 33.188 137.232 33.18H130.076C130.01 33.188 129.949 33.2199 129.905 33.2697C129.861 33.3194 129.837 33.3836 129.837 33.45C129.837 33.5164 129.861 33.5806 129.905 33.6303C129.949 33.6801 130.01 33.712 130.076 33.72Z" fill="white"/>
<path d="M130.076 35.2H137.592C137.658 35.192 137.719 35.1601 137.763 35.1104C137.807 35.0606 137.831 34.9965 137.831 34.93C137.831 34.8636 137.807 34.7995 137.763 34.7497C137.719 34.7 137.658 34.6681 137.592 34.66H130.076C130.01 34.6681 129.949 34.7 129.905 34.7497C129.861 34.7995 129.837 34.8636 129.837 34.93C129.837 34.9965 129.861 35.0606 129.905 35.1104C129.949 35.1601 130.01 35.192 130.076 35.2Z" fill="white"/>
<path d="M130.076 36.66H136.152C136.218 36.6519 136.279 36.6201 136.323 36.5703C136.367 36.5206 136.391 36.4564 136.391 36.39C136.391 36.3236 136.367 36.2594 136.323 36.2097C136.279 36.1599 136.218 36.128 136.152 36.12H130.076C130.01 36.128 129.949 36.1599 129.905 36.2097C129.861 36.2594 129.837 36.3236 129.837 36.39C129.837 36.4564 129.861 36.5206 129.905 36.5703C129.949 36.6201 130.01 36.6519 130.076 36.66Z" fill="white"/>
<path d="M130.076 38.132H138.312C138.378 38.1239 138.439 38.092 138.483 38.0423C138.527 37.9926 138.551 37.9284 138.551 37.862C138.551 37.7955 138.527 37.7314 138.483 37.6817C138.439 37.6319 138.378 37.6 138.312 37.592H130.076C130.01 37.6 129.949 37.6319 129.905 37.6817C129.861 37.7314 129.837 37.7955 129.837 37.862C129.837 37.9284 129.861 37.9926 129.905 38.0423C129.949 38.092 130.01 38.1239 130.076 38.132Z" fill="white"/>
<path d="M130.076 39.6H137.232C137.298 39.592 137.359 39.5601 137.403 39.5103C137.447 39.4606 137.471 39.3964 137.471 39.33C137.471 39.2636 137.447 39.1994 137.403 39.1497C137.359 39.0999 137.298 39.068 137.232 39.06H130.076C130.01 39.068 129.949 39.0999 129.905 39.1497C129.861 39.1994 129.837 39.2636 129.837 39.33C129.837 39.3964 129.861 39.4606 129.905 39.5103C129.949 39.5601 130.01 39.592 130.076 39.6Z" fill="white"/>
<path d="M130.076 41.072H137.232C137.298 41.0639 137.359 41.032 137.403 40.9823C137.447 40.9326 137.471 40.8684 137.471 40.802C137.471 40.7355 137.447 40.6714 137.403 40.6217C137.359 40.5719 137.298 40.54 137.232 40.532H130.076C130.01 40.54 129.949 40.5719 129.905 40.6217C129.861 40.6714 129.837 40.7355 129.837 40.802C129.837 40.8684 129.861 40.9326 129.905 40.9823C129.949 41.032 130.01 41.0639 130.076 41.072Z" fill="white"/>
<path d="M130.076 44H136.152C136.218 43.992 136.279 43.9601 136.323 43.9103C136.367 43.8606 136.391 43.7965 136.391 43.73C136.391 43.6636 136.367 43.5994 136.323 43.5497C136.279 43.5 136.218 43.4681 136.152 43.46H130.076C130.01 43.4681 129.949 43.5 129.905 43.5497C129.861 43.5994 129.837 43.6636 129.837 43.73C129.837 43.7965 129.861 43.8606 129.905 43.9103C129.949 43.9601 130.01 43.992 130.076 44Z" fill="white"/>
<path d="M130.076 45.484H138.312C138.378 45.476 138.439 45.4441 138.483 45.3943C138.527 45.3446 138.551 45.2805 138.551 45.214C138.551 45.1476 138.527 45.0835 138.483 45.0337C138.439 44.984 138.378 44.9521 138.312 44.944H130.076C130.01 44.9521 129.949 44.984 129.905 45.0337C129.861 45.0835 129.837 45.1476 129.837 45.214C129.837 45.2805 129.861 45.3446 129.905 45.3943C129.949 45.4441 130.01 45.476 130.076 45.484Z" fill="white"/>
<path d="M130.076 46.952H137.232C137.298 46.9439 137.359 46.912 137.403 46.8623C137.447 46.8126 137.471 46.7484 137.471 46.682C137.471 46.6156 137.447 46.5514 137.403 46.5017C137.359 46.4519 137.298 46.42 137.232 46.412H130.076C130.01 46.42 129.949 46.4519 129.905 46.5017C129.861 46.5514 129.837 46.6156 129.837 46.682C129.837 46.7484 129.861 46.8126 129.905 46.8623C129.949 46.912 130.01 46.9439 130.076 46.952Z" fill="white"/>
<path d="M130.076 48.424H137.232C137.298 48.416 137.359 48.3841 137.403 48.3344C137.447 48.2846 137.471 48.2205 137.471 48.154C137.471 48.0876 137.447 48.0235 137.403 47.9737C137.359 47.924 137.298 47.8921 137.232 47.884H130.076C130.01 47.8921 129.949 47.924 129.905 47.9737C129.861 48.0235 129.837 48.0876 129.837 48.154C129.837 48.2205 129.861 48.2846 129.905 48.3344C129.949 48.3841 130.01 48.416 130.076 48.424Z" fill="white"/>
<path d="M130.076 42.54H137.592C137.658 42.532 137.719 42.5001 137.763 42.4503C137.807 42.4006 137.831 42.3364 137.831 42.27C137.831 42.2036 137.807 42.1394 137.763 42.0897C137.719 42.0399 137.658 42.008 137.592 42H130.076C130.01 42.008 129.949 42.0399 129.905 42.0897C129.861 42.1394 129.837 42.2036 129.837 42.27C129.837 42.3364 129.861 42.4006 129.905 42.4503C129.949 42.5001 130.01 42.532 130.076 42.54Z" fill="white"/>
</g>
<path d="M125.556 38.228L124.904 37.576C124.672 37.8058 124.489 38.0794 124.364 38.3808C124.239 38.6823 124.175 39.0056 124.176 39.332H125.1C125.099 39.127 125.139 38.9239 125.218 38.7344C125.296 38.5449 125.411 38.3728 125.556 38.228Z" fill="#2970E8"/>
<path d="M126.656 40.892C126.243 40.8909 125.847 40.7261 125.555 40.4336C125.264 40.1412 125.1 39.745 125.1 39.332H124.176C124.176 39.9897 124.437 40.6205 124.902 41.0856C125.367 41.5507 125.998 41.812 126.656 41.812V40.892Z" fill="#2970E8"/>
<path opacity="0.3" d="M126.656 40.892C126.243 40.8909 125.847 40.7261 125.555 40.4336C125.264 40.1412 125.1 39.745 125.1 39.332H124.176C124.176 39.9897 124.437 40.6205 124.902 41.0856C125.367 41.5507 125.998 41.812 126.656 41.812V40.892Z" fill="white"/>
<path d="M125.556 38.228C125.7 38.0827 125.871 37.9676 126.06 37.8893C126.249 37.8111 126.452 37.7711 126.656 37.772V36.848C126.33 36.848 126.008 36.9123 125.707 37.0372C125.407 37.1621 125.134 37.3452 124.904 37.576L125.556 38.228Z" fill="#2970E8"/>
<path opacity="0.5" d="M125.556 38.228C125.7 38.0827 125.871 37.9676 126.06 37.8893C126.249 37.8111 126.452 37.7711 126.656 37.772V36.848C126.33 36.848 126.008 36.9123 125.707 37.0372C125.407 37.1621 125.134 37.3452 124.904 37.576L125.556 38.228Z" fill="black"/>
<path d="M128.2 39.332C128.2 39.7457 128.036 40.1425 127.743 40.4351C127.451 40.7277 127.054 40.892 126.64 40.892V41.812C126.974 41.8254 127.308 41.7712 127.621 41.6525C127.934 41.5338 128.219 41.3532 128.461 41.1214C128.702 40.8896 128.894 40.6114 129.025 40.3036C129.156 39.9958 129.224 39.6646 129.224 39.33C129.224 38.9954 129.156 38.6643 129.025 38.3564C128.894 38.0486 128.702 37.7705 128.461 37.5387C128.219 37.3069 127.934 37.1262 127.621 37.0075C127.308 36.8888 126.974 36.8346 126.64 36.848V37.772C126.845 37.7715 127.048 37.8115 127.238 37.8897C127.427 37.9679 127.599 38.0828 127.744 38.2277C127.889 38.3727 128.004 38.5449 128.082 38.7344C128.161 38.9239 128.201 39.127 128.2 39.332Z" fill="#2970E8"/>
<path opacity="0.2" d="M127.76 40.432L128.412 41.088C128.643 40.8578 128.827 40.5841 128.952 40.2827C129.076 39.9814 129.141 39.6582 129.14 39.332H128.2C128.203 39.5353 128.166 39.7372 128.09 39.926C128.014 40.1148 127.902 40.2867 127.76 40.432Z" fill="black"/>
<path d="M125.556 33.54L124.904 34.192C125.133 34.4234 125.406 34.607 125.707 34.732C126.008 34.857 126.33 34.9209 126.656 34.92V34C126.451 34 126.249 33.9594 126.06 33.8804C125.871 33.8015 125.7 33.6857 125.556 33.54Z" fill="#2970E8"/>
<path d="M128.2 32.44C128.2 32.8537 128.036 33.2505 127.743 33.5431C127.451 33.8356 127.054 34 126.64 34V34.92C127.298 34.92 127.929 34.6588 128.395 34.1939C128.861 33.7289 129.123 33.0981 129.124 32.44H128.2Z" fill="#2970E8"/>
<path opacity="0.3" d="M128.2 32.44C128.2 32.8537 128.036 33.2505 127.743 33.5431C127.451 33.8356 127.054 34 126.64 34V34.92C127.298 34.92 127.929 34.6588 128.395 34.1939C128.861 33.7289 129.123 33.0981 129.124 32.44H128.2Z" fill="white"/>
<path d="M125.556 33.54C125.411 33.3961 125.296 33.2247 125.217 33.0359C125.139 32.847 125.099 32.6444 125.1 32.44H124.176C124.175 32.7657 124.239 33.0884 124.364 33.3891C124.489 33.6899 124.673 33.9628 124.904 34.192L125.556 33.54Z" fill="#2970E8"/>
<path opacity="0.5" d="M125.556 33.54C125.411 33.3961 125.296 33.2247 125.217 33.0359C125.139 32.847 125.099 32.6444 125.1 32.44H124.176C124.175 32.7657 124.239 33.0884 124.364 33.3891C124.489 33.6899 124.673 33.9628 124.904 34.192L125.556 33.54Z" fill="black"/>
<path d="M126.656 30.88C126.861 30.8795 127.064 30.9194 127.254 30.9977C127.443 31.0759 127.615 31.1908 127.76 31.3357C127.905 31.4807 128.02 31.6529 128.098 31.8424C128.177 32.0319 128.217 32.235 128.216 32.44H129.14C129.153 32.1057 129.099 31.7721 128.98 31.4592C128.862 31.1464 128.681 30.8608 128.449 30.6195C128.218 30.3782 127.939 30.1862 127.632 30.0551C127.324 29.9239 126.993 29.8563 126.658 29.8563C126.323 29.8563 125.992 29.9239 125.684 30.0551C125.377 30.1862 125.098 30.3782 124.867 30.6195C124.635 30.8608 124.454 31.1464 124.335 31.4592C124.217 31.7721 124.163 32.1057 124.176 32.44H125.1C125.099 32.2353 125.139 32.0325 125.217 31.8433C125.295 31.6541 125.41 31.4821 125.554 31.3371C125.699 31.1922 125.871 31.0773 126.06 30.9988C126.249 30.9204 126.451 30.88 126.656 30.88Z" fill="#2970E8"/>
<path opacity="0.2" d="M127.76 31.336L128.412 30.684C128.182 30.4523 127.909 30.2685 127.607 30.1435C127.306 30.0186 126.982 29.9548 126.656 29.956V30.88C126.861 30.8789 127.064 30.9186 127.254 30.9969C127.443 31.0752 127.615 31.1905 127.76 31.336Z" fill="black"/>
<path d="M127.76 45.12L128.412 44.468C128.644 44.6978 128.827 44.9714 128.952 45.2729C129.077 45.5743 129.141 45.8977 129.14 46.224H128.2C128.203 46.0201 128.165 45.8177 128.09 45.6282C128.014 45.4388 127.902 45.2661 127.76 45.12Z" fill="#2970E8"/>
<path d="M126.656 47.784C127.07 47.784 127.467 47.6196 127.759 47.3271C128.052 47.0345 128.216 46.6377 128.216 46.224H129.14C129.14 46.8828 128.878 47.5146 128.412 47.9805C127.947 48.4463 127.315 48.708 126.656 48.708V47.784Z" fill="#2970E8"/>
<path opacity="0.3" d="M126.656 47.784C127.07 47.784 127.467 47.6196 127.759 47.3271C128.052 47.0345 128.216 46.6377 128.216 46.224H129.14C129.14 46.8828 128.878 47.5146 128.412 47.9805C127.947 48.4463 127.315 48.708 126.656 48.708V47.784Z" fill="white"/>
<path d="M127.76 45.12C127.615 44.9752 127.443 44.8604 127.253 44.7821C127.064 44.7039 126.861 44.6638 126.656 44.664V43.74C126.982 43.7397 127.305 43.8038 127.607 43.9288C127.908 44.0537 128.182 44.2369 128.412 44.468L127.76 45.12Z" fill="#2970E8"/>
<path opacity="0.5" d="M127.76 45.12C127.615 44.9752 127.443 44.8604 127.253 44.7821C127.064 44.7039 126.861 44.6638 126.656 44.664V43.74C126.982 43.7397 127.305 43.8038 127.607 43.9288C127.908 44.0537 128.182 44.2369 128.412 44.468L127.76 45.12Z" fill="black"/>
<path d="M125.1 46.224C125.1 46.637 125.264 47.0332 125.555 47.3257C125.847 47.6181 126.243 47.7829 126.656 47.784V48.708C125.997 48.708 125.365 48.4463 124.9 47.9804C124.434 47.5146 124.172 46.8828 124.172 46.224C124.172 45.5652 124.434 44.9334 124.9 44.4675C125.365 44.0017 125.997 43.74 126.656 43.74V44.664C126.243 44.665 125.847 44.8299 125.555 45.1223C125.264 45.4148 125.1 45.8109 125.1 46.224Z" fill="#2970E8"/>
<path opacity="0.2" d="M125.556 47.328L124.904 48C124.673 47.7698 124.489 47.4962 124.364 47.1948C124.24 46.8934 124.175 46.5703 124.176 46.244H125.1C125.104 46.6512 125.268 47.0405 125.556 47.328Z" fill="black"/>
<path d="M79.976 72.692H89.652C89.9331 72.692 90.2027 72.8037 90.4015 73.0025C90.6003 73.2013 90.712 73.4709 90.712 73.752V74.34C90.712 74.6211 90.6003 74.8908 90.4015 75.0896C90.2027 75.2883 89.9331 75.4 89.652 75.4H79.976V72.692Z" fill="#263238"/>
<path d="M61.06 72.692H81.648C81.909 72.692 82.1593 72.7957 82.3438 72.9802C82.5283 73.1648 82.632 73.415 82.632 73.676V74.4C82.632 74.661 82.5283 74.9113 82.3438 75.0958C82.1593 75.2803 81.909 75.384 81.648 75.384H61.06C60.798 75.384 60.5467 75.2799 60.3614 75.0946C60.1761 74.9094 60.072 74.6581 60.072 74.396V73.68C60.0715 73.5501 60.0967 73.4214 60.1461 73.3013C60.1956 73.1812 60.2684 73.0721 60.3602 72.9802C60.4521 72.8884 60.5612 72.8156 60.6813 72.7661C60.8014 72.7167 60.9301 72.6915 61.06 72.692Z" fill="black"/>
<path opacity="0.5" d="M61.06 72.692H81.648C81.909 72.692 82.1593 72.7957 82.3438 72.9802C82.5283 73.1648 82.632 73.415 82.632 73.676V74.4C82.632 74.661 82.5283 74.9113 82.3438 75.0958C82.1593 75.2803 81.909 75.384 81.648 75.384H61.06C60.798 75.384 60.5467 75.2799 60.3614 75.0946C60.1761 74.9094 60.072 74.6581 60.072 74.396V73.68C60.0715 73.5501 60.0967 73.4214 60.1461 73.3013C60.1956 73.1812 60.2684 73.0721 60.3602 72.9802C60.4521 72.8884 60.5612 72.8156 60.6813 72.7661C60.8014 72.7167 60.9301 72.6915 61.06 72.692Z" fill="white"/>
<path d="M77.128 72.696H82.344L79.004 60.216H77.128V72.696Z" fill="#263238"/>
<path d="M81.584 72.696H70.936L69.876 60.216H78.244L81.584 72.696Z" fill="black"/>
<path opacity="0.3" d="M81.584 72.696H70.936L69.876 60.216H78.244L81.584 72.696Z" fill="white"/>
<path d="M108.404 24.356H103.564L99.8 67.2H104.64C105.14 67.1918 105.62 67.0004 105.989 66.662C106.357 66.3236 106.589 65.8618 106.64 65.364L110.064 26.204C110.092 25.9705 110.07 25.7338 109.999 25.5096C109.928 25.2854 109.81 25.0789 109.653 24.9039C109.496 24.729 109.303 24.5896 109.087 24.4951C108.872 24.4006 108.639 24.3532 108.404 24.356Z" fill="#263238"/>
<path d="M103.54 67.2H44.948C44.713 67.2043 44.4798 67.1585 44.2639 67.0654C44.0481 66.9724 43.8545 66.8344 43.6963 66.6606C43.538 66.4868 43.4187 66.2813 43.3462 66.0577C43.2737 65.8341 43.2498 65.5976 43.276 65.364L46.7 26.204C46.7518 25.707 46.9838 25.2461 47.3524 24.9085C47.7209 24.571 48.2003 24.3801 48.7 24.372H107.288C107.523 24.3678 107.755 24.4136 107.971 24.5064C108.187 24.5992 108.38 24.7368 108.538 24.9101C108.696 25.0835 108.816 25.2885 108.888 25.5116C108.961 25.7347 108.986 25.9708 108.96 26.204L105.536 65.364C105.485 65.8612 105.254 66.3224 104.886 66.6607C104.519 66.999 104.04 67.1909 103.54 67.2Z" fill="#263238"/>
<path opacity="0.7" d="M103.54 67.2H44.948C44.713 67.2043 44.4798 67.1585 44.2639 67.0654C44.0481 66.9724 43.8545 66.8344 43.6963 66.6606C43.538 66.4868 43.4187 66.2813 43.3462 66.0577C43.2737 65.8341 43.2498 65.5976 43.276 65.364L46.7 26.204C46.7518 25.707 46.9838 25.2461 47.3524 24.9085C47.7209 24.571 48.2003 24.3801 48.7 24.372H107.288C107.523 24.3678 107.755 24.4136 107.971 24.5064C108.187 24.5992 108.38 24.7368 108.538 24.9101C108.696 25.0835 108.816 25.2885 108.888 25.5116C108.961 25.7347 108.986 25.9708 108.96 26.204L105.536 65.364C105.485 65.8612 105.254 66.3224 104.886 66.6607C104.519 66.999 104.04 67.1909 103.54 67.2Z" fill="white"/>
<path opacity="0.9" d="M101.976 62.184H47.4C47.1953 62.1883 46.992 62.1486 46.8039 62.0676C46.6158 61.9867 46.4473 61.8663 46.3097 61.7147C46.172 61.563 46.0685 61.3836 46.0062 61.1886C45.9438 60.9935 45.9239 60.7874 45.948 60.584L48.792 28.048C48.835 27.6156 49.035 27.214 49.3542 26.9191C49.6734 26.6242 50.0896 26.4566 50.524 26.448H105.1C105.305 26.4437 105.508 26.4834 105.696 26.5644C105.884 26.6453 106.053 26.7657 106.19 26.9174C106.328 27.069 106.431 27.2484 106.494 27.4434C106.556 27.6385 106.576 27.8446 106.552 28.048L103.708 60.584C103.665 61.0164 103.465 61.418 103.146 61.7129C102.827 62.0078 102.41 62.1754 101.976 62.184Z" fill="#FAFAFA"/>
<path d="M87.684 37.952H85.776L86.108 34.132H88.02L87.684 37.952Z" fill="#2970E8"/>
<path opacity="0.2" d="M87.684 37.952H85.776L86.108 34.132H88.02L87.684 37.952Z" fill="black"/>
<path d="M91.504 37.952H89.596L90.096 32.224H92.004L91.504 37.952Z" fill="#2970E8"/>
<path d="M95.324 37.952H93.412L93.832 33.18H95.74L95.324 37.952Z" fill="#2970E8"/>
<path d="M99.144 37.952H97.232L97.9 30.316H99.812L99.144 37.952Z" fill="#2970E8"/>
<path opacity="0.4" d="M99.144 37.952H97.232L97.9 30.316H99.812L99.144 37.952Z" fill="black"/>
<path d="M101.052 37.6H84.252C84.4627 35.1733 84.676 32.7453 84.892 30.316C84.932 29.864 84.224 29.864 84.184 30.316C83.9653 32.86 83.7427 35.4053 83.516 37.952C83.517 38.045 83.5545 38.134 83.6202 38.1997C83.686 38.2655 83.775 38.303 83.868 38.304H101.068C101.161 38.3019 101.25 38.2628 101.315 38.1952C101.379 38.1277 101.414 38.0373 101.412 37.944C101.41 37.8506 101.371 37.7619 101.303 37.6974C101.236 37.6329 101.145 37.5979 101.052 37.6Z" fill="#2970E8"/>
<path opacity="0.5" d="M101.052 37.6H84.252C84.4627 35.1733 84.676 32.7453 84.892 30.316C84.932 29.864 84.224 29.864 84.184 30.316C83.9653 32.86 83.7427 35.4053 83.516 37.952C83.517 38.045 83.5545 38.134 83.6202 38.1997C83.686 38.2655 83.775 38.303 83.868 38.304H101.068C101.161 38.3019 101.25 38.2628 101.315 38.1952C101.379 38.1277 101.414 38.0373 101.412 37.944C101.41 37.8506 101.371 37.7619 101.303 37.6974C101.236 37.6329 101.145 37.5979 101.052 37.6Z" fill="white"/>
<path d="M56.2 35.884L54.956 37.032C55.3339 37.4403 55.7934 37.7645 56.3048 37.9836C56.8161 38.2027 57.3678 38.3119 57.924 38.304L58.064 36.704C57.7131 36.706 57.3658 36.6341 57.0446 36.4928C56.7234 36.3515 56.4356 36.1441 56.2 35.884Z" fill="#2970E8"/>
<path opacity="0.5" d="M56.2 35.884L54.956 37.032C55.3339 37.4403 55.7934 37.7645 56.3048 37.9836C56.8161 38.2027 57.3678 38.3119 57.924 38.304L58.064 36.704C57.7131 36.706 57.3658 36.6341 57.0446 36.4928C56.7234 36.3515 56.4356 36.1441 56.2 35.884Z" fill="black"/>
<path d="M61.02 33.952C60.9439 34.6929 60.5991 35.3803 60.0508 35.8844C59.5025 36.3885 58.7887 36.6743 58.044 36.688L57.904 38.288C59.0889 38.2669 60.225 37.8124 61.0976 37.0105C61.9703 36.2087 62.5189 35.1149 62.64 33.936L61.02 33.952Z" fill="#2970E8"/>
<path opacity="0.1" d="M61.02 33.952C60.9439 34.6929 60.5991 35.3803 60.0508 35.8844C59.5025 36.3885 58.7887 36.6743 58.044 36.688L57.904 38.288C59.0889 38.2669 60.225 37.8124 61.0976 37.0105C61.9703 36.2087 62.5189 35.1149 62.64 33.936L61.02 33.952Z" fill="black"/>
<path d="M56.2 35.884C55.9659 35.6238 55.7887 35.3175 55.6799 34.9848C55.571 34.6521 55.5329 34.3003 55.568 33.952H53.968C53.9113 34.507 53.9713 35.0678 54.1442 35.5982C54.3172 36.1286 54.5991 36.617 54.972 37.032L56.2 35.884Z" fill="#2970E8"/>
<path d="M58.524 31.2C58.8745 31.1933 59.2223 31.2614 59.5444 31.3999C59.8664 31.5384 60.1552 31.7439 60.3914 32.0029C60.6277 32.2619 60.806 32.5683 60.9143 32.9016C61.0227 33.235 61.0588 33.5876 61.02 33.936H62.62C62.6776 33.3849 62.6179 32.8279 62.445 32.3015C62.272 31.7751 61.9896 31.2913 61.6164 30.8817C61.2431 30.4722 60.7875 30.1463 60.2793 29.9254C59.7712 29.7045 59.2221 29.5936 58.668 29.6C57.4825 29.6213 56.3459 30.0763 55.4731 30.879C54.6004 31.6817 54.0521 32.7764 53.932 33.956H55.532C55.603 33.2085 55.9478 32.5136 56.5001 32.0048C57.0523 31.4961 57.7732 31.2095 58.524 31.2Z" fill="#2970E8"/>
<path opacity="0.2" d="M58.524 31.2C58.8745 31.1933 59.2223 31.2614 59.5444 31.3999C59.8664 31.5384 60.1552 31.7439 60.3914 32.0029C60.6277 32.2619 60.806 32.5683 60.9143 32.9016C61.0227 33.235 61.0588 33.5876 61.02 33.936H62.62C62.6776 33.3849 62.6179 32.8279 62.445 32.3015C62.272 31.7751 61.9896 31.2913 61.6164 30.8817C61.2431 30.4722 60.7875 30.1463 60.2793 29.9254C59.7712 29.7045 59.2221 29.5936 58.668 29.6C57.4825 29.6213 56.3459 30.0763 55.4731 30.879C54.6004 31.6817 54.0521 32.7764 53.932 33.956H55.532C55.603 33.2085 55.9478 32.5136 56.5001 32.0048C57.0523 31.4961 57.7732 31.2095 58.524 31.2Z" fill="white"/>
<path opacity="0.6" d="M60.388 32L61.632 30.856C61.2552 30.4471 60.7965 30.1222 60.2859 29.9024C59.7752 29.6825 59.2239 29.5727 58.668 29.58L58.524 31.18C58.8749 31.1775 59.2225 31.2492 59.5437 31.3906C59.865 31.5319 60.1527 31.7396 60.388 32Z" fill="white"/>
<path d="M68.308 35.884L67.064 37.032C67.4421 37.4401 67.9016 37.7641 68.4129 37.9832C68.9242 38.2024 69.4758 38.3117 70.032 38.304L70.176 36.704C69.8245 36.7064 69.4764 36.6345 69.1545 36.4932C68.8327 36.3519 68.5442 36.1444 68.308 35.884Z" fill="#2970E8"/>
<path opacity="0.5" d="M68.308 35.884L67.064 37.032C67.4421 37.4401 67.9016 37.7641 68.4129 37.9832C68.9242 38.2024 69.4758 38.3117 70.032 38.304L70.176 36.704C69.8245 36.7064 69.4764 36.6345 69.1545 36.4932C68.8327 36.3519 68.5442 36.1444 68.308 35.884Z" fill="black"/>
<path d="M73.148 33.952C73.072 34.6923 72.7278 35.3791 72.1803 35.8831C71.6329 36.3871 70.92 36.6734 70.176 36.688L70.032 38.288C71.2169 38.2669 72.353 37.8124 73.2256 37.0105C74.0982 36.2087 74.6469 35.1149 74.768 33.936L73.148 33.952Z" fill="#2970E8"/>
<path opacity="0.1" d="M73.148 33.952C73.072 34.6923 72.7278 35.3791 72.1803 35.8831C71.6329 36.3871 70.92 36.6734 70.176 36.688L70.032 38.288C71.2169 38.2669 72.353 37.8124 73.2256 37.0105C74.0982 36.2087 74.6469 35.1149 74.768 33.936L73.148 33.952Z" fill="black"/>
<path d="M68.308 35.884C68.0745 35.6234 67.8977 35.3171 67.7889 34.9845C67.6801 34.6519 67.6417 34.3003 67.676 33.952H66.076C66.0193 34.507 66.0793 35.0678 66.2523 35.5982C66.4252 36.1286 66.7071 36.617 67.08 37.032L68.308 35.884Z" fill="#2970E8"/>
<path d="M70.652 31.2C71.0025 31.1933 71.3503 31.2614 71.6724 31.3999C71.9944 31.5384 72.2832 31.7439 72.5194 32.0029C72.7557 32.2619 72.934 32.5683 73.0423 32.9016C73.1507 33.235 73.1868 33.5876 73.148 33.936H74.748C74.8056 33.3849 74.7459 32.8279 74.573 32.3015C74.4 31.7751 74.1176 31.2913 73.7444 30.8817C73.3711 30.4722 72.9155 30.1463 72.4073 29.9254C71.8992 29.7045 71.35 29.5936 70.796 29.6C69.6105 29.6213 68.4738 30.0763 67.6011 30.879C66.7284 31.6817 66.1801 32.7764 66.06 33.956H67.66C67.731 33.2085 68.0758 32.5136 68.628 32.0048C69.1803 31.4961 69.9012 31.2095 70.652 31.2Z" fill="#2970E8"/>
<path opacity="0.2" d="M70.652 31.2C71.0025 31.1933 71.3503 31.2614 71.6724 31.3999C71.9944 31.5384 72.2832 31.7439 72.5194 32.0029C72.7557 32.2619 72.934 32.5683 73.0423 32.9016C73.1507 33.235 73.1868 33.5876 73.148 33.936H74.748C74.8056 33.3849 74.7459 32.8279 74.573 32.3015C74.4 31.7751 74.1176 31.2913 73.7444 30.8817C73.3711 30.4722 72.9155 30.1463 72.4073 29.9254C71.8992 29.7045 71.35 29.5936 70.796 29.6C69.6105 29.6213 68.4738 30.0763 67.6011 30.879C66.7284 31.6817 66.1801 32.7764 66.06 33.956H67.66C67.731 33.2085 68.0758 32.5136 68.628 32.0048C69.1803 31.4961 69.9012 31.2095 70.652 31.2Z" fill="white"/>
<path opacity="0.6" d="M72.516 32L73.76 30.856C73.3832 30.4471 72.9246 30.1222 72.4139 29.9024C71.9032 29.6825 71.352 29.5727 70.796 29.58L70.652 31.18C71.003 31.1775 71.3505 31.2492 71.6717 31.3906C71.993 31.5319 72.2807 31.7396 72.516 32Z" fill="white"/>
<path d="M86.532 52.12H84.252L84.448 49.84H86.732L86.532 52.12ZM84.788 51.624H86.076L86.192 50.336H84.904L84.788 51.624Z" fill="#2970E8"/>
<path d="M86.228 55.6H83.948L84.144 53.32H86.428L86.228 55.6ZM84.488 55.104H85.776L85.888 53.816H84.6L84.488 55.104Z" fill="#2970E8"/>
<path d="M85.924 59.06H83.644L83.844 56.784H86.124L85.924 59.06ZM84.2 58.568H85.488L85.6 57.276H84.312L84.2 58.568Z" fill="#2970E8"/>
<path d="M88.112 51.6C88.0407 51.6016 87.9698 51.5879 87.9042 51.5599C87.8386 51.5318 87.7798 51.4901 87.7317 51.4374C87.6836 51.3848 87.6473 51.3224 87.6253 51.2546C87.6032 51.1867 87.596 51.1149 87.604 51.044C87.6196 50.8937 87.6895 50.7541 87.8008 50.6518C87.912 50.5494 88.0568 50.4911 88.208 50.488H95.836C95.9073 50.4864 95.9781 50.5001 96.0437 50.5282C96.1093 50.5562 96.1682 50.598 96.2163 50.6507C96.2644 50.7033 96.3007 50.7657 96.3227 50.8335C96.3447 50.9014 96.352 50.9732 96.344 51.044C96.3292 51.1948 96.2595 51.3348 96.1481 51.4373C96.0367 51.5399 95.8914 51.5978 95.74 51.6H88.112Z" fill="#2970E8"/>
<path opacity="0.7" d="M88.112 51.6C88.0407 51.6016 87.9698 51.5879 87.9042 51.5599C87.8386 51.5318 87.7798 51.4901 87.7317 51.4374C87.6836 51.3848 87.6473 51.3224 87.6253 51.2546C87.6032 51.1867 87.596 51.1149 87.604 51.044C87.6196 50.8937 87.6895 50.7541 87.8008 50.6518C87.912 50.5494 88.0568 50.4911 88.208 50.488H95.836C95.9073 50.4864 95.9781 50.5001 96.0437 50.5282C96.1093 50.5562 96.1682 50.598 96.2163 50.6507C96.2644 50.7033 96.3007 50.7657 96.3227 50.8335C96.3447 50.9014 96.352 50.9732 96.344 51.044C96.3292 51.1948 96.2595 51.3348 96.1481 51.4373C96.0367 51.5399 95.8914 51.5978 95.74 51.6H88.112Z" fill="white"/>
<path d="M87.508 58.48C87.437 58.4803 87.3668 58.4658 87.3018 58.4373C87.2368 58.4088 87.1785 58.3671 87.1307 58.3147C87.0828 58.2623 87.0465 58.2005 87.024 58.1332C87.0014 58.0659 86.9933 57.9947 87 57.924C87.0156 57.773 87.0862 57.6329 87.1983 57.5304C87.3103 57.4279 87.4561 57.3702 87.608 57.368H94.008C94.079 57.367 94.1494 57.3811 94.2145 57.4094C94.2796 57.4377 94.3379 57.4796 94.3856 57.5322C94.4333 57.5848 94.4692 57.6469 94.491 57.7145C94.5128 57.7821 94.5199 57.8535 94.512 57.924C94.4964 58.0744 94.4264 58.2139 94.3152 58.3163C94.204 58.4187 94.0591 58.4769 93.908 58.48H87.508Z" fill="#2970E8"/>
<path opacity="0.4" d="M87.508 58.48C87.437 58.4803 87.3668 58.4658 87.3018 58.4373C87.2368 58.4088 87.1785 58.3671 87.1307 58.3147C87.0828 58.2623 87.0465 58.2005 87.024 58.1332C87.0014 58.0659 86.9933 57.9947 87 57.924C87.0156 57.773 87.0862 57.6329 87.1983 57.5304C87.3103 57.4279 87.4561 57.3702 87.608 57.368H94.008C94.079 57.367 94.1494 57.3811 94.2145 57.4094C94.2796 57.4377 94.3379 57.4796 94.3856 57.5322C94.4333 57.5848 94.4692 57.6469 94.491 57.7145C94.5128 57.7821 94.5199 57.8535 94.512 57.924C94.4964 58.0744 94.4264 58.2139 94.3152 58.3163C94.204 58.4187 94.0591 58.4769 93.908 58.48H87.508Z" fill="white"/>
<path d="M87.8 55.008C87.7289 55.009 87.6583 54.9949 87.5931 54.9666C87.5278 54.9383 87.4692 54.8966 87.4212 54.844C87.3732 54.7915 87.3369 54.7294 87.3146 54.6619C87.2924 54.5943 87.2847 54.5228 87.292 54.452C87.3077 54.301 87.3782 54.1609 87.4903 54.0584C87.6024 53.956 87.7481 53.8982 87.9 53.896H93.8C93.8711 53.8951 93.9417 53.9092 94.0069 53.9375C94.0722 53.9657 94.1308 54.0075 94.1788 54.06C94.2268 54.1126 94.2631 54.1746 94.2853 54.2422C94.3076 54.3098 94.3153 54.3813 94.308 54.452C94.2924 54.6024 94.2224 54.7419 94.1112 54.8443C94 54.9467 93.8552 55.0049 93.704 55.008H87.8Z" fill="#2970E8"/>
<path opacity="0.2" d="M87.8 55.008C87.7289 55.009 87.6583 54.9949 87.5931 54.9666C87.5278 54.9383 87.4692 54.8966 87.4212 54.844C87.3732 54.7915 87.3369 54.7294 87.3146 54.6619C87.2924 54.5943 87.2847 54.5228 87.292 54.452C87.3077 54.301 87.3782 54.1609 87.4903 54.0584C87.6024 53.956 87.7481 53.8982 87.9 53.896H93.8C93.8711 53.8951 93.9417 53.9092 94.0069 53.9375C94.0722 53.9657 94.1308 54.0075 94.1788 54.06C94.2268 54.1126 94.2631 54.1746 94.2853 54.2422C94.3076 54.3098 94.3153 54.3813 94.308 54.452C94.2924 54.6024 94.2224 54.7419 94.1112 54.8443C94 54.9467 93.8552 55.0049 93.704 55.008H87.8Z" fill="white"/>
<path d="M80.412 55.424C79.8413 54.624 79.2667 53.8387 78.688 53.068C78.6595 53.0221 78.6211 52.983 78.5756 52.9538C78.5302 52.9245 78.4787 52.9058 78.4251 52.8989C78.3715 52.892 78.317 52.8971 78.2656 52.9139C78.2142 52.9307 78.1672 52.9588 78.128 52.996L76.3 54.996C75.82 54.196 75.344 53.424 74.864 52.636C74.8363 52.5892 74.7984 52.5492 74.7531 52.5191C74.7078 52.4891 74.6563 52.4696 74.6024 52.4623C74.5485 52.455 74.4937 52.46 74.442 52.4769C74.3903 52.4938 74.3431 52.5222 74.304 52.56C73.672 53.14 73.056 53.74 72.408 54.304C72.216 54.2 72.008 54.08 71.84 53.968L70.8 53.352C70.7179 53.3062 70.6212 53.2939 70.5302 53.3178C70.4392 53.3416 70.361 53.3998 70.312 53.48L68.464 56.156C68.0053 55.2653 67.5467 54.3733 67.088 53.48C67.0389 53.3998 66.9607 53.3416 66.8698 53.3178C66.7788 53.2939 66.6821 53.3062 66.6 53.352L65.716 53.824C65.54 53.924 64.916 54.224 64.764 54.356C64.5176 54.1883 64.2611 54.0361 63.996 53.9L63.072 53.352C62.9903 53.3043 62.893 53.2909 62.8015 53.3149C62.71 53.3389 62.6317 53.3983 62.584 53.48C62.5363 53.5617 62.5229 53.659 62.5469 53.7505C62.5709 53.842 62.6303 53.9203 62.712 53.968C63.224 54.272 64.136 55.116 64.74 55.112C65.344 55.108 66.064 54.536 66.636 54.164L68.112 57.028C68.1441 57.081 68.1893 57.1248 68.2432 57.1552C68.2972 57.1857 68.3581 57.2016 68.42 57.2016C68.4819 57.2016 68.5428 57.1857 68.5968 57.1552C68.6507 57.1248 68.6959 57.081 68.728 57.028L70.728 54.136L72.28 55.052C72.3484 55.0905 72.4274 55.1059 72.5053 55.0958C72.5831 55.0857 72.6557 55.0507 72.712 54.996L74.48 53.372L75.94 55.772C75.968 55.8185 76.0062 55.8582 76.0516 55.8879C76.0971 55.9176 76.1487 55.9366 76.2026 55.9435C76.2564 55.9504 76.3112 55.9451 76.3627 55.9278C76.4142 55.9106 76.4611 55.882 76.5 55.844L78.356 53.796L79.8 55.772C80.068 56.148 80.684 55.792 80.412 55.424Z" fill="#2970E8"/>
<path d="M79.836 58.348H62.84C63.056 55.892 63.2707 53.436 63.484 50.98C63.524 50.524 62.812 50.524 62.772 50.98L62.096 58.704C62.097 58.7981 62.1349 58.888 62.2014 58.9546C62.268 59.0211 62.3579 59.059 62.452 59.06H79.836C79.9304 59.06 80.021 59.0225 80.0877 58.9557C80.1545 58.889 80.192 58.7984 80.192 58.704C80.192 58.6096 80.1545 58.519 80.0877 58.4523C80.021 58.3855 79.9304 58.348 79.836 58.348Z" fill="#2970E8"/>
<path opacity="0.5" d="M79.836 58.348H62.84C63.056 55.892 63.2707 53.436 63.484 50.98C63.524 50.524 62.812 50.524 62.772 50.98L62.096 58.704C62.097 58.7981 62.1349 58.888 62.2014 58.9546C62.268 59.0211 62.3579 59.059 62.452 59.06H79.836C79.9304 59.06 80.021 59.0225 80.0877 58.9557C80.1545 58.889 80.192 58.7984 80.192 58.704C80.192 58.6096 80.1545 58.519 80.0877 58.4523C80.021 58.3855 79.9304 58.348 79.836 58.348Z" fill="white"/>
<path d="M98.34 47.876H68.008L68.684 40.136H99.016L98.34 47.876Z" fill="#2970E8"/>
<path opacity="0.9" d="M98.34 47.876H68.008L68.684 40.136H99.016L98.34 47.876Z" fill="white"/>
<path d="M98.876 48.464H67.368L68.168 39.548H99.676L98.876 48.464ZM68.648 47.288H97.8L98.376 40.728H69.224L68.648 47.288Z" fill="#263238"/>
<path d="M74.86 45.044L74.804 45.66H72.248L72.536 42.356H75.032L74.98 42.968H73.244L73.18 43.688H74.712L74.66 44.28H73.128L73.06 45.044H74.86Z" fill="#2970E8"/>
<path d="M77.46 45.66L76.764 44.512L75.88 45.66H75L76.368 43.98L75.348 42.356H76.216L76.884 43.428L77.72 42.356H78.548L77.256 43.956L78.34 45.664L77.46 45.66Z" fill="#2970E8"/>
<path d="M79.524 42.98H78.468L78.524 42.356H81.4L81.348 42.98H80.292L80.056 45.66H79.292L79.524 42.98Z" fill="#2970E8"/>
<path d="M83.628 45.66L83.072 44.74H82.368L82.288 45.66H81.524L81.812 42.356H83.24C83.4981 42.3491 83.7547 42.3982 83.992 42.5C84.1827 42.5831 84.3432 42.7227 84.452 42.9C84.5554 43.0964 84.5972 43.3194 84.572 43.54C84.5548 43.7681 84.4745 43.9869 84.34 44.172C84.1995 44.3517 84.0129 44.49 83.8 44.572L84.448 45.636L83.628 45.66ZM83.656 43.128C83.5091 43.0178 83.327 42.9652 83.144 42.98H82.52L82.42 44.128H83.044C83.2342 44.14 83.4229 44.0879 83.58 43.98C83.6436 43.9283 83.6956 43.8638 83.7328 43.7908C83.77 43.7178 83.7915 43.6378 83.796 43.556C83.8084 43.4786 83.8022 43.3995 83.7778 43.325C83.7535 43.2506 83.7117 43.183 83.656 43.128Z" fill="#2970E8"/>
<path d="M87.228 44.952H85.696L85.34 45.66H84.54L86.3 42.356H87.056L88.256 45.66H87.456L87.228 44.952ZM87.036 44.368L86.636 43.104L86.004 44.368H87.036Z" fill="#2970E8"/>
<path d="M89.24 45.496C88.9874 45.357 88.7825 45.1451 88.652 44.888C88.5142 44.6166 88.4599 44.3103 88.496 44.008C88.5203 43.6929 88.6265 43.3896 88.804 43.128C88.981 42.8699 89.2204 42.6608 89.5 42.52C89.7895 42.3717 90.1107 42.2961 90.436 42.3C90.6983 42.2946 90.9587 42.345 91.2 42.448C91.4147 42.546 91.6016 42.6959 91.744 42.884L91.212 43.336C91.1211 43.2094 91.0008 43.1069 90.8614 43.0372C90.722 42.9675 90.5678 42.9328 90.412 42.936C90.2186 42.9336 90.0277 42.979 89.856 43.068C89.691 43.1548 89.5528 43.2847 89.456 43.444C89.3494 43.6082 89.2861 43.7968 89.272 43.992C89.2507 44.1793 89.2812 44.3688 89.36 44.54C89.4319 44.6963 89.5508 44.8264 89.7 44.912C89.8627 45.006 90.0482 45.0531 90.236 45.048C90.4002 45.047 90.5624 45.0108 90.7114 44.9418C90.8605 44.8728 90.993 44.7726 91.1 44.648L91.552 45.1C91.3796 45.2916 91.1663 45.442 90.928 45.54C90.6743 45.6439 90.4022 45.6956 90.128 45.692C89.8201 45.7034 89.5145 45.6359 89.24 45.496Z" fill="#2970E8"/>
<path d="M92.9 42.98H91.844L91.9 42.356H94.776L94.724 42.98H93.664L93.432 45.66H92.668L92.9 42.98Z" fill="#2970E8"/>
</svg>
