<svg width="193" height="148" viewBox="0 0 193 148" fill="none" xmlns="http://www.w3.org/2000/svg">
<path d="M142.53 36.0503V43.3799" stroke="#00A9FF" stroke-width="2" stroke-miterlimit="10" stroke-linecap="round"/>
<path d="M139.296 39.7153H145.764" stroke="#00A9FF" stroke-width="2" stroke-miterlimit="10" stroke-linecap="round"/>
<path d="M60.2705 1V7.47407" stroke="#00A9FF" stroke-width="2" stroke-miterlimit="10" stroke-linecap="round"/>
<path d="M57.4138 4.23682H63.1271" stroke="#00A9FF" stroke-width="2" stroke-miterlimit="10" stroke-linecap="round"/>
<path d="M166 6.88134C166 7.733 165.778 8.56552 165.36 9.27364C164.943 9.98177 164.349 10.5337 163.655 10.8596C162.96 11.1855 162.196 11.2708 161.459 11.1046C160.722 10.9385 160.045 10.5284 159.513 9.92616C158.982 9.32396 158.62 8.5567 158.473 7.72141C158.327 6.88612 158.402 6.02032 158.69 5.2335C158.977 4.44668 159.464 3.77417 160.089 3.30101C160.714 2.82786 161.449 2.57532 162.2 2.57532C163.208 2.57532 164.175 3.02899 164.887 3.83652C165.6 4.64406 166 5.73932 166 6.88134Z" stroke="#00A9FF" stroke-width="2" stroke-miterlimit="10"/>
<path d="M31.8943 98.0156C31.8943 98.8673 31.6714 99.6998 31.2539 100.408C30.8363 101.116 30.2428 101.668 29.5484 101.994C28.8541 102.32 28.09 102.405 27.3529 102.239C26.6157 102.073 25.9386 101.663 25.4072 101.06C24.8758 100.458 24.5138 99.691 24.3672 98.8557C24.2206 98.0204 24.2958 97.1546 24.5835 96.3678C24.8711 95.581 25.3581 94.9084 25.983 94.4353C26.608 93.9621 27.3427 93.7096 28.0942 93.7096C29.1021 93.7096 30.0686 94.1633 30.7813 94.9708C31.4939 95.7783 31.8943 96.8736 31.8943 98.0156Z" stroke="#00A9FF" stroke-width="2" stroke-miterlimit="10"/>
<path d="M178.551 93.0702C178.551 93.4825 178.443 93.8855 178.24 94.2282C178.038 94.571 177.751 94.8382 177.415 94.9959C177.079 95.1536 176.709 95.1949 176.352 95.1144C175.995 95.034 175.667 94.8354 175.41 94.5439C175.153 94.2524 174.977 93.8809 174.906 93.4766C174.835 93.0722 174.872 92.6531 175.011 92.2721C175.15 91.8912 175.386 91.5656 175.689 91.3365C175.991 91.1074 176.347 90.9851 176.711 90.985C177.199 90.985 177.667 91.2047 178.012 91.5957C178.357 91.9868 178.551 92.5171 178.551 93.0702Z" stroke="#00A9FF" stroke-width="2" stroke-miterlimit="10"/>
<path d="M45.1952 80.6237C45.1951 81.036 45.0872 81.4391 44.885 81.7818C44.6828 82.1246 44.3955 82.3917 44.0593 82.5495C43.7232 82.7072 43.3533 82.7485 42.9964 82.668C42.6396 82.5876 42.3118 82.389 42.0545 82.0975C41.7972 81.806 41.622 81.4345 41.551 81.0302C41.48 80.6258 41.5164 80.2066 41.6556 79.8257C41.7948 79.4448 42.0306 79.1192 42.3331 78.8901C42.6356 78.661 42.9912 78.5387 43.3551 78.5386C43.8431 78.5386 44.3112 78.7583 44.6562 79.1493C45.0013 79.5404 45.1952 80.0707 45.1952 80.6237Z" stroke="#00A9FF" stroke-width="2" stroke-miterlimit="10"/>
<path d="M170.532 82.3543C170.541 83.1424 170.411 83.9246 170.151 84.6556C169.891 85.3866 169.506 86.0518 169.017 86.6125C168.528 87.1733 167.946 87.6185 167.304 87.9222C166.662 88.2259 165.974 88.3822 165.278 88.3819H127.755C128.3 89.5113 128.508 90.8104 128.347 92.0846C128.185 93.3589 127.664 94.5397 126.862 95.4503C126.555 95.7961 126.213 96.099 125.843 96.3525H132.774C134.173 96.3373 135.521 96.9442 136.529 98.0428C137.537 99.1414 138.124 100.644 138.165 102.228C138.174 103.016 138.044 103.799 137.784 104.53C137.524 105.261 137.138 105.926 136.65 106.487C136.161 107.048 135.579 107.493 134.937 107.798C134.295 108.102 133.607 108.259 132.911 108.259H98.4562C97.3063 108.259 96.1881 107.831 95.2733 107.042C94.3585 106.252 93.6975 105.144 93.3918 103.888C93.086 102.632 93.1523 101.297 93.5805 100.088C94.0088 98.8784 94.7753 97.8617 95.7625 97.1934H75.1214C73.7229 97.2087 72.375 96.6018 71.367 95.5032C70.3591 94.4046 69.7716 92.9018 69.7307 91.3177C69.7189 90.2553 69.9582 89.2086 70.4239 88.2863C70.8896 87.364 71.5646 86.5998 72.3789 86.0729C71.5251 85.5712 70.8094 84.8133 70.31 83.882C69.8105 82.9507 69.5465 81.8818 69.5468 80.792V73.5001C69.546 72.5692 69.7382 71.6511 70.1079 70.8198C70.4777 69.9885 71.0147 69.2673 71.6756 68.7144H34.5857C33.1888 68.7291 31.8423 68.1234 30.8347 67.027C29.8271 65.9306 29.2385 64.4306 29.195 62.8484C29.1846 62.0592 29.3129 61.2756 29.5723 60.5432C29.8317 59.8107 30.217 59.144 30.7059 58.5819C31.1948 58.0197 31.7775 57.5734 32.4201 57.2688C33.0626 56.9642 33.7522 56.8075 34.4487 56.8078H37.0711C38.1472 56.8074 39.1791 56.3228 39.94 55.4605C40.7009 54.5983 41.1285 53.429 41.1289 52.2097V52.2064C41.1285 50.9871 40.7009 49.8178 39.94 48.9555C39.1791 48.0933 38.1472 47.6087 37.0711 47.6083H19.6203C18.9255 47.6175 18.2359 47.4704 17.5916 47.1754C16.9473 46.8805 16.361 46.4436 15.8668 45.89C15.3725 45.3365 14.9801 44.6773 14.7123 43.9507C14.4445 43.2241 14.3066 42.4445 14.3066 41.6571C14.3066 40.8696 14.4445 40.09 14.7123 39.3634C14.9801 38.6368 15.3725 37.9776 15.8668 37.4241C16.361 36.8706 16.9473 36.4336 17.5916 36.1387C18.2359 35.8437 18.9255 35.6966 19.6203 35.7058H44.8497C45.5396 35.706 46.2227 35.5523 46.8602 35.2533C47.4976 34.9544 48.0768 34.5161 48.5647 33.9635C49.0527 33.4109 49.4398 32.7548 49.704 32.0326C49.9681 31.3105 50.1042 30.5365 50.1044 29.7548C50.1046 28.973 49.9689 28.1989 49.7051 27.4766C49.4412 26.7543 49.0544 26.098 48.5668 25.5451C48.0791 24.9922 47.5001 24.5535 46.8628 24.2542C46.2255 23.9548 45.5425 23.8007 44.8526 23.8005H37.6469C36.2467 23.8148 34.8976 23.2055 33.8899 22.1038C32.8822 21.0022 32.2966 19.4962 32.259 17.9101C32.2517 17.1232 32.3822 16.3423 32.6429 15.6129C32.9037 14.8834 33.2895 14.2198 33.7782 13.6605C34.2668 13.1011 34.8484 12.6572 35.4895 12.3543C36.1305 12.0514 36.8182 11.8956 37.5128 11.8959H85.4349C86.8004 11.8809 88.119 12.459 89.12 13.5114C90.1209 14.5638 90.7282 16.0107 90.817 17.5547C90.8633 18.6099 90.6614 19.66 90.232 20.5977H152.034C152.729 20.5885 153.419 20.7357 154.063 21.0306C154.707 21.3256 155.294 21.7625 155.788 22.316C156.282 22.8696 156.674 23.5287 156.942 24.2553C157.21 24.982 157.348 25.7616 157.348 26.549C157.348 27.3364 157.21 28.116 156.942 28.8427C156.674 29.5693 156.282 30.2284 155.788 30.782C155.294 31.3355 154.707 31.7724 154.063 32.0674C153.419 32.3623 152.729 32.5095 152.034 32.5003H129.142C129.141 33.7814 128.692 35.01 127.893 35.9159C127.093 36.8219 126.009 37.3312 124.878 37.3319H99.0753C99.8403 38.1499 100.371 39.2094 100.598 40.373C100.826 41.5367 100.739 42.7509 100.351 43.8584C99.9621 44.9658 99.2888 45.9155 98.4183 46.5843C97.5477 47.2532 96.5199 47.6103 95.4681 47.6095H88.2541C87.9702 47.6092 87.6891 47.6723 87.4267 47.7952C87.1643 47.918 86.9258 48.0983 86.7249 48.3256C86.5241 48.5529 86.3647 48.8229 86.2559 49.1201C86.1471 49.4172 86.0911 49.7358 86.091 50.0575V50.0607C86.0911 50.3824 86.1471 50.701 86.2559 50.9981C86.3647 51.2953 86.5241 51.5653 86.7249 51.7926C86.9258 52.0199 87.1643 52.2002 87.4267 52.323C87.6891 52.4459 87.9702 52.509 88.2541 52.5087H146.82C147.515 52.4995 148.205 52.6466 148.849 52.9415C149.493 53.2365 150.08 53.6734 150.574 54.2269C151.068 54.7805 151.461 55.4397 151.728 56.1663C151.996 56.8929 152.134 57.6725 152.134 58.4599C152.134 59.2474 151.996 60.027 151.728 60.7536C151.461 61.4802 151.068 62.1393 150.574 62.6929C150.08 63.2464 149.493 63.6833 148.849 63.9783C148.205 64.2732 147.515 64.4204 146.82 64.4112H131.673C132.441 64.9437 133.076 65.6907 133.516 66.5808C133.956 67.4708 134.187 68.474 134.187 69.4943V71.1919C134.188 72.284 133.923 73.3551 133.422 74.2878C132.92 75.2204 132.202 75.9785 131.345 76.479H165.142C166.54 76.4638 167.888 77.0706 168.896 78.1693C169.904 79.2679 170.491 80.7706 170.532 82.3547" fill="#FBF8FF"/>
<path d="M84.6825 142.427C110.404 142.427 131.256 140.813 131.256 138.821C131.256 136.83 110.404 135.216 84.6825 135.216C58.9609 135.216 38.1094 136.83 38.1094 138.821C38.1094 140.813 58.9609 142.427 84.6825 142.427Z" fill="#EDE2FD"/>
<path d="M130.549 27.4113C130.343 27.4112 130.138 27.3766 129.941 27.3086L74.5962 8.24952C74.0667 8.06718 73.6229 7.65397 73.3623 7.10081C73.1017 6.54764 73.0457 5.89984 73.2066 5.2999C73.3676 4.69995 73.7322 4.19702 74.2204 3.90174C74.7085 3.60645 75.2802 3.543 75.8097 3.72535L131.154 22.7844C131.633 22.9493 132.043 23.3035 132.311 23.7824C132.578 24.2614 132.685 24.8332 132.611 25.3937C132.538 25.9543 132.289 26.4664 131.911 26.8367C131.532 27.207 131.049 27.4109 130.549 27.4113Z" fill="#EADFFC"/>
<path d="M75.2006 3.78433C75.3924 3.78458 75.5831 3.81688 75.7666 3.8802L131.113 22.9392C131.359 23.0212 131.589 23.1578 131.788 23.3409C131.988 23.524 132.153 23.7501 132.275 24.0062C132.397 24.2622 132.473 24.5431 132.499 24.8327C132.525 25.1222 132.5 25.4146 132.425 25.693C132.35 25.9714 132.228 26.2303 132.064 26.4547C131.901 26.6791 131.7 26.8646 131.472 27.0004C131.245 27.1362 130.997 27.2197 130.741 27.2461C130.485 27.2724 130.227 27.2411 129.982 27.1539L74.6359 8.09524C74.19 7.94177 73.8075 7.61186 73.5582 7.16563C73.3089 6.71939 73.2094 6.18652 73.2778 5.6641C73.3461 5.14168 73.5779 4.66448 73.9307 4.31945C74.2836 3.97442 74.7341 3.78451 75.2002 3.78433M75.2002 3.45935C74.6656 3.45935 74.1488 3.67701 73.744 4.07267C73.3392 4.46833 73.0733 5.01564 72.9949 5.61485C72.9164 6.21406 73.0305 6.82527 73.3165 7.33708C73.6025 7.8489 74.0412 8.22724 74.5527 8.40316L129.9 27.465C130.465 27.6598 131.076 27.592 131.598 27.2764C132.119 26.9609 132.509 26.4235 132.681 25.7824C132.853 25.1414 132.793 24.4492 132.514 23.8582C132.236 23.2672 131.762 22.8257 131.196 22.6309L75.8494 3.57106C75.6391 3.49816 75.4205 3.46105 75.2006 3.46098" stroke="#00A9FF" stroke-width="2"/>
<path d="M98.078 61.6869C94.1783 61.684 90.3333 60.6468 86.8507 58.6584C83.3681 56.6699 80.3446 53.7853 78.0221 50.2355C75.6996 46.6857 74.1426 42.5692 73.4756 38.2153C72.8086 33.8615 73.0502 29.3912 74.1811 25.1621L78.3565 9.59375L126.132 26.046L121.957 41.6143C120.399 47.489 117.183 52.6226 112.804 56.2288C108.525 59.7573 103.372 61.6671 98.0794 61.6865L98.078 61.6869Z" fill="white"/>
<path d="M74.7783 44.4612C76.5844 48.0161 78.8163 51.2705 81.4105 54.1315C84.4362 57.4329 88.6879 60.5125 92.46 60.9561C101.338 61.9965 102.733 61.6751 104.446 60.9561C106.158 60.2371 114.466 56.1285 115.165 54.1315C115.864 52.1344 74.7783 44.4612 74.7783 44.4612Z" fill="#F8F4FF"/>
<path d="M94.4989 51.8181C105.521 54.4729 114.664 55.5217 114.919 54.1607C115.174 52.7997 106.446 49.5441 95.4234 46.8893C84.401 44.2345 75.2586 43.1856 75.0033 44.5467C74.748 45.9077 83.4765 49.1632 94.4989 51.8181Z" fill="#EFE8FC"/>
<path d="M78.4515 9.79572L125.954 26.1537L121.82 41.5673C120.271 47.4082 117.074 52.5124 112.72 56.0981C109.615 58.677 106.021 60.3998 102.225 61.1295C98.4288 61.8593 94.5348 61.576 90.8522 60.3022C87.7331 59.2281 84.8313 57.4684 82.3124 55.1236C79.7936 52.7788 77.7069 49.8947 76.1717 46.636C74.6364 43.3774 73.6827 39.808 73.3648 36.1316C73.0469 32.4553 73.3712 28.744 74.3191 25.2097L78.4515 9.79572ZM78.2615 9.39233L74.0449 25.1134C72.1086 32.3334 72.7826 40.1293 75.9189 46.7861C79.0551 53.4429 84.3965 58.4153 90.7681 60.6095C97.1397 62.8036 104.02 62.0398 109.894 58.486C115.769 54.9322 120.157 48.8795 122.093 41.6595L126.31 25.9384L78.2615 9.39233Z" stroke="#00A9FF" stroke-width="2"/>
<path d="M108.54 116.749C108.355 116.749 108.171 116.721 107.992 116.665L52.1644 99.3846C51.6758 99.2309 51.2527 98.8824 50.973 98.4032C50.6933 97.924 50.5758 97.3464 50.6421 96.7768C50.7084 96.2072 50.9542 95.6839 51.334 95.3033C51.7139 94.9228 52.2023 94.7105 52.7093 94.7057C52.8944 94.7058 53.0786 94.7339 53.2571 94.7894L109.085 112.071C109.573 112.224 109.996 112.573 110.276 113.052C110.556 113.531 110.673 114.109 110.607 114.679C110.541 115.248 110.295 115.771 109.915 116.152C109.535 116.533 109.047 116.745 108.54 116.75" fill="#EADFFC"/>
<path d="M108.54 116.749C108.355 116.749 108.171 116.721 107.992 116.665L52.1644 99.3846C51.6758 99.2309 51.2527 98.8824 50.973 98.4032C50.6933 97.924 50.5758 97.3464 50.6421 96.7768C50.7084 96.2072 50.9542 95.6839 51.334 95.3033C51.7139 94.9228 52.2023 94.7105 52.7093 94.7057C52.8944 94.7058 53.0786 94.7339 53.2571 94.7894L109.085 112.071C109.573 112.224 109.996 112.573 110.276 113.052C110.556 113.531 110.673 114.109 110.607 114.679C110.541 115.248 110.295 115.771 109.915 116.152C109.535 116.533 109.047 116.745 108.54 116.75" stroke="#00A9FF" stroke-width="2"/>
<path d="M57.0759 96.0673L60.834 80.3621C61.6871 76.7698 63.1569 73.4035 65.1595 70.4557C67.1621 67.5079 69.6581 65.0367 72.5046 63.1833C75.351 61.33 78.4921 60.1309 81.7481 59.6549C85.004 59.1788 88.3108 59.435 91.4792 60.4089C94.6476 61.3828 97.6154 63.0552 100.213 65.3304C102.81 67.6056 104.986 70.4389 106.616 73.6681C108.246 76.8973 109.297 80.4591 109.711 84.1495C110.124 87.8399 109.892 91.5865 109.026 95.1748L105.265 110.88L57.0759 96.0673Z" fill="white"/>
<path d="M68.5212 66.6613C68.5212 66.6613 67.1528 85.8515 88.4926 86.0286C109.832 86.2058 109.636 89.4198 109.636 89.4198C109.847 92.2436 109.481 95.0846 108.567 97.7223C107.039 102.199 105.179 110.918 105.179 110.918L72.8991 100.92L56.9214 95.9049L60.6203 81.5106C60.6203 81.5106 61.9765 73.0122 65.2991 70.2397C68.6216 67.4672 68.5212 66.6613 68.5212 66.6613Z" fill="#F8F4FF"/>
<path d="M88.6291 59.7691L82.7341 79.1967C82.7341 79.1967 83.195 79.9686 83.6731 79.6829L94.1793 62.1844L88.6291 59.7691Z" fill="#F8F4FF"/>
<path d="M84.9147 59.3105V59.6355C88.7318 59.629 92.4987 60.6206 95.9223 62.5333C99.3459 64.4459 102.334 67.228 104.653 70.663C106.973 74.0979 108.562 78.0931 109.297 82.3376C110.031 86.5821 109.891 90.9614 108.888 95.1347L105.165 110.684L57.2511 95.954L60.9719 80.4048C62.398 74.4451 65.5148 69.1825 69.8417 65.4287C74.1685 61.675 79.465 59.6385 84.9144 59.6335L84.9147 59.3105ZM84.9147 59.3105C79.4014 59.3096 74.0415 61.3672 69.6638 65.165C65.2862 68.9627 62.1348 74.2891 60.697 80.3203L56.9009 96.1815L105.365 111.079L109.165 95.2179C110.172 90.9972 110.308 86.5704 109.561 82.2807C108.815 77.9909 107.208 73.9535 104.863 70.4813C102.518 67.0091 99.4988 64.1953 96.0397 62.2581C92.5806 60.321 88.7743 59.3124 84.9158 59.3105" stroke="#00A9FF" stroke-width="2"/>
<path d="M82.282 83.4948C83.0148 83.5824 83.6716 82.9802 83.7489 82.1498C83.8263 81.3194 83.2949 80.5752 82.562 80.4875C81.8292 80.3999 81.1724 81.002 81.0951 81.8325C81.0177 82.6629 81.5491 83.4071 82.282 83.4948Z" fill="#F8F4FF"/>
<path d="M121.79 123.445H93.1074C92.7193 123.445 92.3714 123.218 92.1768 122.837C91.9823 122.457 91.9814 122.002 92.1744 121.62L106.515 93.2761C106.71 92.8926 107.058 92.6636 107.449 92.6636C107.839 92.6636 108.187 92.8926 108.382 93.2761L122.723 121.62C122.916 122.002 122.915 122.457 122.72 122.837C122.526 123.218 122.178 123.445 121.79 123.445Z" fill="#F8F4FF"/>
<path d="M107.449 93.0698C107.324 93.0698 107.013 93.1096 106.827 93.4781L92.4855 121.822C92.3 122.189 92.4248 122.512 92.4871 122.634C92.5494 122.755 92.7345 123.039 93.1075 123.039H121.79C122.163 123.039 122.348 122.755 122.41 122.634C122.472 122.512 122.597 122.189 122.412 121.822L108.071 93.4781C107.884 93.1096 107.573 93.0698 107.449 93.0698ZM107.449 92.2573C107.933 92.2573 108.417 92.5296 108.693 93.074L123.034 121.418C123.582 122.501 122.891 123.851 121.79 123.851C121.79 123.851 121.79 123.851 121.79 123.851H93.1075C92.0055 123.851 91.3154 122.501 91.8635 121.418L106.205 93.074C106.48 92.5296 106.964 92.2573 107.449 92.2573Z" fill="#00A9FF"/>
<path d="M107.058 119.42C107.49 119.42 107.84 119.023 107.84 118.533C107.84 118.044 107.49 117.647 107.058 117.647C106.626 117.647 106.275 118.044 106.275 118.533C106.275 119.023 106.626 119.42 107.058 119.42Z" fill="#00A9FF"/>
<path d="M107.84 104.796C107.84 104.306 107.49 103.91 107.058 103.91C106.626 103.91 106.275 104.306 106.275 104.796V114.988C106.275 115.478 106.626 115.875 107.058 115.875C107.49 115.875 107.84 115.478 107.84 114.988V104.796Z" fill="#00A9FF"/>
</svg>
