<?xml version="1.0" encoding="utf-8"?>
<!-- Generator: Adobe Illustrator 27.5.0, SVG Export Plug-In . SVG Version: 6.00 Build 0)  -->
<svg version="1.1" xmlns="http://www.w3.org/2000/svg" xmlns:xlink="http://www.w3.org/1999/xlink" x="0px" y="0px"
	 viewBox="0 0 500 500" style="enable-background:new 0 0 500 500;" xml:space="preserve">
<g id="Background_Simple">
	<g>
		<path style="fill:#92E3A9;" d="M39.049,242.65c1.312,3.124,2.575,6.26,3.801,9.419c13.199,34.003,76.479,190.834,130.317,216.203
			c60.449,28.484,297.522-74.345,303.462-147.674c5.94-73.33-80.783-265.316-130.083-276.708
			c-49.3-11.392-263.83,81.774-297.271,117.45C20.721,191.801,34.431,231.652,39.049,242.65z"/>
		<path style="opacity:0.8;fill:#FFFFFF;" d="M39.049,242.65c1.312,3.124,2.575,6.26,3.801,9.419
			c13.199,34.003,76.479,190.834,130.317,216.203c60.449,28.484,297.522-74.345,303.462-147.674
			c5.94-73.33-80.783-265.316-130.083-276.708c-49.3-11.392-263.83,81.774-297.271,117.45
			C20.721,191.801,34.431,231.652,39.049,242.65z"/>
	</g>
</g>
<g id="Icon">
	<g>
		
			<ellipse transform="matrix(0.7071 -0.7071 0.7071 0.7071 56.1175 283.8959)" style="fill:#FFFFFF;stroke:#92E3A9;stroke-width:6;stroke-linecap:round;stroke-linejoin:round;stroke-miterlimit:10;" cx="370.751" cy="74.208" rx="37.004" ry="37.004"/>
		<g>
			<path style="fill:#263238;" d="M370.8,60c-5.53,0.04-10.894,1.368-15.767,4.324c-1.992,1.208-3.803,2.722-5.648,4.16
				c-1.068,0.832-2.169,1.246-3.506,0.846c-1.97-0.59-2.916-2.974-1.814-4.716c0.371-0.586,0.875-1.111,1.399-1.573
				c6.131-5.413,13.242-8.654,21.398-9.475c11.186-1.126,20.91,2.284,29.343,9.6c0.846,0.734,1.598,1.536,1.685,2.757
				c0.1,1.398-0.432,2.473-1.626,3.171c-1.211,0.708-2.439,0.556-3.563-0.212c-0.662-0.453-1.238-1.03-1.86-1.543
				c-5.577-4.602-11.973-7.049-19.204-7.301C371.412,60.029,371.186,60.017,370.8,60z"/>
			<path style="fill:#263238;" d="M387.285,77.845c-1.028,0.02-1.848-0.427-2.576-1.102c-2.929-2.72-6.32-4.632-10.269-5.278
				c-6.099-0.998-11.661,0.326-16.48,4.333c-0.562,0.467-1.103,0.964-1.694,1.391c-1.424,1.03-3.313,0.812-4.442-0.478
				c-1.105-1.263-1.095-3.139,0.104-4.4c2.67-2.807,5.883-4.81,9.502-6.141c7.017-2.58,13.938-2.255,20.722,0.857
				c2.772,1.271,5.244,3.002,7.399,5.166c1.012,1.016,1.268,2.449,0.702,3.697C389.677,77.163,388.672,77.802,387.285,77.845z"/>
			<path style="fill:#263238;" d="M370.678,75.557c4.514,0.095,8.382,1.691,11.497,5.016c1.231,1.314,1.294,3.269,0.137,4.519
				c-1.238,1.337-3.15,1.42-4.634,0.293c-1.175-0.893-2.326-1.93-3.662-2.473c-3.48-1.415-6.666-0.625-9.439,1.862
				c-0.986,0.885-1.993,1.586-3.439,1.334c-2.427-0.423-3.555-3.255-2.02-5.182c1.495-1.876,3.404-3.191,5.607-4.104
				C366.63,76.032,368.603,75.573,370.678,75.557z"/>
			<path style="fill:#263238;" d="M370.824,95.062c-2.309-0.011-4.044-1.725-4.037-3.989c0.006-2.137,1.839-3.98,3.944-3.967
				c2.319,0.014,4.054,1.78,4.027,4.099C374.733,93.325,372.951,95.072,370.824,95.062z"/>
		</g>
		
			<line style="fill:none;stroke:#92E3A9;stroke-width:6;stroke-linecap:round;stroke-linejoin:round;stroke-miterlimit:10;" x1="339.676" y1="93.029" x2="399.665" y2="52.02"/>
	</g>
</g>
<g id="Plants">
	<g>
		<path style="fill:#92E3A9;" d="M106.396,377.854c3.442,1.248,11.62,0.539,11.627,0.539c0.085-0.008-2.104-5.249-2.28-5.564
			c-2.037-3.645-8.117-9.488-12.701-8.567c-3.302,0.663-4.941,4.116-3.989,7.204C100.026,374.621,103.465,376.79,106.396,377.854z"
			/>
		<path style="fill:#92E3A9;" d="M110.741,401.396c3.506,0.284,10.679-2.303,11.249-2.512c1.416,4.018,3.195,8.026,5.218,11.983
			c1.154,2.264,2.387,4.507,3.652,6.741c-0.729-0.934-1.388-1.763-1.492-1.87c-2.928-2.977-10.336-7.007-14.513-4.908
			c-3.011,1.511-3.679,5.274-1.945,8.001c1.77,2.785,5.661,3.97,8.769,4.221c3.154,0.256,9.314-1.828,10.937-2.401
			c0.494,0.852,0.978,1.708,1.476,2.558c2.386,4.079,4.785,8.139,7.016,12.194c0.787,1.428,1.509,2.864,2.238,4.298
			c-0.649-0.829-1.202-1.522-1.297-1.619c-2.928-2.976-10.335-7.007-14.513-4.908c-3.01,1.512-3.68,5.275-1.945,8.001
			c1.772,2.785,5.661,3.97,8.77,4.221c3.01,0.244,8.713-1.628,10.645-2.299c0.701,1.491,1.406,2.983,2.019,4.459
			c0.395,1.018,0.848,1.969,1.186,3.013c0.359,1.027,0.713,2.043,1.065,3.05c0.606,1.962,1.243,3.984,1.786,5.914
			c0.388,1.339,0.733,2.623,1.084,3.915c-0.767-1.431-2.327-4.201-2.484-4.418c-2.442-3.386-9.153-8.491-13.602-7.05
			c-3.204,1.039-4.436,4.656-3.134,7.614c1.329,3.021,4.994,4.781,8.028,5.501c3.341,0.792,10.537-0.587,11.435-0.766
			c0.574,2.139,1.111,4.226,1.587,6.204c0.181,0.745,0.35,1.465,0.517,2.179h2.912c-0.236-0.928-0.483-1.88-0.744-2.861
			c-0.573-2.175-1.229-4.488-1.926-6.857c0.532-0.251,3.545-1.701,6.189-3.409c2.554,2.434,8.867,5.069,9.684,5.403
			c-0.701,2.102-1.405,4.138-2.099,6.05c-0.205,0.57-0.408,1.124-0.611,1.673h2.968c0.086-0.253,0.172-0.502,0.259-0.761
			c0.722-2.13,1.451-4.422,2.176-6.781c0.889,0.127,8.164,1.126,11.463,0.157c2.991-0.88,6.558-2.833,7.725-5.921
			c1.142-3.022-0.28-6.57-3.537-7.436c-4.517-1.203-10.948,4.252-13.206,7.763c-0.134,0.207-1.329,2.616-2.057,4.148
			c0.292-0.965,0.585-1.9,0.873-2.898c0.584-1.969,1.107-3.952,1.677-6.082c0.24-1.039,0.482-2.088,0.727-3.148
			c0.264-1.046,0.411-2.184,0.624-3.285c0.44-2.565,0.761-5.184,1.025-7.83c1.726,0.505,7.879,2.215,10.984,1.796
			c3.091-0.417,6.911-1.806,8.532-4.682c1.587-2.815,0.719-6.537-2.368-7.887c-4.284-1.873-11.466,2.546-14.231,5.674
			c-0.173,0.194-1.904,2.662-2.829,4.036c0.147-1.592,0.301-3.18,0.397-4.795c0.278-4.663,0.414-9.392,0.572-14.109
			c0.047-1.445,0.112-2.884,0.171-4.325c0.612,0.187,7.882,2.376,11.36,1.907c3.09-0.416,6.912-1.806,8.532-4.682
			c1.587-2.815,0.719-6.537-2.368-7.886c-4.284-1.874-11.466,2.545-14.231,5.673c-0.208,0.236-2.695,3.79-3.283,4.725
			c0.131-3.174,0.292-6.334,0.576-9.444c0.386-4.291,1.004-8.48,1.901-12.495c0.285,0.088,7.863,2.407,11.424,1.927
			c3.091-0.417,6.912-1.807,8.533-4.682c1.587-2.815,0.719-6.536-2.368-7.887c-4.284-1.873-11.465,2.545-14.231,5.673
			c-0.216,0.246-2.89,4.071-3.326,4.799c0.054-0.239,0.084-0.492,0.141-0.729c1.012-4.273,2.53-8.286,4.135-11.973
			c0.928-2.145,1.936-4.142,2.959-6.064c1.368,0.577,7.644,3.143,10.897,3.065c3.117-0.075,7.068-1.037,8.995-3.716
			c1.887-2.624,1.432-6.418-1.487-8.099c-4.053-2.332-11.676,1.271-14.769,4.076c-0.168,0.152-1.705,1.893-2.807,3.176
			c0.475-0.861,0.949-1.757,1.421-2.572c1.764-3.065,3.568-5.762,5.185-8.138c0.93-1.343,1.798-2.54,2.622-3.651
			c1.636-0.134,8.226-0.757,11.026-2.296c2.731-1.503,5.796-4.177,6.271-7.443c0.465-3.199-1.688-6.357-5.052-6.502
			c-4.671-0.204-9.778,6.507-11.229,10.422c-0.125,0.339-1.479,5.855-1.393,5.849c0,0,0.079-0.006,0.099-0.007
			c-0.815,1.053-1.675,2.191-2.591,3.455c-1.672,2.346-3.54,5.011-5.376,8.049c-1.844,3.032-3.762,6.377-5.465,10.082
			c-1.711,3.712-3.321,7.705-4.449,12.033c-0.013,0.049-0.02,0.101-0.033,0.15c-0.063-1.369-0.368-5.189-0.425-5.479
			c-0.8-4.098-4.754-11.546-9.397-12.101c-3.344-0.399-5.978,2.37-6.036,5.601c-0.058,3.3,2.532,6.433,4.986,8.358
			c2.767,2.171,10.177,3.97,10.768,4.112c-1.036,4.131-1.763,8.456-2.258,12.872c-0.286,2.525-0.495,5.077-0.672,7.638
			c-0.093-1.182-0.185-2.237-0.214-2.383c-0.8-4.099-4.754-11.545-9.397-12.1c-3.345-0.4-5.979,2.37-6.036,5.601
			c-0.059,3.3,2.531,6.433,4.985,8.358c2.49,1.953,8.777,3.614,10.446,4.031c-0.058,0.983-0.126,1.965-0.18,2.948
			c-0.26,4.719-0.499,9.428-0.875,14.041c-0.131,1.626-0.321,3.221-0.505,4.818c-0.084-1.048-0.163-1.932-0.189-2.065
			c-0.8-4.098-4.754-11.546-9.396-12.1c-3.346-0.399-5.98,2.369-6.037,5.602c-0.059,3.299,2.532,6.433,4.986,8.358
			c2.375,1.864,8.165,3.449,10.147,3.954c-0.238,1.631-0.473,3.263-0.776,4.833c-0.232,1.067-0.381,2.109-0.673,3.168
			c-0.267,1.053-0.532,2.097-0.793,3.13c-0.578,1.972-1.162,4.009-1.773,5.918c-0.415,1.331-0.837,2.592-1.256,3.863
			c0.149-1.616,0.377-4.787,0.366-5.054c-0.113-2.772-1.384-7.208-3.543-10.247c-0.014-0.409-0.064-0.815-0.154-1.216
			c-0.715-3.152-3.858-5.325-7.052-4.252c-4.432,1.489-6.785,9.587-6.732,13.761c0.003,0.246,0.335,2.915,0.572,4.595
			c-0.29-0.966-0.56-1.908-0.87-2.899c-0.601-1.964-1.258-3.906-1.956-5.999c-0.373-0.998-0.75-2.006-1.131-3.025
			c-0.356-1.017-0.861-2.048-1.291-3.084c-1.048-2.381-2.226-4.744-3.465-7.097c1.719-0.53,7.794-2.499,10.152-4.562
			c2.348-2.052,4.768-5.32,4.534-8.611c-0.23-3.224-3.006-5.849-6.325-5.272c-4.607,0.801-8.16,8.448-8.741,12.583
			c-0.036,0.258-0.119,3.271-0.133,4.928c-0.756-1.408-1.503-2.818-2.314-4.219c-2.34-4.043-4.834-8.063-7.306-12.083
			c-0.757-1.231-1.497-2.467-2.243-3.701c0.614-0.183,7.886-2.368,10.528-4.677c2.348-2.052,4.768-5.319,4.534-8.612
			c-0.229-3.223-3.007-5.849-6.325-5.271c-4.607,0.8-8.16,8.447-8.741,12.582c-0.043,0.312-0.157,4.648-0.132,5.752
			c-1.641-2.718-3.251-5.444-4.73-8.195c-2.044-3.793-3.841-7.626-5.307-11.469c0.286-0.085,7.886-2.331,10.592-4.696
			c2.348-2.052,4.768-5.319,4.533-8.612c-0.229-3.224-3.006-5.848-6.326-5.271c-4.606,0.8-8.159,8.448-8.74,12.582
			c-0.046,0.325-0.165,4.99-0.126,5.837c-0.087-0.228-0.202-0.455-0.286-0.684c-1.512-4.124-2.46-8.308-3.155-12.268
			c-0.409-2.3-0.67-4.522-0.876-6.689c1.458-0.273,8.11-1.596,10.779-3.455c2.56-1.783,5.324-4.764,5.453-8.061
			c0.126-3.23-2.346-6.144-5.708-5.935c-4.667,0.29-9.038,7.501-10.069,11.546c-0.056,0.22-0.379,2.52-0.59,4.198
			c-0.078-0.98-0.177-1.989-0.233-2.929c-0.219-3.529-0.203-6.774-0.165-9.648c0.035-1.635,0.099-3.111,0.174-4.492
			c1.291-1.015,6.443-5.17,7.929-7.999c1.45-2.761,2.529-6.681,1.124-9.667c-1.377-2.924-4.914-4.371-7.801-2.637
			c-4.008,2.408-4.565,10.822-3.617,14.888c0.083,0.351,1.997,5.699,2.065,5.647c0,0,0.063-0.049,0.078-0.061
			c-0.099,1.327-0.188,2.752-0.254,4.31c-0.101,2.879-0.188,6.132-0.044,9.68c0.134,3.546,0.38,7.394,1.005,11.424
			c0.621,4.04,1.48,8.259,2.927,12.49c0.016,0.048,0.04,0.096,0.056,0.143c-0.808-1.107-3.171-4.124-3.378-4.335
			c-2.928-2.977-10.334-7.007-14.513-4.908c-3.01,1.513-3.68,5.275-1.945,8.002C103.744,399.96,107.633,401.144,110.741,401.396z"/>
		<path style="fill:#92E3A9;" d="M189.352,374.354c0.075,0.041,1.141-5.539,1.168-5.898c0.31-4.163-1.537-12.391-5.869-14.152
			c-3.12-1.269-6.391,0.707-7.3,3.809c-0.929,3.167,0.742,6.873,2.601,9.378C182.134,370.431,189.347,374.351,189.352,374.354z"/>
	</g>
	<g>
		<path style="fill:#92E3A9;" d="M37.273,419.041c1.948,0.706,6.575,0.305,6.579,0.305c0.048-0.004-1.19-2.97-1.29-3.148
			c-1.153-2.062-4.593-5.368-7.187-4.847c-1.868,0.375-2.796,2.329-2.257,4.076C33.669,417.211,35.614,418.439,37.273,419.041z"/>
		<path style="fill:#92E3A9;" d="M39.731,432.361c1.984,0.161,6.043-1.303,6.365-1.421c0.801,2.273,1.808,4.541,2.953,6.78
			c0.653,1.281,1.351,2.55,2.066,3.814c-0.413-0.528-0.786-0.998-0.845-1.058c-1.657-1.684-5.848-3.964-8.211-2.777
			c-1.704,0.855-2.082,2.984-1.101,4.527c1.002,1.576,3.203,2.246,4.962,2.388c1.785,0.145,5.27-1.034,6.188-1.358
			c0.28,0.482,0.553,0.967,0.835,1.447c1.35,2.308,2.707,4.605,3.97,6.899c0.445,0.808,0.854,1.62,1.266,2.432
			c-0.367-0.469-0.68-0.861-0.734-0.916c-1.656-1.684-5.847-3.965-8.211-2.777c-1.703,0.855-2.082,2.984-1.101,4.527
			c1.003,1.576,3.203,2.246,4.962,2.388c1.703,0.138,4.93-0.921,6.023-1.301c0.397,0.844,0.796,1.688,1.142,2.523
			c0.224,0.576,0.48,1.114,0.671,1.705c0.203,0.581,0.404,1.156,0.603,1.726c0.343,1.11,0.703,2.254,1.01,3.346
			c0.219,0.758,0.415,1.484,0.613,2.215c-0.434-0.81-1.316-2.377-1.405-2.5c-1.382-1.916-5.179-4.804-7.696-3.989
			c-1.813,0.588-2.51,2.635-1.773,4.308c0.752,1.709,2.826,2.706,4.542,3.112c1.89,0.448,5.962-0.332,6.47-0.433
			c0.324,1.211,0.629,2.391,0.898,3.51c0.102,0.421,0.198,0.829,0.293,1.233h1.647c-0.133-0.525-0.273-1.064-0.421-1.618
			c-0.324-1.231-0.696-2.539-1.09-3.88c0.301-0.142,2.006-0.962,3.502-1.929c1.445,1.377,5.017,2.868,5.479,3.057
			c-0.397,1.189-0.795,2.341-1.188,3.423c-0.116,0.322-0.231,0.636-0.346,0.947h1.679c0.049-0.143,0.097-0.284,0.146-0.43
			c0.408-1.205,0.821-2.502,1.231-3.837c0.503,0.072,4.619,0.637,6.486,0.089c1.692-0.498,3.711-1.603,4.371-3.35
			c0.646-1.71-0.159-3.717-2.001-4.207c-2.556-0.681-6.194,2.406-7.473,4.393c-0.076,0.117-0.752,1.48-1.164,2.347
			c0.165-0.546,0.331-1.075,0.494-1.64c0.33-1.114,0.626-2.236,0.949-3.441c0.136-0.588,0.273-1.181,0.411-1.781
			c0.15-0.592,0.233-1.236,0.353-1.859c0.249-1.451,0.43-2.933,0.58-4.43c0.976,0.286,4.458,1.253,6.215,1.016
			c1.749-0.236,3.91-1.022,4.827-2.649c0.898-1.593,0.407-3.699-1.34-4.463c-2.424-1.06-6.488,1.44-8.052,3.21
			c-0.098,0.11-1.077,1.507-1.601,2.284c0.083-0.901,0.17-1.799,0.225-2.713c0.157-2.638,0.234-5.314,0.323-7.983
			c0.027-0.818,0.063-1.632,0.097-2.447c0.346,0.106,4.46,1.345,6.428,1.079c1.748-0.235,3.911-1.022,4.828-2.649
			c0.898-1.592,0.407-3.698-1.34-4.462c-2.424-1.06-6.488,1.44-8.052,3.21c-0.118,0.133-1.525,2.145-1.858,2.674
			c0.074-1.796,0.165-3.584,0.326-5.344c0.218-2.428,0.568-4.798,1.076-7.07c0.161,0.05,4.449,1.362,6.464,1.09
			c1.749-0.236,3.911-1.022,4.828-2.649c0.898-1.593,0.407-3.698-1.34-4.462c-2.424-1.06-6.487,1.44-8.052,3.21
			c-0.122,0.139-1.635,2.303-1.882,2.716c0.031-0.135,0.048-0.278,0.08-0.413c0.573-2.418,1.432-4.688,2.34-6.774
			c0.525-1.213,1.095-2.344,1.674-3.431c0.774,0.326,4.325,1.779,6.166,1.734c1.764-0.042,3.999-0.587,5.089-2.103
			c1.068-1.485,0.81-3.632-0.841-4.582c-2.293-1.32-6.606,0.719-8.356,2.306c-0.095,0.086-0.965,1.071-1.588,1.797
			c0.269-0.487,0.537-0.994,0.804-1.455c0.998-1.734,2.019-3.26,2.934-4.605c0.526-0.76,1.017-1.437,1.484-2.066
			c0.926-0.076,4.654-0.428,6.238-1.299c1.546-0.851,3.279-2.363,3.548-4.212c0.263-1.81-0.955-3.597-2.859-3.679
			c-2.643-0.115-5.532,3.682-6.353,5.897c-0.071,0.192-0.837,3.313-0.788,3.309c0,0,0.045-0.003,0.056-0.004
			c-0.461,0.596-0.948,1.24-1.466,1.955c-0.946,1.327-2.003,2.835-3.042,4.554c-1.044,1.715-2.129,3.608-3.092,5.705
			c-0.968,2.1-1.879,4.359-2.517,6.808c-0.007,0.027-0.011,0.057-0.019,0.085c-0.036-0.774-0.208-2.936-0.241-3.1
			c-0.453-2.318-2.69-6.533-5.317-6.847c-1.892-0.226-3.383,1.341-3.415,3.169c-0.033,1.867,1.433,3.64,2.821,4.729
			c1.566,1.228,5.759,2.246,6.093,2.326c-0.586,2.338-0.997,4.784-1.278,7.283c-0.162,1.429-0.28,2.873-0.38,4.322
			c-0.053-0.668-0.104-1.266-0.121-1.348c-0.453-2.319-2.69-6.532-5.317-6.846c-1.893-0.226-3.383,1.341-3.415,3.169
			c-0.034,1.867,1.432,3.64,2.821,4.729c1.409,1.105,4.966,2.045,5.911,2.281c-0.033,0.556-0.072,1.112-0.102,1.668
			c-0.147,2.67-0.282,5.335-0.495,7.944c-0.074,0.92-0.181,1.823-0.286,2.726c-0.047-0.593-0.092-1.093-0.107-1.168
			c-0.453-2.319-2.69-6.533-5.316-6.847c-1.893-0.226-3.383,1.341-3.416,3.17c-0.034,1.867,1.433,3.64,2.821,4.729
			c1.344,1.055,4.62,1.952,5.741,2.237c-0.134,0.923-0.267,1.847-0.439,2.735c-0.131,0.604-0.215,1.194-0.381,1.793
			c-0.151,0.596-0.301,1.187-0.449,1.771c-0.327,1.116-0.657,2.268-1.003,3.349c-0.235,0.753-0.473,1.467-0.711,2.186
			c0.084-0.915,0.213-2.709,0.207-2.86c-0.064-1.568-0.783-4.079-2.005-5.798c-0.008-0.232-0.036-0.461-0.087-0.688
			c-0.405-1.783-2.183-3.013-3.99-2.406c-2.508,0.842-3.839,5.424-3.809,7.786c0.002,0.139,0.189,1.649,0.324,2.6
			c-0.164-0.547-0.317-1.079-0.492-1.64c-0.34-1.111-0.712-2.21-1.107-3.394c-0.211-0.565-0.425-1.135-0.64-1.712
			c-0.201-0.576-0.487-1.159-0.731-1.745c-0.593-1.347-1.259-2.684-1.96-4.016c0.973-0.3,4.41-1.414,5.744-2.581
			c1.329-1.161,2.698-3.01,2.565-4.872c-0.13-1.824-1.701-3.31-3.579-2.983c-2.606,0.453-4.617,4.78-4.946,7.12
			c-0.02,0.146-0.067,1.851-0.075,2.788c-0.428-0.797-0.851-1.595-1.31-2.387c-1.324-2.288-2.735-4.562-4.134-6.837
			c-0.429-0.697-0.847-1.396-1.269-2.094c0.347-0.103,4.462-1.34,5.957-2.646c1.328-1.161,2.698-3.01,2.565-4.873
			c-0.13-1.824-1.701-3.309-3.579-2.982c-2.607,0.453-4.617,4.78-4.946,7.119c-0.025,0.176-0.089,2.63-0.075,3.254
			c-0.928-1.538-1.839-3.08-2.676-4.636c-1.157-2.146-2.173-4.315-3.003-6.49c0.162-0.048,4.462-1.319,5.993-2.657
			c1.328-1.161,2.698-3.01,2.565-4.873c-0.129-1.824-1.701-3.309-3.579-2.983c-2.606,0.453-4.617,4.78-4.945,7.119
			c-0.026,0.184-0.093,2.824-0.071,3.303c-0.049-0.129-0.115-0.258-0.162-0.387c-0.856-2.333-1.392-4.701-1.785-6.942
			c-0.231-1.301-0.379-2.559-0.496-3.785c0.825-0.155,4.589-0.903,6.099-1.955c1.448-1.009,3.012-2.696,3.085-4.561
			c0.071-1.827-1.328-3.477-3.23-3.358c-2.64,0.164-5.114,4.244-5.697,6.533c-0.032,0.125-0.214,1.426-0.334,2.375
			c-0.044-0.554-0.1-1.126-0.132-1.657c-0.124-1.997-0.115-3.833-0.094-5.459c0.02-0.925,0.056-1.76,0.098-2.542
			c0.73-0.574,3.646-2.925,4.486-4.526c0.82-1.562,1.431-3.78,0.636-5.47c-0.779-1.655-2.78-2.473-4.414-1.492
			c-2.268,1.363-2.583,6.123-2.046,8.424c0.047,0.198,1.13,3.224,1.168,3.195c0,0,0.036-0.028,0.044-0.035
			c-0.056,0.751-0.106,1.557-0.144,2.439c-0.057,1.629-0.107,3.47-0.025,5.477c0.076,2.006,0.215,4.184,0.568,6.464
			c0.351,2.286,0.837,4.673,1.657,7.067c0.009,0.027,0.022,0.054,0.032,0.081c-0.457-0.626-1.794-2.333-1.911-2.453
			c-1.657-1.684-5.847-3.964-8.212-2.777c-1.703,0.856-2.082,2.984-1.1,4.528C35.772,431.549,37.973,432.219,39.731,432.361z"/>
		<path style="fill:#92E3A9;" d="M84.211,417.06c0.042,0.023,0.646-3.134,0.661-3.337c0.175-2.356-0.87-7.011-3.321-8.008
			c-1.765-0.718-3.616,0.4-4.13,2.155c-0.525,1.792,0.42,3.889,1.472,5.306C80.127,414.84,84.208,417.058,84.211,417.06z"/>
	</g>
	<g>
		<path style="fill:#92E3A9;" d="M408.349,419.041c1.948,0.706,6.575,0.305,6.579,0.305c0.048-0.004-1.19-2.97-1.29-3.148
			c-1.153-2.062-4.593-5.368-7.187-4.847c-1.868,0.375-2.796,2.329-2.257,4.076C404.745,417.211,406.691,418.439,408.349,419.041z"
			/>
		<path style="fill:#92E3A9;" d="M410.808,432.361c1.984,0.161,6.043-1.303,6.365-1.421c0.801,2.273,1.807,4.541,2.952,6.78
			c0.653,1.281,1.351,2.55,2.066,3.814c-0.413-0.528-0.785-0.998-0.844-1.058c-1.657-1.684-5.848-3.964-8.211-2.777
			c-1.704,0.855-2.082,2.984-1.101,4.527c1.002,1.576,3.203,2.246,4.962,2.388c1.785,0.145,5.27-1.034,6.188-1.358
			c0.28,0.482,0.553,0.967,0.835,1.447c1.35,2.308,2.707,4.605,3.97,6.899c0.445,0.808,0.854,1.62,1.266,2.432
			c-0.367-0.469-0.68-0.861-0.734-0.916c-1.657-1.684-5.848-3.965-8.211-2.777c-1.703,0.855-2.082,2.984-1.101,4.527
			c1.003,1.576,3.203,2.246,4.962,2.388c1.703,0.138,4.93-0.921,6.023-1.301c0.397,0.844,0.796,1.688,1.142,2.523
			c0.224,0.576,0.48,1.114,0.671,1.705c0.203,0.581,0.404,1.156,0.603,1.726c0.343,1.11,0.703,2.254,1.01,3.346
			c0.219,0.758,0.414,1.484,0.613,2.215c-0.434-0.81-1.316-2.377-1.405-2.5c-1.382-1.916-5.179-4.804-7.696-3.989
			c-1.813,0.588-2.51,2.635-1.773,4.308c0.752,1.709,2.826,2.706,4.542,3.112c1.89,0.448,5.962-0.332,6.47-0.433
			c0.324,1.211,0.629,2.391,0.898,3.51c0.102,0.421,0.198,0.829,0.293,1.233h1.647c-0.133-0.525-0.273-1.064-0.421-1.618
			c-0.324-1.231-0.696-2.539-1.09-3.88c0.301-0.142,2.006-0.962,3.502-1.929c1.445,1.377,5.017,2.868,5.479,3.057
			c-0.397,1.189-0.795,2.341-1.188,3.423c-0.116,0.322-0.231,0.636-0.346,0.947h1.68c0.049-0.143,0.097-0.284,0.146-0.43
			c0.408-1.205,0.821-2.502,1.231-3.837c0.503,0.072,4.619,0.637,6.486,0.089c1.692-0.498,3.711-1.603,4.371-3.35
			c0.646-1.71-0.159-3.717-2.001-4.207c-2.556-0.681-6.194,2.406-7.473,4.393c-0.076,0.117-0.752,1.48-1.164,2.347
			c0.165-0.546,0.331-1.075,0.494-1.64c0.33-1.114,0.626-2.236,0.949-3.441c0.136-0.588,0.273-1.181,0.411-1.781
			c0.15-0.592,0.233-1.236,0.353-1.859c0.249-1.451,0.43-2.933,0.58-4.43c0.976,0.286,4.458,1.253,6.215,1.016
			c1.749-0.236,3.91-1.022,4.827-2.649c0.898-1.593,0.407-3.699-1.34-4.463c-2.424-1.06-6.488,1.44-8.052,3.21
			c-0.098,0.11-1.077,1.507-1.601,2.284c0.083-0.901,0.17-1.799,0.225-2.713c0.157-2.638,0.234-5.314,0.323-7.983
			c0.027-0.818,0.063-1.632,0.097-2.447c0.346,0.106,4.46,1.345,6.428,1.079c1.749-0.235,3.911-1.022,4.828-2.649
			c0.898-1.592,0.407-3.698-1.34-4.462c-2.424-1.06-6.488,1.44-8.052,3.21c-0.118,0.133-1.525,2.145-1.858,2.674
			c0.074-1.796,0.165-3.584,0.326-5.344c0.219-2.428,0.568-4.798,1.076-7.07c0.161,0.05,4.449,1.362,6.464,1.09
			c1.749-0.236,3.911-1.022,4.828-2.649c0.898-1.593,0.407-3.698-1.34-4.462c-2.424-1.06-6.487,1.44-8.052,3.21
			c-0.122,0.139-1.635,2.303-1.882,2.716c0.031-0.135,0.048-0.278,0.08-0.413c0.573-2.418,1.432-4.688,2.34-6.774
			c0.525-1.213,1.096-2.344,1.674-3.431c0.774,0.326,4.325,1.779,6.166,1.734c1.764-0.042,3.999-0.587,5.089-2.103
			c1.068-1.485,0.81-3.632-0.841-4.582c-2.293-1.32-6.607,0.719-8.356,2.306c-0.095,0.086-0.965,1.071-1.588,1.797
			c0.269-0.487,0.537-0.994,0.804-1.455c0.998-1.734,2.019-3.26,2.934-4.605c0.526-0.76,1.017-1.437,1.484-2.066
			c0.926-0.076,4.654-0.428,6.239-1.299c1.545-0.851,3.279-2.363,3.548-4.212c0.263-1.81-0.955-3.597-2.859-3.679
			c-2.643-0.115-5.532,3.682-6.353,5.897c-0.071,0.192-0.837,3.313-0.788,3.309c0,0,0.045-0.003,0.056-0.004
			c-0.461,0.596-0.948,1.24-1.466,1.955c-0.946,1.327-2.003,2.835-3.042,4.554c-1.044,1.715-2.129,3.608-3.092,5.705
			c-0.968,2.1-1.879,4.359-2.517,6.808c-0.007,0.027-0.011,0.057-0.018,0.085c-0.036-0.774-0.208-2.936-0.241-3.1
			c-0.453-2.318-2.69-6.533-5.317-6.847c-1.892-0.226-3.383,1.341-3.415,3.169c-0.033,1.867,1.432,3.64,2.821,4.729
			c1.566,1.228,5.759,2.246,6.092,2.326c-0.586,2.338-0.997,4.784-1.278,7.283c-0.162,1.429-0.28,2.873-0.38,4.322
			c-0.053-0.668-0.104-1.266-0.121-1.348c-0.453-2.319-2.69-6.532-5.317-6.846c-1.893-0.226-3.383,1.341-3.415,3.169
			c-0.034,1.867,1.432,3.64,2.82,4.729c1.409,1.105,4.966,2.045,5.911,2.281c-0.033,0.556-0.072,1.112-0.102,1.668
			c-0.147,2.67-0.282,5.335-0.495,7.944c-0.074,0.92-0.182,1.823-0.286,2.726c-0.047-0.593-0.092-1.093-0.107-1.168
			c-0.453-2.319-2.69-6.533-5.316-6.847c-1.893-0.226-3.383,1.341-3.416,3.17c-0.034,1.867,1.433,3.64,2.821,4.729
			c1.344,1.055,4.62,1.952,5.741,2.237c-0.134,0.923-0.267,1.847-0.439,2.735c-0.131,0.604-0.216,1.194-0.381,1.793
			c-0.151,0.596-0.301,1.187-0.449,1.771c-0.327,1.116-0.657,2.268-1.003,3.349c-0.235,0.753-0.473,1.467-0.711,2.186
			c0.085-0.915,0.213-2.709,0.207-2.86c-0.064-1.568-0.783-4.079-2.005-5.798c-0.008-0.232-0.036-0.461-0.087-0.688
			c-0.405-1.783-2.183-3.013-3.99-2.406c-2.508,0.842-3.839,5.424-3.809,7.786c0.002,0.139,0.189,1.649,0.324,2.6
			c-0.164-0.547-0.317-1.079-0.492-1.64c-0.34-1.111-0.712-2.21-1.107-3.394c-0.211-0.565-0.425-1.135-0.64-1.712
			c-0.201-0.576-0.487-1.159-0.731-1.745c-0.593-1.347-1.259-2.684-1.96-4.016c0.973-0.3,4.41-1.414,5.744-2.581
			c1.329-1.161,2.698-3.01,2.565-4.872c-0.13-1.824-1.701-3.31-3.579-2.983c-2.607,0.453-4.617,4.78-4.946,7.12
			c-0.02,0.146-0.067,1.851-0.075,2.788c-0.428-0.797-0.851-1.595-1.309-2.387c-1.324-2.288-2.735-4.562-4.134-6.837
			c-0.429-0.697-0.847-1.396-1.269-2.094c0.347-0.103,4.462-1.34,5.957-2.646c1.328-1.161,2.698-3.01,2.565-4.873
			c-0.13-1.824-1.701-3.309-3.579-2.982c-2.607,0.453-4.617,4.78-4.946,7.119c-0.025,0.176-0.089,2.63-0.075,3.254
			c-0.928-1.538-1.839-3.08-2.676-4.636c-1.157-2.146-2.173-4.315-3.003-6.49c0.162-0.048,4.462-1.319,5.993-2.657
			c1.328-1.161,2.698-3.01,2.565-4.873c-0.13-1.824-1.701-3.309-3.579-2.983c-2.606,0.453-4.617,4.78-4.945,7.119
			c-0.026,0.184-0.093,2.824-0.071,3.303c-0.049-0.129-0.115-0.258-0.162-0.387c-0.856-2.333-1.392-4.701-1.785-6.942
			c-0.231-1.301-0.379-2.559-0.496-3.785c0.825-0.155,4.589-0.903,6.099-1.955c1.448-1.009,3.012-2.696,3.085-4.561
			c0.071-1.827-1.328-3.477-3.23-3.358c-2.641,0.164-5.114,4.244-5.697,6.533c-0.032,0.125-0.214,1.426-0.334,2.375
			c-0.044-0.554-0.1-1.126-0.132-1.657c-0.124-1.997-0.115-3.833-0.094-5.459c0.02-0.925,0.056-1.76,0.098-2.542
			c0.73-0.574,3.646-2.925,4.486-4.526c0.82-1.562,1.431-3.78,0.636-5.47c-0.779-1.655-2.78-2.473-4.414-1.492
			c-2.268,1.363-2.583,6.123-2.046,8.424c0.047,0.198,1.13,3.224,1.168,3.195c0,0,0.036-0.028,0.044-0.035
			c-0.056,0.751-0.106,1.557-0.144,2.439c-0.057,1.629-0.107,3.47-0.025,5.477c0.076,2.006,0.215,4.184,0.568,6.464
			c0.351,2.286,0.837,4.673,1.656,7.067c0.009,0.027,0.022,0.054,0.032,0.081c-0.457-0.626-1.794-2.333-1.911-2.453
			c-1.657-1.684-5.847-3.964-8.211-2.777c-1.703,0.856-2.082,2.984-1.1,4.528C406.849,431.549,409.05,432.219,410.808,432.361z"/>
		<path style="fill:#92E3A9;" d="M455.287,417.06c0.042,0.023,0.646-3.134,0.661-3.337c0.175-2.356-0.87-7.011-3.321-8.008
			c-1.765-0.718-3.616,0.4-4.13,2.155c-0.526,1.792,0.42,3.889,1.472,5.306C451.203,414.84,455.284,417.058,455.287,417.06z"/>
	</g>
</g>
<g id="Earth_Globe">
	<g>
		<g>
			<polygon style="fill:#92E3A9;stroke:#263238;stroke-linecap:round;stroke-linejoin:round;stroke-miterlimit:10;" points="
				152.912,107.506 166.275,110.275 170.83,114.999 176.769,115.912 178.658,121.547 177.273,125.36 173.224,127.216 
				163.303,125.595 163.033,124.38 167.725,121.107 164.486,115.134 155.611,113.918 150.887,109.868 			"/>
			<path style="fill:#92E3A9;stroke:#263238;stroke-linecap:round;stroke-linejoin:round;stroke-miterlimit:10;" d="
				M260.608,230.824l-10.596-1.79l-12.789-1.622l-9.415,2.091l-9.212,0.134l-9.246,4.284l-5.399,1.518l-3.341,0.742l-5.568,5.061
				l-5.535,3.779l-9.347-3.342l0.238-8.976l-5.635-0.98l-6.074,1.349l-1.518-2.531l-0.606-5.602l-2.8-2.565l-4.117,1.552
				l-0.541,3.307l-5.096,1.45l-5.77-4.455l-3.441-6.884l2.667-9.516l8.942-1.349l2.902,1.587l3.645-0.81l3.949-3.745l4.218,0.338
				l7.558,8.201l2.058-0.776l-2.159-6.851l-2.632-3.239l-0.674-5.906l10.158-7.355l-0.977-11.575l3.982-5.027l2.397-7.862
				l2.902-1.282l5.973-6.107l-0.236-2.497l-4.792,1.383l-1.451-2.227l-3.341,0.742l-4.893,2.361l1.553-4.488l9.956-5.398
				l1.822-3.273l5.736,5.737l3.341,2.126l3.982-2.159l-2.699-3.543l-7.39-3.139l-9.11-6.582l-8.74-3.477l-7.559,0.404l-4.454-2.835
				l-5.13-0.136l-0.337,1.35l1.348,8.943l1.889,2.767l-0.575,10.326l-7.154-3.51l-0.033-4.454l-7.052-1.621l-3.475-2.734
				l-0.168-7.93l7.391-8.334l-1.011-7.424l-3.273,1.046l-2.733-2.261l-1.923-4.353l-2.193,0.168l-0.136,5.129l-3.206,1.35
				l-3.879-10.293l-2.767-0.979l-4.656-0.878l-4.32,3.509l7.356,4.421l2.361,4.893l-12.755-5.772l-9.414-6.514l-2.429-8.065
				l-8.436-0.676l-5.198,5.297c0,0-2.633,2.497-4.016,3.441c-1.384,0.945-7.019,2.834-7.019,2.834l-0.068,5.433l-6.918,1.855
				l1.349,3.206l11.642-0.673l7.187,5.097l2.361,10.63l-1.25,10.157l2.833,9.888l-5.199,16.77l3.102,22.576l5.566,12.149
				l6.106,8.842l4.691-0.404l-2.598-4.522l-3.239-3.105l-3.003-6.344l2.599-1.215l6.68,9.99l5.196,9.044l1.753,7.896l7.322,5.704
				l12.012,5.3l16.737,0.744l5.871,3.477l4.723,4.05l6.209,2.127l7.086,0.338l6.614-1.787c0,0,0.371,3.105,0.708,4.623
				c0.337,1.519-2.768,7.626-2.768,7.626l-1.992,6.816l3.913,6.142l7.289,1.249l11.573,7.628l4.657,0.878l1.012,4.556l1.002,2.003
				c23.302-9.265,42.836-24.79,57.04-44.133l-0.332-2.237l4.895-16.703l-4.555-1.856L260.608,230.824z"/>
			<path style="fill:#92E3A9;stroke:#263238;stroke-linecap:round;stroke-linejoin:round;stroke-miterlimit:10;" d="
				M265.552,103.844l-4.622-5.028l-5.736-5.737l-3.238-8.842l5.669-0.303l-0.37-3.105l-4.016,0.573l3.004-2.26l3.172-2.935
				l-0.674-3.037l-4.724-4.05l-2.23-6.363c-29.838-23.477-69.579-33.87-109.535-24.997c-18.163,4.034-34.595,11.662-48.73,21.96
				l8.105,3.405l-3.038,6.411l-5.501,2.496l1.214,8.335l-2.227,1.451l-2.295,4.015l1.518,5.4l5.298-0.539l-0.979,5.635l5.163-1.146
				l6.312-13.193l-0.168-5.062l8.369-2.496l1.317-4.117l8.605-2.867l-0.235-5.365l6.31-1.72c0,0,4.016-3.441,4.927-3.644
				c0.911-0.202,5.5,0.372,5.5,0.372l5.365,2.633l6.378-1.416l4.725-4.555l7.12-0.944c0,0,2.092,0.81,3.611,0.473
				c1.518-0.337,5.602-3.475,5.602-3.475l10.022,3.511l4.252,1.924l1.012,4.555l4.691-0.404l0.911-3.07l4.353,0.945l0.236,2.497
				l-8.572,4.453l6.647,5.535l12.283,3.646l5.905,5.063l6.816-0.876l0.844-3.374l2.295-1.147l-9.246-4.321l-4.994,0.472l3.678-2.092
				l-4.791-4.353l5.096-1.451l7.491,2.161l3.137,6.952l4.218,3.206l4.689,8.201l7.761,3.376l2.226,10.023l7.997,3.005l0.438,3.408
				l-0.034,4.151l3.037,5.062l1.214,2.598l5.365-0.235l1.283-5.703L265.552,103.844z"/>
			<path style="fill:#92E3A9;stroke:#263238;stroke-linecap:round;stroke-linejoin:round;stroke-miterlimit:10;" d="M262.706,72.371
				l0.387,1.744l-0.439,5.196l1.855,4.05l3.611,0.473l1.282,5.771l-3.982-0.709l2.731,16.603l-2.161,7.491l4.318,7.964l4.758,2.768
				l3.642,16.401L285.488,152l6.41,8.775l7.39,0.271l1.081-6.614l0.818-0.995c-0.511-5.357-1.353-10.741-2.549-16.129
				C292.948,111.688,280.116,89.503,262.706,72.371z"/>
			<polygon style="fill:#92E3A9;stroke:#263238;stroke-linecap:round;stroke-linejoin:round;stroke-miterlimit:10;" points="
				192.127,86.05 170.126,81.694 161.386,83.953 160.541,90.196 156.02,87.057 149.675,90.06 151.294,100.217 157.637,102.951 
				160.304,96.304 165.871,99.848 177.107,105.957 180.886,114.36 191.008,122.629 203.292,117.67 201.976,113.182 198.096,108.626 
				194.791,96.612 196.681,90.775 			"/>
			<polygon style="fill:#92E3A9;stroke:#263238;stroke-linecap:round;stroke-linejoin:round;stroke-miterlimit:10;" points="
				210.011,89.09 205.186,88.886 201.979,93.104 206.061,101.439 210.009,100.563 			"/>
			<polygon style="fill:#92E3A9;stroke:#263238;stroke-linecap:round;stroke-linejoin:round;stroke-miterlimit:10;" points="
				239.537,88.588 227.997,85.414 225.062,82.242 222.834,83.692 226.309,89.294 229.885,96.786 234.846,97.596 235.487,96.18 
				231.742,92.231 240.313,93.514 			"/>
			<polygon style="fill:#FFFFFF;stroke:#263238;stroke-linecap:round;stroke-linejoin:round;stroke-miterlimit:10;" points="
				175.202,217.922 174.257,219.406 183.975,220.116 188.564,223.559 194.47,222.885 195.854,219.072 188.598,219.408 			"/>
			<polygon style="fill:#FFFFFF;stroke:#263238;stroke-linecap:round;stroke-linejoin:round;stroke-miterlimit:10;" points="
				203.514,217.689 197.541,220.928 198.991,223.155 206.888,221.402 207.867,218.635 205.201,219.545 			"/>
		</g>
		<g>
			
				<circle style="fill:none;stroke:#263238;stroke-linecap:round;stroke-linejoin:round;stroke-miterlimit:10;" cx="170.703" cy="165.589" r="130.964"/>
			
				<ellipse style="fill:none;stroke:#263238;stroke-linecap:round;stroke-linejoin:round;stroke-miterlimit:10;" cx="170.703" cy="165.589" rx="82.097" ry="130.964"/>
			
				<ellipse style="fill:none;stroke:#263238;stroke-linecap:round;stroke-linejoin:round;stroke-miterlimit:10;" cx="170.703" cy="165.589" rx="29.893" ry="130.964"/>
			
				<line style="fill:none;stroke:#263238;stroke-linecap:round;stroke-linejoin:round;stroke-miterlimit:10;" x1="98.843" y1="56.915" x2="243.24" y2="56.915"/>
			
				<line style="fill:none;stroke:#263238;stroke-linecap:round;stroke-linejoin:round;stroke-miterlimit:10;" x1="50.407" y1="114.034" x2="290.635" y2="114.034"/>
			
				<line style="fill:none;stroke:#263238;stroke-linecap:round;stroke-linejoin:round;stroke-miterlimit:10;" x1="98.843" y1="274.138" x2="243.24" y2="274.138"/>
			
				<line style="fill:none;stroke:#263238;stroke-linecap:round;stroke-linejoin:round;stroke-miterlimit:10;" x1="50.407" y1="217.019" x2="290.635" y2="217.019"/>
			
				<line style="fill:none;stroke:#263238;stroke-linecap:round;stroke-linejoin:round;stroke-miterlimit:10;" x1="301.666" y1="165.589" x2="39.739" y2="165.589"/>
		</g>
		<g>
			
				<rect x="145.314" y="145.516" style="fill:#FFFFFF;stroke:#263238;stroke-linecap:round;stroke-linejoin:round;stroke-miterlimit:10;" width="48.41" height="41.494"/>
			<polygon style="fill:#263238;stroke:#263238;stroke-linecap:round;stroke-linejoin:round;stroke-miterlimit:10;" points="
				181.923,163.658 181.923,158.125 178.006,158.125 178.006,152.431 161.346,152.431 161.346,158.125 157.429,158.125 
				157.429,163.658 151.471,163.658 151.471,180.408 157.429,180.408 161.346,180.408 178.006,180.408 181.923,180.408 
				187.881,180.408 187.881,163.658 			"/>
		</g>
	</g>
</g>
<g id="Character">
	<g>
		<g>
			<polyline style="fill:#92E3A9;stroke:#263238;stroke-linecap:round;stroke-linejoin:round;stroke-miterlimit:10;" points="
				332.902,472.041 332.902,362.052 425.698,365.997 425.698,471.909 			"/>
			<polyline style="fill:none;stroke:#263238;stroke-linecap:round;stroke-linejoin:round;stroke-miterlimit:10;" points="
				367.156,398.797 378.159,404.194 378.159,472.714 			"/>
		</g>
		<polygon style="fill:#FFFFFF;stroke:#263238;stroke-linecap:round;stroke-linejoin:round;stroke-miterlimit:10;" points="
			307.783,308.7 305.39,320.683 333.967,334.971 334.86,313.836 		"/>
		<g>
			<g>
				<path style="fill:#FFFFFF;stroke:#263238;stroke-linecap:round;stroke-linejoin:round;stroke-miterlimit:10;" d="
					M359.267,226.076c0,0-32.385,10.795-34.461,11.625c-2.076,0.83-4.36,3.322-4.152,5.398c0.208,2.076-12.871,63.94-12.871,65.601
					c0,1.661,23.251,8.304,23.251,8.304s0.83,47.955,1.038,49.201c0.207,1.246,1.597,5.977,25.95,6.435
					c20.143,0.379,49.049,1.211,55.636,0.83c11.995-0.694,12.456-4.775,13.079-6.02c0.623-1.246,0-56.882,0-56.882l42.068,19.958
					c0,0,0.415-0.415,0.208-5.605c-0.208-5.19-15.08-44.039-21.723-61.27s-9.965-22.005-18.061-28.026
					c-8.096-6.02-27.61-14.117-27.61-14.117s-15.985,3.322-27.403,3.529C362.796,225.246,359.267,226.076,359.267,226.076z"/>
				
					<line style="fill:none;stroke:#263238;stroke-linecap:round;stroke-linejoin:round;stroke-miterlimit:10;" x1="332.322" y1="268.189" x2="332.411" y2="264.815"/>
				
					<line style="fill:none;stroke:#263238;stroke-linecap:round;stroke-linejoin:round;stroke-miterlimit:10;" x1="331.034" y1="317.004" x2="332.232" y2="271.586"/>
			</g>
			<path style="fill:#FFFFFF;stroke:#263238;stroke-linecap:round;stroke-linejoin:round;stroke-miterlimit:10;" d="
				M459.102,295.546c-18.603-1.006-27.488,11.602-29.945,15.868l39.647,19.113c0,0,0.415-0.415,0.207-5.605
				C468.907,322.316,462.99,306.55,459.102,295.546z"/>
		</g>
		<g>
			<path style="fill:#FFFFFF;stroke:#263238;stroke-linecap:round;stroke-linejoin:round;stroke-miterlimit:10;" d="
				M375.875,233.965c0,0,6.435,20.137,8.927,20.967c2.491,0.83,2.076-5.397,2.076-5.397s16.815-26.157,16.193-28.856
				c-0.623-2.699-1.661-4.982-4.775-7.266c-3.114-2.284-4.567-2.906-5.605-2.699c-1.038,0.208-17.438,20.552-17.438,20.552
				L375.875,233.965z"/>
			<path style="fill:#FFFFFF;stroke:#263238;stroke-linecap:round;stroke-linejoin:round;stroke-miterlimit:10;" d="
				M349.718,226.907c0,0-1.246,14.947-1.661,17.23c-0.415,2.284-2.284,5.813-0.83,6.436c1.453,0.623,8.096-4.775,9.549-7.058
				c1.453-2.284,1.038-3.114,1.453-5.19C358.645,236.249,352.624,225.661,349.718,226.907z"/>
			<path style="fill:#FFFFFF;stroke:#263238;stroke-linecap:round;stroke-linejoin:round;stroke-miterlimit:10;" d="
				M359.267,217.565c0,0-10.172,7.681-9.549,9.342c0.623,1.661,15.362,25.95,15.362,25.95s-0.83-22.005-1.453-28.648
				C363.004,217.565,359.267,217.565,359.267,217.565z"/>
			<g>
				<path style="fill:#FFFFFF;stroke:#263238;stroke-linecap:round;stroke-linejoin:round;stroke-miterlimit:10;" d="
					M356.153,208.638l8.927,44.218c0,0,3.944-7.473,4.567-8.096s8.719-14.947,8.719-14.947s15.57-11.003,15.57-12.248
					c0-1.246,0.83-14.117,0.83-14.117s-13.494,8.927-17.646,9.965C372.969,214.451,356.153,208.638,356.153,208.638z"/>
				<path style="fill:#263238;stroke:#263238;stroke-linecap:round;stroke-linejoin:round;stroke-miterlimit:10;" d="
					M356.153,208.638l3.764,18.646l17.732-9.762l-0.529-4.109C372.969,214.451,356.153,208.638,356.153,208.638z"/>
			</g>
			<g>
				<path style="fill:#FFFFFF;stroke:#263238;stroke-linecap:round;stroke-linejoin:round;stroke-miterlimit:10;" d="
					M348.057,171.271c0,0-2.491-3.737-3.944,1.453c-1.453,5.19,5.19,13.909,5.19,13.909l0.83-15.155L348.057,171.271z"/>
				<path style="fill:#FFFFFF;stroke:#263238;stroke-linecap:round;stroke-linejoin:round;stroke-miterlimit:10;" d="
					M349.51,155.701c0,0,0,37.783,0.623,41.312s9.549,21.59,13.701,22.836c4.152,1.245,10.795,1.038,12.871,0.415
					c2.076-0.623,16.4-12.041,18.061-16.815s3.114-11.418,3.114-11.418s6.228-3.322,7.681-8.096
					c1.453-4.775,0.83-9.134-0.623-10.795c-1.453-1.661-2.491-1.868-2.491-1.868l-2.284-3.322c0,0,0.623-5.398,0.623-6.643
					c0-1.246-1.246-8.304-9.342-11.625c-8.096-3.321-31.555-2.491-36.537-1.453C349.925,149.266,349.51,155.701,349.51,155.701z"/>
				<path style="fill:#263238;" d="M363.627,176.253c0,1.72-0.836,3.114-1.868,3.114c-1.032,0-1.868-1.394-1.868-3.114
					s0.837-3.114,1.868-3.114C362.79,173.139,363.627,174.533,363.627,176.253z"/>
				<path style="fill:#263238;" d="M384.802,178.122c0,1.72-0.836,3.114-1.868,3.114c-1.032,0-1.868-1.394-1.868-3.114
					c0-1.72,0.836-3.114,1.868-3.114C383.965,175.008,384.802,176.402,384.802,178.122z"/>
				<path style="fill:none;stroke:#263238;stroke-linecap:round;stroke-linejoin:round;stroke-miterlimit:10;" d="M356.569,168.572
					c0,0,4.152-4.152,8.927-0.208"/>
				<path style="fill:none;stroke:#263238;stroke-linecap:round;stroke-linejoin:round;stroke-miterlimit:10;" d="M378.574,168.987
					c0,0,4.775-3.114,9.342,2.076"/>
				<polyline style="fill:none;stroke:#263238;stroke-linecap:round;stroke-linejoin:round;stroke-miterlimit:10;" points="
					368.817,173.139 367.156,195.352 376.498,195.767 				"/>
				
					<line style="fill:none;stroke:#263238;stroke-linecap:round;stroke-linejoin:round;stroke-miterlimit:10;" x1="368.194" y1="204.902" x2="372.346" y2="205.317"/>
			</g>
			<path style="fill:#263238;stroke:#263238;stroke-linecap:round;stroke-linejoin:round;stroke-miterlimit:10;" d="
				M346.189,152.587c0,0-2.491,7.889-1.453,9.965c1.038,2.076,2.906,6.851,2.906,6.851s0.623,6.02,1.246,7.266l0.623-20.967
				C349.51,155.701,348.887,150.303,346.189,152.587z"/>
			<path style="fill:#263238;stroke:#263238;stroke-linecap:round;stroke-linejoin:round;stroke-miterlimit:10;" d="
				M356.984,134.941c0,0-18.891,7.681-18.061,12.663c0.83,4.982,7.266,4.982,7.266,4.982s-4.982,5.398,5.19,7.266
				c10.172,1.868,29.271-6.851,29.271-6.851s-2.699,6.02,0,6.643c2.699,0.623,8.719-0.208,8.719-0.208s0.208,6.02,2.491,7.473
				c2.284,1.453,5.605,1.661,5.605,1.661s-1.246,11.625-0.208,12.248c1.038,0.623,1.246-0.415,1.453-1.038
				c0.208-0.623,1.661-7.473,1.661-7.473l2.076-1.038l0.623-5.397c0,0,5.398-8.512,3.737-13.494
				c-1.661-4.982-7.058-10.587-7.058-10.587s-7.474-10.172-21.59-11.625C364.042,128.713,356.984,134.941,356.984,134.941z"/>
		</g>
		<path style="fill:#FFFFFF;stroke:#263238;stroke-linecap:round;stroke-linejoin:round;stroke-miterlimit:10;" d="M305.286,302.475
			c0,0,0.655,2.228-0.131,10.746c-0.786,8.518-0.917,18.609,2.883,24.244c3.8,5.635,14.546,8.518,18.216,6.945
			c3.669-1.573,4.718-4.324,4.849-11.139c0.131-6.814-9.173-32.631-9.173-32.631l-16.381-2.097L305.286,302.475z"/>
		<path style="fill:#FFFFFF;stroke:#263238;stroke-linecap:round;stroke-linejoin:round;stroke-miterlimit:10;" d="M305.546,287.327
			c0,0-4.731-2.027-7.048-4.731c-2.317-2.703-5.213-6.951-5.986-7.241c-0.772-0.29-4.634,2.414-3.283,5.889
			c1.352,3.476,6.565,7.724,6.565,7.724s2.896,4.538,3.379,5.696s1.904,5.5,3.358,7.11c3.982,4.408,6.779,5.537,12.765,5.634
			c5.986,0.096,6.894-2.271,7.57-4.781c0.676-2.51,0.955-6.871,0.569-6.968c-0.386-0.097-16.441-3.409-17.117-5.05
			C305.642,288.969,305.546,287.327,305.546,287.327z"/>
		<g>
			<path style="fill:none;stroke:#263238;stroke-width:12;stroke-linecap:round;stroke-linejoin:round;stroke-miterlimit:10;" d="
				M267.156,360.571v-29.788c0-21.975,17.815-39.79,39.79-39.79h0c21.975,0,39.79,17.815,39.79,39.79v83.06
				c0,17.172,13.921,31.093,31.093,31.093l0,0c17.172,0,31.093-13.921,31.093-31.093V220.544"/>
			<g>
				<g>
					
						<rect x="257.641" y="354.253" style="fill:#92E3A9;stroke:#263238;stroke-linecap:round;stroke-linejoin:round;stroke-miterlimit:10;" width="19.765" height="21.199"/>
					
						<rect x="273.946" y="354.253" style="fill:#92E3A9;stroke:#263238;stroke-linecap:round;stroke-linejoin:round;stroke-miterlimit:10;" width="3.461" height="21.199"/>
					
						<line style="fill:none;stroke:#263238;stroke-linecap:round;stroke-linejoin:round;stroke-miterlimit:10;" x1="258.279" y1="359.672" x2="277.247" y2="359.672"/>
					
						<line style="fill:none;stroke:#263238;stroke-linecap:round;stroke-linejoin:round;stroke-miterlimit:10;" x1="258.279" y1="363.657" x2="277.247" y2="363.657"/>
					
						<line style="fill:none;stroke:#263238;stroke-linecap:round;stroke-linejoin:round;stroke-miterlimit:10;" x1="258.279" y1="367.642" x2="277.247" y2="367.642"/>
					
						<line style="fill:none;stroke:#263238;stroke-linecap:round;stroke-linejoin:round;stroke-miterlimit:10;" x1="258.279" y1="371.627" x2="277.247" y2="371.627"/>
				</g>
				<g>
					
						<rect x="266.089" y="379.437" style="fill:#263238;stroke:#263238;stroke-linecap:round;stroke-linejoin:round;stroke-miterlimit:10;" width="11.476" height="41.761"/>
					<g>
						
							<rect x="254.155" y="415.998" style="fill:#FFFFFF;stroke:#263238;stroke-linecap:round;stroke-linejoin:round;stroke-miterlimit:10;" width="21.733" height="24.881"/>
						<g>
							
								<rect x="257.727" y="425.066" style="fill:#CCCCCC;stroke:#263238;stroke-linecap:round;stroke-linejoin:round;stroke-miterlimit:10;" width="1.843" height="15.813"/>
							
								<rect x="261.273" y="425.066" style="fill:#CCCCCC;stroke:#263238;stroke-linecap:round;stroke-linejoin:round;stroke-miterlimit:10;" width="1.843" height="15.813"/>
							
								<rect x="264.82" y="425.066" style="fill:#CCCCCC;stroke:#263238;stroke-linecap:round;stroke-linejoin:round;stroke-miterlimit:10;" width="1.843" height="15.813"/>
						</g>
						
							<rect x="270.792" y="415.998" style="fill:#FFFFFF;stroke:#263238;stroke-linecap:round;stroke-linejoin:round;stroke-miterlimit:10;" width="5.096" height="24.881"/>
					</g>
					<polygon style="fill:#92E3A9;stroke:#263238;stroke-linecap:round;stroke-linejoin:round;stroke-miterlimit:10;" points="
						265.319,421.717 268.568,421.717 271.542,381.454 275.66,381.454 275.66,440.831 281.379,440.831 281.379,373.676 
						266.967,373.676 					"/>
					<polygon style="fill:#263238;stroke:#263238;stroke-linecap:round;stroke-linejoin:round;stroke-miterlimit:10;" points="
						265.319,421.717 252.142,421.717 250.495,373.676 266.967,373.676 					"/>
				</g>
			</g>
		</g>
		<g>
			<path style="fill:#FFFFFF;stroke:#263238;stroke-linecap:round;stroke-linejoin:round;stroke-miterlimit:10;" d="
				M320.217,289.611c0,0,3.54-0.708,4.169,1.18c0.629,1.888,0.079,6.764-0.551,8.81c-0.629,2.045-2.36,2.596-3.304,2.517
				c-0.944-0.079-2.202-1.18-2.202-1.18s1.258-3.382,1.337-6.686C319.746,290.948,320.217,289.611,320.217,289.611z"/>
			<path style="fill:#FFFFFF;stroke:#263238;stroke-linecap:round;stroke-linejoin:round;stroke-miterlimit:10;" d="
				M314.869,289.198c0,0,2.832-0.315,4.326,0.551c1.494,0.865,0.708,5.506,0.393,8.495c-0.315,2.989-1.809,4.326-3.382,4.247
				c-1.573-0.079-3.854-1.416-3.854-2.202s-0.079-1.18-0.079-1.18s0.629-0.472,1.101-3.304
				C313.846,292.974,314.869,289.198,314.869,289.198z"/>
			<path style="fill:#FFFFFF;stroke:#263238;stroke-linecap:round;stroke-linejoin:round;stroke-miterlimit:10;" d="
				M309.033,289.895c0,0,2.315-1.052,4.209-0.211c1.894,0.842,1.183,2.17,0.762,6.799c-0.421,4.63-1.966,6.214-3.854,5.821
				c-1.253-0.261-3.295-0.768-3.468-2.59C306.508,297.891,309.033,289.895,309.033,289.895z"/>
			<path style="fill:#FFFFFF;stroke:#263238;stroke-linecap:round;stroke-linejoin:round;stroke-miterlimit:10;" d="
				M307.295,294.005c0,0,0.746-2.537,0-4.477c-0.746-1.94-4.626-2.238-5.223-0.746c-0.597,1.492-1.492,8.953-0.895,9.848
				c0.597,0.895,3.16,1.692,4.178,0.895C306.373,298.729,307.295,294.005,307.295,294.005z"/>
		</g>
		<path style="fill:#FFFFFF;stroke:#263238;stroke-linecap:round;stroke-linejoin:round;stroke-miterlimit:10;" d="M431.033,289.84
			c0,0-8.416-7.685-12.832-13.943c-4.416-6.258-9.984-8.475-14.945-10.043c-4.962-1.568-8.68,0.835-8.513,3.525
			c0.168,2.69,2.851,4.486,2.851,4.486s-2.596,12.948-1.564,15.484c1.032,2.536,0.181,4.516,1.665,6.837
			c1.484,2.322,4.483,3.883,13.686,5.229c9.203,1.346,10.322,1.37,10.322,1.37s23.389,38.636,28.753,43.209
			c5.364,4.573,15.964,5.001,19.746,1.205c3.782-3.796,3.909-18.088,1.935-20.902C470.165,323.483,431.033,289.84,431.033,289.84z"
			/>
	</g>
</g>
<g id="Line">
	
		<line style="fill:none;stroke:#263238;stroke-linecap:round;stroke-linejoin:round;stroke-miterlimit:10;" x1="474.537" y1="472.424" x2="25.567" y2="472.424"/>
</g>
</svg>
