<svg width="150" height="150" viewBox="0 0 150 150" fill="none" xmlns="http://www.w3.org/2000/svg">
<path d="M23.634 102.519C22.2461 97.1029 21.9926 91.4584 22.8893 85.9396C23.7861 80.4209 25.8137 75.147 28.845 70.449C30.417 68.049 32.304 65.76 34.788 64.317C37.272 62.874 40.446 62.4 43.044 63.6C45.999 64.992 47.589 68.154 49.32 70.923C51.051 73.692 53.628 76.509 56.892 76.383C58.836 76.308 60.564 75.183 62.133 74.031C78.204 62.256 89.658 44.007 107.961 36.138C112.011 34.395 116.775 33.252 120.738 35.187C125.082 37.308 127.059 42.474 127.509 47.289C128.208 54.789 126.147 62.352 122.619 68.997C119.091 75.642 114.141 81.432 108.819 86.754C95.049 100.539 77.919 111.762 58.719 114.99C52.287 116.07 45.597 116.229 39.315 114.465C33.033 112.701 27.186 108.864 23.841 103.26C23.859 103.752 23.634 102.519 23.634 102.519Z" fill="#2970E8"/>
<g opacity="0.9">
<path d="M23.634 102.519C22.2461 97.1029 21.9926 91.4584 22.8893 85.9396C23.7861 80.4209 25.8137 75.147 28.845 70.449C30.417 68.049 32.304 65.76 34.788 64.317C37.272 62.874 40.446 62.4 43.044 63.6C45.999 64.992 47.589 68.154 49.32 70.923C51.051 73.692 53.628 76.509 56.892 76.383C58.836 76.308 60.564 75.183 62.133 74.031C78.204 62.256 89.658 44.007 107.961 36.138C112.011 34.395 116.775 33.252 120.738 35.187C125.082 37.308 127.059 42.474 127.509 47.289C128.208 54.789 126.147 62.352 122.619 68.997C119.091 75.642 114.141 81.432 108.819 86.754C95.049 100.539 77.919 111.762 58.719 114.99C52.287 116.07 45.597 116.229 39.315 114.465C33.033 112.701 27.186 108.864 23.841 103.26C23.859 103.752 23.634 102.519 23.634 102.519Z" fill="white"/>
</g>
<path d="M84.966 72.81H65.16V124.929H84.966V72.81Z" fill="#2970E8"/>
<path opacity="0.5" d="M85.029 72.81H70.26V124.929H85.029V72.81Z" fill="black"/>
<path d="M110.841 90.579H91.035V124.926H110.841V90.579Z" fill="#2970E8"/>
<path opacity="0.3" d="M110.841 90.498H96.072V124.929H110.841V90.498Z" fill="black"/>
<path d="M58.965 82.104H39.159V124.926H58.965V82.104Z" fill="#2970E8"/>
<path opacity="0.4" d="M58.965 81.999H44.196V124.926H58.965V81.999Z" fill="black"/>
<path d="M46.869 124.983C46.842 125.622 48.861 126.225 51.369 126.333C53.877 126.441 55.95 126.009 55.977 125.37C56.004 124.731 53.985 124.131 51.477 124.023C48.969 123.915 46.896 124.347 46.869 124.983Z" fill="#2970E8"/>
<path d="M46.918 123.825L46.869 124.979L55.9868 125.366L56.0358 124.212L46.918 123.825Z" fill="#2970E8"/>
<path d="M46.917 123.828C46.89 124.467 48.909 125.07 51.417 125.178C53.925 125.286 55.998 124.854 56.025 124.215C56.052 123.576 54.033 122.976 51.525 122.868C49.017 122.76 46.944 123.192 46.917 123.828Z" fill="#2970E8"/>
<path opacity="0.4" d="M46.917 123.828C46.89 124.467 48.909 125.07 51.417 125.178C53.925 125.286 55.998 124.854 56.025 124.215C56.052 123.576 54.033 122.976 51.525 122.868C49.017 122.76 46.944 123.192 46.917 123.828Z" fill="white"/>
<path d="M47.499 123.81C47.499 123.851 47.5127 123.891 47.538 123.924C47.838 123.549 49.509 123.324 51.501 123.411C53.493 123.498 55.14 123.858 55.401 124.257C55.4307 124.228 55.4479 124.188 55.449 124.146C55.467 123.714 53.703 123.282 51.504 123.189C49.305 123.096 47.517 123.378 47.499 123.81Z" fill="#2970E8"/>
<path opacity="0.4" d="M47.499 123.81C47.499 123.851 47.5127 123.891 47.538 123.924C47.838 123.549 49.509 123.324 51.501 123.411C53.493 123.498 55.14 123.858 55.401 124.257C55.4307 124.228 55.4479 124.188 55.449 124.146C55.467 123.714 53.703 123.282 51.504 123.189C49.305 123.096 47.517 123.378 47.499 123.81Z" fill="#2970E8"/>
<path opacity="0.4" d="M47.538 123.924C47.811 124.323 49.452 124.683 51.438 124.767C53.424 124.851 55.101 124.632 55.401 124.257C55.134 123.858 53.493 123.498 51.501 123.411C49.509 123.324 47.844 123.549 47.538 123.924Z" fill="#2970E8"/>
<path d="M45.9 123.234C45.873 123.873 47.892 124.476 50.4 124.584C52.908 124.692 54.981 124.26 55.008 123.624C55.035 122.988 53.016 122.382 50.508 122.274C48 122.166 45.939 122.598 45.9 123.234Z" fill="#2970E8"/>
<path d="M45.961 122.082L45.912 123.236L55.0298 123.623L55.0788 122.469L45.961 122.082Z" fill="#2970E8"/>
<path d="M45.96 122.082C45.933 122.718 47.952 123.321 50.46 123.429C52.968 123.537 55.041 123.105 55.068 122.469C55.095 121.833 53.076 121.227 50.568 121.119C48.06 121.011 45.987 121.443 45.96 122.082Z" fill="#2970E8"/>
<path opacity="0.4" d="M45.96 122.082C45.933 122.718 47.952 123.321 50.46 123.429C52.968 123.537 55.041 123.105 55.068 122.469C55.095 121.833 53.076 121.227 50.568 121.119C48.06 121.011 45.987 121.443 45.96 122.082Z" fill="white"/>
<path d="M46.5419 122.061C46.5407 122.102 46.5546 122.143 46.581 122.175C46.881 121.8 48.5519 121.575 50.5439 121.665C52.5359 121.755 54.1829 122.109 54.4439 122.508C54.4713 122.478 54.4881 122.44 54.4919 122.4C54.5099 121.968 52.746 121.533 50.547 121.44C48.348 121.347 46.5599 121.629 46.5419 122.061Z" fill="#2970E8"/>
<path opacity="0.4" d="M46.5419 122.061C46.5407 122.102 46.5546 122.143 46.581 122.175C46.881 121.8 48.5519 121.575 50.5439 121.665C52.5359 121.755 54.1829 122.109 54.4439 122.508C54.4713 122.478 54.4881 122.44 54.4919 122.4C54.5099 121.968 52.746 121.533 50.547 121.44C48.348 121.347 46.5599 121.629 46.5419 122.061Z" fill="#2970E8"/>
<path opacity="0.4" d="M46.581 122.175C46.851 122.574 48.495 122.934 50.481 123.018C52.467 123.102 54.144 122.883 54.444 122.508C54.177 122.109 52.536 121.749 50.544 121.665C48.552 121.581 46.884 121.8 46.581 122.175Z" fill="#2970E8"/>
<path d="M46.035 121.128C46.008 121.767 48.027 122.37 50.535 122.478C53.043 122.586 55.116 122.154 55.143 121.515C55.17 120.876 53.151 120.276 50.643 120.168C48.135 120.06 46.062 120.492 46.035 121.128Z" fill="#2970E8"/>
<path d="M46.0851 119.974L46.0361 121.128L55.1539 121.515L55.2029 120.361L46.0851 119.974Z" fill="#2970E8"/>
<path d="M46.083 119.973C46.056 120.612 48.075 121.215 50.583 121.323C53.091 121.431 55.161 120.999 55.188 120.363C55.215 119.727 53.196 119.121 50.688 119.013C48.18 118.905 46.11 119.337 46.083 119.973Z" fill="#2970E8"/>
<path opacity="0.4" d="M46.083 119.973C46.056 120.612 48.075 121.215 50.583 121.323C53.091 121.431 55.161 120.999 55.188 120.363C55.215 119.727 53.196 119.121 50.688 119.013C48.18 118.905 46.11 119.337 46.083 119.973Z" fill="white"/>
<path d="M46.665 119.955C46.665 119.996 46.6787 120.036 46.704 120.069C47.004 119.694 48.675 119.469 50.667 119.559C52.659 119.649 54.306 120.003 54.567 120.402C54.5965 120.374 54.6138 120.335 54.615 120.294C54.633 119.862 52.869 119.427 50.67 119.334C48.471 119.241 46.683 119.523 46.665 119.955Z" fill="#2970E8"/>
<path opacity="0.4" d="M46.665 119.955C46.665 119.996 46.6787 120.036 46.704 120.069C47.004 119.694 48.675 119.469 50.667 119.559C52.659 119.649 54.306 120.003 54.567 120.402C54.5965 120.374 54.6138 120.335 54.615 120.294C54.633 119.862 52.869 119.427 50.67 119.334C48.471 119.241 46.683 119.523 46.665 119.955Z" fill="#2970E8"/>
<path opacity="0.4" d="M46.704 120.069C46.977 120.468 48.618 120.828 50.604 120.912C52.59 120.996 54.267 120.777 54.567 120.402C54.3 120.003 52.659 119.643 50.667 119.559C48.675 119.475 47.01 119.7 46.704 120.069Z" fill="#2970E8"/>
<path d="M45.078 119.382C45.051 120.018 47.07 120.621 49.578 120.729C52.086 120.837 54.159 120.405 54.186 119.769C54.213 119.133 52.194 118.527 49.686 118.419C47.178 118.311 45.105 118.743 45.078 119.382Z" fill="#2970E8"/>
<path d="M45.1251 118.219L45.0761 119.373L54.1939 119.76L54.2429 118.606L45.1251 118.219Z" fill="#2970E8"/>
<path d="M45.126 118.227C45.099 118.863 47.118 119.466 49.626 119.574C52.134 119.682 54.207 119.25 54.234 118.614C54.261 117.978 52.242 117.372 49.734 117.264C47.226 117.156 45.153 117.6 45.126 118.227Z" fill="#2970E8"/>
<path opacity="0.4" d="M45.126 118.227C45.099 118.863 47.118 119.466 49.626 119.574C52.134 119.682 54.207 119.25 54.234 118.614C54.261 117.978 52.242 117.372 49.734 117.264C47.226 117.156 45.153 117.6 45.126 118.227Z" fill="white"/>
<path d="M45.708 118.2C45.7062 118.242 45.7201 118.282 45.747 118.314C46.047 117.939 47.718 117.714 49.71 117.804C51.702 117.894 53.349 118.248 53.61 118.647C53.6373 118.617 53.6542 118.579 53.658 118.539C53.676 118.107 51.912 117.672 49.713 117.579C47.514 117.486 45.726 117.774 45.708 118.2Z" fill="#2970E8"/>
<path opacity="0.4" d="M45.708 118.2C45.7062 118.242 45.7201 118.282 45.747 118.314C46.047 117.939 47.718 117.714 49.71 117.804C51.702 117.894 53.349 118.248 53.61 118.647C53.6373 118.617 53.6542 118.579 53.658 118.539C53.676 118.107 51.912 117.672 49.713 117.579C47.514 117.486 45.726 117.774 45.708 118.2Z" fill="#2970E8"/>
<path opacity="0.4" d="M45.7469 118.32C46.0169 118.719 47.6609 119.079 49.6469 119.163C51.6329 119.247 53.3099 119.028 53.6099 118.653C53.3429 118.254 51.7019 117.894 49.7099 117.81C47.7179 117.726 46.0499 117.945 45.7469 118.32Z" fill="#2970E8"/>
<path d="M46.539 117.9C46.512 118.536 48.531 119.139 51.039 119.247C53.547 119.355 55.62 118.923 55.647 118.287C55.674 117.651 53.655 117.045 51.147 116.937C48.639 116.829 46.566 117.261 46.539 117.9Z" fill="#2970E8"/>
<path d="M46.5894 116.745L46.5404 117.898L55.6582 118.285L55.7072 117.131L46.5894 116.745Z" fill="#2970E8"/>
<path d="M46.59 116.745C46.563 117.381 48.582 117.984 51.09 118.092C53.598 118.2 55.671 117.768 55.698 117.132C55.725 116.496 53.706 115.89 51.198 115.782C48.69 115.674 46.617 116.1 46.59 116.745Z" fill="#2970E8"/>
<path opacity="0.4" d="M46.59 116.745C46.563 117.381 48.582 117.984 51.09 118.092C53.598 118.2 55.671 117.768 55.698 117.132C55.725 116.496 53.706 115.89 51.198 115.782C48.69 115.674 46.617 116.1 46.59 116.745Z" fill="white"/>
<path d="M47.1689 116.724C47.17 116.765 47.1836 116.805 47.2079 116.838C47.5079 116.463 49.1819 116.238 51.1709 116.328C53.1599 116.418 54.8129 116.772 55.0709 117.171C55.1002 117.142 55.1182 117.104 55.1219 117.063C55.1399 116.631 53.3759 116.196 51.1769 116.103C48.9779 116.01 47.1899 116.292 47.1689 116.724Z" fill="#2970E8"/>
<path opacity="0.4" d="M47.1689 116.724C47.17 116.765 47.1836 116.805 47.2079 116.838C47.5079 116.463 49.1819 116.238 51.1709 116.328C53.1599 116.418 54.8129 116.772 55.0709 117.171C55.1002 117.142 55.1182 117.104 55.1219 117.063C55.1399 116.631 53.3759 116.196 51.1769 116.103C48.9779 116.01 47.1899 116.292 47.1689 116.724Z" fill="#2970E8"/>
<path opacity="0.4" d="M47.2079 116.838C47.4809 117.237 49.1219 117.597 51.1079 117.681C53.0939 117.765 54.7739 117.546 55.0709 117.171C54.8069 116.772 53.1629 116.412 51.1709 116.328C49.1789 116.244 47.5139 116.463 47.2079 116.838Z" fill="#2970E8"/>
<path d="M45.582 116.151C45.555 116.787 47.574 117.393 50.082 117.498C52.59 117.603 54.663 117.174 54.69 116.538C54.717 115.902 52.698 115.296 50.19 115.188C47.682 115.08 45.6 115.5 45.582 116.151Z" fill="#2970E8"/>
<path d="M45.6294 114.993L45.5804 116.146L54.6982 116.533L54.7472 115.379L45.6294 114.993Z" fill="#2970E8"/>
<path d="M45.63 114.996C45.603 115.632 47.622 116.238 50.13 116.343C52.638 116.448 54.711 116.022 54.738 115.383C54.765 114.744 52.746 114.141 50.238 114.033C47.73 113.925 45.657 114.357 45.63 114.996Z" fill="#2970E8"/>
<path opacity="0.4" d="M45.63 114.996C45.603 115.632 47.622 116.238 50.13 116.343C52.638 116.448 54.711 116.022 54.738 115.383C54.765 114.744 52.746 114.141 50.238 114.033C47.73 113.925 45.657 114.357 45.63 114.996Z" fill="white"/>
<path d="M46.2 114.975C46.199 115.016 46.2128 115.057 46.239 115.089C46.539 114.714 48.21 114.489 50.202 114.579C52.194 114.669 53.841 115.023 54.102 115.425C54.1312 115.395 54.1483 115.356 54.15 115.314C54.168 114.882 52.404 114.45 50.205 114.354C48.006 114.258 46.23 114.543 46.2 114.975Z" fill="#2970E8"/>
<path opacity="0.4" d="M46.2 114.975C46.199 115.016 46.2128 115.057 46.239 115.089C46.539 114.714 48.21 114.489 50.202 114.579C52.194 114.669 53.841 115.023 54.102 115.425C54.1312 115.395 54.1483 115.356 54.15 115.314C54.168 114.882 52.404 114.45 50.205 114.354C48.006 114.258 46.23 114.543 46.2 114.975Z" fill="#2970E8"/>
<path opacity="0.4" d="M46.251 115.089C46.524 115.488 48.165 115.848 50.151 115.935C52.137 116.022 53.814 115.8 54.114 115.425C53.847 115.023 52.206 114.663 50.214 114.579C48.222 114.495 46.557 114.714 46.251 115.089Z" fill="#2970E8"/>
<path d="M33.273 124.425C33.243 125.064 35.262 125.667 37.773 125.772C40.284 125.877 42.351 125.451 42.378 124.812C42.405 124.173 40.389 123.57 37.878 123.465C35.367 123.36 33.3 123.786 33.273 124.425Z" fill="#2970E8"/>
<path d="M33.3191 123.264L33.2701 124.418L42.3879 124.805L42.4368 123.651L33.3191 123.264Z" fill="#2970E8"/>
<path d="M33.3209 123.27C33.2939 123.909 35.3129 124.512 37.8209 124.62C40.3289 124.728 42.4019 124.296 42.4289 123.657C42.4559 123.018 40.4369 122.415 37.9289 122.31C35.4209 122.205 33.3479 122.631 33.3209 123.27Z" fill="#2970E8"/>
<path opacity="0.4" d="M33.3209 123.27C33.2939 123.909 35.3129 124.512 37.8209 124.62C40.3289 124.728 42.4019 124.296 42.4289 123.657C42.4559 123.018 40.4369 122.415 37.9289 122.31C35.4209 122.205 33.3479 122.631 33.3209 123.27Z" fill="white"/>
<path d="M33.9 123.249C33.8975 123.291 33.9115 123.332 33.939 123.363C34.239 122.988 35.91 122.763 37.902 122.853C39.894 122.943 41.541 123.3 41.802 123.699C41.8294 123.668 41.8462 123.629 41.85 123.588C41.868 123.156 40.104 122.724 37.905 122.631C35.706 122.538 33.921 122.817 33.9 123.249Z" fill="#2970E8"/>
<path opacity="0.4" d="M33.9 123.249C33.8975 123.291 33.9115 123.332 33.939 123.363C34.239 122.988 35.91 122.763 37.902 122.853C39.894 122.943 41.541 123.3 41.802 123.699C41.8294 123.668 41.8462 123.629 41.85 123.588C41.868 123.156 40.104 122.724 37.905 122.631C35.706 122.538 33.921 122.817 33.9 123.249Z" fill="#2970E8"/>
<path opacity="0.4" d="M33.942 123.363C34.212 123.762 35.856 124.125 37.842 124.209C39.828 124.293 41.505 124.074 41.805 123.699C41.538 123.3 39.897 122.937 37.905 122.853C35.913 122.769 34.245 123 33.942 123.363Z" fill="#2970E8"/>
<path d="M37.239 123.3C37.089 123.921 38.958 124.896 41.409 125.478C43.86 126.06 45.969 126.03 46.116 125.409C46.263 124.788 44.394 123.813 41.943 123.231C39.492 122.649 37.386 122.679 37.239 123.3Z" fill="#2970E8"/>
<path d="M37.5054 122.182L37.2382 123.306L46.1165 125.418L46.3837 124.294L37.5054 122.182Z" fill="#2970E8"/>
<path d="M37.4999 122.175C37.3499 122.796 39.2189 123.771 41.6699 124.356C44.1209 124.941 46.2299 124.908 46.3769 124.287C46.5239 123.666 44.6639 122.7 42.2099 122.1C39.7559 121.5 37.6529 121.554 37.4999 122.175Z" fill="#2970E8"/>
<path opacity="0.4" d="M37.4999 122.175C37.3499 122.796 39.2189 123.771 41.6699 124.356C44.1209 124.941 46.2299 124.908 46.3769 124.287C46.5239 123.666 44.6639 122.7 42.2099 122.1C39.7559 121.5 37.6529 121.554 37.4999 122.175Z" fill="white"/>
<path d="M38.079 122.265C38.0701 122.306 38.0765 122.349 38.097 122.385C38.466 122.085 40.146 122.175 42.084 122.637C44.022 123.099 45.573 123.765 45.759 124.206C45.7929 124.182 45.8173 124.147 45.828 124.107C45.927 123.687 44.277 122.928 42.135 122.418C39.993 121.908 38.181 121.845 38.079 122.265Z" fill="#2970E8"/>
<path opacity="0.4" d="M38.079 122.265C38.0701 122.306 38.0765 122.349 38.097 122.385C38.466 122.085 40.146 122.175 42.084 122.637C44.022 123.099 45.573 123.765 45.759 124.206C45.7929 124.182 45.8173 124.147 45.828 124.107C45.927 123.687 44.277 122.928 42.135 122.418C39.993 121.908 38.181 121.845 38.079 122.265Z" fill="#2970E8"/>
<path opacity="0.4" d="M38.1 122.4C38.292 122.844 39.834 123.51 41.775 123.969C43.716 124.428 45.396 124.533 45.762 124.221C45.576 123.78 44.031 123.114 42.087 122.652C40.143 122.19 38.466 122.073 38.1 122.4Z" fill="#2970E8"/>
<path d="M48.8099 115.77C51.0798 115.77 52.9199 113.93 52.9199 111.66C52.9199 109.39 51.0798 107.55 48.8099 107.55C46.5401 107.55 44.7 109.39 44.7 111.66C44.7 113.93 46.5401 115.77 48.8099 115.77Z" fill="#2970E8"/>
<path d="M49.302 115.77C51.5718 115.77 53.412 113.93 53.412 111.66C53.412 109.39 51.5718 107.55 49.302 107.55C47.0321 107.55 45.192 109.39 45.192 111.66C45.192 113.93 47.0321 115.77 49.302 115.77Z" fill="#2970E8"/>
<path opacity="0.5" d="M49.302 115.77C51.5718 115.77 53.412 113.93 53.412 111.66C53.412 109.39 51.5718 107.55 49.302 107.55C47.0321 107.55 45.192 109.39 45.192 111.66C45.192 113.93 47.0321 115.77 49.302 115.77Z" fill="white"/>
<path d="M51.4788 113.836C52.6808 112.634 52.6808 110.685 51.4788 109.483C50.2767 108.281 48.3278 108.281 47.1258 109.483C45.9238 110.685 45.9238 112.634 47.1258 113.836C48.3279 115.038 50.2767 115.038 51.4788 113.836Z" fill="#2970E8"/>
<path opacity="0.3" d="M50.547 112.677C50.4226 112.806 50.2727 112.907 50.1068 112.974C49.9409 113.041 49.7628 113.073 49.584 113.067C49.31 113.076 49.0399 113 48.8103 112.851C48.5806 112.701 48.4025 112.484 48.3 112.23H49.956V111.876H48.21C48.207 111.822 48.207 111.768 48.21 111.714C48.2069 111.66 48.2069 111.606 48.21 111.552H49.953V111.198H48.3C48.4027 110.943 48.5812 110.726 48.8115 110.577C49.0417 110.427 49.3125 110.352 49.587 110.361C49.7656 110.355 49.9436 110.386 50.1094 110.453C50.2753 110.519 50.4253 110.62 50.55 110.748L50.598 110.796L50.931 110.469L50.886 110.421C50.7153 110.246 50.5099 110.11 50.283 110.02C50.0561 109.93 49.8128 109.889 49.569 109.899C49.1669 109.883 48.7712 110.003 48.4449 110.238C48.1186 110.473 47.8807 110.811 47.769 111.198H47.184V111.552H47.7C47.7 111.606 47.7 111.66 47.7 111.714C47.7 111.768 47.7 111.822 47.7 111.876H47.178V112.23H47.763C47.8747 112.617 48.1126 112.955 48.4389 113.19C48.7652 113.425 49.1609 113.545 49.563 113.529C49.8073 113.538 50.0507 113.496 50.2776 113.405C50.5045 113.314 50.7098 113.176 50.88 113.001L50.925 112.953L50.592 112.626L50.547 112.677Z" fill="white"/>
<path d="M106.881 125.547C106.857 126.183 104.799 126.627 102.279 126.537C99.759 126.447 97.74 125.856 97.761 125.22C97.782 124.584 99.846 124.137 102.363 124.227C104.88 124.317 106.905 124.908 106.881 125.547Z" fill="#2970E8"/>
<path d="M97.7986 124.055L97.7573 125.209L106.877 125.536L106.919 124.382L97.7986 124.055Z" fill="#2970E8"/>
<path d="M106.923 124.392C106.899 125.028 104.841 125.472 102.321 125.382C99.801 125.292 97.782 124.701 97.803 124.065C97.824 123.429 99.885 122.982 102.405 123.072C104.925 123.162 106.947 123.753 106.923 124.392Z" fill="#2970E8"/>
<path opacity="0.4" d="M106.923 124.392C106.899 125.028 104.841 125.472 102.321 125.382C99.801 125.292 97.782 124.701 97.803 124.065C97.824 123.429 99.885 122.982 102.405 123.072C104.925 123.162 106.947 123.753 106.923 124.392Z" fill="white"/>
<path d="M106.344 124.326C106.342 124.368 106.325 124.407 106.296 124.437C106.023 124.038 104.379 123.687 102.396 123.618C100.413 123.549 98.733 123.777 98.436 124.152C98.4096 124.121 98.3948 124.082 98.394 124.041C98.412 123.609 100.194 123.315 102.402 123.393C104.61 123.471 106.359 123.9 106.344 124.326Z" fill="#2970E8"/>
<path opacity="0.4" d="M106.344 124.326C106.342 124.368 106.325 124.407 106.296 124.437C106.023 124.038 104.379 123.687 102.396 123.618C100.413 123.549 98.733 123.777 98.436 124.152C98.4096 124.121 98.3948 124.082 98.394 124.041C98.412 123.609 100.194 123.315 102.402 123.393C104.61 123.471 106.359 123.9 106.344 124.326Z" fill="#2970E8"/>
<path opacity="0.4" d="M106.296 124.437C105.996 124.812 104.328 125.037 102.336 124.971C100.344 124.905 98.694 124.551 98.436 124.152C98.736 123.777 100.398 123.552 102.396 123.618C104.394 123.684 106.023 124.038 106.296 124.437Z" fill="#2970E8"/>
<path d="M107.973 123.879C107.949 124.515 105.891 124.959 103.371 124.869C100.851 124.779 98.8319 124.188 98.8529 123.549C98.8739 122.91 100.938 122.469 103.455 122.559C105.972 122.649 108 123.24 107.973 123.879Z" fill="#2970E8"/>
<path d="M98.9001 122.403L98.8586 123.558L107.979 123.886L108.02 122.732L98.9001 122.403Z" fill="#2970E8"/>
<path d="M108.015 122.724C107.991 123.36 105.933 123.804 103.413 123.714C100.893 123.624 98.871 123.033 98.895 122.394C98.919 121.755 100.977 121.314 103.497 121.404C106.017 121.494 108.036 122.1 108.015 122.724Z" fill="#2970E8"/>
<path opacity="0.4" d="M108.015 122.724C107.991 123.36 105.933 123.804 103.413 123.714C100.893 123.624 98.871 123.033 98.895 122.394C98.919 121.755 100.977 121.314 103.497 121.404C106.017 121.494 108.036 122.1 108.015 122.724Z" fill="white"/>
<path d="M107.436 122.658C107.435 122.699 107.418 122.738 107.388 122.766C107.115 122.37 105.471 122.019 103.488 121.95C101.505 121.881 99.822 122.109 99.528 122.484C99.5016 122.453 99.4868 122.414 99.486 122.373C99.504 121.941 101.286 121.647 103.494 121.725C105.702 121.803 107.451 122.226 107.436 122.658Z" fill="#2970E8"/>
<path opacity="0.4" d="M107.436 122.658C107.435 122.699 107.418 122.738 107.388 122.766C107.115 122.37 105.471 122.019 103.488 121.95C101.505 121.881 99.822 122.109 99.528 122.484C99.5016 122.453 99.4868 122.414 99.486 122.373C99.504 121.941 101.286 121.647 103.494 121.725C105.702 121.803 107.451 122.226 107.436 122.658Z" fill="#2970E8"/>
<path opacity="0.4" d="M107.4 122.766C107.1 123.144 105.432 123.366 103.44 123.303C101.448 123.24 99.798 122.883 99.54 122.484C99.84 122.109 101.502 121.884 103.5 121.95C105.498 122.016 107.115 122.37 107.4 122.766Z" fill="#2970E8"/>
<path d="M108.015 121.767C107.991 122.406 105.93 122.85 103.413 122.76C100.896 122.67 98.871 122.079 98.895 121.44C98.919 120.801 100.977 120.36 103.497 120.45C106.017 120.54 108.036 121.131 108.015 121.767Z" fill="#2970E8"/>
<path d="M98.939 120.294L98.8975 121.448L108.018 121.776L108.059 120.622L98.939 120.294Z" fill="#2970E8"/>
<path d="M108.057 120.6C108.033 121.239 105.972 121.683 103.455 121.593C100.938 121.503 98.913 120.912 98.937 120.273C98.961 119.634 101.019 119.193 103.536 119.283C106.053 119.373 108.078 119.976 108.057 120.6Z" fill="#2970E8"/>
<path opacity="0.4" d="M108.057 120.6C108.033 121.239 105.972 121.683 103.455 121.593C100.938 121.503 98.913 120.912 98.937 120.273C98.961 119.634 101.019 119.193 103.536 119.283C106.053 119.373 108.078 119.976 108.057 120.6Z" fill="white"/>
<path d="M107.478 120.549C107.474 120.589 107.457 120.627 107.43 120.657C107.154 120.261 105.51 119.91 103.53 119.838C101.55 119.766 99.867 119.997 99.57 120.375C99.5438 120.343 99.53 120.302 99.531 120.261C99.531 119.829 101.331 119.538 103.539 119.616C105.747 119.694 107.493 120.117 107.478 120.549Z" fill="#2970E8"/>
<path opacity="0.4" d="M107.478 120.549C107.474 120.589 107.457 120.627 107.43 120.657C107.154 120.261 105.51 119.91 103.53 119.838C101.55 119.766 99.867 119.997 99.57 120.375C99.5438 120.343 99.53 120.302 99.531 120.261C99.531 119.829 101.331 119.538 103.539 119.616C105.747 119.694 107.493 120.117 107.478 120.549Z" fill="#2970E8"/>
<path opacity="0.4" d="M107.43 120.657C107.13 121.035 105.462 121.257 103.47 121.194C101.478 121.131 99.8279 120.774 99.5699 120.375C99.8699 119.997 101.532 119.775 103.53 119.838C105.528 119.901 107.154 120.261 107.43 120.657Z" fill="#2970E8"/>
<path d="M109.107 120.099C109.083 120.738 107.022 121.182 104.505 121.092C101.988 121.002 99.963 120.411 99.987 119.772C100.011 119.133 102.069 118.692 104.589 118.782C107.109 118.872 109.128 119.463 109.107 120.099Z" fill="#2970E8"/>
<path d="M100.021 118.612L99.9794 119.766L109.1 120.092L109.141 118.938L100.021 118.612Z" fill="#2970E8"/>
<path d="M109.146 118.944C109.125 119.583 107.064 120.027 104.547 119.937C102.03 119.847 100.005 119.256 100.029 118.617C100.053 117.978 102.111 117.537 104.628 117.627C107.145 117.717 109.17 118.308 109.146 118.944Z" fill="#2970E8"/>
<path opacity="0.4" d="M109.146 118.944C109.125 119.583 107.064 120.027 104.547 119.937C102.03 119.847 100.005 119.256 100.029 118.617C100.053 117.978 102.111 117.537 104.628 117.627C107.145 117.717 109.17 118.308 109.146 118.944Z" fill="white"/>
<path d="M108.57 118.881C108.566 118.921 108.549 118.959 108.522 118.989C108.246 118.593 106.602 118.242 104.622 118.17C102.642 118.098 100.959 118.329 100.662 118.707C100.636 118.675 100.622 118.634 100.623 118.593C100.638 118.161 102.423 117.87 104.631 117.948C106.839 118.026 108.6 118.449 108.57 118.881Z" fill="#2970E8"/>
<path opacity="0.4" d="M108.57 118.881C108.566 118.921 108.549 118.959 108.522 118.989C108.246 118.593 106.602 118.242 104.622 118.17C102.642 118.098 100.959 118.329 100.662 118.707C100.636 118.675 100.622 118.634 100.623 118.593C100.638 118.161 102.423 117.87 104.631 117.948C106.839 118.026 108.6 118.449 108.57 118.881Z" fill="#2970E8"/>
<path opacity="0.4" d="M108.522 118.989C108.222 119.367 106.554 119.589 104.562 119.526C102.57 119.463 100.92 119.106 100.662 118.707C100.962 118.329 102.624 118.107 104.622 118.17C106.62 118.233 108.246 118.593 108.522 118.989Z" fill="#2970E8"/>
<path d="M72.9 124.263C72.873 124.902 74.889 125.505 77.4 125.613C79.911 125.721 81.978 125.289 82.005 124.65C82.032 124.011 80.016 123.408 77.505 123.303C74.994 123.198 72.918 123.627 72.9 124.263Z" fill="#2970E8"/>
<path d="M72.9339 123.104L72.8849 124.258L82.0027 124.645L82.0517 123.491L72.9339 123.104Z" fill="#2970E8"/>
<path d="M72.939 123.108C72.912 123.747 74.931 124.35 77.439 124.458C79.947 124.566 82.02 124.134 82.047 123.495C82.074 122.856 80.055 122.253 77.547 122.148C75.039 122.043 72.966 122.472 72.939 123.108Z" fill="#2970E8"/>
<path opacity="0.4" d="M72.939 123.108C72.912 123.747 74.931 124.35 77.439 124.458C79.947 124.566 82.02 124.134 82.047 123.495C82.074 122.856 80.055 122.253 77.547 122.148C75.039 122.043 72.966 122.472 72.939 123.108Z" fill="white"/>
<path d="M73.521 123.09C73.5193 123.131 73.5333 123.17 73.56 123.201C73.86 122.826 75.531 122.601 77.523 122.691C79.515 122.781 81.162 123.138 81.423 123.537C81.4504 123.506 81.4672 123.467 81.471 123.426C81.489 122.994 79.725 122.562 77.526 122.469C75.327 122.376 73.539 122.658 73.521 123.09Z" fill="#2970E8"/>
<path opacity="0.4" d="M73.521 123.09C73.5193 123.131 73.5333 123.17 73.56 123.201C73.86 122.826 75.531 122.601 77.523 122.691C79.515 122.781 81.162 123.138 81.423 123.537C81.4504 123.506 81.4672 123.467 81.471 123.426C81.489 122.994 79.725 122.562 77.526 122.469C75.327 122.376 73.539 122.658 73.521 123.09Z" fill="#2970E8"/>
<path opacity="0.4" d="M73.56 123.201C73.83 123.603 75.474 123.963 77.46 124.047C79.446 124.131 81.123 123.912 81.423 123.537C81.156 123.138 79.515 122.778 77.523 122.691C75.531 122.604 73.863 122.826 73.56 123.201Z" fill="#2970E8"/>
<path d="M71.931 122.514C71.904 123.153 73.923 123.756 76.431 123.864C78.939 123.972 81.012 123.54 81.039 122.901C81.066 122.262 79.047 121.659 76.539 121.554C74.031 121.449 71.958 121.878 71.931 122.514Z" fill="#2970E8"/>
<path d="M71.9798 121.364L71.9308 122.518L81.0486 122.905L81.0976 121.751L71.9798 121.364Z" fill="#2970E8"/>
<path d="M71.982 121.359C71.955 121.998 73.974 122.601 76.482 122.709C78.99 122.817 81.063 122.385 81.09 121.746C81.117 121.107 79.098 120.507 76.59 120.399C74.082 120.291 72 120.723 71.982 121.359Z" fill="#2970E8"/>
<path opacity="0.4" d="M71.982 121.359C71.955 121.998 73.974 122.601 76.482 122.709C78.99 122.817 81.063 122.385 81.09 121.746C81.117 121.107 79.098 120.507 76.59 120.399C74.082 120.291 72 120.723 71.982 121.359Z" fill="white"/>
<path d="M72.561 121.341C72.5626 121.382 72.5761 121.422 72.6 121.455C72.9 121.08 74.574 120.855 76.563 120.942C78.552 121.029 80.205 121.389 80.463 121.788C80.4924 121.758 80.5104 121.719 80.514 121.677C80.532 121.245 78.768 120.813 76.569 120.72C74.37 120.627 72.582 120.9 72.561 121.341Z" fill="#2970E8"/>
<path opacity="0.4" d="M72.561 121.341C72.5626 121.382 72.5761 121.422 72.6 121.455C72.9 121.08 74.574 120.855 76.563 120.942C78.552 121.029 80.205 121.389 80.463 121.788C80.4924 121.758 80.5104 121.719 80.514 121.677C80.532 121.245 78.768 120.813 76.569 120.72C74.37 120.627 72.582 120.9 72.561 121.341Z" fill="#2970E8"/>
<path opacity="0.4" d="M72.6 121.455C72.873 121.854 74.514 122.214 76.5 122.298C78.486 122.382 80.166 122.163 80.463 121.788C80.199 121.389 78.555 121.029 76.563 120.942C74.571 120.855 72.9 121.08 72.6 121.455Z" fill="#2970E8"/>
<path d="M72.057 120.408C72.03 121.047 74.049 121.65 76.557 121.758C79.065 121.866 81.138 121.434 81.165 120.795C81.192 120.156 79.173 119.553 76.665 119.448C74.157 119.343 72.084 119.772 72.057 120.408Z" fill="#2970E8"/>
<path d="M72.104 119.253L72.0551 120.407L81.1729 120.794L81.2218 119.64L72.104 119.253Z" fill="#2970E8"/>
<path d="M72.105 119.253C72.078 119.892 74.097 120.495 76.605 120.603C79.113 120.711 81.186 120.279 81.213 119.64C81.24 119.001 79.221 118.398 76.713 118.293C74.205 118.188 72.132 118.617 72.105 119.253Z" fill="#2970E8"/>
<path opacity="0.4" d="M72.105 119.253C72.078 119.892 74.097 120.495 76.605 120.603C79.113 120.711 81.186 120.279 81.213 119.64C81.24 119.001 79.221 118.398 76.713 118.293C74.205 118.188 72.132 118.617 72.105 119.253Z" fill="white"/>
<path d="M72.687 119.235C72.6853 119.276 72.6993 119.315 72.726 119.346C73.026 118.974 74.697 118.746 76.689 118.836C78.681 118.926 80.328 119.283 80.589 119.682C80.6163 119.651 80.6331 119.612 80.637 119.571C80.655 119.139 78.891 118.707 76.692 118.614C74.493 118.521 72.705 118.8 72.687 119.235Z" fill="#2970E8"/>
<path opacity="0.4" d="M72.687 119.235C72.6853 119.276 72.6993 119.315 72.726 119.346C73.026 118.974 74.697 118.746 76.689 118.836C78.681 118.926 80.328 119.283 80.589 119.682C80.6163 119.651 80.6331 119.612 80.637 119.571C80.655 119.139 78.891 118.707 76.692 118.614C74.493 118.521 72.705 118.8 72.687 119.235Z" fill="#2970E8"/>
<path opacity="0.4" d="M72.726 119.346C72.996 119.748 74.64 120.108 76.626 120.192C78.612 120.276 80.289 120.057 80.589 119.682C80.322 119.283 78.681 118.923 76.689 118.836C74.697 118.749 73.029 118.974 72.726 119.346Z" fill="#2970E8"/>
<path d="M71.1 118.659C71.073 119.298 73.092 119.901 75.6 120.009C78.108 120.117 80.181 119.685 80.208 119.046C80.235 118.407 78.216 117.807 75.708 117.699C73.2 117.591 71.124 118.023 71.1 118.659Z" fill="#2970E8"/>
<path d="M71.1439 117.501L71.095 118.655L80.2128 119.042L80.2617 117.888L71.1439 117.501Z" fill="#2970E8"/>
<path d="M71.148 117.504C71.121 118.143 73.14 118.746 75.648 118.854C78.156 118.962 80.229 118.53 80.256 117.891C80.283 117.252 78.264 116.652 75.756 116.544C73.248 116.436 71.175 116.868 71.148 117.504Z" fill="#2970E8"/>
<path opacity="0.4" d="M71.148 117.504C71.121 118.143 73.14 118.746 75.648 118.854C78.156 118.962 80.229 118.53 80.256 117.891C80.283 117.252 78.264 116.652 75.756 116.544C73.248 116.436 71.175 116.868 71.148 117.504Z" fill="white"/>
<path d="M71.73 117.486C71.7289 117.527 71.7416 117.567 71.766 117.6C72.066 117.225 73.74 117 75.732 117.09C77.724 117.18 79.371 117.534 79.632 117.933C79.6599 117.902 79.6768 117.863 79.68 117.822C79.698 117.393 77.934 116.958 75.735 116.865C73.536 116.772 71.748 117.054 71.73 117.486Z" fill="#2970E8"/>
<path opacity="0.4" d="M71.73 117.486C71.7289 117.527 71.7416 117.567 71.766 117.6C72.066 117.225 73.74 117 75.732 117.09C77.724 117.18 79.371 117.534 79.632 117.933C79.6599 117.902 79.6768 117.863 79.68 117.822C79.698 117.393 77.934 116.958 75.735 116.865C73.536 116.772 71.748 117.054 71.73 117.486Z" fill="#2970E8"/>
<path opacity="0.4" d="M71.766 117.6C72.039 117.999 73.68 118.359 75.666 118.443C77.652 118.527 79.332 118.308 79.632 117.933C79.365 117.534 77.721 117.174 75.732 117.09C73.743 117.006 72.072 117.225 71.766 117.6Z" fill="#2970E8"/>
<path d="M72.561 117.177C72.534 117.816 74.553 118.419 77.061 118.527C79.569 118.635 81.642 118.203 81.669 117.564C81.696 116.925 79.677 116.325 77.169 116.217C74.661 116.109 72.6 116.541 72.561 117.177Z" fill="#2970E8"/>
<path d="M72.6113 116.023L72.5624 117.177L81.6802 117.564L81.7291 116.41L72.6113 116.023Z" fill="#2970E8"/>
<path d="M72.6 116.022C72.573 116.661 74.592 117.264 77.1 117.372C79.608 117.48 81.681 117.048 81.708 116.409C81.735 115.77 79.716 115.17 77.208 115.062C74.7 114.954 72.636 115.386 72.6 116.022Z" fill="#2970E8"/>
<path opacity="0.4" d="M72.6 116.022C72.573 116.661 74.592 117.264 77.1 117.372C79.608 117.48 81.681 117.048 81.708 116.409C81.735 115.77 79.716 115.17 77.208 115.062C74.7 114.954 72.636 115.386 72.6 116.022Z" fill="white"/>
<path d="M73.2 116.004C73.1999 116.045 73.2137 116.085 73.239 116.118C73.539 115.743 75.21 115.518 77.202 115.608C79.194 115.698 80.841 116.052 81.102 116.451C81.1169 116.437 81.1289 116.419 81.1371 116.4C81.1454 116.381 81.1497 116.361 81.15 116.34C81.168 115.911 79.404 115.476 77.205 115.383C75.006 115.29 73.2 115.572 73.2 116.004Z" fill="#2970E8"/>
<path opacity="0.4" d="M73.2 116.004C73.1999 116.045 73.2137 116.085 73.239 116.118C73.539 115.743 75.21 115.518 77.202 115.608C79.194 115.698 80.841 116.052 81.102 116.451C81.1169 116.437 81.1289 116.419 81.1371 116.4C81.1454 116.381 81.1497 116.361 81.15 116.34C81.168 115.911 79.404 115.476 77.205 115.383C75.006 115.29 73.2 115.572 73.2 116.004Z" fill="#2970E8"/>
<path opacity="0.4" d="M73.23 116.118C73.503 116.517 75.144 116.877 77.13 116.961C79.116 117.045 80.793 116.826 81.093 116.451C80.826 116.052 79.185 115.692 77.193 115.608C75.201 115.524 73.536 115.743 73.23 116.118Z" fill="#2970E8"/>
<path d="M71.604 115.431C71.577 116.067 73.596 116.67 76.104 116.778C78.612 116.886 80.682 116.454 80.712 115.818C80.742 115.182 78.72 114.576 76.212 114.468C73.704 114.36 71.631 114.792 71.604 115.431Z" fill="#2970E8"/>
<path d="M71.6483 114.271L71.5994 115.425L80.7172 115.812L80.7661 114.658L71.6483 114.271Z" fill="#2970E8"/>
<path d="M71.652 114.276C71.625 114.912 73.644 115.515 76.152 115.623C78.66 115.731 80.733 115.299 80.76 114.663C80.787 114.027 78.768 113.421 76.26 113.313C73.752 113.205 71.679 113.637 71.652 114.276Z" fill="#2970E8"/>
<path opacity="0.4" d="M71.652 114.276C71.625 114.912 73.644 115.515 76.152 115.623C78.66 115.731 80.733 115.299 80.76 114.663C80.787 114.027 78.768 113.421 76.26 113.313C73.752 113.205 71.679 113.637 71.652 114.276Z" fill="white"/>
<path d="M72.234 114.255C72.2322 114.297 72.2461 114.337 72.273 114.369C72.573 113.994 74.244 113.769 76.236 113.859C78.228 113.949 79.875 114.303 80.136 114.702C80.1633 114.672 80.1802 114.634 80.184 114.594C80.202 114.162 78.438 113.727 76.239 113.634C74.04 113.541 72.252 113.823 72.234 114.255Z" fill="#2970E8"/>
<path opacity="0.4" d="M72.234 114.255C72.2322 114.297 72.2461 114.337 72.273 114.369C72.573 113.994 74.244 113.769 76.236 113.859C78.228 113.949 79.875 114.303 80.136 114.702C80.1633 114.672 80.1802 114.634 80.184 114.594C80.202 114.162 78.438 113.727 76.239 113.634C74.04 113.541 72.252 113.823 72.234 114.255Z" fill="#2970E8"/>
<path opacity="0.4" d="M72.2729 114.369C72.5429 114.768 74.1869 115.128 76.1729 115.212C78.1589 115.296 79.8359 115.077 80.1359 114.702C79.8689 114.303 78.2279 113.943 76.2359 113.859C74.2439 113.775 72.5759 114 72.2729 114.369Z" fill="#2970E8"/>
<path d="M81.675 114.189C81.702 114.825 79.683 115.431 77.175 115.536C74.667 115.641 72.6 115.2 72.558 114.576C72.516 113.952 74.5469 113.334 77.0579 113.226C79.5689 113.118 81.645 113.55 81.675 114.189Z" fill="#2970E8"/>
<path d="M81.422 113.335L72.296 113.7L72.3422 114.855L81.4682 114.49L81.422 113.335Z" fill="#2970E8"/>
<path d="M81.624 113.034C81.6509 113.67 79.6319 114.276 77.1239 114.381C74.6159 114.486 72.543 114.06 72.516 113.421C72.489 112.782 74.508 112.179 77.016 112.071C79.524 111.963 81.5999 112.395 81.624 113.034Z" fill="#2970E8"/>
<path opacity="0.4" d="M81.624 113.034C81.6509 113.67 79.6319 114.276 77.1239 114.381C74.6159 114.486 72.543 114.06 72.516 113.421C72.489 112.782 74.508 112.179 77.016 112.071C79.524 111.963 81.5999 112.395 81.624 113.034Z" fill="white"/>
<path d="M81.042 113.013C81.0445 113.055 81.0304 113.096 81.003 113.127C80.703 112.752 79.032 112.527 77.04 112.617C75.048 112.707 73.401 113.061 73.14 113.463C73.1131 113.432 73.0964 113.393 73.092 113.352C73.074 112.92 74.838 112.488 77.037 112.395C79.236 112.302 81.024 112.581 81.042 113.013Z" fill="#2970E8"/>
<path opacity="0.4" d="M81.042 113.013C81.0445 113.055 81.0304 113.096 81.003 113.127C80.703 112.752 79.032 112.527 77.04 112.617C75.048 112.707 73.401 113.061 73.14 113.463C73.1131 113.432 73.0964 113.393 73.092 113.352C73.074 112.92 74.838 112.488 77.037 112.395C79.236 112.302 81.024 112.581 81.042 113.013Z" fill="#2970E8"/>
<path opacity="0.4" d="M81 113.127C80.73 113.526 79.086 113.886 77.1 113.973C75.114 114.06 73.437 113.838 73.137 113.463C73.404 113.061 75.045 112.701 77.037 112.617C79.029 112.533 80.7 112.752 81 113.127Z" fill="#2970E8"/>
<path d="M82.632 112.44C82.6589 113.079 80.6399 113.682 78.1319 113.787C75.6239 113.892 73.5509 113.466 73.5239 112.827C73.4969 112.188 75.5159 111.585 78.0239 111.48C80.5319 111.375 82.6049 111.801 82.632 112.44Z" fill="#2970E8"/>
<path d="M82.5832 111.282L73.4654 111.669L73.5144 112.823L82.6322 112.436L82.5832 111.282Z" fill="#2970E8"/>
<path d="M82.581 111.3C82.608 111.939 80.592 112.542 78.081 112.65C75.57 112.758 73.503 112.326 73.476 111.687C73.449 111.048 75.465 110.445 77.976 110.34C80.487 110.235 82.554 110.646 82.581 111.3Z" fill="#2970E8"/>
<path opacity="0.4" d="M82.581 111.3C82.608 111.939 80.592 112.542 78.081 112.65C75.57 112.758 73.503 112.326 73.476 111.687C73.449 111.048 75.465 110.445 77.976 110.34C80.487 110.235 82.554 110.646 82.581 111.3Z" fill="white"/>
<path d="M82.0019 111.264C82.0013 111.305 81.9877 111.345 81.9629 111.378C81.6629 111.003 79.9889 110.778 77.9999 110.868C76.0109 110.958 74.3579 111.315 74.0999 111.714C74.0702 111.685 74.053 111.645 74.0519 111.603C74.0309 111.171 75.7979 110.739 77.9939 110.646C80.1899 110.553 81.9809 110.832 82.0019 111.264Z" fill="#2970E8"/>
<path opacity="0.4" d="M82.0019 111.264C82.0013 111.305 81.9877 111.345 81.9629 111.378C81.6629 111.003 79.9889 110.778 77.9999 110.868C76.0109 110.958 74.3579 111.315 74.0999 111.714C74.0702 111.685 74.053 111.645 74.0519 111.603C74.0309 111.171 75.7979 110.739 77.9939 110.646C80.1899 110.553 81.9809 110.832 82.0019 111.264Z" fill="#2970E8"/>
<path opacity="0.4" d="M81.963 111.378C81.69 111.777 80.049 112.14 78.063 112.224C76.077 112.308 74.397 112.089 74.1 111.714C74.364 111.315 76.008 110.952 78 110.868C79.992 110.784 81.657 111 81.963 111.378Z" fill="#2970E8"/>
<path d="M82.5 110.334C82.527 110.97 80.511 111.576 78 111.681C75.489 111.786 73.422 111.36 73.395 110.721C73.368 110.082 75.384 109.479 77.895 109.371C80.406 109.263 82.479 109.695 82.5 110.334Z" fill="#2970E8"/>
<path d="M82.458 109.18L73.3402 109.567L73.3892 110.721L82.507 110.334L82.458 109.18Z" fill="#2970E8"/>
<path d="M82.458 109.179C82.485 109.818 80.466 110.421 77.958 110.526C75.45 110.631 73.377 110.205 73.35 109.566C73.323 108.927 75.342 108.324 77.85 108.219C80.358 108.114 82.431 108.54 82.458 109.179Z" fill="#2970E8"/>
<path opacity="0.4" d="M82.458 109.179C82.485 109.818 80.466 110.421 77.958 110.526C75.45 110.631 73.377 110.205 73.35 109.566C73.323 108.927 75.342 108.324 77.85 108.219C80.358 108.114 82.431 108.54 82.458 109.179Z" fill="white"/>
<path d="M81.876 109.158C81.8784 109.2 81.8644 109.241 81.837 109.272C81.537 108.897 79.866 108.672 77.874 108.762C75.882 108.852 74.235 109.209 73.974 109.608C73.9471 109.577 73.9304 109.538 73.926 109.497C73.908 109.065 75.672 108.633 77.871 108.54C80.07 108.447 81.858 108.726 81.876 109.158Z" fill="#2970E8"/>
<path opacity="0.4" d="M81.876 109.158C81.8784 109.2 81.8644 109.241 81.837 109.272C81.537 108.897 79.866 108.672 77.874 108.762C75.882 108.852 74.235 109.209 73.974 109.608C73.9471 109.577 73.9304 109.538 73.926 109.497C73.908 109.065 75.672 108.633 77.871 108.54C80.07 108.447 81.858 108.726 81.876 109.158Z" fill="#2970E8"/>
<path opacity="0.4" d="M81.837 109.272C81.567 109.671 79.923 110.034 77.937 110.118C75.951 110.202 74.274 109.983 73.974 109.608C74.241 109.209 75.882 108.846 77.874 108.762C79.866 108.678 81.534 108.9 81.837 109.272Z" fill="#2970E8"/>
<path d="M83.466 108.6C83.493 109.239 81.474 109.842 78.966 109.95C76.458 110.058 74.385 109.626 74.358 108.987C74.331 108.348 76.35 107.745 78.858 107.64C81.366 107.535 83.439 107.946 83.466 108.6Z" fill="#2970E8"/>
<path d="M83.409 107.434L74.2912 107.821L74.3402 108.975L83.458 108.588L83.409 107.434Z" fill="#2970E8"/>
<path d="M83.415 107.43C83.442 108.069 81.423 108.672 78.915 108.78C76.407 108.888 74.334 108.456 74.307 107.817C74.28 107.178 76.299 106.575 78.807 106.47C81.315 106.365 83.4 106.8 83.415 107.43Z" fill="#2970E8"/>
<path opacity="0.4" d="M83.415 107.43C83.442 108.069 81.423 108.672 78.915 108.78C76.407 108.888 74.334 108.456 74.307 107.817C74.28 107.178 76.299 106.575 78.807 106.47C81.315 106.365 83.4 106.8 83.415 107.43Z" fill="white"/>
<path d="M82.8359 107.4C82.8349 107.44 82.8212 107.479 82.7969 107.511C82.4969 107.136 80.8229 106.911 78.8339 107.001C76.8449 107.091 75.1919 107.448 74.9339 107.847C74.9045 107.817 74.8865 107.778 74.8829 107.736C74.8649 107.304 76.629 106.872 78.828 106.779C81.027 106.686 82.8149 106.98 82.8359 107.4Z" fill="#2970E8"/>
<path opacity="0.4" d="M82.8359 107.4C82.8349 107.44 82.8212 107.479 82.7969 107.511C82.4969 107.136 80.8229 106.911 78.8339 107.001C76.8449 107.091 75.1919 107.448 74.9339 107.847C74.9045 107.817 74.8865 107.778 74.8829 107.736C74.8649 107.304 76.629 106.872 78.828 106.779C81.027 106.686 82.8149 106.98 82.8359 107.4Z" fill="#2970E8"/>
<path opacity="0.4" d="M82.8 107.523C82.527 107.925 80.886 108.285 78.9 108.369C76.914 108.453 75.234 108.234 74.937 107.859C75.201 107.46 76.845 107.097 78.837 107.013C80.829 106.929 82.5 107.148 82.8 107.523Z" fill="#2970E8"/>
<path d="M82.002 107.1C82.029 107.739 80.01 108.342 77.502 108.45C74.994 108.558 72.9 108.129 72.9 107.49C72.9 106.851 74.892 106.248 77.4 106.143C79.908 106.038 81.975 106.467 82.002 107.1Z" fill="#2970E8"/>
<path d="M81.9554 105.947L72.8376 106.333L72.8866 107.487L82.0044 107.1L81.9554 105.947Z" fill="#2970E8"/>
<path d="M81.954 105.948C81.981 106.587 79.962 107.19 77.454 107.298C74.946 107.406 72.873 106.974 72.846 106.335C72.819 105.696 74.838 105.093 77.346 104.988C79.854 104.883 81.927 105.3 81.954 105.948Z" fill="#2970E8"/>
<path opacity="0.4" d="M81.954 105.948C81.981 106.587 79.962 107.19 77.454 107.298C74.946 107.406 72.873 106.974 72.846 106.335C72.819 105.696 74.838 105.093 77.346 104.988C79.854 104.883 81.927 105.3 81.954 105.948Z" fill="white"/>
<path d="M81.3719 105.93C81.3736 105.971 81.3597 106.01 81.3329 106.041C81.0329 105.666 79.3619 105.441 77.3699 105.531C75.3779 105.621 73.7309 105.978 73.4699 106.377C73.4414 106.347 73.4244 106.308 73.422 106.266C73.404 105.834 75.168 105.402 77.367 105.309C79.566 105.216 81.3539 105.498 81.3719 105.93Z" fill="#2970E8"/>
<path opacity="0.4" d="M81.3719 105.93C81.3736 105.971 81.3597 106.01 81.3329 106.041C81.0329 105.666 79.3619 105.441 77.3699 105.531C75.3779 105.621 73.7309 105.978 73.4699 106.377C73.4414 106.347 73.4244 106.308 73.422 106.266C73.404 105.834 75.168 105.402 77.367 105.309C79.566 105.216 81.3539 105.498 81.3719 105.93Z" fill="#2970E8"/>
<path opacity="0.4" d="M81.333 106.041C81.06 106.443 79.419 106.803 77.433 106.887C75.447 106.971 73.77 106.752 73.47 106.377C73.737 105.978 75.378 105.618 77.37 105.531C79.362 105.444 81.027 105.666 81.333 106.041Z" fill="#2970E8"/>
<path d="M82.962 105.354C82.989 105.993 80.97 106.596 78.462 106.704C75.954 106.812 73.884 106.38 73.857 105.741C73.83 105.102 75.846 104.499 78.357 104.394C80.868 104.289 82.932 104.718 82.962 105.354Z" fill="#2970E8"/>
<path d="M82.9095 104.204L73.7917 104.59L73.8407 105.744L82.9585 105.357L82.9095 104.204Z" fill="#2970E8"/>
<path d="M82.911 104.199C82.938 104.838 80.919 105.441 78.411 105.549C75.903 105.657 73.83 105.225 73.803 104.586C73.776 103.947 75.795 103.347 78.303 103.239C80.811 103.131 82.884 103.563 82.911 104.199Z" fill="#2970E8"/>
<path opacity="0.4" d="M82.911 104.199C82.938 104.838 80.919 105.441 78.411 105.549C75.903 105.657 73.83 105.225 73.803 104.586C73.776 103.947 75.795 103.347 78.303 103.239C80.811 103.131 82.884 103.563 82.911 104.199Z" fill="white"/>
<path d="M82.329 104.181C82.3302 104.222 82.3164 104.263 82.29 104.295C81.99 103.92 80.319 103.695 78.327 103.782C76.335 103.869 74.688 104.229 74.427 104.628C74.3996 104.597 74.3828 104.558 74.379 104.517C74.361 104.085 76.125 103.653 78.324 103.56C80.523 103.467 82.311 103.749 82.329 104.181Z" fill="#2970E8"/>
<path opacity="0.4" d="M82.329 104.181C82.3302 104.222 82.3164 104.263 82.29 104.295C81.99 103.92 80.319 103.695 78.327 103.782C76.335 103.869 74.688 104.229 74.427 104.628C74.3996 104.597 74.3828 104.558 74.379 104.517C74.361 104.085 76.125 103.653 78.324 103.56C80.523 103.467 82.311 103.749 82.329 104.181Z" fill="#2970E8"/>
<path opacity="0.4" d="M82.29 104.295C82.02 104.694 80.376 105.054 78.39 105.138C76.404 105.222 74.727 105.003 74.427 104.628C74.694 104.229 76.335 103.869 78.327 103.782C80.319 103.695 81.987 103.92 82.29 104.295Z" fill="#2970E8"/>
<path d="M79.1624 104.047C81.2878 103.25 82.3649 100.881 81.5681 98.7557C80.7713 96.6303 78.4024 95.5532 76.2769 96.35C74.1515 97.1467 73.0744 99.5157 73.8712 101.641C74.668 103.767 77.0369 104.844 79.1624 104.047Z" fill="#2970E8"/>
<path d="M81.3026 103.065C82.7738 101.337 82.5651 98.7427 80.8365 97.2715C79.1079 95.8004 76.514 96.0091 75.0428 97.7377C73.5716 99.4663 73.7803 102.06 75.5089 103.531C77.2376 105.003 79.8315 104.794 81.3026 103.065Z" fill="#2970E8"/>
<path opacity="0.4" d="M81.3026 103.065C82.7738 101.337 82.5651 98.7427 80.8365 97.2715C79.1079 95.8004 76.514 96.0091 75.0428 97.7377C73.5716 99.4663 73.7803 102.06 75.5089 103.531C77.2376 105.003 79.8315 104.794 81.3026 103.065Z" fill="white"/>
<path d="M80.973 101.667C80.721 102.22 80.3107 102.687 79.7937 103.007C79.2768 103.327 78.6766 103.487 78.0689 103.466C77.4612 103.445 76.8733 103.245 76.3796 102.89C75.8859 102.535 75.5085 102.041 75.295 101.472C75.0816 100.903 75.0418 100.283 75.1806 99.6908C75.3194 99.0988 75.6307 98.5612 76.0749 98.1461C76.5192 97.7309 77.0766 97.4568 77.6766 97.3583C78.2766 97.2599 78.8924 97.3415 79.446 97.593C80.1885 97.9311 80.7663 98.55 81.0526 99.3139C81.339 100.078 81.3103 100.924 80.973 101.667Z" fill="#2970E8"/>
<path opacity="0.3" d="M79.5989 101.307C79.5514 101.12 79.4465 100.952 79.2989 100.827C79.4559 100.82 79.6078 100.769 79.7369 100.68C79.8681 100.59 79.9719 100.465 80.0369 100.32C80.0935 100.203 80.1198 100.073 80.1135 99.9434C80.1072 99.8134 80.0685 99.6871 80.0009 99.576C79.8721 99.3732 79.6934 99.2069 79.4819 99.093L79.5869 98.862L79.2329 98.703L79.1369 98.916L78.7829 98.754L78.8789 98.541L78.5249 98.379L78.4289 98.595L77.6609 98.244L76.2209 101.415L76.9859 101.766L76.8839 101.991L77.2379 102.15L77.3399 101.925L77.6939 102.087L77.5919 102.312L77.9459 102.471L78.0539 102.237C78.3209 102.357 78.6155 102.401 78.9059 102.366C79.0393 102.341 79.1643 102.283 79.2692 102.197C79.3741 102.111 79.4556 102 79.5059 101.874C79.6003 101.701 79.633 101.501 79.5989 101.307ZM78.1469 99.129L78.8759 99.462C79.0233 99.5174 79.1514 99.6143 79.2449 99.741C79.2753 99.7928 79.2912 99.8519 79.2912 99.912C79.2912 99.9721 79.2753 100.031 79.2449 100.083C79.2243 100.14 79.1885 100.19 79.1414 100.228C79.0944 100.266 79.0379 100.291 78.9779 100.299C78.8204 100.315 78.6615 100.284 78.5219 100.209L77.7929 99.876L78.1469 99.129ZM78.5429 101.688C78.3762 101.699 78.2098 101.663 78.0629 101.583L77.2079 101.196L77.5619 100.41L78.4199 100.8C78.8069 100.977 78.9419 101.199 78.8249 101.46C78.8041 101.522 78.7668 101.577 78.7172 101.619C78.6675 101.661 78.6073 101.689 78.5429 101.7V101.688Z" fill="white"/>
<path d="M116.91 123.666C116.817 124.041 115.545 124.044 114.069 123.666C112.593 123.288 111.471 122.691 111.564 122.319C111.657 121.947 112.932 121.941 114.408 122.319C115.884 122.697 117 123.3 116.91 123.666Z" fill="#2970E8"/>
<path d="M111.737 121.653L111.567 122.331L116.913 123.669L117.083 122.991L111.737 121.653Z" fill="#2970E8"/>
<path d="M117.081 123C116.985 123.375 115.713 123.378 114.237 123C112.761 122.622 111.642 122.028 111.735 121.653C111.828 121.278 113.1 121.275 114.576 121.653C116.052 122.031 117.174 122.616 117.081 123Z" fill="#2970E8"/>
<path opacity="0.4" d="M117.081 123C116.985 123.375 115.713 123.378 114.237 123C112.761 122.622 111.642 122.028 111.735 121.653C111.828 121.278 113.1 121.275 114.576 121.653C116.052 122.031 117.174 122.616 117.081 123Z" fill="white"/>
<path d="M116.745 122.877C116.742 122.889 116.737 122.901 116.73 122.911C116.723 122.922 116.714 122.93 116.703 122.937C116.592 122.667 115.665 122.253 114.498 121.962C113.331 121.671 112.314 121.596 112.098 121.782C112.092 121.758 112.092 121.734 112.098 121.71C112.164 121.455 113.259 121.509 114.549 121.83C115.839 122.151 116.811 122.625 116.745 122.877Z" fill="#2970E8"/>
<path opacity="0.4" d="M116.745 122.877C116.742 122.889 116.737 122.901 116.73 122.911C116.723 122.922 116.714 122.93 116.703 122.937C116.592 122.667 115.665 122.253 114.498 121.962C113.331 121.671 112.314 121.596 112.098 121.782C112.092 121.758 112.092 121.734 112.098 121.71C112.164 121.455 113.259 121.509 114.549 121.83C115.839 122.151 116.811 122.625 116.745 122.877Z" fill="#2970E8"/>
<path opacity="0.4" d="M116.7 122.937C116.475 123.12 115.464 123.048 114.3 122.757C113.136 122.466 112.2 122.049 112.092 121.782C112.317 121.596 113.328 121.668 114.492 121.962C115.656 122.256 116.592 122.667 116.7 122.937Z" fill="#2970E8"/>
<path d="M119.478 124.896C119.496 125.28 118.278 125.646 116.754 125.709C115.23 125.772 113.988 125.514 113.973 125.13C113.958 124.746 115.173 124.38 116.697 124.314C118.221 124.248 119.463 124.5 119.478 124.896Z" fill="#2970E8"/>
<path d="M119.442 124.204L113.936 124.438L113.966 125.136L119.472 124.902L119.442 124.204Z" fill="#2970E8"/>
<path d="M119.448 124.2C119.466 124.587 118.248 124.95 116.727 125.016C115.206 125.082 113.961 124.821 113.943 124.434C113.925 124.047 115.143 123.684 116.667 123.621C118.191 123.558 119.433 123.813 119.448 124.2Z" fill="#2970E8"/>
<path opacity="0.4" d="M119.448 124.2C119.466 124.587 118.248 124.95 116.727 125.016C115.206 125.082 113.961 124.821 113.943 124.434C113.925 124.047 115.143 123.684 116.667 123.621C118.191 123.558 119.433 123.813 119.448 124.2Z" fill="white"/>
<path d="M119.1 124.2C119.101 124.213 119.1 124.225 119.096 124.237C119.091 124.249 119.085 124.26 119.076 124.269C118.893 124.044 117.876 123.909 116.676 123.969C115.476 124.029 114.477 124.239 114.315 124.479C114.298 124.461 114.289 124.438 114.288 124.413C114.288 124.152 115.341 123.891 116.67 123.834C117.999 123.777 119.1 123.924 119.1 124.2Z" fill="#2970E8"/>
<path opacity="0.4" d="M119.1 124.2C119.101 124.213 119.1 124.225 119.096 124.237C119.091 124.249 119.085 124.26 119.076 124.269C118.893 124.044 117.876 123.909 116.676 123.969C115.476 124.029 114.477 124.239 114.315 124.479C114.298 124.461 114.289 124.438 114.288 124.413C114.288 124.152 115.341 123.891 116.67 123.834C117.999 123.777 119.1 123.924 119.1 124.2Z" fill="#2970E8"/>
<path opacity="0.4" d="M119.073 124.254C118.911 124.494 117.918 124.713 116.715 124.764C115.512 124.815 114.504 124.683 114.315 124.464C114.477 124.224 115.47 124.005 116.676 123.954C117.882 123.903 118.89 124.029 119.073 124.254Z" fill="#2970E8"/>
<path d="M116.581 123.521C117.826 121.624 117.298 119.076 115.4 117.83C113.502 116.585 110.954 117.113 109.709 119.011C108.463 120.908 108.992 123.456 110.889 124.702C112.787 125.948 115.335 125.419 116.581 123.521Z" fill="#2970E8"/>
<path d="M116.586 124.344C116.045 124.951 115.336 125.384 114.55 125.588C113.763 125.792 112.933 125.758 112.165 125.491C111.398 125.223 110.726 124.734 110.237 124.085C109.747 123.436 109.461 122.657 109.414 121.845C109.368 121.033 109.563 120.226 109.975 119.526C110.387 118.825 110.998 118.262 111.73 117.909C112.462 117.555 113.282 117.426 114.088 117.539C114.893 117.652 115.646 118.001 116.253 118.542C117.066 119.267 117.558 120.286 117.621 121.374C117.683 122.462 117.311 123.53 116.586 124.344Z" fill="#2970E8"/>
<path opacity="0.4" d="M116.586 124.344C116.045 124.951 115.336 125.384 114.55 125.588C113.763 125.792 112.933 125.758 112.165 125.491C111.398 125.223 110.726 124.734 110.237 124.085C109.747 123.436 109.461 122.657 109.414 121.845C109.368 121.033 109.563 120.226 109.975 119.526C110.387 118.825 110.998 118.262 111.73 117.909C112.462 117.555 113.282 117.426 114.088 117.539C114.893 117.652 115.646 118.001 116.253 118.542C117.066 119.267 117.558 120.286 117.621 121.374C117.683 122.462 117.311 123.53 116.586 124.344Z" fill="white"/>
<path d="M115.8 123.657C115.395 124.112 114.864 124.436 114.275 124.589C113.685 124.742 113.064 124.717 112.489 124.516C111.914 124.316 111.411 123.95 111.045 123.464C110.678 122.978 110.464 122.394 110.429 121.786C110.394 121.178 110.54 120.573 110.849 120.049C111.158 119.524 111.615 119.102 112.164 118.838C112.712 118.573 113.326 118.477 113.929 118.561C114.532 118.646 115.097 118.908 115.551 119.313C115.853 119.582 116.099 119.907 116.274 120.271C116.45 120.635 116.553 121.03 116.576 121.433C116.599 121.837 116.542 122.241 116.409 122.622C116.276 123.004 116.069 123.356 115.8 123.657Z" fill="#2970E8"/>
<g opacity="0.3">
<path d="M114.09 123C113.724 123.6 113.073 123.615 112.398 123.108L112.014 123.519L111.63 123.18L112.017 122.769C111.709 122.453 111.48 122.068 111.348 121.647L111.948 121.326C112.046 121.682 112.227 122.01 112.476 122.283L113.076 121.653C112.797 121.215 112.509 120.702 112.839 120.168C113.202 119.583 113.865 119.568 114.546 120.081L114.933 119.67L115.314 120.012L114.927 120.426C115.167 120.679 115.352 120.978 115.473 121.305L114.9 121.641C114.813 121.367 114.667 121.116 114.474 120.903L113.859 121.563C114.123 121.995 114.402 122.49 114.09 123ZM113.562 121.119L114.066 120.582C113.817 120.435 113.61 120.462 113.502 120.627C113.468 120.707 113.456 120.794 113.467 120.879C113.477 120.965 113.51 121.047 113.562 121.116V121.119ZM113.4 122.565C113.433 122.49 113.444 122.407 113.434 122.326C113.424 122.245 113.393 122.168 113.343 122.103L112.863 122.613C113.1 122.745 113.295 122.727 113.4 122.562V122.565Z" fill="white"/>
</g>
<path d="M62.634 125.277C62.619 125.661 63.834 126.027 65.358 126.09C66.882 126.153 68.124 125.895 68.139 125.511C68.154 125.127 66.939 124.761 65.418 124.695C63.897 124.629 62.652 124.89 62.634 125.277Z" fill="#2970E8"/>
<path d="M62.6657 124.581L62.6361 125.279L68.1422 125.513L68.1718 124.815L62.6657 124.581Z" fill="#2970E8"/>
<path d="M62.664 124.578C62.646 124.965 63.864 125.328 65.388 125.394C66.912 125.46 68.154 125.199 68.169 124.812C68.184 124.425 66.969 124.062 65.445 123.999C63.921 123.936 62.679 124.2 62.664 124.578Z" fill="#2970E8"/>
<path opacity="0.4" d="M62.664 124.578C62.646 124.965 63.864 125.328 65.388 125.394C66.912 125.46 68.154 125.199 68.169 124.812C68.184 124.425 66.969 124.062 65.445 123.999C63.921 123.936 62.679 124.2 62.664 124.578Z" fill="white"/>
<path d="M63.015 124.566C63.0152 124.591 63.0236 124.615 63.039 124.635C63.222 124.41 64.239 124.275 65.439 124.335C66.639 124.395 67.635 124.605 67.797 124.848C67.8141 124.829 67.8246 124.805 67.827 124.779C67.827 124.518 66.771 124.257 65.445 124.203C64.119 124.149 63.027 124.305 63.015 124.566Z" fill="#2970E8"/>
<path opacity="0.4" d="M63.015 124.566C63.0152 124.591 63.0236 124.615 63.039 124.635C63.222 124.41 64.239 124.275 65.439 124.335C66.639 124.395 67.635 124.605 67.797 124.848C67.8141 124.829 67.8246 124.805 67.827 124.779C67.827 124.518 66.771 124.257 65.445 124.203C64.119 124.149 63.027 124.305 63.015 124.566Z" fill="#2970E8"/>
<path opacity="0.4" d="M63.039 124.635C63.204 124.878 64.194 125.094 65.397 125.145C66.6 125.196 67.611 125.064 67.797 124.845C67.635 124.602 66.645 124.386 65.439 124.332C64.233 124.278 63.222 124.41 63.039 124.635Z" fill="#2970E8"/>
<path d="M62.055 124.221C62.055 124.605 63.255 124.971 64.779 125.034C66.303 125.097 67.545 124.839 67.56 124.455C67.575 124.071 66.36 123.705 64.839 123.639C63.318 123.573 62.073 123.837 62.055 124.221Z" fill="#2970E8"/>
<path d="M62.0812 123.516L62.0515 124.214L67.5576 124.448L67.5872 123.749L62.0812 123.516Z" fill="#2970E8"/>
<path d="M62.1 123.522C62.1 123.909 63.3 124.272 64.824 124.338C66.348 124.404 67.59 124.143 67.605 123.756C67.62 123.369 66.405 123.006 64.884 122.943C63.363 122.88 62.1 123.138 62.1 123.522Z" fill="#2970E8"/>
<path opacity="0.4" d="M62.1 123.522C62.1 123.909 63.3 124.272 64.824 124.338C66.348 124.404 67.59 124.143 67.605 123.756C67.62 123.369 66.405 123.006 64.884 122.943C63.363 122.88 62.1 123.138 62.1 123.522Z" fill="white"/>
<path d="M62.436 123.51C62.4362 123.535 62.4446 123.559 62.46 123.579C62.643 123.354 63.66 123.222 64.86 123.279C66.06 123.336 67.056 123.546 67.218 123.789C67.2351 123.77 67.2456 123.746 67.248 123.72C67.248 123.462 66.192 123.198 64.866 123.144C63.54 123.09 62.448 123.249 62.436 123.51Z" fill="#2970E8"/>
<path opacity="0.4" d="M62.436 123.51C62.4362 123.535 62.4446 123.559 62.46 123.579C62.643 123.354 63.66 123.222 64.86 123.279C66.06 123.336 67.056 123.546 67.218 123.789C67.2351 123.77 67.2456 123.746 67.248 123.72C67.248 123.462 66.192 123.198 64.866 123.144C63.54 123.09 62.448 123.249 62.436 123.51Z" fill="#2970E8"/>
<path opacity="0.4" d="M62.46 123.579C62.625 123.822 63.615 124.038 64.818 124.089C66.021 124.14 67.032 124.008 67.218 123.789C67.056 123.546 66.066 123.33 64.86 123.279C63.654 123.228 62.643 123.354 62.46 123.579Z" fill="#2970E8"/>
<path d="M62.13 122.949C62.13 123.333 63.33 123.699 64.854 123.762C66.378 123.825 67.62 123.567 67.635 123.183C67.65 122.799 66.435 122.433 64.914 122.367C63.393 122.301 62.148 122.565 62.13 122.949Z" fill="#2970E8"/>
<path d="M62.1545 122.244L62.1249 122.942L67.6309 123.176L67.6606 122.477L62.1545 122.244Z" fill="#2970E8"/>
<path d="M62.16 122.25C62.16 122.637 63.36 123 64.884 123.066C66.408 123.132 67.65 122.871 67.665 122.484C67.68 122.097 66.465 121.734 64.944 121.671C63.423 121.608 62.178 121.866 62.16 122.25Z" fill="#2970E8"/>
<path opacity="0.4" d="M62.16 122.25C62.16 122.637 63.36 123 64.884 123.066C66.408 123.132 67.65 122.871 67.665 122.484C67.68 122.097 66.465 121.734 64.944 121.671C63.423 121.608 62.178 121.866 62.16 122.25Z" fill="white"/>
<path d="M62.511 122.238C62.5112 122.263 62.5196 122.287 62.535 122.307C62.718 122.082 63.735 121.95 64.935 122.007C66.135 122.064 67.131 122.274 67.293 122.517C67.3101 122.498 67.3206 122.474 67.323 122.448C67.323 122.19 66.267 121.926 64.941 121.872C63.615 121.818 62.523 121.98 62.511 122.238Z" fill="#2970E8"/>
<path opacity="0.4" d="M62.511 122.238C62.5112 122.263 62.5196 122.287 62.535 122.307C62.718 122.082 63.735 121.95 64.935 122.007C66.135 122.064 67.131 122.274 67.293 122.517C67.3101 122.498 67.3206 122.474 67.323 122.448C67.323 122.19 66.267 121.926 64.941 121.872C63.615 121.818 62.523 121.98 62.511 122.238Z" fill="#2970E8"/>
<path opacity="0.4" d="M62.535 122.307C62.7 122.55 63.69 122.766 64.893 122.817C66.096 122.868 67.107 122.736 67.293 122.517C67.131 122.274 66.141 122.058 64.935 122.007C63.729 121.956 62.718 122.082 62.535 122.307Z" fill="#2970E8"/>
<path d="M61.551 121.893C61.551 122.277 62.751 122.643 64.275 122.706C65.799 122.769 67.041 122.511 67.059 122.127C67.077 121.743 65.859 121.377 64.335 121.311C62.811 121.245 61.569 121.5 61.551 121.893Z" fill="#2970E8"/>
<path d="M61.579 121.191L61.5494 121.889L67.0554 122.123L67.0851 121.424L61.579 121.191Z" fill="#2970E8"/>
<path d="M61.5809 121.2C61.5659 121.587 62.7809 121.95 64.3049 122.016C65.8289 122.082 67.0709 121.821 67.0859 121.434C67.1009 121.047 65.8859 120.687 64.3649 120.621C62.8439 120.555 61.5989 120.81 61.5809 121.2Z" fill="#2970E8"/>
<path opacity="0.4" d="M61.5809 121.2C61.5659 121.587 62.7809 121.95 64.3049 122.016C65.8289 122.082 67.0709 121.821 67.0859 121.434C67.1009 121.047 65.8859 120.687 64.3649 120.621C62.8439 120.555 61.5989 120.81 61.5809 121.2Z" fill="white"/>
<path d="M61.9319 121.182C61.9322 121.207 61.9406 121.231 61.9559 121.251C62.1419 121.026 63.1559 120.894 64.3559 120.951C65.5559 121.008 66.5549 121.218 66.7139 121.461C66.7317 121.443 66.7424 121.42 66.7439 121.395C66.7439 121.134 65.6879 120.87 64.3619 120.816C63.0359 120.762 61.9439 120.924 61.9319 121.182Z" fill="#2970E8"/>
<path opacity="0.4" d="M61.9319 121.182C61.9322 121.207 61.9406 121.231 61.9559 121.251C62.1419 121.026 63.1559 120.894 64.3559 120.951C65.5559 121.008 66.5549 121.218 66.7139 121.461C66.7317 121.443 66.7424 121.42 66.7439 121.395C66.7439 121.134 65.6879 120.87 64.3619 120.816C63.0359 120.762 61.9439 120.924 61.9319 121.182Z" fill="#2970E8"/>
<path opacity="0.4" d="M61.956 121.251C62.121 121.494 63.111 121.71 64.314 121.761C65.517 121.812 66.528 121.68 66.714 121.461C66.555 121.218 65.562 121.002 64.356 120.951C63.15 120.9 62.142 121.026 61.956 121.251Z" fill="#2970E8"/>
<path d="M62.436 120.999C62.418 121.383 63.636 121.749 65.16 121.812C66.684 121.875 67.926 121.617 67.941 121.233C67.956 120.849 66.741 120.483 65.217 120.417C63.693 120.351 62.451 120.6 62.436 120.999Z" fill="#2970E8"/>
<path d="M62.4602 120.292L62.4306 120.991L67.9366 121.225L67.9663 120.526L62.4602 120.292Z" fill="#2970E8"/>
<path d="M62.466 120.3C62.448 120.687 63.666 121.05 65.187 121.116C66.708 121.182 67.953 120.921 67.971 120.534C67.989 120.147 66.771 119.784 65.247 119.721C63.723 119.658 62.481 119.916 62.466 120.3Z" fill="#2970E8"/>
<path opacity="0.4" d="M62.466 120.3C62.448 120.687 63.666 121.05 65.187 121.116C66.708 121.182 67.953 120.921 67.971 120.534C67.989 120.147 66.771 119.784 65.247 119.721C63.723 119.658 62.481 119.916 62.466 120.3Z" fill="white"/>
<path d="M62.817 120.3C62.8157 120.313 62.8172 120.325 62.8214 120.337C62.8255 120.349 62.8322 120.36 62.841 120.369C63.024 120.144 64.041 120.009 65.241 120.069C66.441 120.129 67.4399 120.339 67.6019 120.579C67.6186 120.561 67.6282 120.538 67.6289 120.513C67.6289 120.252 66.576 119.991 65.247 119.934C63.918 119.877 62.826 120.027 62.817 120.3Z" fill="#2970E8"/>
<path opacity="0.4" d="M62.817 120.3C62.8157 120.313 62.8172 120.325 62.8214 120.337C62.8255 120.349 62.8322 120.36 62.841 120.369C63.024 120.144 64.041 120.009 65.241 120.069C66.441 120.129 67.4399 120.339 67.6019 120.579C67.6186 120.561 67.6282 120.538 67.6289 120.513C67.6289 120.252 66.576 119.991 65.247 119.934C63.918 119.877 62.826 120.027 62.817 120.3Z" fill="#2970E8"/>
<path opacity="0.4" d="M62.841 120.357C63.003 120.597 63.996 120.816 65.199 120.867C66.402 120.918 67.41 120.786 67.599 120.567C67.437 120.327 66.444 120.108 65.238 120.057C64.032 120.006 63.024 120.132 62.841 120.357Z" fill="#2970E8"/>
<path d="M58.554 125.214C58.647 125.589 59.922 125.592 61.398 125.214C62.874 124.836 63.993 124.242 63.9 123.867C63.807 123.492 62.535 123.489 61.059 123.867C59.583 124.245 58.461 124.842 58.554 125.214Z" fill="#2970E8"/>
<path d="M63.7315 123.197L58.3856 124.536L58.5554 125.214L63.9013 123.875L63.7315 123.197Z" fill="#2970E8"/>
<path d="M58.386 124.539C58.479 124.911 59.751 124.917 61.227 124.539C62.703 124.161 63.825 123.567 63.729 123.195C63.633 122.823 62.364 122.817 60.888 123.195C59.412 123.573 58.29 124.164 58.386 124.539Z" fill="#2970E8"/>
<path opacity="0.4" d="M58.386 124.539C58.479 124.911 59.751 124.917 61.227 124.539C62.703 124.161 63.825 123.567 63.729 123.195C63.633 122.823 62.364 122.817 60.888 123.195C59.412 123.573 58.29 124.164 58.386 124.539Z" fill="white"/>
<path d="M58.7189 124.428C58.7254 124.452 58.7404 124.472 58.7609 124.485C58.8719 124.218 59.7989 123.804 60.9689 123.51C62.1389 123.216 63.1499 123.144 63.3689 123.33C63.378 123.307 63.378 123.281 63.3689 123.258C63.3059 123.006 62.2079 123.057 60.9209 123.381C59.6339 123.705 58.6559 124.173 58.7189 124.428Z" fill="#2970E8"/>
<path opacity="0.4" d="M58.7189 124.428C58.7254 124.452 58.7404 124.472 58.7609 124.485C58.8719 124.218 59.7989 123.804 60.9689 123.51C62.1389 123.216 63.1499 123.144 63.3689 123.33C63.378 123.307 63.378 123.281 63.3689 123.258C63.3059 123.006 62.2079 123.057 60.9209 123.381C59.6339 123.705 58.6559 124.173 58.7189 124.428Z" fill="#2970E8"/>
<path opacity="0.4" d="M58.761 124.5C58.986 124.686 60 124.614 61.161 124.32C62.322 124.026 63.261 123.615 63.369 123.345C63.144 123.159 62.133 123.234 60.969 123.525C59.805 123.816 58.872 124.218 58.761 124.5Z" fill="#2970E8"/>
<path d="M56.001 125.277C56.001 125.661 57.201 126.027 58.725 126.09C60.249 126.153 61.491 125.895 61.506 125.511C61.521 125.127 60.306 124.761 58.785 124.695C57.264 124.629 56.019 124.89 56.001 125.277Z" fill="#2970E8"/>
<path d="M56.0276 124.572L55.9979 125.27L61.504 125.504L61.5336 124.806L56.0276 124.572Z" fill="#2970E8"/>
<path d="M56.031 124.578C56.016 124.965 57.231 125.328 58.755 125.394C60.279 125.46 61.521 125.199 61.536 124.812C61.551 124.425 60.336 124.062 58.815 123.999C57.294 123.936 56.049 124.2 56.031 124.578Z" fill="#2970E8"/>
<path opacity="0.4" d="M56.031 124.578C56.016 124.965 57.231 125.328 58.755 125.394C60.279 125.46 61.521 125.199 61.536 124.812C61.551 124.425 60.336 124.062 58.815 123.999C57.294 123.936 56.049 124.2 56.031 124.578Z" fill="white"/>
<path d="M56.382 124.566C56.3822 124.591 56.3906 124.615 56.406 124.635C56.589 124.41 57.606 124.275 58.806 124.335C60.006 124.395 61.002 124.605 61.164 124.848C61.1811 124.829 61.1916 124.805 61.194 124.779C61.194 124.518 60.138 124.257 58.812 124.203C57.486 124.149 56.4 124.305 56.382 124.566Z" fill="#2970E8"/>
<path opacity="0.4" d="M56.382 124.566C56.3822 124.591 56.3906 124.615 56.406 124.635C56.589 124.41 57.606 124.275 58.806 124.335C60.006 124.395 61.002 124.605 61.164 124.848C61.1811 124.829 61.1916 124.805 61.194 124.779C61.194 124.518 60.138 124.257 58.812 124.203C57.486 124.149 56.4 124.305 56.382 124.566Z" fill="#2970E8"/>
<path opacity="0.4" d="M56.4 124.635C56.565 124.878 57.555 125.094 58.758 125.145C59.961 125.196 60.972 125.064 61.158 124.845C60.996 124.602 60.006 124.386 58.8 124.332C57.594 124.278 56.589 124.41 56.4 124.635Z" fill="#2970E8"/>
<path d="M84.4379 125.244C84.4199 125.64 85.6739 126.015 87.2369 126.081C88.7999 126.147 90.0809 125.88 90.0989 125.481C90.1169 125.082 88.8599 124.713 87.2969 124.644C85.7339 124.575 84.4529 124.848 84.4379 125.244Z" fill="#2970E8"/>
<path d="M84.462 124.518L84.4316 125.234L90.0935 125.474L90.1239 124.758L84.462 124.518Z" fill="#2970E8"/>
<path d="M84.468 124.527C84.45 124.923 85.704 125.298 87.267 125.364C88.83 125.43 90.111 125.163 90.129 124.764C90.147 124.365 88.893 123.996 87.327 123.927C85.761 123.858 84.483 124.131 84.468 124.527Z" fill="#2970E8"/>
<path opacity="0.4" d="M84.468 124.527C84.45 124.923 85.704 125.298 87.267 125.364C88.83 125.43 90.111 125.163 90.129 124.764C90.147 124.365 88.893 123.996 87.327 123.927C85.761 123.858 84.483 124.131 84.468 124.527Z" fill="white"/>
<path d="M84.828 124.515C84.8286 124.541 84.837 124.566 84.852 124.587C85.041 124.353 86.076 124.218 87.315 124.269C88.554 124.32 89.574 124.545 89.739 124.794C89.7574 124.776 89.7682 124.751 89.769 124.725C89.769 124.458 88.686 124.188 87.321 124.125C85.956 124.062 84.84 124.248 84.828 124.515Z" fill="#2970E8"/>
<path opacity="0.4" d="M84.828 124.515C84.8286 124.541 84.837 124.566 84.852 124.587C85.041 124.353 86.076 124.218 87.315 124.269C88.554 124.32 89.574 124.545 89.739 124.794C89.7574 124.776 89.7682 124.751 89.769 124.725C89.769 124.458 88.686 124.188 87.321 124.125C85.956 124.062 84.84 124.248 84.828 124.515Z" fill="#2970E8"/>
<path opacity="0.4" d="M84.852 124.587C85.023 124.833 86.052 125.058 87.279 125.112C88.506 125.166 89.553 125.028 89.739 124.794C89.574 124.545 88.554 124.323 87.315 124.269C86.076 124.215 85.041 124.353 84.852 124.587Z" fill="#2970E8"/>
<path d="M83.841 124.158C83.826 124.554 85.08 124.929 86.643 124.998C88.206 125.067 89.487 124.797 89.502 124.398C89.517 123.999 88.266 123.627 86.703 123.558C85.14 123.489 83.859 123.762 83.841 124.158Z" fill="#2970E8"/>
<path d="M83.8707 123.439L83.8403 124.156L89.5022 124.396L89.5326 123.68L83.8707 123.439Z" fill="#2970E8"/>
<path d="M83.874 123.441C83.856 123.837 85.11 124.212 86.673 124.281C88.236 124.35 89.517 124.08 89.535 123.681C89.553 123.282 88.296 122.91 86.733 122.841C85.17 122.772 83.889 123.045 83.874 123.441Z" fill="#2970E8"/>
<path opacity="0.4" d="M83.874 123.441C83.856 123.837 85.11 124.212 86.673 124.281C88.236 124.35 89.517 124.08 89.535 123.681C89.553 123.282 88.296 122.91 86.733 122.841C85.17 122.772 83.889 123.045 83.874 123.441Z" fill="white"/>
<path d="M84.2339 123.429C84.2345 123.455 84.2429 123.48 84.2579 123.501C84.4469 123.267 85.4819 123.132 86.7179 123.183C87.9539 123.234 88.9799 123.459 89.1449 123.708C89.1621 123.689 89.1726 123.665 89.1749 123.639C89.1749 123.372 88.0889 123.102 86.7239 123.039C85.3589 122.976 84.2459 123.162 84.2339 123.429Z" fill="#2970E8"/>
<path opacity="0.4" d="M84.2339 123.429C84.2345 123.455 84.2429 123.48 84.2579 123.501C84.4469 123.267 85.4819 123.132 86.7179 123.183C87.9539 123.234 88.9799 123.459 89.1449 123.708C89.1621 123.689 89.1726 123.665 89.1749 123.639C89.1749 123.372 88.0889 123.102 86.7239 123.039C85.3589 122.976 84.2459 123.162 84.2339 123.429Z" fill="#2970E8"/>
<path opacity="0.4" d="M84.2579 123.501C84.4259 123.747 85.4579 123.972 86.6819 124.026C87.9059 124.08 88.9589 123.942 89.1449 123.708C88.9799 123.459 87.9599 123.237 86.7179 123.183C85.4759 123.129 84.4469 123.267 84.2579 123.501Z" fill="#2970E8"/>
<path d="M85.119 123.357C85.101 123.75 86.355 124.125 87.918 124.194C89.481 124.263 90.762 123.993 90.78 123.594C90.798 123.195 89.541 122.823 87.978 122.757C86.415 122.691 85.134 122.961 85.119 123.357Z" fill="#2970E8"/>
<path d="M85.1434 122.632L85.113 123.349L90.7749 123.589L90.8053 122.873L85.1434 122.632Z" fill="#2970E8"/>
<path d="M85.149 122.637C85.131 123.033 86.385 123.408 87.948 123.477C89.511 123.546 90.792 123.276 90.81 122.877C90.828 122.478 89.571 122.106 88.008 122.04C86.445 121.974 85.164 122.244 85.149 122.637Z" fill="#2970E8"/>
<path opacity="0.4" d="M85.149 122.637C85.131 123.033 86.385 123.408 87.948 123.477C89.511 123.546 90.792 123.276 90.81 122.877C90.828 122.478 89.571 122.106 88.008 122.04C86.445 121.974 85.164 122.244 85.149 122.637Z" fill="white"/>
<path d="M85.5 122.625C85.5006 122.651 85.509 122.676 85.524 122.697C85.713 122.463 86.748 122.328 87.984 122.379C89.22 122.43 90.246 122.655 90.411 122.904C90.4281 122.885 90.4387 122.861 90.441 122.835C90.441 122.568 89.355 122.298 87.99 122.235C86.625 122.172 85.521 122.358 85.5 122.625Z" fill="#2970E8"/>
<path opacity="0.4" d="M85.5 122.625C85.5006 122.651 85.509 122.676 85.524 122.697C85.713 122.463 86.748 122.328 87.984 122.379C89.22 122.43 90.246 122.655 90.411 122.904C90.4281 122.885 90.4387 122.861 90.441 122.835C90.441 122.568 89.355 122.298 87.99 122.235C86.625 122.172 85.521 122.358 85.5 122.625Z" fill="#2970E8"/>
<path opacity="0.4" d="M85.533 122.7C85.701 122.949 86.733 123.171 87.957 123.225C89.181 123.279 90.234 123.141 90.42 122.907C90.255 122.658 89.235 122.436 87.993 122.382C86.751 122.328 85.722 122.463 85.533 122.7Z" fill="#2970E8"/>
<path d="M85.134 122.271C85.116 122.667 86.37 123.042 87.933 123.108C89.496 123.174 90.777 122.907 90.795 122.508C90.813 122.109 89.556 121.737 87.993 121.671C86.43 121.605 85.149 121.875 85.134 122.271Z" fill="#2970E8"/>
<path d="M85.0555 121.183L85.0268 121.9L90.6938 122.127L90.7225 121.41L85.0555 121.183Z" fill="#2970E8"/>
<path d="M85.1639 121.554C85.1459 121.95 86.3999 122.325 87.9629 122.391C89.5259 122.457 90.8069 122.19 90.8249 121.791C90.8429 121.392 89.5859 121.02 88.0229 120.954C86.4599 120.888 85.1789 121.158 85.1639 121.554Z" fill="#2970E8"/>
<path opacity="0.4" d="M85.1639 121.554C85.1459 121.95 86.3999 122.325 87.9629 122.391C89.5259 122.457 90.8069 122.19 90.8249 121.791C90.8429 121.392 89.5859 121.02 88.0229 120.954C86.4599 120.888 85.1789 121.158 85.1639 121.554Z" fill="white"/>
<path d="M85.524 121.542C85.5246 121.567 85.533 121.591 85.548 121.611C85.737 121.377 86.772 121.242 88.008 121.293C89.244 121.344 90.27 121.572 90.435 121.818C90.4534 121.8 90.4641 121.775 90.465 121.749C90.465 121.482 89.382 121.212 88.014 121.149C86.646 121.086 85.536 121.272 85.524 121.542Z" fill="#2970E8"/>
<path opacity="0.4" d="M85.524 121.542C85.5246 121.567 85.533 121.591 85.548 121.611C85.737 121.377 86.772 121.242 88.008 121.293C89.244 121.344 90.27 121.572 90.435 121.818C90.4534 121.8 90.4641 121.775 90.465 121.749C90.465 121.482 89.382 121.212 88.014 121.149C86.646 121.086 85.536 121.272 85.524 121.542Z" fill="#2970E8"/>
<path opacity="0.4" d="M85.548 121.611C85.716 121.86 86.748 122.082 87.975 122.136C89.202 122.19 90.249 122.052 90.435 121.818C90.27 121.572 89.25 121.347 88.008 121.293C86.766 121.239 85.737 121.377 85.548 121.611Z" fill="#2970E8"/>
<path d="M83.97 121.383C83.952 121.779 85.206 122.154 86.769 122.22C88.332 122.286 89.613 122.019 89.631 121.62C89.649 121.221 88.395 120.849 86.832 120.783C85.269 120.717 84 120.987 83.97 121.383Z" fill="#2970E8"/>
<path d="M84.004 120.673L83.9734 121.389L89.6353 121.63L89.6658 120.914L84.004 120.673Z" fill="#2970E8"/>
<path d="M83.9999 120.666C83.9819 121.062 85.2359 121.437 86.7989 121.503C88.3619 121.569 89.6429 121.302 89.6609 120.903C89.6789 120.504 88.425 120.132 86.8619 120.066C85.2989 120 84.0179 120.27 83.9999 120.666Z" fill="#2970E8"/>
<path opacity="0.4" d="M83.9999 120.666C83.9819 121.062 85.2359 121.437 86.7989 121.503C88.3619 121.569 89.6429 121.302 89.6609 120.903C89.6789 120.504 88.425 120.132 86.8619 120.066C85.2989 120 84.0179 120.27 83.9999 120.666Z" fill="white"/>
<path d="M84.36 120.654C84.3606 120.679 84.369 120.703 84.384 120.723C84.576 120.492 85.611 120.354 86.847 120.408C88.083 120.462 89.106 120.684 89.271 120.93C89.2892 120.913 89.3 120.889 89.301 120.864C89.301 120.594 88.218 120.327 86.853 120.264C85.488 120.201 84.372 120.384 84.36 120.654Z" fill="#2970E8"/>
<path opacity="0.4" d="M84.36 120.654C84.3606 120.679 84.369 120.703 84.384 120.723C84.576 120.492 85.611 120.354 86.847 120.408C88.083 120.462 89.106 120.684 89.271 120.93C89.2892 120.913 89.3 120.889 89.301 120.864C89.301 120.594 88.218 120.327 86.853 120.264C85.488 120.201 84.372 120.384 84.36 120.654Z" fill="#2970E8"/>
<path opacity="0.4" d="M84.384 120.723C84.555 120.972 85.584 121.197 86.811 121.248C88.038 121.299 89.085 121.164 89.271 120.93C89.106 120.684 88.086 120.459 86.847 120.408C85.608 120.357 84.576 120.492 84.384 120.723Z" fill="#2970E8"/>
<path d="M91.2779 123.543C91.1129 123.894 92.0969 124.701 93.4739 125.343C94.8509 125.985 96.1019 126.243 96.2639 125.883C96.4259 125.523 95.4449 124.728 94.0679 124.083C92.6909 123.438 91.4399 123.195 91.2779 123.543Z" fill="#2970E8"/>
<path d="M91.576 122.922L91.2787 123.554L96.2664 125.898L96.5637 125.266L91.576 122.922Z" fill="#2970E8"/>
<path d="M91.5749 122.913C91.4099 123.261 92.3939 124.068 93.7709 124.713C95.1479 125.358 96.3989 125.613 96.5609 125.253C96.7229 124.893 95.7419 124.095 94.3649 123.453C92.9879 122.811 91.7369 122.562 91.5749 122.913Z" fill="#2970E8"/>
<path opacity="0.4" d="M91.5749 122.913C91.4099 123.261 92.3939 124.068 93.7709 124.713C95.1479 125.358 96.3989 125.613 96.5609 125.253C96.7229 124.893 95.7419 124.095 94.3649 123.453C92.9879 122.811 91.7369 122.562 91.5749 122.913Z" fill="white"/>
<path d="M91.902 123.036C91.8929 123.059 91.8929 123.085 91.902 123.108C92.157 122.973 93.138 123.237 94.227 123.75C95.316 124.263 96.15 124.848 96.207 125.133C96.2295 125.123 96.2475 125.104 96.258 125.082C96.369 124.845 95.487 124.182 94.284 123.627C93.081 123.072 92.013 122.802 91.902 123.036Z" fill="#2970E8"/>
<path opacity="0.4" d="M91.902 123.036C91.8929 123.059 91.8929 123.085 91.902 123.108C92.157 122.973 93.138 123.237 94.227 123.75C95.316 124.263 96.15 124.848 96.207 125.133C96.2295 125.123 96.2475 125.104 96.258 125.082C96.369 124.845 95.487 124.182 94.284 123.627C93.081 123.072 92.013 122.802 91.902 123.036Z" fill="#2970E8"/>
<path opacity="0.4" d="M91.899 123.108C91.956 123.408 92.799 123.978 93.876 124.491C94.953 125.004 95.949 125.271 96.204 125.133C96.147 124.848 95.304 124.263 94.224 123.75C93.144 123.237 92.154 122.973 91.899 123.108Z" fill="#2970E8"/>
<path d="M88.3829 124.782C88.3679 125.166 89.583 125.529 91.107 125.595C92.631 125.661 93.873 125.4 93.891 125.016C93.909 124.632 92.691 124.266 91.167 124.2C89.643 124.134 88.4009 124.395 88.3829 124.782Z" fill="#2970E8"/>
<path d="M88.4091 124.073L88.3795 124.772L93.8855 125.005L93.9151 124.307L88.4091 124.073Z" fill="#2970E8"/>
<path d="M88.413 124.083C88.413 124.467 89.613 124.833 91.137 124.899C92.661 124.965 93.903 124.701 93.918 124.317C93.933 123.933 92.718 123.567 91.197 123.504C89.676 123.441 88.431 123.699 88.413 124.083Z" fill="#2970E8"/>
<path opacity="0.4" d="M88.413 124.083C88.413 124.467 89.613 124.833 91.137 124.899C92.661 124.965 93.903 124.701 93.918 124.317C93.933 123.933 92.718 123.567 91.197 123.504C89.676 123.441 88.431 123.699 88.413 124.083Z" fill="white"/>
<path d="M88.764 124.071C88.7642 124.096 88.7726 124.12 88.788 124.14C88.974 123.912 89.988 123.78 91.188 123.84C92.388 123.9 93.387 124.11 93.546 124.35C93.5642 124.333 93.575 124.309 93.576 124.284C93.576 124.023 92.52 123.762 91.194 123.705C89.868 123.648 88.776 123.81 88.764 124.071Z" fill="#2970E8"/>
<path opacity="0.4" d="M88.764 124.071C88.7642 124.096 88.7726 124.12 88.788 124.14C88.974 123.912 89.988 123.78 91.188 123.84C92.388 123.9 93.387 124.11 93.546 124.35C93.5642 124.333 93.575 124.309 93.576 124.284C93.576 124.023 92.52 123.762 91.194 123.705C89.868 123.648 88.776 123.81 88.764 124.071Z" fill="#2970E8"/>
<path opacity="0.4" d="M88.8 124.14C88.965 124.38 89.955 124.599 91.158 124.65C92.361 124.701 93.372 124.569 93.558 124.35C93.399 124.11 92.406 123.891 91.2 123.84C89.994 123.789 88.974 123.9 88.8 124.14Z" fill="#2970E8"/>
<path d="M39.879 47.7V49.5C41.0127 49.5906 42.0889 50.0368 42.954 50.775L44.235 49.494C43.0253 48.4245 41.4911 47.7926 39.879 47.7Z" fill="#2970E8"/>
<path d="M39 60.327C37.7175 60.2242 36.5135 59.6681 35.6037 58.7583C34.694 57.8485 34.1379 56.6445 34.035 55.362H32.235C32.3408 57.1228 33.0872 58.784 34.3334 60.0324C35.5796 61.2808 37.2395 62.0301 39 62.139V60.327Z" fill="#2970E8"/>
<path d="M34.041 54.486C34.1448 53.2049 34.7005 52.0023 35.6088 51.0929C36.5171 50.1834 37.719 49.6264 39 49.521V47.721C37.2375 47.8277 35.5751 48.576 34.3265 49.8245C33.078 51.0731 32.3297 52.7355 32.223 54.498L34.041 54.486Z" fill="#2970E8"/>
<path opacity="0.2" d="M34.041 54.486C34.1448 53.2049 34.7005 52.0023 35.6088 51.0929C36.5171 50.1834 37.719 49.6264 39 49.521V47.721C37.2375 47.8277 35.5751 48.576 34.3265 49.8245C33.078 51.0731 32.3297 52.7355 32.223 54.498L34.041 54.486Z" fill="black"/>
<path d="M44.853 50.133L43.572 51.414C44.2189 52.1738 44.6434 53.0975 44.7987 54.0832C44.9539 55.0689 44.834 56.0783 44.452 57.0002C44.0701 57.9221 43.4409 58.7205 42.634 59.3076C41.8271 59.8946 40.8737 60.2474 39.879 60.327V62.127C41.2305 62.0444 42.5317 61.5838 43.6341 60.7977C44.7366 60.0116 45.596 58.9316 46.1145 57.6808C46.633 56.4299 46.7896 55.0586 46.5666 53.7231C46.3435 52.3875 45.7498 51.1415 44.853 50.127V50.133Z" fill="#2970E8"/>
<g opacity="0.8">
<path d="M39.879 47.7V49.5C41.0127 49.5906 42.0889 50.0368 42.954 50.775L44.235 49.494C43.0253 48.4245 41.4911 47.7926 39.879 47.7Z" fill="white"/>
</g>
<g opacity="0.6">
<path d="M39 60.327C37.7175 60.2242 36.5135 59.6681 35.6037 58.7583C34.694 57.8485 34.1379 56.6445 34.035 55.362H32.235C32.3408 57.1228 33.0872 58.784 34.3334 60.0324C35.5796 61.2808 37.2395 62.0301 39 62.139V60.327Z" fill="white"/>
</g>
<g opacity="0.7">
<path d="M34.041 54.486C34.1448 53.2049 34.7005 52.0023 35.6088 51.0929C36.5171 50.1834 37.719 49.6264 39 49.521V47.721C37.2375 47.8277 35.5751 48.576 34.3265 49.8245C33.078 51.0731 32.3297 52.7355 32.223 54.498L34.041 54.486Z" fill="white"/>
</g>
<path opacity="0.5" d="M44.853 50.133L43.572 51.414C44.2189 52.1738 44.6434 53.0975 44.7987 54.0832C44.9539 55.0689 44.834 56.0783 44.452 57.0002C44.0701 57.9221 43.4409 58.7205 42.634 59.3076C41.8271 59.8946 40.8737 60.2474 39.879 60.327V62.127C41.2305 62.0444 42.5317 61.5838 43.6341 60.7977C44.7366 60.0116 45.596 58.9316 46.1145 57.6808C46.633 56.4299 46.7896 55.0586 46.5666 53.7231C46.3435 52.3875 45.7498 51.1415 44.853 50.127V50.133Z" fill="white"/>
<path d="M52.59 45.798L54.885 48.912L68.109 43.422L81 48.006L92.679 40.455L93.516 41.565L96.291 37.023L90.072 36.537L91.026 37.794L79.338 45.276L66.639 40.77L52.59 45.798Z" fill="#2970E8"/>
<g opacity="0.5">
<path d="M52.59 45.798L54.885 48.912L68.109 43.422L81 48.006L92.679 40.455L93.516 41.565L96.291 37.023L90.072 36.537L91.026 37.794L79.338 45.276L66.639 40.77L52.59 45.798Z" fill="white"/>
</g>
<path d="M106.8 47.736C106.224 47.736 105.662 47.9067 105.183 48.2264C104.705 48.5462 104.332 49.0007 104.112 49.5324C103.891 50.0641 103.834 50.6493 103.946 51.2137C104.058 51.7782 104.335 52.2967 104.742 52.7037C105.149 53.1107 105.668 53.3878 106.232 53.5001C106.797 53.6124 107.382 53.5548 107.914 53.3345C108.445 53.1143 108.9 52.7413 109.22 52.2627C109.539 51.7842 109.71 51.2216 109.71 50.646C109.71 49.8742 109.403 49.1341 108.858 48.5883C108.312 48.0426 107.572 47.736 106.8 47.736ZM106.8 52.101C106.512 52.1016 106.231 52.0168 105.991 51.8573C105.751 51.6978 105.564 51.4707 105.454 51.2049C105.343 50.9391 105.314 50.6465 105.37 50.364C105.425 50.0816 105.564 49.822 105.767 49.6183C105.97 49.4145 106.23 49.2756 106.512 49.2192C106.794 49.1628 107.087 49.1915 107.353 49.3015C107.619 49.4115 107.847 49.598 108.007 49.8374C108.167 50.0767 108.252 50.3581 108.252 50.646C108.251 51.0312 108.098 51.4003 107.826 51.6729C107.554 51.9455 107.185 52.0994 106.8 52.101Z" fill="#2970E8"/>
<path d="M114.135 56.274C113.559 56.2735 112.996 56.4436 112.518 56.763C112.039 57.0824 111.665 57.5367 111.444 58.0684C111.224 58.6 111.166 59.1852 111.278 59.7499C111.39 60.3146 111.666 60.8334 112.073 61.2407C112.48 61.6479 112.999 61.9254 113.563 62.0379C114.128 62.1504 114.713 62.093 115.245 61.8728C115.777 61.6527 116.232 61.2797 116.551 60.8011C116.871 60.3225 117.042 59.7597 117.042 59.184C117.042 58.4128 116.736 57.6731 116.191 57.1274C115.646 56.5818 114.906 56.2748 114.135 56.274ZM114.135 60.636C113.847 60.6366 113.565 60.5517 113.326 60.3921C113.086 60.2324 112.899 60.0052 112.788 59.7392C112.678 59.4733 112.649 59.1805 112.705 58.8979C112.761 58.6154 112.9 58.3559 113.103 58.1522C113.307 57.9485 113.566 57.8099 113.849 57.7539C114.131 57.6978 114.424 57.7269 114.69 57.8374C114.956 57.9479 115.183 58.1348 115.343 58.3746C115.503 58.6143 115.588 58.896 115.587 59.184C115.586 59.5689 115.433 59.9378 115.161 60.2099C114.889 60.482 114.52 60.6353 114.135 60.636Z" fill="#2970E8"/>
<path d="M107.889 62.094H105.954L112.677 47.736H114.612L107.889 62.094Z" fill="#2970E8"/>
<g opacity="0.5">
<path d="M106.8 47.736C106.224 47.736 105.662 47.9067 105.183 48.2264C104.705 48.5462 104.332 49.0007 104.112 49.5324C103.891 50.0641 103.834 50.6493 103.946 51.2137C104.058 51.7782 104.335 52.2967 104.742 52.7037C105.149 53.1107 105.668 53.3878 106.232 53.5001C106.797 53.6124 107.382 53.5548 107.914 53.3345C108.445 53.1143 108.9 52.7413 109.22 52.2627C109.539 51.7842 109.71 51.2216 109.71 50.646C109.71 49.8742 109.403 49.1341 108.858 48.5883C108.312 48.0426 107.572 47.736 106.8 47.736ZM106.8 52.101C106.512 52.1016 106.231 52.0168 105.991 51.8573C105.751 51.6978 105.564 51.4707 105.454 51.2049C105.343 50.9391 105.314 50.6465 105.37 50.364C105.425 50.0816 105.564 49.822 105.767 49.6183C105.97 49.4145 106.23 49.2756 106.512 49.2192C106.794 49.1628 107.087 49.1915 107.353 49.3015C107.619 49.4115 107.847 49.598 108.007 49.8374C108.167 50.0767 108.252 50.3581 108.252 50.646C108.251 51.0312 108.098 51.4003 107.826 51.6729C107.554 51.9455 107.185 52.0994 106.8 52.101Z" fill="white"/>
<path d="M114.135 56.274C113.559 56.2735 112.996 56.4436 112.518 56.763C112.039 57.0824 111.665 57.5367 111.444 58.0684C111.224 58.6 111.166 59.1852 111.278 59.7499C111.39 60.3146 111.666 60.8334 112.073 61.2407C112.48 61.6479 112.999 61.9254 113.563 62.0379C114.128 62.1504 114.713 62.093 115.245 61.8728C115.777 61.6527 116.232 61.2797 116.551 60.8011C116.871 60.3225 117.042 59.7597 117.042 59.184C117.042 58.4128 116.736 57.6731 116.191 57.1274C115.646 56.5818 114.906 56.2748 114.135 56.274ZM114.135 60.636C113.847 60.6366 113.565 60.5517 113.326 60.3921C113.086 60.2324 112.899 60.0052 112.788 59.7392C112.678 59.4733 112.649 59.1805 112.705 58.8979C112.761 58.6154 112.9 58.3559 113.103 58.1522C113.307 57.9485 113.566 57.8099 113.849 57.7539C114.131 57.6978 114.424 57.7269 114.69 57.8374C114.956 57.9479 115.183 58.1348 115.343 58.3746C115.503 58.6143 115.588 58.896 115.587 59.184C115.586 59.5689 115.433 59.9378 115.161 60.2099C114.889 60.482 114.52 60.6353 114.135 60.636Z" fill="white"/>
<path d="M107.889 62.094H105.954L112.677 47.736H114.612L107.889 62.094Z" fill="white"/>
</g>
</svg>
