<svg width="30" height="30" viewBox="0 0 30 30" fill="none" xmlns="http://www.w3.org/2000/svg">
<path d="M24.9625 10.9375H21.2875C19.7 10.9375 18.75 9.9875 18.75 8.4V4.725C18.75 3.1375 19.7 2.1875 21.2875 2.1875H24.9625C26.55 2.1875 27.5 3.1375 27.5 4.725V8.4C27.5 9.9875 26.55 10.9375 24.9625 10.9375ZM25.2375 6.8C25.0875 6.65 24.8875 6.575 24.6875 6.575C24.4875 6.575 24.2875 6.65 24.1375 6.8L23.9125 7.025V4.225C23.9125 3.7875 23.5625 3.4375 23.125 3.4375C22.6875 3.4375 22.3375 3.7875 22.3375 4.225V7.025L22.1125 6.8C21.8125 6.5 21.3125 6.5 21.0125 6.8C20.7125 7.1 20.7125 7.6 21.0125 7.9L22.575 9.4625C22.6375 9.525 22.725 9.575 22.8125 9.6125C22.8375 9.625 22.8625 9.625 22.8875 9.6375C22.95 9.6625 23.0125 9.675 23.0875 9.675C23.1125 9.675 23.1375 9.675 23.1625 9.675C23.25 9.675 23.325 9.6625 23.4125 9.625C23.425 9.625 23.425 9.625 23.4375 9.625C23.525 9.5875 23.6 9.5375 23.6625 9.475C23.675 9.4625 23.675 9.4625 23.6875 9.4625L25.25 7.9C25.55 7.6 25.55 7.1 25.2375 6.8Z" fill="#0F3F62"/>
<path d="M2.5 14.325V20.575C2.5 23.4375 4.8125 25.75 7.675 25.75H22.3125C25.175 25.75 27.5 23.425 27.5 20.5625V14.325C27.5 13.4875 26.825 12.8125 25.9875 12.8125H4.0125C3.175 12.8125 2.5 13.4875 2.5 14.325ZM10 21.5625H7.5C6.9875 21.5625 6.5625 21.1375 6.5625 20.625C6.5625 20.1125 6.9875 19.6875 7.5 19.6875H10C10.5125 19.6875 10.9375 20.1125 10.9375 20.625C10.9375 21.1375 10.5125 21.5625 10 21.5625ZM18.125 21.5625H13.125C12.6125 21.5625 12.1875 21.1375 12.1875 20.625C12.1875 20.1125 12.6125 19.6875 13.125 19.6875H18.125C18.6375 19.6875 19.0625 20.1125 19.0625 20.625C19.0625 21.1375 18.6375 21.5625 18.125 21.5625Z" fill="#0F3F62"/>
<path d="M16.875 5.7625V9.425C16.875 10.2625 16.2 10.9375 15.3625 10.9375H4.0125C3.1625 10.9375 2.5 10.2375 2.5 9.4C2.5125 7.9875 3.075 6.7 4.0125 5.7625C4.95 4.825 6.25 4.25 7.675 4.25H15.3625C16.2 4.25 16.875 4.925 16.875 5.7625Z" fill="#0F3F62"/>
</svg>
