<svg width="30" height="30" viewBox="0 0 30 30" fill="none" xmlns="http://www.w3.org/2000/svg">
<path d="M24.9625 2.1875H21.2875C19.7 2.1875 18.75 3.1375 18.75 4.725V8.4C18.75 9.9875 19.7 10.9375 21.2875 10.9375H24.9625C26.55 10.9375 27.5 9.9875 27.5 8.4V4.725C27.5 3.1375 26.55 2.1875 24.9625 2.1875ZM25.2375 6.325C25.0875 6.475 24.8875 6.55 24.6875 6.55C24.4875 6.55 24.2875 6.475 24.1375 6.325L23.9125 6.1V8.9C23.9125 9.3375 23.5625 9.6875 23.125 9.6875C22.6875 9.6875 22.3375 9.3375 22.3375 8.9V6.1L22.1125 6.325C21.8125 6.625 21.3125 6.625 21.0125 6.325C20.7125 6.025 20.7125 5.525 21.0125 5.225L22.575 3.6625C22.6375 3.6 22.725 3.55 22.8125 3.5125C22.8375 3.5 22.8625 3.5 22.8875 3.4875C22.95 3.4625 23.0125 3.45 23.0875 3.45C23.1125 3.45 23.1375 3.45 23.1625 3.45C23.25 3.45 23.325 3.4625 23.4125 3.5C23.425 3.5 23.425 3.5 23.4375 3.5C23.525 3.5375 23.6 3.5875 23.6625 3.65C23.675 3.6625 23.675 3.6625 23.6875 3.6625L25.25 5.225C25.55 5.525 25.55 6.025 25.2375 6.325Z" fill="#0F3F62"/>
<path d="M2.5 14.325V20.575C2.5 23.4375 4.8125 25.75 7.675 25.75H22.3125C25.175 25.75 27.5 23.425 27.5 20.5625V14.325C27.5 13.4875 26.825 12.8125 25.9875 12.8125H4.0125C3.175 12.8125 2.5 13.4875 2.5 14.325ZM10 21.5625H7.5C6.9875 21.5625 6.5625 21.1375 6.5625 20.625C6.5625 20.1125 6.9875 19.6875 7.5 19.6875H10C10.5125 19.6875 10.9375 20.1125 10.9375 20.625C10.9375 21.1375 10.5125 21.5625 10 21.5625ZM18.125 21.5625H13.125C12.6125 21.5625 12.1875 21.1375 12.1875 20.625C12.1875 20.1125 12.6125 19.6875 13.125 19.6875H18.125C18.6375 19.6875 19.0625 20.1125 19.0625 20.625C19.0625 21.1375 18.6375 21.5625 18.125 21.5625Z" fill="#0F3F62"/>
<path d="M16.875 5.7625V9.425C16.875 10.2625 16.2 10.9375 15.3625 10.9375H4.0125C3.1625 10.9375 2.5 10.2375 2.5 9.4C2.5125 7.9875 3.075 6.7 4.0125 5.7625C4.95 4.825 6.25 4.25 7.675 4.25H15.3625C16.2 4.25 16.875 4.925 16.875 5.7625Z" fill="#0F3F62"/>
</svg>
