<svg width="25" height="24" viewBox="0 0 25 24" fill="none" xmlns="http://www.w3.org/2000/svg">
<path d="M18.72 3H6.49567C4.24436 3 2.4209 4.78 2.4209 6.97V17.03C2.4209 19.22 4.24436 21 6.49567 21H18.72C20.9713 21 22.7947 19.22 22.7947 17.03V6.97C22.7947 4.78 20.9713 3 18.72 3ZM9.04239 7.17C10.3361 7.17 11.3956 8.21 11.3956 9.48C11.3956 10.75 10.3361 11.79 9.04239 11.79C7.74866 11.79 6.68922 10.75 6.68922 9.48C6.68922 8.21 7.74866 7.17 9.04239 7.17ZM12.9847 16.66C12.893 16.76 12.7504 16.82 12.6078 16.82H5.47697C5.33436 16.82 5.19174 16.76 5.10006 16.66C5.00838 16.56 4.95744 16.42 4.96763 16.28C5.14081 14.6 6.50585 13.27 8.21725 13.11C8.75716 13.06 9.31744 13.06 9.85735 13.11C11.5687 13.27 12.944 14.6 13.107 16.28C13.1273 16.42 13.0764 16.56 12.9847 16.66ZM19.7387 16.75H17.7013C17.2836 16.75 16.9373 16.41 16.9373 16C16.9373 15.59 17.2836 15.25 17.7013 15.25H19.7387C20.1563 15.25 20.5027 15.59 20.5027 16C20.5027 16.41 20.1563 16.75 19.7387 16.75ZM19.7387 12.75H15.6639C15.2462 12.75 14.8999 12.41 14.8999 12C14.8999 11.59 15.2462 11.25 15.6639 11.25H19.7387C20.1563 11.25 20.5027 11.59 20.5027 12C20.5027 12.41 20.1563 12.75 19.7387 12.75ZM19.7387 8.75H14.6452C14.2275 8.75 13.8812 8.41 13.8812 8C13.8812 7.59 14.2275 7.25 14.6452 7.25H19.7387C20.1563 7.25 20.5027 7.59 20.5027 8C20.5027 8.41 20.1563 8.75 19.7387 8.75Z" fill="#37474F"/>
</svg>
